<?xml version="1.0" standalone="no"?>
<!DOCTYPE svg PUBLIC "-//W3C//DTD SVG 1.1//EN" "http://www.w3.org/Graphics/SVG/1.1/DTD/svg11.dtd" >
<svg xmlns="http://www.w3.org/2000/svg" xmlns:xlink="http://www.w3.org/1999/xlink" version="1.1">
<metadata>
Created by FontForge 20170731 at Thu Dec 10 06:46:30 2020
 By Aleksey,,,
Font software Copyright 2001 Adobe Systems Incorporated. Typeface designs Copyright The Monotype Corporation. All Rights Reserved.
</metadata>
<defs>
<font id="GillSansMTPro-Bold" horiz-adv-x="681" >
  <font-face 
    font-family="Gill Sans MT Pro Medium"
    font-weight="700"
    font-stretch="normal"
    units-per-em="2048"
    panose-1="2 11 8 2 2 1 4 2 2 3"
    ascent="1638"
    descent="-410"
    x-height="944"
    cap-height="1397"
    bbox="-362 -492 2390 1960"
    underline-thickness="102"
    underline-position="-307"
    unicode-range="U+0020-FB04"
  />
<missing-glyph horiz-adv-x="1024" 
d="M25 0v1362h972v-1362h-972zM180 1266l332 -498l330 498h-662zM123 1178v-992q0 -1 82.5 123t164.5 249l83 124zM901 1178l-332 -496l332 -498v994zM842 98l-330 496l-332 -496h662z" />
    <glyph glyph-name="f_f" unicode="ff" horiz-adv-x="1257" 
d="M1233 944v-199h-146v-745h-292v745h-332v-745h-297v745h-135v199h135q3 66 6.5 104.5t14 88t32 89t55.5 74.5q112 115 306 115q56 0 170 -16l14 -2v-240q-7 1 -32.5 4t-53.5 5.5t-51 2.5q-34 0 -60.5 -7.5t-43.5 -17t-29 -29.5t-18 -35t-9 -43.5t-3.5 -44.5t-0.5 -48h332
q0 185 57 293q26 48 68 84t81 53.5t84.5 27.5t68 11.5t42.5 1.5q90 0 203 -18v-240q-31 5 -65.5 8.5t-53.5 4.5l-18 1q-44 0 -76 -12t-50.5 -30.5t-29 -49.5t-14.5 -61t-5 -74h146z" />
    <glyph glyph-name="fi" unicode="fi" horiz-adv-x="1200" 
d="M643 944v-199h-190v-745h-299v745h-123v199h123q0 49 0.5 74.5t15.5 96t45 124.5q26 47 67.5 82t80.5 52t85 27.5t72.5 12.5t52.5 2q69 0 134 -18v-234q-41 6 -74 6q-37 0 -66.5 -8.5t-48 -20.5t-32 -33t-19.5 -37.5t-9.5 -43.5t-4 -41.5t-0.5 -40.5h190zM926 1417
q66 0 113.5 -47.5t47.5 -114.5q0 -66 -47 -113.5t-114 -47.5q-68 0 -115 47t-47 114t48 114.5t114 47.5zM1075 944v-944h-295v944h295z" />
    <glyph glyph-name="fl" unicode="fl" horiz-adv-x="1202" 
d="M1075 1397v-1397h-295v1397h295zM641 944v-199h-190v-745h-297v745h-123v199h123q-8 171 61 295q26 47 67 82t80 52t85 27.5t73 12.5t53 2q64 0 134 -18v-234q-41 6 -74 6q-38 0 -67.5 -8.5t-48.5 -20.5t-32 -33t-19.5 -37.5t-10 -43.5t-4 -41.5t-0.5 -40.5h190z" />
    <glyph glyph-name="f_f_i" unicode="ffi" horiz-adv-x="1822" 
d="M1266 944v-199h-191v-745h-299v745h-327v-745h-297v745h-121v199h121q-1 78 10.5 145t41.5 128.5t77 104t120.5 68t167.5 25.5q79 0 133 -18v-232q-54 6 -67 6q-103 0 -143.5 -52.5t-42.5 -174.5h327q2 48 4 77t12 84.5t26 91.5t47.5 81.5t75 72t111 45.5t152.5 19
q73 0 125 -18v-232q-60 6 -74 6q-48 0 -83 -14t-53.5 -34.5t-29 -53t-13 -60.5t-1.5 -65h191zM1548 1417q66 0 114 -47.5t48 -114.5q0 -66 -47.5 -113.5t-114.5 -47.5t-114.5 47.5t-47.5 113.5t47.5 114t114.5 48zM1700 944v-944h-295v944h295z" />
    <glyph glyph-name="f_f_l" unicode="ffl" horiz-adv-x="1832" 
d="M1706 1397v-1397h-295v1397h295zM1268 944v-199h-193v-745h-297v745h-329v-745h-295v745h-123v199h123q-2 78 9.5 145t41 128.5t76.5 104t121 68t169 25.5q74 0 134 -18v-232q-54 6 -70 6q-103 0 -143.5 -52.5t-42.5 -174.5h329q6 155 36 237q84 234 390 234
q75 0 127 -18v-232q-60 6 -76 6q-48 0 -82.5 -14t-53 -34.5t-29 -53.5t-13 -60t-2.5 -65h193z" />
    <glyph glyph-name=".notdef" horiz-adv-x="1024" 
d="M25 0v1362h972v-1362h-972zM180 1266l332 -498l330 498h-662zM123 1178v-992q0 -1 82.5 123t164.5 249l83 124zM901 1178l-332 -496l332 -498v994zM842 98l-330 496l-332 -496h662z" />
    <glyph glyph-name=".null" horiz-adv-x="0" 
 />
    <glyph glyph-name="nonmarkingreturn" horiz-adv-x="682" 
 />
    <glyph glyph-name="space" unicode=" " horiz-adv-x="569" 
 />
    <glyph glyph-name="exclam" unicode="!" horiz-adv-x="555" 
d="M455 158q0 -66 -49.5 -121t-126.5 -55q-73 0 -126 53.5t-53 124.5q0 70 51 123t125 53q77 0 128 -53.5t51 -124.5zM451 1157q0 -74 -34 -298t-79 -378q-11 -39 -22.5 -50t-45.5 -11q-27 0 -36.5 15t-26.5 83q-28 111 -63 328.5t-35 355.5q0 39 8.5 74.5t27 67.5
t52.5 51.5t79 19.5q36 0 64.5 -10t46.5 -24t31 -38t19 -43.5t9.5 -50t4 -47.5t0.5 -45z" />
    <glyph glyph-name="quotedbl" unicode="&#x22;" horiz-adv-x="980" 
d="M612 877l-49 272v248h305v-248l-49 -272h-207zM162 877l-49 272v248h305v-248l-49 -272h-207z" />
    <glyph glyph-name="numbersign" unicode="#" horiz-adv-x="1366" 
d="M72 897h299l78 371h229l-78 -371h315l78 371h228l-78 -371h151v-227h-196l-56 -264h252v-226h-301l-78 -368h-227l76 368h-315l-78 -368h-230l78 368h-147v226h194l56 264h-250v227zM866 670h-313l-55 -264h313z" />
    <glyph glyph-name="dollar" unicode="$" horiz-adv-x="1110" 
d="M956 1237v-252q-96 69 -168 96.5t-151 38.5v-332q106 -34 184 -83t122 -105t64.5 -112.5t20.5 -114.5q0 -45 -12 -91.5t-41.5 -96t-73 -89.5t-112 -71t-152.5 -43v-226h-172v226q-74 10 -181.5 50.5t-177.5 90.5v242q112 -81 184.5 -118t174.5 -54v391q-145 38 -234 102
q-62 43 -100.5 122t-38.5 169q0 146 105 246.5t268 117.5v74h172v-74q145 -7 319 -104zM465 850v270q-74 -18 -105.5 -55.5t-31.5 -75.5q0 -92 137 -139zM637 532v-335q85 18 121.5 63t36.5 98q0 116 -158 174z" />
    <glyph glyph-name="percent" unicode="%" horiz-adv-x="1472" 
d="M379 1413q136 0 233 -96.5t97 -233.5q0 -136 -96.5 -232.5t-233.5 -96.5t-233.5 96.5t-96.5 232.5q0 137 96.5 233.5t233.5 96.5zM379 1229q-60 0 -103 -43t-43 -103q0 -62 42.5 -104.5t103.5 -42.5q60 0 102.5 43t42.5 104q0 60 -42.5 103t-102.5 43zM1092 647
q136 0 233.5 -96.5t97.5 -235.5q0 -137 -96.5 -233t-234.5 -96q-137 0 -233.5 96.5t-96.5 232.5q0 138 97.5 235t232.5 97zM1090 459q-61 0 -103.5 -42.5t-42.5 -101.5q0 -60 43 -102.5t103 -42.5t101.5 42.5t41.5 102.5t-41.5 102t-101.5 42zM1305 1415l-979 -1431h-170
l983 1431h166z" />
    <glyph glyph-name="ampersand" unicode="&#x26;" horiz-adv-x="1536" 
d="M1206 307l281 -307h-424l-102 111q-206 -129 -422 -129q-123 0 -227 44t-168 129t-64 195q0 48 14 93.5t33.5 79.5t52 68t57 54.5t61.5 44t52.5 32.5t42.5 23q-40 57 -61.5 91.5t-43.5 96.5t-22 122q0 71 29 135.5t82 115t135 80t182 29.5q98 0 176.5 -28t127 -75
t74.5 -105t26 -122q0 -208 -260 -360l190 -219q91 94 160 219h299q-78 -171 -153 -274q-60 -84 -128 -144zM686 891q30 18 43.5 28t41.5 34t41 52t13 60q0 51 -35 84t-94 33q-51 0 -90 -27.5t-39 -77.5q0 -47 46.5 -106t72.5 -80zM799 291l-248 274q-143 -94 -143 -188
q0 -77 55.5 -121.5t118.5 -44.5q45 0 104 21t113 59z" />
    <glyph glyph-name="quotesingle" unicode="'" horiz-adv-x="491" 
d="M141 877l-49 272v248h307v-248l-51 -272h-207z" />
    <glyph glyph-name="parenleft" unicode="(" horiz-adv-x="788" 
d="M776 -471h-211q-119 92 -211.5 212.5t-148.5 246.5t-84.5 250t-28.5 239q0 131 35 264.5t88.5 238.5t118.5 196.5t124 150.5t107 88h211q-364 -388 -364 -928q0 -296 93 -540t271 -418z" />
    <glyph glyph-name="parenright" unicode=")" horiz-adv-x="788" 
d="M14 1415h209q48 -30 107 -89t124 -150.5t118.5 -196.5t88.5 -238t35 -264q0 -115 -28.5 -239t-84.5 -250t-148.5 -246.5t-211.5 -212.5h-209q179 176 271 421t92 537q0 539 -363 928z" />
    <glyph glyph-name="asterisk" unicode="*" horiz-adv-x="960" 
d="M535 1040l206 222q26 26 50 26q26 0 57 -55l45 -86q16 -24 16 -43q0 -24 -45 -35l-309 -72v-28l279 -62q75 -17 75 -51q0 -25 -16 -49l-59 -100q-6 -14 -19.5 -27.5t-28.5 -13.5q-22 0 -63 47l-188 217l-31 -23l86 -291q8 -21 8 -36q0 -39 -63 -39h-105q-72 0 -72 41
q0 12 11 34l86 291l-25 23l-203 -209q-47 -47 -63 -47q-19 0 -45 47l-53 100q-15 22 -15 47q0 28 47 39l312 62v28l-291 72q-34 9 -50 18.5t-16 26.5q0 22 23 60l55 88q12 22 21.5 30t23.5 8q11 0 20 -6.5t31 -31.5l203 -222l25 13l-86 286q-7 14 -7 39q0 17 12.5 26t24 10
t31.5 1h105q63 0 63 -31q0 -26 -8 -45l-86 -286z" />
    <glyph glyph-name="plus" unicode="+" horiz-adv-x="1193" 
d="M465 186v381h-381v262h381v381h264v-381h381v-262h-381v-381h-264z" />
    <glyph glyph-name="comma" unicode="," horiz-adv-x="555" 
d="M102 -346v63q106 119 93 265q-35 16 -59 39.5t-32.5 49t-11 39t-2.5 25.5q0 69 52.5 113.5t119.5 44.5q76 0 138.5 -60.5t62.5 -173.5q0 -146 -102 -267t-259 -138z" />
    <glyph glyph-name="hyphen" unicode="-" 
d="M608 610v-272h-534v272h534z" />
    <glyph glyph-name="period" unicode="." horiz-adv-x="555" 
d="M455 162q0 -69 -49 -124.5t-127 -55.5q-73 0 -127 53.5t-54 124.5q0 72 52 125t126 53q77 0 128 -52.5t51 -123.5z" />
    <glyph glyph-name="slash" unicode="/" horiz-adv-x="575" 
d="M10 -18l344 1433h211l-348 -1433h-207z" />
    <glyph glyph-name="zero" unicode="0" horiz-adv-x="1130" 
d="M1038 705q0 -162 -27.5 -289.5t-72.5 -207.5t-107.5 -132t-126 -73t-133.5 -21q-209 0 -338 165q-141 183 -141 551q0 123 16.5 226t44.5 175.5t67 129t81 91t90 56.5t90.5 30.5t85.5 8.5q37 0 74.5 -6.5t85 -26t90 -51t84 -86.5t71 -127t48 -178.5t18.5 -234.5zM717 713
q0 167 -18 265.5t-50 136.5t-82 38q-38 0 -66 -24t-44 -62.5t-25.5 -101.5t-12.5 -127.5t-3 -153.5v-47.5t1 -53t3 -58.5t5.5 -57.5t9 -58.5t13.5 -52t19.5 -47t25.5 -35t33 -25t41 -8q102 0 131 166q19 121 19 305z" />
    <glyph glyph-name="one" unicode="1" horiz-adv-x="1130" 
d="M725 1415v-1415h-319v1415h319z" />
    <glyph glyph-name="two" unicode="2" horiz-adv-x="1130" 
d="M1034 285v-285h-923v41q5 5 61.5 78.5t131.5 175t116 160.5q45 65 74.5 111t72 121.5t64.5 146.5t22 133q0 83 -55 139.5t-133 56.5q-64 0 -153.5 -43t-182.5 -131v293q123 78 210 105.5t181 27.5q97 0 174 -23.5t126.5 -62t82.5 -90.5t46.5 -106t13.5 -113
q0 -83 -32 -177t-138 -268q-19 -31 -44.5 -68.5t-52 -73.5t-47 -62.5t-41.5 -54.5t-24 -31h450z" />
    <glyph glyph-name="three" unicode="3" horiz-adv-x="1130" 
d="M154 1108v246q145 61 319 61q192 0 319.5 -92.5t127.5 -249.5q0 -70 -29.5 -138.5t-85.5 -121.5q-40 -38 -92 -63q34 -15 56 -26t62 -42t64 -66t43.5 -95t19.5 -132q0 -80 -26 -147t-72 -114.5t-108.5 -80.5t-136 -49t-154.5 -16q-104 0 -194.5 24t-147.5 55v271
q155 -107 307 -107q87 0 147 52t60 131q0 13 -1.5 26t-13 43t-31.5 52.5t-64.5 44.5t-104.5 28v246q92 8 142 59.5t50 110.5q0 65 -53.5 114.5t-142.5 49.5q-75 0 -154 -27q-8 -3 -31 -13t-47 -21t-28 -13z" />
    <glyph glyph-name="four" unicode="4" horiz-adv-x="1130" 
d="M938 1415v-848h94v-223h-94v-344h-309v344h-545v223l657 848h197zM629 567v381l-299 -381h299z" />
    <glyph glyph-name="five" unicode="5" horiz-adv-x="1130" 
d="M928 1397v-281h-447v-262q6 0 24.5 1t31.5 1q186 0 312 -118.5t126 -311.5q0 -40 -6.5 -83t-35.5 -110.5t-79 -115.5q-135 -135 -385 -135q-106 0 -201.5 25t-136.5 50v254q157 -84 297 -84q57 0 101.5 18.5t69.5 48t37.5 61.5t12.5 65q0 82 -67.5 141.5t-208.5 59.5
q-82 0 -170 -21v797h725z" />
    <glyph glyph-name="six" unicode="6" horiz-adv-x="1130" 
d="M866 1415l-323 -528q46 12 82 12q87 0 161.5 -36.5t124 -97.5t77.5 -140.5t28 -165.5q0 -206 -132 -341.5t-331 -135.5q-93 0 -175.5 32t-147 92.5t-102.5 156t-38 214.5q0 135 48.5 264.5t142.5 282.5l241 391h344zM715 451q0 86 -41.5 145t-116.5 59q-67 0 -109 -54.5
t-42 -156.5t43 -152t110 -50q77 0 116.5 61.5t39.5 147.5z" />
    <glyph glyph-name="seven" unicode="7" horiz-adv-x="1130" 
d="M1061 1397v-17l-510 -1398l-279 106l375 1030h-516v279h930z" />
    <glyph glyph-name="eight" unicode="8" horiz-adv-x="1130" 
d="M825 737q62 -30 103 -69q106 -106 106 -269q0 -56 -14 -110.5t-48.5 -111t-86.5 -99t-135 -69.5t-187 -27q-203 0 -334 113.5t-131 301.5q0 176 121 285q40 35 90 55q-27 18 -40.5 28t-43 39t-45 57t-29.5 75t-14 100q0 77 27 145t79 120.5t134 83t184 30.5q90 0 165 -24
t123.5 -62.5t82.5 -89t48.5 -102t14.5 -103.5q0 -59 -21 -122t-63 -107q-12 -13 -26 -24.5t-22 -17.5t-21.5 -15zM696 1022q0 17 -1 32t-8 45.5t-19.5 51.5t-39.5 38t-65 17q-66 0 -98 -57q-31 -56 -31 -131q0 -11 1 -24t4.5 -38t13 -46t23 -42t38 -33t55.5 -12q10 0 19.5 1
t31 12t36.5 29.5t27.5 59.5t12.5 97zM719 399q0 117 -44 171.5t-108 54.5q-10 0 -21.5 -1.5t-37.5 -13t-45.5 -32t-35 -65t-15.5 -105.5q0 -116 48 -171t109 -55q62 0 106 53t44 164z" />
    <glyph glyph-name="nine" unicode="9" horiz-adv-x="1130" 
d="M225 -18l322 524q-58 -14 -90 -14q-156 0 -270.5 126.5t-114.5 315.5q0 209 135 345t330 136q124 0 228 -58t168 -169.5t64 -253.5q0 -150 -48 -278.5t-136 -274.5l-246 -399h-342zM684 944q0 62 -15.5 106t-41.5 65t-49.5 29.5t-47.5 8.5q-69 0 -113 -59t-44 -150
q0 -104 46 -155.5t109 -51.5q69 0 112.5 59t43.5 148z" />
    <glyph glyph-name="colon" unicode=":" horiz-adv-x="555" 
d="M455 766q0 -72 -51 -127t-128 -55q-74 0 -126 51.5t-52 124.5t51.5 125.5t124.5 52.5q77 0 129 -52t52 -120zM455 160q0 -68 -49 -123t-127 -55q-73 0 -127 53t-54 123q0 71 53.5 125.5t127.5 54.5q78 0 127 -56t49 -122z" />
    <glyph glyph-name="semicolon" unicode=";" horiz-adv-x="555" 
d="M102 -346v63q106 119 93 265q-35 16 -59 39.5t-32.5 49t-11 39t-2.5 25.5q0 69 52.5 113.5t119.5 44.5q76 0 138.5 -60.5t62.5 -173.5q0 -146 -102 -267t-259 -138zM455 766q0 -72 -51 -127t-128 -55q-74 0 -126 51.5t-52 124.5t51.5 125.5t124.5 52.5q77 0 129 -52
t52 -120z" />
    <glyph glyph-name="less" unicode="&#x3c;" horiz-adv-x="1193" 
d="M1110 141l-1026 437v243l1026 434v-284l-711 -269l711 -278v-283z" />
    <glyph glyph-name="equal" unicode="=" horiz-adv-x="1193" 
d="M84 346v262h1026v-262h-1026zM84 788v265h1026v-265h-1026z" />
    <glyph glyph-name="greater" unicode="&#x3e;" horiz-adv-x="1193" 
d="M84 1255l1026 -436v-241l-1026 -437v285l711 268l-711 279v282z" />
    <glyph glyph-name="question" unicode="?" horiz-adv-x="768" 
d="M70 1122h-19l51 252q111 41 238 41q89 0 156.5 -25t106 -67.5t57 -92.5t18.5 -106q0 -46 -11 -91t-23.5 -77t-45.5 -81.5t-52 -75t-67 -88.5q-100 -125 -100 -246q0 -29 -2 -33q-6 -10 -68 -10q-22 0 -33 6t-20 25q-8 15 -17.5 37.5t-20.5 69t-11 89.5q0 75 21 128.5
t79 154.5q32 57 45 90t13 63q0 41 -27 75t-92 34q-85 0 -176 -72zM502 162q0 -70 -50 -125t-126 -55q-74 0 -127.5 53t-53.5 123q0 69 53 122.5t128 53.5q77 0 126.5 -54t49.5 -118z" />
    <glyph glyph-name="at" unicode="@" horiz-adv-x="2004" 
d="M1778 -23h213q-61 -124 -158.5 -213.5t-218 -139.5t-245.5 -72.5t-263 -22.5q-290 0 -526 92q-134 52 -236.5 142.5t-163 201.5t-90 230.5t-29.5 244.5q0 150 37.5 292.5t119 273.5t199.5 229t290.5 156.5t379.5 58.5q199 0 362 -61.5t268.5 -166.5t162.5 -242.5
t57 -293.5q0 -139 -49.5 -271t-134.5 -232.5t-208.5 -162t-262.5 -61.5q-50 0 -85.5 9t-55.5 27t-30 36t-17 43q-115 -115 -275 -115q-164 0 -272.5 115t-108.5 313q0 82 21.5 171t67 175.5t107.5 155t151.5 111t191.5 42.5q181 0 266 -135l25 111h264l-152 -717
q-14 -74 -14 -90q0 -13 4 -23t9 -14t11.5 -6.5t9.5 -3t5 -0.5q30 0 74 23.5t92.5 71t90 109t68.5 147t27 175.5q0 76 -20 152t-69.5 154t-123.5 137.5t-193.5 97t-267.5 37.5q-146 0 -269 -33t-207.5 -86.5t-151 -127.5t-105 -150t-63.5 -160t-34 -151t-9 -130
q0 -104 25.5 -201.5t87.5 -193.5t156 -166.5t242.5 -114t334.5 -43.5q95 0 180.5 11t147.5 27.5t117.5 41.5t91 47.5t68.5 51.5t49 46.5t34 40.5zM696 375q0 -120 55 -177t126 -57q65 0 120 37t89 93t58 124.5t34 128.5t10 109q0 9 -1 21t-5 35.5t-11 44.5t-21 45.5t-33 42
t-49 29t-67 11.5q-63 0 -116 -33.5t-87 -85.5t-58 -118t-34 -129t-10 -121z" />
    <glyph glyph-name="A" unicode="A" horiz-adv-x="1599" 
d="M973 1397l620 -1397h-374l-115 276h-625l-104 -276h-369l563 1397h404zM1001 520l-225 541l-205 -541h430z" />
    <glyph glyph-name="B" unicode="B" horiz-adv-x="1429" 
d="M156 1397h532q64 0 97 -1t82.5 -7t93.5 -19q87 -25 149 -79t89.5 -116t27.5 -126q0 -80 -48.5 -157t-140.5 -124q24 -7 40.5 -13t50 -21.5t57.5 -32.5t53.5 -46t48.5 -62.5t32 -81.5t13 -103q0 -231 -198 -342q-69 -39 -141.5 -52.5t-194.5 -13.5h-643v1397zM647 1147
h-137v-305h131q25 0 39 0.5t42.5 3t46 8t40.5 16.5t36 27t22.5 41t9.5 57q0 36 -11 63.5t-32.5 43.5t-42 26t-52 13.5t-48 4.5t-44.5 1zM666 590h-156v-336h172q36 0 55.5 0.5t55 3.5t56.5 9t48 18t42 29.5t25.5 44.5t10.5 61q0 35 -10.5 62.5t-25 45.5t-42 30.5t-49 18.5
t-59.5 9t-60 3.5t-63 0.5z" />
    <glyph glyph-name="C" unicode="C" horiz-adv-x="1554" 
d="M1434 442v-321q-146 -78 -276 -108.5t-273 -30.5q-158 0 -292.5 39.5t-229 108t-161 159.5t-98.5 193.5t-32 211.5q0 107 32.5 210t101.5 196t166.5 163t237.5 111t305 41q168 0 296.5 -38.5t205.5 -84.5v-321q-27 21 -66.5 42.5t-100.5 48t-143 43.5t-167 17
q-221 0 -363.5 -117t-142.5 -307q0 -100 40.5 -182t109.5 -135t158 -82t188 -29q178 0 370 97z" />
    <glyph glyph-name="D" unicode="D" horiz-adv-x="1640" 
d="M156 1397h569q216 0 379 -56q28 -10 60 -25t77 -43.5t85.5 -64t82.5 -87.5t72.5 -111.5t49.5 -140t19 -169.5q0 -50 -5.5 -100t-26.5 -121.5t-56 -133.5t-100 -128t-152 -113q-102 -55 -217.5 -79.5t-294.5 -24.5h-542v1397zM684 1130h-176v-864h141q135 0 196.5 9.5
t110.5 31.5q109 47 171.5 148.5t62.5 246.5q0 60 -12 115.5t-38 109t-73.5 97t-112.5 70.5q-42 17 -93 25.5t-81.5 9.5t-95.5 1z" />
    <glyph glyph-name="E" unicode="E" horiz-adv-x="1300" 
d="M1190 256v-256h-1030v1397h1016v-260h-664v-283h633v-262h-633v-336h678z" />
    <glyph glyph-name="F" unicode="F" horiz-adv-x="1236" 
d="M1118 1397v-264h-610v-295h610v-265h-610v-573h-352v1397h962z" />
    <glyph glyph-name="G" unicode="G" horiz-adv-x="1646" 
d="M1464 1300v-303q-274 127 -520 127q-194 0 -319 -80q-83 -50 -137 -142t-54 -216q0 -127 66 -223t169.5 -143.5t225.5 -47.5q121 0 250 50v163h-201v260h555v-575q-106 -89 -265.5 -138.5t-332.5 -49.5q-169 0 -319 49t-263.5 139t-180 226.5t-66.5 301.5
q0 215 107.5 378.5t298.5 251t437 87.5q97 0 186.5 -12t164.5 -34t111.5 -35t86.5 -34z" />
    <glyph glyph-name="H" unicode="H" horiz-adv-x="1705" 
d="M1550 1397v-1397h-350v565h-692v-565h-352v1397h352v-561h692v561h350z" />
    <glyph glyph-name="I" unicode="I" 
d="M516 1397v-1397h-352v1397h352z" />
    <glyph glyph-name="J" unicode="J" 
d="M532 1397v-1188q0 -45 -0.5 -71.5t-3.5 -77t-10 -84.5t-18.5 -81.5t-31 -82t-46 -71t-65 -64t-85.5 -46.5q-134 -54 -338 -34v274q21 -6 46 -6q116 0 165 86q20 32 28.5 89t8.5 200v1157h350z" />
    <glyph glyph-name="K" unicode="K" horiz-adv-x="1472" 
d="M1331 1397l-454 -656l618 -741h-436l-555 655v-655h-350v1397h350v-633l444 633h383z" />
    <glyph glyph-name="L" unicode="L" horiz-adv-x="1259" 
d="M1221 260v-260h-1065v1397h352v-1137h713z" />
    <glyph glyph-name="M" unicode="M" horiz-adv-x="1816" 
d="M1661 1397v-1397h-352v854l-375 -451h-51l-375 451v-854h-352v1397h309l442 -531l449 531h305z" />
    <glyph glyph-name="N" unicode="N" horiz-adv-x="1720" 
d="M1565 1397v-1397h-291l-772 864v-864h-346v1397h317l748 -824v824h344z" />
    <glyph glyph-name="O" unicode="O" horiz-adv-x="1746" 
d="M1675 696q0 -82 -22.5 -165.5t-65.5 -163.5t-112 -149.5t-156 -122t-203 -83t-248 -30.5q-118 0 -226.5 27.5t-195 76.5t-157.5 116.5t-118.5 146.5t-73 167.5t-25.5 179.5q0 100 31.5 200t98 194t159.5 166t226 115.5t287 43.5q179 0 332.5 -61t254.5 -162t157.5 -230
t56.5 -266zM1315 688q0 196 -120 313t-323 117q-193 0 -315.5 -113.5t-122.5 -314.5q0 -96 30 -172t76.5 -122.5t107 -77.5t116.5 -42.5t110 -11.5q85 0 163.5 28t140.5 80t99.5 134t37.5 182z" />
    <glyph glyph-name="P" unicode="P" horiz-adv-x="1333" 
d="M156 1397h571q60 0 98 -2t98 -16t109 -40q93 -49 153 -144.5t60 -211.5q0 -109 -53.5 -204t-147.5 -152q-50 -31 -111 -46.5t-101.5 -17.5t-116.5 -2h-207v-561h-352v1397zM631 1139h-123v-322h115q33 0 51 0.5t50 3.5t50.5 9t42.5 18t36.5 29t22 43.5t9.5 60.5
q0 38 -11 66.5t-33.5 45t-44 26.5t-56.5 14t-54.5 5t-54.5 1z" />
    <glyph glyph-name="Q" unicode="Q" horiz-adv-x="1746" 
d="M1669 -61l23 -29l-273 -232q-116 12 -235.5 47t-206 75t-164.5 86t-115 73t-53 41q-121 31 -219.5 89.5t-163 129t-108.5 154t-63 163t-19 156.5q0 100 32 201t99.5 195t160.5 167t226.5 116.5t286.5 43.5q145 0 273.5 -40.5t222.5 -110t162.5 -160.5t103 -194t34.5 -208
q0 -81 -20.5 -162.5t-63 -161t-103 -147.5t-146.5 -122.5t-187 -85.5q57 -36 171.5 -69.5t207.5 -33.5q54 0 137 19zM1315 692q0 32 -5 71.5t-29.5 107t-66.5 114.5q-61 68 -153 103.5t-189 35.5q-83 0 -159.5 -25.5t-140.5 -75.5t-102 -134t-38 -191t37.5 -191.5
t100.5 -136t140.5 -78t163.5 -26.5q191 0 316 116t125 310z" />
    <glyph glyph-name="R" unicode="R" horiz-adv-x="1390" 
d="M156 1397h536q85 0 131 -2.5t114.5 -18.5t121.5 -49q70 -46 126 -132t56 -198q0 -48 -11 -91t-25.5 -73.5t-40.5 -60t-43 -45t-47.5 -34.5t-40 -23.5t-32.5 -16.5q112 -55 201 -262q8 -17 135 -291l47 -100h-383q-15 29 -90 196.5t-90 196.5q-27 51 -54.5 85.5t-49 52.5
t-52 26.5t-49.5 10t-57 1.5h-51v-569h-352v1397zM684 1143h-176v-320h145q73 3 98.5 7t51.5 18q76 40 76 135q0 45 -17.5 77.5t-39 48t-54 24t-48.5 9.5t-36 1z" />
    <glyph glyph-name="S" unicode="S" horiz-adv-x="1232" 
d="M1090 1307v-287q-57 28 -90 42.5t-99.5 40.5t-131.5 39t-128 13q-58 0 -100.5 -11t-63 -25t-32 -33t-13.5 -28.5t-2 -17.5q0 -30 20 -55t75.5 -52t96 -43t138.5 -51l4.5 -1.5t3.5 -1.5q61 -22 108.5 -44.5t102 -60.5t90.5 -82.5t60 -110t24 -143.5q0 -93 -37.5 -167
t-94.5 -119t-132.5 -74.5t-145 -41t-137.5 -11.5q-152 0 -298 50t-195 85v301q61 -38 101.5 -60.5t106.5 -53t135 -45.5t142 -15q17 0 31.5 1t42 4t48.5 11.5t42 21.5t33 36t12 53q0 17 -3.5 31.5t-12.5 27.5t-18.5 23t-29 21t-35.5 19t-47 20t-53.5 20t-64.5 22
q-54 19 -89.5 32.5t-87.5 38t-87 48.5t-74.5 60t-62.5 75.5t-38.5 93.5t-15.5 115q0 81 34 152t98 126t166.5 87t229.5 32q103 0 213 -21.5t261 -86.5z" />
    <glyph glyph-name="T" unicode="T" horiz-adv-x="1472" 
d="M1417 1397v-262h-504v-1135h-354v1135h-506v262h1364z" />
    <glyph glyph-name="U" unicode="U" horiz-adv-x="1685" 
d="M1544 1397v-760q0 -57 -2.5 -96.5t-13 -102.5t-37 -121.5t-68.5 -109.5q-187 -225 -587 -225q-398 0 -588 247q-50 68 -78.5 156.5t-28.5 241.5v770h353v-692q0 -143 24 -218q32 -111 122.5 -168t201.5 -57q72 0 131.5 21t97.5 55t60.5 65.5t35.5 63.5q17 42 21 87t4 151
v692h352z" />
    <glyph glyph-name="V" unicode="V" horiz-adv-x="1472" 
d="M1473 1397l-646 -1415h-151l-676 1415h379l369 -797l350 797h375z" />
    <glyph glyph-name="W" unicode="W" horiz-adv-x="2390" 
d="M2390 1397l-616 -1415h-150l-430 911l-432 -911h-150l-614 1415h369l329 -772l359 772h284l351 -772l331 772h369z" />
    <glyph glyph-name="X" unicode="X" horiz-adv-x="1662" 
d="M1595 1397l-546 -674l606 -723h-451l-379 461l-372 -461h-445l592 723l-559 674h451l333 -412l328 412h442z" />
    <glyph glyph-name="Y" unicode="Y" horiz-adv-x="1449" 
d="M1452 1397l-551 -744v-653h-350v653l-551 744h420l307 -439l307 439h418z" />
    <glyph glyph-name="Z" unicode="Z" horiz-adv-x="1429" 
d="M1364 1397l-762 -1135h762v-262h-1356l768 1135h-715v262h1303z" />
    <glyph glyph-name="bracketleft" unicode="[" horiz-adv-x="897" 
d="M858 1397v-223h-389v-1403h389v-224h-686v1850h686z" />
    <glyph glyph-name="backslash" unicode="\" horiz-adv-x="575" 
d="M221 1415l344 -1433h-207l-348 1433h211z" />
    <glyph glyph-name="bracketright" unicode="]" horiz-adv-x="894" 
d="M39 1397h684v-1850h-684v224h389v1403h-389v223z" />
    <glyph glyph-name="asciicircum" unicode="^" horiz-adv-x="1193" 
d="M115 598l377 799h221l366 -799h-284l-197 489l-197 -489h-286z" />
    <glyph glyph-name="underscore" unicode="_" horiz-adv-x="1024" 
d="M-12 -154h1048v-102h-1048v102z" />
    <glyph glyph-name="grave" unicode="`" 
d="M29 1360h338l151 -299h-151z" />
    <glyph glyph-name="a" unicode="a" horiz-adv-x="1087" 
d="M1090 233v-165q-56 -35 -135.5 -60.5t-143.5 -25.5q-49 0 -82.5 10t-50.5 29t-23.5 32t-11.5 33q-47 -30 -81 -48.5t-98.5 -37t-131.5 -18.5q-110 0 -187 68t-77 179q0 45 13.5 84t39.5 67.5t50.5 49.5t60.5 38.5t53.5 24.5t44.5 17q205 70 299 96q0 23 -1 36.5t-9 40
t-23.5 42t-48.5 28.5t-80 13q-64 0 -126.5 -19.5t-108 -49t-73 -52t-42.5 -39.5v242q183 115 411 115q20 0 39 -1t58.5 -5t75 -14.5t74.5 -26t71.5 -43.5t52.5 -64q29 -52 29 -172v-373q0 -17 1 -26.5t5 -23t14 -20t27 -6.5q33 0 115 45zM629 229v228q-3 -1 -39.5 -15.5
t-68.5 -27.5t-42 -17q-110 -49 -110 -137q0 -46 29.5 -73t64.5 -27q91 0 166 69z" />
    <glyph glyph-name="b" unicode="b" horiz-adv-x="1202" 
d="M424 1397v-506q42 24 65.5 35.5t73 24t105.5 12.5q91 0 172.5 -31.5t146.5 -91t103 -154t38 -211.5q0 -219 -123.5 -356t-316.5 -137q-141 0 -264 90v-72h-297v1397h297zM424 698v-438q92 -70 176 -70q26 0 52.5 5.5t60 23.5t58.5 47.5t42.5 83.5t17.5 125q0 121 -45 187
q-28 43 -80 69.5t-110 26.5q-93 0 -172 -60z" />
    <glyph glyph-name="c" unicode="c" horiz-adv-x="1017" 
d="M942 258v-213q-172 -63 -319 -63q-156 0 -278 54.5t-195.5 166.5t-73.5 266q0 97 30.5 178.5t82 139t120.5 98t145 59.5t156 19q156 0 318 -62v-221q-118 63 -242 63q-82 0 -142.5 -26.5t-91.5 -69.5t-45 -87t-14 -89q0 -53 17 -101.5t50 -88.5t87 -64t123 -24
q60 0 115 14.5t157 50.5z" />
    <glyph glyph-name="d" unicode="d" horiz-adv-x="1200" 
d="M1079 1397v-1397h-295v76q-120 -94 -262 -94q-79 0 -155 30.5t-140.5 88t-104.5 154.5t-40 218q0 114 36.5 208t99.5 155t145.5 94t175.5 33q127 0 245 -60v494h295zM784 258v451q-9 7 -28.5 18t-59.5 24t-78 13q-93 0 -159 -66q-21 -22 -34.5 -44t-25.5 -70.5
t-12 -114.5q0 -73 19.5 -128t45 -83t60 -44.5t56.5 -20t42 -3.5q40 0 78.5 13.5t53.5 24t42 30.5z" />
    <glyph glyph-name="e" unicode="e" horiz-adv-x="1155" 
d="M1044 297v-191q-175 -124 -430 -124q-120 0 -216 31.5t-154.5 81.5t-97.5 116.5t-54.5 130.5t-15.5 129q0 110 41 204t109.5 156t159 97t189.5 35q64 0 127.5 -15t130 -54t117 -97.5t82 -155t29.5 -217.5h-678q9 -127 91 -192.5t222 -65.5q80 0 148 21t104 43t96 67z
M389 580h410q-3 34 -16 67.5t-36 64.5t-63 50.5t-90 19.5q-52 0 -92 -19.5t-63 -51t-35.5 -65t-14.5 -66.5z" />
    <glyph glyph-name="f" unicode="f" horiz-adv-x="618" 
d="M463 944h135v-199h-135v-745h-297v745h-135v199h135q3 66 6.5 104.5t14 88t32 89t55.5 74.5q110 115 306 115q55 0 165 -16l15 -2v-240q-82 12 -133 12q-34 0 -60.5 -7t-43.5 -17t-29 -29.5t-18 -34.5t-9 -43.5t-3.5 -45t-0.5 -48.5z" />
    <glyph glyph-name="g" unicode="g" horiz-adv-x="1110" 
d="M1087 944v-196h-137q47 -78 47 -160q0 -16 -2.5 -33.5t-9.5 -48.5t-25 -60.5t-45 -60t-73 -56.5t-105 -42q-71 -18 -172 -23q-51 -4 -71.5 -24t-20.5 -39q0 -34 47 -47t166 -21q37 -2 73 -8.5t80 -19t80 -34.5t67.5 -52.5t49 -76t17.5 -100.5q0 -61 -22 -111t-57.5 -81
t-61.5 -47t-52 -27q-62 -26 -126 -36.5t-167 -10.5q-197 0 -303 37q-94 34 -150.5 95t-56.5 142q0 33 11 64t37 64.5t78.5 62t127.5 47.5q-116 35 -116 125q0 29 13 52t29.5 36.5t44.5 25.5t44.5 16.5t42.5 10.5q-47 8 -92.5 30.5t-85 58.5t-63.5 90t-24 116q0 110 55.5 182
t129.5 109q100 51 274 51h524zM725 602q0 64 -48 115t-126 51q-80 0 -124 -55t-44 -117q0 -69 50.5 -118.5t119.5 -49.5q75 0 123.5 54t48.5 120zM788 -176q0 25 -13.5 44t-38 29.5t-48 17.5t-53.5 9.5t-43.5 3t-28.5 0.5q-17 0 -30.5 -0.5t-45 -3.5t-54.5 -10.5t-48.5 -19
t-39 -32.5t-13.5 -48q0 -11 3.5 -22.5t17 -28t36.5 -28.5t67 -21t103 -9q71 0 107 8.5t67 26.5q25 14 40 38.5t15 45.5z" />
    <glyph glyph-name="h" unicode="h" horiz-adv-x="1198" 
d="M430 1397v-592q129 158 301 158q179 0 275 -140q37 -55 51 -112t14 -138v-573h-295v510q0 24 -0.5 37t-3 41t-8 46t-16.5 41t-26.5 37t-40.5 23.5t-56 9.5q-59 0 -111.5 -41t-83.5 -102v-602h-303v1397h303z" />
    <glyph glyph-name="i" unicode="i" horiz-adv-x="561" 
d="M416 944v-944h-285v944h285zM281 1417q67 0 114 -47t47 -115q0 -69 -47 -116t-114 -47q-68 0 -116 47t-48 116q0 68 48.5 115t115.5 47z" />
    <glyph glyph-name="j" unicode="j" horiz-adv-x="555" 
d="M430 944v-860q0 -56 -0.5 -86t-5.5 -81t-14.5 -86t-28 -77.5t-45.5 -79.5q-44 -62 -115.5 -101t-144.5 -42l-94 266q35 6 61 20t42.5 36.5t26.5 46.5t15 58t6.5 61t1.5 65v860h295zM281 1419q66 0 113.5 -48.5t47.5 -115.5q0 -66 -47 -113.5t-114 -47.5
q-69 0 -116.5 47.5t-47.5 113.5q0 67 48.5 115.5t115.5 48.5z" />
    <glyph glyph-name="k" unicode="k" horiz-adv-x="1163" 
d="M428 1397v-920l373 467h346l-369 -467l385 -477h-362l-373 465v-465h-299v1397h299z" />
    <glyph glyph-name="l" unicode="l" horiz-adv-x="552" 
d="M426 1397v-1397h-299v1397h299z" />
    <glyph glyph-name="m" unicode="m" horiz-adv-x="1961" 
d="M422 944v-121q155 140 332 140q156 0 252 -86q53 -47 86 -115q23 27 40.5 46t55.5 51t75 52.5t90.5 36t110.5 15.5q191 0 293 -134q48 -63 63 -121.5t15 -138.5v-569h-299v510q0 25 -0.5 40t-4 43.5t-9.5 47t-19 41.5t-31 37t-47 23.5t-65 9.5q-132 0 -234 -148v-604
h-297v526q0 36 -0.5 52t-6 42.5t-17.5 47.5q-25 43 -68.5 64.5t-87.5 21.5q-118 0 -227 -121v-633h-295v944h295z" />
    <glyph glyph-name="n" unicode="n" horiz-adv-x="1204" 
d="M424 944v-135q65 75 137.5 114.5t169.5 39.5q118 0 195 -54.5t114 -130.5q24 -48 30.5 -96.5t6.5 -124.5v-557h-299v532q0 101 -14 136q-15 42 -51 65t-82 23q-41 0 -79 -18.5t-66 -49.5t-40 -47t-22 -33v-608h-297v944h297z" />
    <glyph glyph-name="o" unicode="o" horiz-adv-x="1216" 
d="M1139 469q0 -106 -34.5 -192t-89 -139.5t-126 -90t-141 -51t-138.5 -14.5q-109 0 -205.5 33t-170 94t-116 153.5t-42.5 204.5q0 144 72 258.5t194 176t270 61.5q68 0 137.5 -15t140.5 -52t125.5 -91.5t89 -141.5t34.5 -194zM821 487q0 293 -219 293q-43 0 -76.5 -14
t-55 -33.5t-37 -51.5t-22.5 -57.5t-11 -62.5t-4.5 -54.5t-0.5 -45.5q0 -20 0.5 -35t4.5 -48t11.5 -57.5t23.5 -55.5t38 -51t57.5 -34t79.5 -14q211 0 211 321z" />
    <glyph glyph-name="p" unicode="p" horiz-adv-x="1204" 
d="M426 944v-82q122 101 270 101q81 0 159 -33.5t140 -93t100 -152t38 -201.5q0 -236 -131.5 -368.5t-331.5 -132.5q-138 0 -244 65v-500h-299v1397h299zM426 676v-434q82 -62 170 -62q38 0 75.5 13.5t74 43.5t59 89.5t22.5 140.5q0 135 -53 205q-24 35 -69 57.5t-97 22.5
q-47 0 -99.5 -22.5t-82.5 -53.5z" />
    <glyph glyph-name="q" unicode="q" horiz-adv-x="1204" 
d="M1085 944v-1397h-294v504q-101 -69 -246 -69q-128 0 -232.5 57.5t-167.5 167.5t-63 254q0 65 15 132t48.5 134t82.5 119t123 84.5t163 32.5q152 0 277 -95v76h294zM791 244v442q-96 66 -191 66q-33 0 -67.5 -13t-69.5 -43t-57.5 -89.5t-22.5 -141.5q0 -68 17 -120
t42 -81.5t59 -47.5t62.5 -24t57.5 -6q97 0 170 58z" />
    <glyph glyph-name="r" unicode="r" horiz-adv-x="913" 
d="M424 944v-270q73 153 147.5 221t157.5 68q48 0 92.5 -21t104.5 -65l-82 -263q-1 1 -15 10t-20.5 13t-21.5 12.5t-27 13.5t-27.5 10.5t-31 8t-31.5 2.5q-40 0 -73 -15t-60 -46t-46.5 -64t-41.5 -82q-1 -3 -12 -33.5t-13 -35.5v-408h-297v944h297z" />
    <glyph glyph-name="s" unicode="s" horiz-adv-x="874" 
d="M772 893v-211q-171 92 -293 92q-16 0 -33 -2t-42 -7.5t-40.5 -20t-15.5 -35.5q0 -27 22 -44.5t95 -48.5q51 -20 79 -32t71.5 -33t68 -37.5t54 -42.5t44.5 -52t26 -61t11 -75q0 -144 -101.5 -222.5t-283.5 -78.5q-101 0 -198.5 22.5t-139.5 46.5v209q169 -88 301 -88
q70 0 107 20.5t37 51.5q0 37 -32 58t-149 69q-120 51 -157 73q-57 35 -91 94t-34 132q0 126 102 209.5t283 83.5q177 0 309 -70z" />
    <glyph glyph-name="t" unicode="t" horiz-adv-x="837" 
d="M776 944v-205h-340v-207q0 -180 8 -229q5 -27 17.5 -46.5t27.5 -30t33.5 -16.5t31 -7.5t24.5 -1.5q55 0 98 13.5t100 41.5v-215q-2 -1 -18.5 -7t-23 -8.5t-24 -8.5t-28.5 -9t-29.5 -8t-34 -7.5t-35.5 -5.5t-40.5 -4t-42.5 -1q-93 0 -174.5 35.5t-132.5 105.5
q-33 47 -45.5 106.5t-12.5 167.5v342h-135v56l395 446h41v-297h340z" />
    <glyph glyph-name="u" unicode="u" horiz-adv-x="1193" 
d="M1067 944v-944h-299v135q-108 -153 -299 -153q-68 0 -125 19.5t-95.5 51.5t-64 66t-39.5 71q-20 57 -20 164v590h299v-504q0 -33 0.5 -50.5t3 -49t7.5 -49t15.5 -40t25.5 -34.5t38 -20.5t53 -8.5q114 0 201 134v622h299z" />
    <glyph glyph-name="v" unicode="v" horiz-adv-x="1044" 
d="M1038 944l-420 -962h-180l-434 962h315l205 -502l199 502h315z" />
    <glyph glyph-name="w" unicode="w" horiz-adv-x="1599" 
d="M1602 944l-433 -962h-139l-229 514l-238 -514h-139l-426 962h303l199 -502l211 502h178l209 -502l202 502h302z" />
    <glyph glyph-name="x" unicode="x" horiz-adv-x="1148" 
d="M1114 944l-362 -461l391 -483h-363l-213 274l-207 -274h-352l377 483l-377 461h365l194 -254l185 254h362z" />
    <glyph glyph-name="y" unicode="y" horiz-adv-x="1044" 
d="M1042 944l-632 -1397h-316l277 607l-369 790h317l199 -467l213 467h311z" />
    <glyph glyph-name="z" unicode="z" horiz-adv-x="1067" 
d="M86 944h922l-484 -739h484v-205h-969l485 735h-438v209z" />
    <glyph glyph-name="braceleft" unicode="{" horiz-adv-x="788" 
d="M59 346v234q57 2 96 17.5t63.5 40.5t38 69t18 94t4.5 125q0 129 5.5 191.5t28.5 117.5q16 39 43 68t64 46t69.5 27.5t76.5 14.5t66.5 5t57.5 1h53v-232q-38 0 -64.5 -1t-48.5 -5.5t-35.5 -8t-24 -14.5t-15.5 -19t-9 -27t-5 -33t-2 -43q-6 -229 -16 -300t-48 -136
q-37 -63 -123 -115q36 -20 63.5 -44.5t46 -48t32 -57.5t20.5 -60.5t11.5 -71.5t6 -76t3.5 -87q7 -170 14 -192q7 -19 21.5 -32t30 -19.5t43.5 -10t46 -4t53 -0.5v-231h-53q-44 0 -69 0.5t-69.5 6t-75 16t-66.5 31t-62 50.5q-45 50 -57 125.5t-12 204.5q0 127 -5 179.5
t-26 97.5q-15 34 -36 55.5t-49 31.5t-49 13.5t-55 5.5z" />
    <glyph glyph-name="bar" unicode="|" horiz-adv-x="575" 
d="M176 -471v1886h223v-1886h-223z" />
    <glyph glyph-name="braceright" unicode="}" horiz-adv-x="788" 
d="M98 -471h-53v231q48 0 80 2.5t55.5 10.5t36 17.5t20 29t10 39t3.5 53.5q8 233 17 302t46 132q42 72 125 117q-32 20 -57 39.5t-43.5 43.5t-31.5 43t-22 50.5t-14 53t-8.5 63.5t-4.5 68t-3 81q-8 182 -12 195q-4 16 -12.5 27.5t-25 18.5t-29 11t-39.5 5.5t-41.5 2
t-49.5 0.5v232h53q54 0 88 -2t86.5 -11t94.5 -32t75 -60q43 -50 55.5 -126.5t12.5 -200.5q0 -130 5 -182t26 -97q16 -34 37.5 -56.5t48.5 -32t48.5 -13t53.5 -4.5v-234q-56 -2 -94.5 -17t-63 -40t-38 -68.5t-18.5 -94t-5 -126.5q0 -133 -5 -193.5t-28 -115.5
q-16 -39 -44 -68t-65 -46t-69.5 -27.5t-76.5 -14.5t-66.5 -5t-57.5 -1z" />
    <glyph glyph-name="asciitilde" unicode="~" horiz-adv-x="1193" 
d="M33 494v268q33 28 57 45.5t69.5 45t96.5 42t104 14.5q51 0 109 -17t172 -73q146 -69 221 -69q43 0 86 13.5t86.5 42t65 45t61.5 50.5v-268q-33 -26 -54.5 -42t-69 -45t-98 -44t-101.5 -15q-72 0 -183 45q-17 6 -114.5 51.5t-116.5 51.5q-42 14 -78 14q-45 0 -89.5 -13.5
t-87.5 -40.5t-70 -47.5t-66 -53.5z" />
    <glyph glyph-name="uni00A0" unicode="&#xa0;" horiz-adv-x="569" 
 />
    <glyph glyph-name="exclamdown" unicode="&#xa1;" horiz-adv-x="555" 
d="M446 -244q0 -105 -43.5 -167t-130.5 -62q-168 0 -168 233q0 116 35.5 335.5t65.5 328.5q21 72 31 83t32 11q40 0 49 -6.5t19 -44.5q39 -130 74.5 -359.5t35.5 -351.5zM455 784q0 -69 -50 -123.5t-126 -54.5q-73 0 -126 53t-53 125t52.5 125.5t126.5 53.5q77 0 126.5 -54
t49.5 -125z" />
    <glyph glyph-name="cent" unicode="&#xa2;" horiz-adv-x="1024" 
d="M965 1294l-113 -362q33 -9 80 -29v-219q-60 32 -141 53l-170 -536q42 -1 84.5 -2t108.5 15t132 50v-219q-194 -77 -393 -63l-117 -369h-145l123 387q-330 117 -330 465q0 150 71.5 264.5t193.5 174t276 59.5q53 0 88 -7l106 338h146zM492 254l155 489q-103 -7 -177.5 -77
t-74.5 -195q0 -52 21.5 -112t75.5 -105z" />
    <glyph glyph-name="sterling" unicode="&#xa3;" horiz-adv-x="1067" 
d="M688 807v-242h-199q-42 -214 -53 -266q29 10 68 10q38 0 190 -30q78 -15 123 -15q53 0 80.5 6.5t85.5 28.5v-276q-50 -23 -86 -32t-94 -9q-38 0 -137 18q-148 33 -254 33q-138 0 -316 -51q1 64 40 270t67 313h-92v242h157q37 135 81 245t112 193q74 91 169 130.5
t169 39.5q34 0 59 -18l125 -260q-56 18 -104 18q-31 0 -55.5 -3.5t-57 -14.5t-59.5 -35.5t-55 -61t-52 -96t-43 -137.5h131z" />
    <glyph glyph-name="currency" unicode="&#xa4;" horiz-adv-x="1130" 
d="M176 913l-131 129l164 177l139 -136q103 60 217 60q107 0 217 -60l136 136l167 -170l-133 -136q56 -102 56 -217q0 -111 -56 -215l133 -133l-167 -170l-136 133q-100 -55 -217 -55q-121 0 -217 55l-129 -133l-174 170l131 133q-55 101 -55 217q0 117 55 215zM362 698
q0 -84 59.5 -143t143.5 -59q83 0 142 59t59 143q0 85 -59 144t-142 59q-85 0 -144 -59t-59 -144z" />
    <glyph glyph-name="yen" unicode="&#xa5;" horiz-adv-x="1130" 
d="M422 272h-371v203h371v139h-371v203h271l-320 649h309l199 -426q41 -90 53 -141q12 53 55 141l203 426h309l-325 -649h274v-203h-374v-139h374v-203h-374v-272h-283v272z" />
    <glyph glyph-name="brokenbar" unicode="&#xa6;" horiz-adv-x="575" 
d="M176 -471v772h223v-772h-223zM176 643v772h223v-772h-223z" />
    <glyph glyph-name="section" unicode="&#xa7;" horiz-adv-x="1067" 
d="M831 51q50 -66 72.5 -116t22.5 -115q0 -142 -110.5 -216.5t-287.5 -74.5q-171 0 -280 62.5t-109 156.5q0 59 45.5 104.5t106.5 45.5q20 0 41.5 -5.5t50.5 -32t39 -71.5q4 -18 8 -27t14 -23.5t29.5 -21t48.5 -6.5q17 0 34.5 4t37.5 13.5t32.5 29.5t12.5 47q0 22 -4.5 35.5
t-26 41t-74.5 69t-143 104.5q-150 105 -172 127q-97 91 -131.5 169t-34.5 167q0 201 178 373q-33 45 -43.5 60t-27 44.5t-21 54t-4.5 56.5q0 74 35.5 139.5t103.5 108.5q51 34 111 47.5t162 13.5q86 0 142.5 -9t111.5 -36q127 -71 127 -178q0 -64 -44.5 -108t-107.5 -44
q-44 0 -79 25t-46 72q-5 18 -9 28.5t-15 28t-32.5 26.5t-51.5 9q-50 0 -84.5 -29.5t-34.5 -71.5q0 -38 24 -64.5t89 -74.5q83 -63 178 -127q92 -62 154 -124t92 -119.5t41.5 -104t11.5 -96.5q0 -51 -12 -99t-27 -81t-43.5 -71.5t-47.5 -59.5t-53 -56zM532 639l-149 117
q-21 -23 -32.5 -39.5t-24.5 -51t-13 -73.5q0 -55 29 -103.5t109 -117.5q15 -13 63.5 -50.5t103.5 -79.5t66 -51q25 30 36.5 46.5t22.5 46t11 63.5q0 72 -48 134.5t-174 158.5z" />
    <glyph glyph-name="dieresis" unicode="&#xa8;" 
d="M549 1346q56 0 94.5 -38.5t38.5 -95.5q0 -54 -39 -93.5t-94 -39.5t-94 39.5t-39 93.5q0 56 39 95t94 39zM133 1346q55 0 94 -39t39 -95q0 -55 -38.5 -94t-94.5 -39q-55 0 -94 39.5t-39 93.5q0 56 39 95t94 39z" />
    <glyph glyph-name="copyright" unicode="&#xa9;" horiz-adv-x="1515" 
d="M942 537l162 -56q-21 -72 -58.5 -125t-84 -81t-94 -41t-99.5 -13q-56 0 -109.5 13.5t-104.5 45.5t-89 79.5t-61 120.5t-23 163q0 194 102 312t287 118q68 0 123.5 -19t89 -44t61 -63t38.5 -61.5t22 -54.5l-162 -38q-9 25 -19 43.5t-30.5 43t-53 38.5t-75.5 14
q-53 0 -92.5 -22t-61 -53t-34 -73t-16 -73t-3.5 -62q0 -19 1 -35.5t6 -54.5t18 -67.5t33.5 -60.5t57 -48.5t83.5 -17.5q48 0 84.5 20t57 53t29.5 54.5t15 44.5zM1524 649q0 -157 -61.5 -299.5t-164.5 -244.5t-244.5 -162t-295.5 -60q-208 0 -384.5 103t-279 279t-102.5 384
t102.5 384t279 279t384.5 103q155 0 296.5 -60.5t244.5 -162.5t164 -244t61 -299zM1372 649q0 126 -49 240.5t-131.5 197t-196 131t-237.5 48.5q-125 0 -239.5 -49t-197 -131.5t-131.5 -197t-49 -239.5q0 -167 83 -308.5t225 -223.5t309 -82q166 0 307 81.5t224 223
t83 309.5z" />
    <glyph glyph-name="ordfeminine" unicode="&#xaa;" horiz-adv-x="724" 
d="M723 995v-116q-98 -56 -191 -56q-92 0 -114 56q-32 -18 -53 -27.5t-59.5 -19t-80.5 -9.5q-72 0 -126 42t-54 110q0 121 178 174q22 8 92.5 28.5t90.5 24.5q0 17 -2.5 28.5t-10.5 26t-28.5 22t-51.5 7.5q-125 0 -235 -110v167q123 72 266 72q196 0 254 -92q23 -31 23 -104
v-224q0 -37 18 -37q17 0 84 37zM406 977v121q-83 -27 -113.5 -46t-30.5 -57q0 -24 16 -38.5t35 -14.5q52 0 93 35z" />
    <glyph glyph-name="guillemotleft" unicode="&#xab;" horiz-adv-x="1216" 
d="M1194 930l-326 -461l326 -455h-295l-328 455l328 461h295zM649 930l-330 -461l330 -455h-293l-333 455l333 461h293z" />
    <glyph glyph-name="logicalnot" unicode="&#xac;" horiz-adv-x="1193" 
d="M848 346v442h-764v265h1026v-707h-262z" />
    <glyph glyph-name="uni00AD" unicode="&#xad;" 
d="M608 610v-272h-534v272h534z" />
    <glyph glyph-name="registered" unicode="&#xae;" horiz-adv-x="1515" 
d="M1118 240h-203l-65 131q-34 65 -86 133q-35 45 -67.5 57t-90.5 12h-31v-333h-163v813h288q89 0 128.5 -2t83 -12.5t73.5 -34.5q84 -66 84 -179q0 -81 -52.5 -147t-166.5 -82q53 -21 82.5 -55t91.5 -138zM575 924v-222h68q135 0 172 9q80 24 80 104q0 58 -47 84
q-29 18 -63.5 21.5t-141.5 3.5h-68zM1524 649q0 -157 -61.5 -299.5t-164.5 -244.5t-244.5 -162t-295.5 -60q-208 0 -384.5 103t-279 279t-102.5 384t102.5 384t279 279t384.5 103q154 0 295.5 -60t244.5 -162t164.5 -244.5t61.5 -299.5zM1374 649q0 126 -49 240.5t-132 197
t-196.5 131t-238.5 48.5t-239.5 -49t-197 -132t-131.5 -197t-49 -239q0 -124 49 -238t131.5 -196t197 -131t239.5 -49q167 0 308.5 81.5t224.5 223t83 309.5z" />
    <glyph glyph-name="macron" unicode="&#xaf;" 
d="M737 1315v-205h-792v205h792z" />
    <glyph glyph-name="degree" unicode="&#xb0;" horiz-adv-x="811" 
d="M86 1096q0 133 94 226t226 93t225.5 -93t93.5 -226q0 -132 -94 -225t-225 -93t-225.5 93.5t-94.5 224.5zM252 1096q0 -63 45.5 -107.5t108.5 -44.5t107 44.5t44 107.5q0 64 -44 108.5t-107 44.5t-108.5 -44.5t-45.5 -108.5z" />
    <glyph glyph-name="plusminus" unicode="&#xb1;" horiz-adv-x="1193" 
d="M84 -25v263h1026v-263h-1026zM465 332v381h-381v262h381v381h264v-381h381v-262h-381v-381h-264z" />
    <glyph glyph-name="two.superior" unicode="&#xb2;" 
d="M639 717v-158h-569v27q5 5 40.5 45t90.5 105.5t90 111.5q98 127 98 211q0 41 -29 67.5t-69 26.5q-84 0 -211 -104v174q77 42 131 56.5t111 14.5q73 0 128 -18t85.5 -48.5t45.5 -65.5t15 -75q0 -44 -20 -94.5t-59 -105t-66.5 -88t-71.5 -82.5h260z" />
    <glyph glyph-name="three.superior" unicode="&#xb3;" 
d="M86 1120v140q89 34 201 34q119 0 197.5 -50t78.5 -130q0 -52 -32.5 -95t-84.5 -71q140 -57 140 -184q0 -101 -87 -158t-220 -57q-121 0 -213 45v158q32 -21 54.5 -33t60 -22.5t77.5 -10.5q46 0 78.5 23.5t32.5 62.5q0 86 -127 94v138q32 2 55 11t33.5 18.5t16.5 22.5
t6.5 18t0.5 11q0 30 -25.5 54t-78.5 24q-36 0 -63 -7.5t-101 -35.5z" />
    <glyph glyph-name="acute" unicode="&#xb4;" 
d="M653 1360l-336 -299h-153l153 299h336z" />
    <glyph glyph-name="mu" unicode="&#xb5;" horiz-adv-x="1185" 
d="M766 449v495h297v-645q0 -90 57 -90q3 0 43 10v-192q-88 -45 -186 -45q-92 0 -131 73q-82 -73 -187 -73q-74 0 -138.5 39.5t-106.5 109.5v-602h-297v1415h297v-608q55 -67 105.5 -101t105.5 -34t94 46.5t41 86.5q1 24 3.5 65t2.5 50z" />
    <glyph glyph-name="paragraph" unicode="&#xb6;" horiz-adv-x="1130" 
d="M631 -471h-240v1046q-90 7 -162 37t-117 74.5t-73.5 102t-36.5 118.5t-1 123.5t28.5 117.5t55.5 100.5t77 72.5q80 52 152 64t218 12h596v-260h-112v-1608h-240v1608h-145v-1608z" />
    <glyph glyph-name="periodcentered" unicode="&#xb7;" horiz-adv-x="555" 
d="M457 709q0 -68 -50 -123.5t-128 -55.5q-72 0 -125.5 53.5t-53.5 125.5q0 71 51.5 124.5t124.5 53.5q78 0 129.5 -55t51.5 -123z" />
    <glyph glyph-name="cedilla" unicode="&#xb8;" 
d="M479 16l-26 -63q127 -46 127 -150q0 -29 -11 -56.5t-34.5 -54t-69 -43t-107.5 -16.5q-110 0 -153 21v102q30 0 45.5 0.5t37 2t32 5.5t21.5 11t15 18.5t4 26.5q0 20 -13 32.5t-28.5 16.5t-42.5 8l80 139h123z" />
    <glyph glyph-name="one.superior" unicode="&#xb9;" 
d="M449 1294v-735h-213v735h213z" />
    <glyph glyph-name="ordmasculine" unicode="&#xba;" horiz-adv-x="811" 
d="M758 1118q0 -63 -22.5 -114.5t-58.5 -84.5t-83 -55t-93.5 -31.5t-92.5 -9.5q-150 0 -252.5 80.5t-102.5 214.5q0 131 103 214t252 83q44 0 89 -9t93 -30.5t84.5 -54.5t60 -85.5t23.5 -117.5zM528 1128q0 166 -127 166q-120 0 -120 -180q0 -168 127 -168q29 0 51 9.5
t34 27.5t20 35t11 42t3.5 37t0.5 31z" />
    <glyph glyph-name="guillemotright" unicode="&#xbb;" horiz-adv-x="1216" 
d="M23 930h294l328 -463l-328 -453h-294l325 453zM567 930h297l330 -463l-330 -453h-297l330 453z" />
    <glyph glyph-name="onequarter" unicode="&#xbc;" horiz-adv-x="1835" 
d="M1724 737v-434h58v-127h-58v-176h-206v176h-320v127l393 434h133zM1518 303v160l-146 -160h146zM455 1415v-735h-213v735h213zM1528 1415l-981 -1470h-193l981 1470h193z" />
    <glyph glyph-name="onehalf" unicode="&#xbd;" horiz-adv-x="1835" 
d="M455 1415v-735h-213v735h213zM1491 1415l-979 -1470h-193l979 1470h193zM1782 158v-158h-570v29q181 203 235 277q87 119 87 194q0 41 -29.5 67.5t-68.5 26.5q-99 0 -211 -105v175q76 42 129.5 57.5t111.5 15.5q140 0 207.5 -61t67.5 -146q0 -36 -16.5 -80t-35 -77
t-55.5 -82t-54 -69t-56 -64h258z" />
    <glyph glyph-name="threequarters" unicode="&#xbe;" horiz-adv-x="1835" 
d="M92 1241v139q91 35 201 35q119 0 197.5 -50t78.5 -130q0 -51 -31.5 -94.5t-82.5 -71.5q18 -7 28 -12t33.5 -21.5t37.5 -34.5t26 -48.5t12 -67.5q0 -101 -86.5 -158t-220.5 -57q-121 0 -213 45v157q48 -31 91 -48t101 -17q46 0 78.5 23.5t32.5 62.5q0 86 -125 94v137
q32 2 55 11t33.5 18.5t16.5 22.5t6.5 18.5t0.5 11.5q0 31 -27.5 54.5t-76.5 23.5q-30 0 -88 -14q-2 -1 -36.5 -14.5t-41.5 -14.5zM1528 1415l-981 -1470h-193l981 1470h193zM1724 737v-434h58v-127h-58v-176h-206v176h-320v127l393 434h133zM1518 303v160l-146 -160h146z
" />
    <glyph glyph-name="questiondown" unicode="&#xbf;" horiz-adv-x="768" 
d="M666 -182l-50 -252q-134 -37 -249 -37q-68 0 -124.5 17t-93.5 45t-62.5 65.5t-36.5 78t-11 83.5q0 44 9.5 86.5t21.5 73.5t39.5 74.5t45.5 68t58 76.5q63 81 93 141.5t30 122.5v43q6 14 63 14q31 0 41.5 -6.5t28.5 -38.5q19 -35 29 -91t10 -97q0 -65 -18 -114.5
t-58 -119.5q-60 -109 -71 -134t-11 -56q0 -52 33.5 -84.5t83.5 -32.5q82 0 182 74h17zM569 784q0 -65 -49.5 -121.5t-126.5 -56.5q-73 0 -125.5 53t-52.5 125q0 73 51.5 126t124.5 53q78 0 128 -56.5t50 -122.5z" />
    <glyph glyph-name="Agrave" unicode="&#xc0;" horiz-adv-x="1599" 
d="M973 1397l620 -1397h-374l-115 276h-625l-104 -276h-369l563 1397h404zM1001 520l-225 541l-205 -541h430zM395 1880h393l240 -387h-207z" />
    <glyph glyph-name="Aacute" unicode="&#xc1;" horiz-adv-x="1599" 
d="M973 1397l620 -1397h-374l-115 276h-625l-104 -276h-369l563 1397h404zM1001 520l-225 541l-205 -541h430zM1204 1880l-426 -387h-207l240 387h393z" />
    <glyph glyph-name="Acircumflex" unicode="&#xc2;" horiz-adv-x="1599" 
d="M973 1397l620 -1397h-374l-115 276h-625l-104 -276h-369l563 1397h404zM1001 520l-225 541l-205 -541h430zM983 1841l240 -348h-191l-237 211l-234 -211h-186l235 348h373z" />
    <glyph glyph-name="Atilde" unicode="&#xc3;" horiz-adv-x="1599" 
d="M973 1397l620 -1397h-374l-115 276h-625l-104 -276h-369l563 1397h404zM1001 520l-225 541l-205 -541h430zM498 1503h-152q0 145 69 236.5t199 91.5q48 0 96 -12t76.5 -24.5t69.5 -33.5q95 -49 148 -49q81 0 96 119h153q0 -143 -68 -235.5t-194 -92.5q-53 0 -107 14.5
t-85 28.5t-88 43q-70 37 -121 37q-85 0 -92 -123z" />
    <glyph glyph-name="Adieresis" unicode="&#xc4;" horiz-adv-x="1599" 
d="M973 1397l620 -1397h-374l-115 276h-625l-104 -276h-369l563 1397h404zM1001 520l-225 541l-205 -541h430zM1092 1831q67 0 115 -48t48 -116t-48 -116t-115 -48q-68 0 -116 48.5t-48 115.5t48 115.5t116 48.5zM508 1831q68 0 116 -48.5t48 -115.5t-48 -115.5t-116 -48.5
t-116 48.5t-48 115.5t48 115.5t116 48.5z" />
    <glyph glyph-name="Aring" unicode="&#xc5;" horiz-adv-x="1599" 
d="M973 1397l620 -1397h-374l-115 276h-625l-104 -276h-369l563 1397h404zM1001 520l-225 541l-205 -541h430zM799 1960q95 0 164 -68.5t69 -165.5q0 -98 -68 -165.5t-165 -67.5t-165.5 67.5t-68.5 165.5t69 166t165 68zM799 1851q-53 0 -89 -36.5t-36 -88.5q0 -54 36 -90.5
t89 -36.5q52 0 88.5 37t36.5 90q0 51 -36.5 88t-88.5 37z" />
    <glyph glyph-name="AE" unicode="&#xc6;" horiz-adv-x="2197" 
d="M2062 1397v-264h-647v-291h619v-262h-619v-320h668v-260h-1018v580h-375l-344 -580h-360l837 1397h1239zM1065 842v368l-219 -368h219z" />
    <glyph glyph-name="Ccedilla" unicode="&#xc7;" horiz-adv-x="1558" 
d="M1423 1296v-323q-232 151 -477 151q-143 0 -257.5 -49.5t-183.5 -147.5t-69 -229q0 -89 31 -162.5t81.5 -121.5t116 -81t132 -47t133.5 -14q243 0 508 172v-321q-227 -123 -463 -141l-21 -25q85 -11 135 -60.5t50 -105.5q0 -66 -46 -112.5t-100 -63.5q-70 -23 -176 -23
q-134 0 -239 29v115q54 -4 88 -4q141 0 141 71q0 25 -21 39t-47 17.5t-65 3.5l119 119q-192 21 -330 88q-171 85 -281 248t-110 374q0 141 57 270.5t161.5 230.5t268 161.5t361.5 60.5q254 0 503 -119z" />
    <glyph glyph-name="Egrave" unicode="&#xc8;" horiz-adv-x="1300" 
d="M1190 256v-256h-1030v1397h1016v-260h-664v-283h633v-262h-633v-336h678zM276 1880h394l239 -387h-207z" />
    <glyph glyph-name="Eacute" unicode="&#xc9;" horiz-adv-x="1300" 
d="M1190 256v-256h-1030v1397h1016v-260h-664v-283h633v-262h-633v-336h678zM1137 1880l-426 -387h-207l239 387h394z" />
    <glyph glyph-name="Ecircumflex" unicode="&#xca;" horiz-adv-x="1300" 
d="M1190 256v-256h-1030v1397h1016v-260h-664v-283h633v-262h-633v-336h678zM864 1841l240 -348h-191l-237 211l-234 -211h-186l236 348h372z" />
    <glyph glyph-name="Edieresis" unicode="&#xcb;" horiz-adv-x="1300" 
d="M1190 256v-256h-1030v1397h1016v-260h-664v-283h633v-262h-633v-336h678zM973 1831q67 0 115.5 -48.5t48.5 -115.5t-48.5 -115.5t-115.5 -48.5t-115.5 48.5t-48.5 115.5t48.5 115.5t115.5 48.5zM389 1831q67 0 115.5 -48.5t48.5 -115.5t-48.5 -115.5t-115.5 -48.5
t-115.5 48.5t-48.5 115.5t48.5 115.5t115.5 48.5z" />
    <glyph glyph-name="Igrave" unicode="&#xcc;" 
d="M518 1397v-1397h-352v1397h352zM-63 1880h393l239 -387h-207z" />
    <glyph glyph-name="Iacute" unicode="&#xcd;" 
d="M518 1397v-1397h-352v1397h352zM745 1880l-426 -387h-206l239 387h393z" />
    <glyph glyph-name="Icircumflex" unicode="&#xce;" 
d="M518 1397v-1397h-352v1397h352zM524 1841l240 -348h-191l-237 211l-234 -211h-186l236 348h372z" />
    <glyph glyph-name="Idieresis" unicode="&#xcf;" 
d="M518 1397v-1397h-352v1397h352zM633 1831q67 0 115.5 -48.5t48.5 -115.5t-48.5 -115.5t-115.5 -48.5t-115.5 48.5t-48.5 115.5t48.5 115.5t115.5 48.5zM49 1831q67 0 115.5 -48.5t48.5 -115.5t-48.5 -115.5t-115.5 -48.5t-115.5 48.5t-48.5 115.5t48.5 115.5t115.5 48.5z
" />
    <glyph glyph-name="Eth" unicode="&#xd0;" horiz-adv-x="1642" 
d="M154 606h-170v187h170v604h569q216 0 379 -56q28 -10 60 -25t77 -43.5t85.5 -64t82.5 -87.5t72.5 -111.5t49.5 -140t19 -169.5q0 -50 -5.5 -100t-26.5 -121.5t-56 -133.5t-100 -128t-152 -113q-102 -55 -217.5 -79.5t-294.5 -24.5h-542v606zM813 606h-307v-340h141
q135 0 196.5 9.5t110.5 31.5q109 47 171.5 148.5t62.5 246.5q0 60 -12 115.5t-38 109t-73.5 97t-112.5 70.5q-42 17 -93 25.5t-81.5 9.5t-95.5 1h-176v-337h307v-187z" />
    <glyph glyph-name="Ntilde" unicode="&#xd1;" horiz-adv-x="1720" 
d="M1565 1397v-1397h-291l-772 864v-864h-346v1397h317l748 -824v824h344zM559 1503h-151q0 145 69 236.5t199 91.5q48 0 96 -12t76.5 -24.5t69.5 -33.5q95 -49 147 -49q81 0 96 119h154q0 -143 -68 -235.5t-194 -92.5q-53 0 -107 14.5t-86 28.5t-88 43q-70 37 -121 37
q-85 0 -92 -123z" />
    <glyph glyph-name="Ograve" unicode="&#xd2;" horiz-adv-x="1746" 
d="M1675 696q0 -82 -22.5 -165.5t-65.5 -163.5t-112 -149.5t-156 -122t-203 -83t-248 -30.5q-118 0 -226.5 27.5t-195 76.5t-157.5 116.5t-118.5 146.5t-73 167.5t-25.5 179.5q0 100 31.5 200t98 194t159.5 166t226 115.5t287 43.5q179 0 332.5 -61t254.5 -162t157.5 -230
t56.5 -266zM1315 688q0 196 -120 313t-323 117q-193 0 -315.5 -113.5t-122.5 -314.5q0 -96 30 -172t76.5 -122.5t107 -77.5t116.5 -42.5t110 -11.5q85 0 163.5 28t140.5 80t99.5 134t37.5 182zM489 1880h394l239 -387h-207z" />
    <glyph glyph-name="Oacute" unicode="&#xd3;" horiz-adv-x="1746" 
d="M1675 696q0 -82 -22.5 -165.5t-65.5 -163.5t-112 -149.5t-156 -122t-203 -83t-248 -30.5q-118 0 -226.5 27.5t-195 76.5t-157.5 116.5t-118.5 146.5t-73 167.5t-25.5 179.5q0 100 31.5 200t98 194t159.5 166t226 115.5t287 43.5q179 0 332.5 -61t254.5 -162t157.5 -230
t56.5 -266zM1315 688q0 196 -120 313t-323 117q-193 0 -315.5 -113.5t-122.5 -314.5q0 -96 30 -172t76.5 -122.5t107 -77.5t116.5 -42.5t110 -11.5q85 0 163.5 28t140.5 80t99.5 134t37.5 182zM1278 1880l-426 -387h-207l240 387h393z" />
    <glyph glyph-name="Ocircumflex" unicode="&#xd4;" horiz-adv-x="1746" 
d="M1675 696q0 -82 -22.5 -165.5t-65.5 -163.5t-112 -149.5t-156 -122t-203 -83t-248 -30.5q-118 0 -226.5 27.5t-195 76.5t-157.5 116.5t-118.5 146.5t-73 167.5t-25.5 179.5q0 100 31.5 200t98 194t159.5 166t226 115.5t287 43.5q179 0 332.5 -61t254.5 -162t157.5 -230
t56.5 -266zM1315 688q0 196 -120 313t-323 117q-193 0 -315.5 -113.5t-122.5 -314.5q0 -96 30 -172t76.5 -122.5t107 -77.5t116.5 -42.5t110 -11.5q85 0 163.5 28t140.5 80t99.5 134t37.5 182zM1057 1841l239 -348h-190l-238 211l-233 -211h-186l235 348h373z" />
    <glyph glyph-name="Otilde" unicode="&#xd5;" horiz-adv-x="1746" 
d="M1675 696q0 -82 -22.5 -165.5t-65.5 -163.5t-112 -149.5t-156 -122t-203 -83t-248 -30.5q-118 0 -226.5 27.5t-195 76.5t-157.5 116.5t-118.5 146.5t-73 167.5t-25.5 179.5q0 100 31.5 200t98 194t159.5 166t226 115.5t287 43.5q179 0 332.5 -61t254.5 -162t157.5 -230
t56.5 -266zM1315 688q0 196 -120 313t-323 117q-193 0 -315.5 -113.5t-122.5 -314.5q0 -96 30 -172t76.5 -122.5t107 -77.5t116.5 -42.5t110 -11.5q85 0 163.5 28t140.5 80t99.5 134t37.5 182zM571 1503h-151q0 145 69 236.5t199 91.5q48 0 96 -12t76.5 -24.5t69.5 -33.5
q95 -49 147 -49q82 0 97 119h153q0 -143 -68 -235.5t-194 -92.5q-53 0 -107 14.5t-86 28.5t-88 43q-70 37 -120 37q-45 0 -67.5 -34t-25.5 -89z" />
    <glyph glyph-name="Odieresis" unicode="&#xd6;" horiz-adv-x="1746" 
d="M1675 696q0 -82 -22.5 -165.5t-65.5 -163.5t-112 -149.5t-156 -122t-203 -83t-248 -30.5q-118 0 -226.5 27.5t-195 76.5t-157.5 116.5t-118.5 146.5t-73 167.5t-25.5 179.5q0 100 31.5 200t98 194t159.5 166t226 115.5t287 43.5q179 0 332.5 -61t254.5 -162t157.5 -230
t56.5 -266zM1315 688q0 196 -120 313t-323 117q-193 0 -315.5 -113.5t-122.5 -314.5q0 -96 30 -172t76.5 -122.5t107 -77.5t116.5 -42.5t110 -11.5q85 0 163.5 28t140.5 80t99.5 134t37.5 182zM1165 1831q67 0 115.5 -48.5t48.5 -115.5t-48.5 -115.5t-115.5 -48.5
t-115.5 48.5t-48.5 115.5t48.5 115.5t115.5 48.5zM582 1831q67 0 115 -48t48 -116t-48 -116t-115 -48q-68 0 -116 48.5t-48 115.5t48 115.5t116 48.5z" />
    <glyph glyph-name="multiply" unicode="&#xd7;" horiz-adv-x="1193" 
d="M111 395l303 303l-303 303l184 185l301 -303l305 303l182 -185l-303 -303l303 -303l-182 -184l-305 303l-301 -303z" />
    <glyph glyph-name="Oslash" unicode="&#xd8;" horiz-adv-x="1746" 
d="M1700 1282l-170 -152q158 -205 158 -432q0 -140 -57.5 -270t-159.5 -229t-252.5 -158t-325.5 -59q-90 0 -167.5 12t-140.5 36.5t-100 43.5t-88 49l-225 -199l-125 156l203 180q-162 202 -162 436q0 101 32 202t99 194.5t160.5 165t226 114.5t285.5 43q96 0 186 -18
t151 -45.5t97.5 -48.5t54.5 -37l179 157zM1280 909l-643 -573q110 -68 254 -68q189 0 313.5 117t124.5 309q0 99 -49 215zM500 481l643 576q-116 65 -264 65q-87 0 -164 -27.5t-136.5 -79t-94.5 -134t-35 -185.5q0 -124 51 -215z" />
    <glyph glyph-name="Ugrave" unicode="&#xd9;" horiz-adv-x="1685" 
d="M1544 1397v-760q0 -57 -2.5 -96.5t-13 -102.5t-37 -121.5t-68.5 -109.5q-187 -225 -587 -225q-398 0 -588 247q-50 68 -78.5 156.5t-28.5 241.5v770h353v-692q0 -143 24 -218q32 -111 122.5 -168t201.5 -57q72 0 131.5 21t97.5 55t60.5 65.5t35.5 63.5q17 42 21 87t4 151
v692h352zM438 1880h393l240 -387h-207z" />
    <glyph glyph-name="Uacute" unicode="&#xda;" horiz-adv-x="1685" 
d="M1544 1397v-760q0 -57 -2.5 -96.5t-13 -102.5t-37 -121.5t-68.5 -109.5q-187 -225 -587 -225q-398 0 -588 247q-50 68 -78.5 156.5t-28.5 241.5v770h353v-692q0 -143 24 -218q32 -111 122.5 -168t201.5 -57q72 0 131.5 21t97.5 55t60.5 65.5t35.5 63.5q17 42 21 87t4 151
v692h352zM1247 1880l-426 -387h-207l240 387h393z" />
    <glyph glyph-name="Ucircumflex" unicode="&#xdb;" horiz-adv-x="1685" 
d="M1544 1397v-760q0 -57 -2.5 -96.5t-13 -102.5t-37 -121.5t-68.5 -109.5q-187 -225 -587 -225q-398 0 -588 247q-50 68 -78.5 156.5t-28.5 241.5v770h353v-692q0 -143 24 -218q32 -111 122.5 -168t201.5 -57q72 0 131.5 21t97.5 55t60.5 65.5t35.5 63.5q17 42 21 87t4 151
v692h352zM1026 1841l240 -348h-191l-237 211l-234 -211h-186l235 348h373z" />
    <glyph glyph-name="Udieresis" unicode="&#xdc;" horiz-adv-x="1685" 
d="M1544 1397v-760q0 -57 -2.5 -96.5t-13 -102.5t-37 -121.5t-68.5 -109.5q-187 -225 -587 -225q-398 0 -588 247q-50 68 -78.5 156.5t-28.5 241.5v770h353v-692q0 -143 24 -218q32 -111 122.5 -168t201.5 -57q72 0 131.5 21t97.5 55t60.5 65.5t35.5 63.5q17 42 21 87t4 151
v692h352zM1135 1831q67 0 115 -48t48 -116t-48 -116t-115 -48t-115.5 48.5t-48.5 115.5t48.5 115.5t115.5 48.5zM551 1831q67 0 115.5 -48.5t48.5 -115.5t-48.5 -115.5t-115.5 -48.5t-115.5 48.5t-48.5 115.5t48.5 115.5t115.5 48.5z" />
    <glyph glyph-name="Yacute" unicode="&#xdd;" horiz-adv-x="1449" 
d="M1452 1397l-551 -744v-653h-350v653l-551 744h420l307 -439l307 439h418zM1192 1880l-426 -387h-207l240 387h393z" />
    <glyph glyph-name="Thorn" unicode="&#xde;" horiz-adv-x="1343" 
d="M158 1397h352v-281h219q62 0 98.5 -2t97 -15.5t109.5 -39.5q93 -49 153 -144.5t60 -212.5q0 -109 -53 -204t-147 -152q-50 -31 -111.5 -46t-101 -17t-117.5 -2h-207v-281h-352v1397zM633 858h-123v-321h115q34 0 51 0.5t49.5 3.5t50.5 8.5t42.5 17.5t37 29t22 43.5
t9.5 60.5q0 38 -11 66.5t-33.5 45t-44 26.5t-56.5 14t-54.5 5t-54.5 1z" />
    <glyph glyph-name="germandbls" unicode="&#xdf;" horiz-adv-x="1236" 
d="M133 0v928q0 49 2 80.5t10 83.5t29 98.5t55 85.5q18 20 41 38.5t66 44t108 41t142 15.5q215 0 350 -92q60 -42 98.5 -110.5t38.5 -149.5q0 -96 -52 -168t-128 -104q72 -23 123 -72q114 -112 114 -309q0 -104 -34.5 -187.5t-92.5 -135t-131.5 -78.5t-154.5 -27
q-73 0 -139 18v195q42 -7 49 -7q95 0 152 66t57 199q0 195 -138 245q-52 20 -108 17v147q192 0 192 182q0 42 -10.5 75.5t-27.5 53.5t-40 33t-45.5 18t-46.5 5q-42 0 -74 -12t-51.5 -36t-31.5 -49t-17 -62t-6.5 -62.5t-1.5 -63.5v-944h-297z" />
    <glyph glyph-name="agrave" unicode="&#xe0;" horiz-adv-x="1087" 
d="M1090 233v-165q-56 -35 -135.5 -60.5t-143.5 -25.5q-49 0 -82.5 10t-50.5 29t-23.5 32t-11.5 33q-47 -30 -81 -48.5t-98.5 -37t-131.5 -18.5q-110 0 -187 68t-77 179q0 45 13.5 84t39.5 67.5t50.5 49.5t60.5 38.5t53.5 24.5t44.5 17q205 70 299 96q0 23 -1 36.5t-9 40
t-23.5 42t-48.5 28.5t-80 13q-64 0 -126.5 -19.5t-108 -49t-73 -52t-42.5 -39.5v242q183 115 411 115q20 0 39 -1t58.5 -5t75 -14.5t74.5 -26t71.5 -43.5t52.5 -64q29 -52 29 -172v-373q0 -17 1 -26.5t5 -23t14 -20t27 -6.5q33 0 115 45zM629 229v228q-3 -1 -39.5 -15.5
t-68.5 -27.5t-42 -17q-110 -49 -110 -137q0 -46 29.5 -73t64.5 -27q91 0 166 69zM190 1360h338l152 -299h-152z" />
    <glyph glyph-name="aacute" unicode="&#xe1;" horiz-adv-x="1087" 
d="M1090 233v-165q-56 -35 -135.5 -60.5t-143.5 -25.5q-49 0 -82.5 10t-50.5 29t-23.5 32t-11.5 33q-47 -30 -81 -48.5t-98.5 -37t-131.5 -18.5q-110 0 -187 68t-77 179q0 45 13.5 84t39.5 67.5t50.5 49.5t60.5 38.5t53.5 24.5t44.5 17q205 70 299 96q0 23 -1 36.5t-9 40
t-23.5 42t-48.5 28.5t-80 13q-64 0 -126.5 -19.5t-108 -49t-73 -52t-42.5 -39.5v242q183 115 411 115q20 0 39 -1t58.5 -5t75 -14.5t74.5 -26t71.5 -43.5t52.5 -64q29 -52 29 -172v-373q0 -17 1 -26.5t5 -23t14 -20t27 -6.5q33 0 115 45zM629 229v228q-3 -1 -39.5 -15.5
t-68.5 -27.5t-42 -17q-110 -49 -110 -137q0 -46 29.5 -73t64.5 -27q91 0 166 69zM815 1360l-336 -299h-153l153 299h336z" />
    <glyph glyph-name="acircumflex" unicode="&#xe2;" horiz-adv-x="1087" 
d="M1090 233v-165q-56 -35 -135.5 -60.5t-143.5 -25.5q-49 0 -82.5 10t-50.5 29t-23.5 32t-11.5 33q-47 -30 -81 -48.5t-98.5 -37t-131.5 -18.5q-110 0 -187 68t-77 179q0 45 13.5 84t39.5 67.5t50.5 49.5t60.5 38.5t53.5 24.5t44.5 17q205 70 299 96q0 23 -1 36.5t-9 40
t-23.5 42t-48.5 28.5t-80 13q-64 0 -126.5 -19.5t-108 -49t-73 -52t-42.5 -39.5v242q183 115 411 115q20 0 39 -1t58.5 -5t75 -14.5t74.5 -26t71.5 -43.5t52.5 -64q29 -52 29 -172v-373q0 -17 1 -26.5t5 -23t14 -20t27 -6.5q33 0 115 45zM629 229v228q-3 -1 -39.5 -15.5
t-68.5 -27.5t-42 -17q-110 -49 -110 -137q0 -46 29.5 -73t64.5 -27q91 0 166 69zM643 1419l203 -358h-182l-160 178l-164 -178h-180l202 358h281z" />
    <glyph glyph-name="atilde" unicode="&#xe3;" horiz-adv-x="1087" 
d="M1090 233v-165q-56 -35 -135.5 -60.5t-143.5 -25.5q-49 0 -82.5 10t-50.5 29t-23.5 32t-11.5 33q-47 -30 -81 -48.5t-98.5 -37t-131.5 -18.5q-110 0 -187 68t-77 179q0 45 13.5 84t39.5 67.5t50.5 49.5t60.5 38.5t53.5 24.5t44.5 17q205 70 299 96q0 23 -1 36.5t-9 40
t-23.5 42t-48.5 28.5t-80 13q-64 0 -126.5 -19.5t-108 -49t-73 -52t-42.5 -39.5v242q183 115 411 115q20 0 39 -1t58.5 -5t75 -14.5t74.5 -26t71.5 -43.5t52.5 -64q29 -52 29 -172v-373q0 -17 1 -26.5t5 -23t14 -20t27 -6.5q33 0 115 45zM629 229v228q-3 -1 -39.5 -15.5
t-68.5 -27.5t-42 -17q-110 -49 -110 -137q0 -46 29.5 -73t64.5 -27q91 0 166 69zM240 1065h-136q3 36 9.5 70t23.5 79t42 77.5t69 55.5t100 23q44 0 80.5 -13t106.5 -48q98 -49 137 -49q35 0 57.5 23.5t32.5 86.5h139q-4 -63 -18.5 -116t-42 -98t-73 -70t-105.5 -25
q-61 0 -179 57l-36 18l-31 15.5t-22.5 10.5t-22.5 8.5t-17.5 3.5t-21.5 2q-25 0 -43 -11.5t-28 -30t-14.5 -35t-6.5 -34.5z" />
    <glyph glyph-name="adieresis" unicode="&#xe4;" horiz-adv-x="1087" 
d="M1090 233v-165q-56 -35 -135.5 -60.5t-143.5 -25.5q-49 0 -82.5 10t-50.5 29t-23.5 32t-11.5 33q-47 -30 -81 -48.5t-98.5 -37t-131.5 -18.5q-110 0 -187 68t-77 179q0 45 13.5 84t39.5 67.5t50.5 49.5t60.5 38.5t53.5 24.5t44.5 17q205 70 299 96q0 23 -1 36.5t-9 40
t-23.5 42t-48.5 28.5t-80 13q-64 0 -126.5 -19.5t-108 -49t-73 -52t-42.5 -39.5v242q183 115 411 115q20 0 39 -1t58.5 -5t75 -14.5t74.5 -26t71.5 -43.5t52.5 -64q29 -52 29 -172v-373q0 -17 1 -26.5t5 -23t14 -20t27 -6.5q33 0 115 45zM629 229v228q-3 -1 -39.5 -15.5
t-68.5 -27.5t-42 -17q-110 -49 -110 -137q0 -46 29.5 -73t64.5 -27q91 0 166 69zM711 1346q56 0 94.5 -38.5t38.5 -95.5q0 -54 -39 -93.5t-94 -39.5t-94 39.5t-39 93.5q0 56 39 95t94 39zM295 1346q55 0 94 -39t39 -95q0 -55 -38.5 -94t-94.5 -39q-55 0 -94 39.5t-39 93.5
q0 56 39 95t94 39z" />
    <glyph glyph-name="aring" unicode="&#xe5;" horiz-adv-x="1087" 
d="M1090 233v-165q-56 -35 -135.5 -60.5t-143.5 -25.5q-49 0 -82.5 10t-50.5 29t-23.5 32t-11.5 33q-47 -30 -81 -48.5t-98.5 -37t-131.5 -18.5q-110 0 -187 68t-77 179q0 45 13.5 84t39.5 67.5t50.5 49.5t60.5 38.5t53.5 24.5t44.5 17q205 70 299 96q0 23 -1 36.5t-9 40
t-23.5 42t-48.5 28.5t-80 13q-64 0 -126.5 -19.5t-108 -49t-73 -52t-42.5 -39.5v242q183 115 411 115q20 0 39 -1t58.5 -5t75 -14.5t74.5 -26t71.5 -43.5t52.5 -64q29 -52 29 -172v-373q0 -17 1 -26.5t5 -23t14 -20t27 -6.5q33 0 115 45zM629 229v228q-3 -1 -39.5 -15.5
t-68.5 -27.5t-42 -17q-110 -49 -110 -137q0 -46 29.5 -73t64.5 -27q91 0 166 69zM504 1432q85 0 146 -60.5t61 -146.5t-60.5 -147.5t-146.5 -61.5q-88 0 -148.5 60.5t-60.5 148.5q0 87 61 147t148 60zM502 1335q-46 0 -78.5 -32t-32.5 -78t32.5 -79.5t78.5 -33.5
q47 0 79.5 33.5t32.5 79.5t-32.5 78t-79.5 32z" />
    <glyph glyph-name="ae" unicode="&#xe6;" horiz-adv-x="1632" 
d="M1518 305v-194q-177 -129 -410 -129q-111 0 -213 33.5t-170 95.5q-41 -28 -67.5 -43.5t-77 -39t-109.5 -35t-125 -11.5q-65 0 -115.5 18t-79 45t-47 61t-24.5 62t-6 53q0 77 46 142t113 102q80 44 209 84t201 57q0 51 -4 64q-9 29 -30 49.5t-47 30.5t-47.5 14t-39.5 4
q-104 0 -204 -54.5t-156 -107.5v236q117 67 209.5 94t187.5 27q98 0 163 -26t136 -79q32 27 58.5 45.5t89 39t133.5 20.5q74 0 139 -22.5t106 -53.5t76 -72t50.5 -67t25.5 -50q43 -103 43 -272h-592q-3 -69 15.5 -121t53 -82t77 -44.5t92.5 -14.5q56 0 110 14t100 40t72 44
t58 43zM940 584h307q-8 96 -47.5 146t-109.5 50q-72 0 -109.5 -52t-40.5 -144zM643 225v232q-268 -77 -268 -203q0 -39 25.5 -68.5t66.5 -29.5q83 0 176 69z" />
    <glyph glyph-name="ccedilla" unicode="&#xe7;" horiz-adv-x="1015" 
d="M940 262v-215q-53 -26 -135.5 -44t-153.5 -21l-16 -41q158 -48 158 -166q0 -46 -21.5 -80t-52 -53t-72.5 -30.5t-74.5 -14.5t-66.5 -3q-41 0 -158 19v119q24 -1 39 -1.5t41.5 0t43.5 4.5t35 10.5t27 20t9 31.5q0 56 -103 64l56 121q-98 20 -174.5 60.5t-121.5 89
t-74 107.5t-39.5 112t-10.5 108q0 98 29.5 181t80.5 142t119.5 100t145.5 61t159 20q146 0 318 -60v-221q-74 32 -115 43q-58 18 -131 18q-71 0 -125 -20t-84 -49t-49 -67.5t-25 -70.5t-6 -63q0 -70 29.5 -134t79.5 -97q63 -43 174 -43q116 0 264 63z" />
    <glyph glyph-name="egrave" unicode="&#xe8;" horiz-adv-x="1155" 
d="M1044 297v-191q-175 -124 -430 -124q-120 0 -216 31.5t-154.5 81.5t-97.5 116.5t-54.5 130.5t-15.5 129q0 110 41 204t109.5 156t159 97t189.5 35q64 0 127.5 -15t130 -54t117 -97.5t82 -155t29.5 -217.5h-678q9 -127 91 -192.5t222 -65.5q80 0 148 21t104 43t96 67z
M389 580h410q-3 34 -16 67.5t-36 64.5t-63 50.5t-90 19.5q-52 0 -92 -19.5t-63 -51t-35.5 -65t-14.5 -66.5zM285 1360h338l151 -299h-151z" />
    <glyph glyph-name="eacute" unicode="&#xe9;" horiz-adv-x="1155" 
d="M1044 297v-191q-175 -124 -430 -124q-120 0 -216 31.5t-154.5 81.5t-97.5 116.5t-54.5 130.5t-15.5 129q0 110 41 204t109.5 156t159 97t189.5 35q64 0 127.5 -15t130 -54t117 -97.5t82 -155t29.5 -217.5h-678q9 -127 91 -192.5t222 -65.5q80 0 148 21t104 43t96 67z
M389 580h410q-3 34 -16 67.5t-36 64.5t-63 50.5t-90 19.5q-52 0 -92 -19.5t-63 -51t-35.5 -65t-14.5 -66.5zM909 1360l-336 -299h-153l153 299h336z" />
    <glyph glyph-name="ecircumflex" unicode="&#xea;" horiz-adv-x="1155" 
d="M1044 297v-191q-175 -124 -430 -124q-120 0 -216 31.5t-154.5 81.5t-97.5 116.5t-54.5 130.5t-15.5 129q0 110 41 204t109.5 156t159 97t189.5 35q64 0 127.5 -15t130 -54t117 -97.5t82 -155t29.5 -217.5h-678q9 -127 91 -192.5t222 -65.5q80 0 148 21t104 43t96 67z
M389 580h410q-3 34 -16 67.5t-36 64.5t-63 50.5t-90 19.5q-52 0 -92 -19.5t-63 -51t-35.5 -65t-14.5 -66.5zM727 1419l203 -358h-182l-160 178l-164 -178h-180l202 358h281z" />
    <glyph glyph-name="edieresis" unicode="&#xeb;" horiz-adv-x="1155" 
d="M1044 297v-191q-175 -124 -430 -124q-120 0 -216 31.5t-154.5 81.5t-97.5 116.5t-54.5 130.5t-15.5 129q0 110 41 204t109.5 156t159 97t189.5 35q64 0 127.5 -15t130 -54t117 -97.5t82 -155t29.5 -217.5h-678q9 -127 91 -192.5t222 -65.5q80 0 148 21t104 43t96 67z
M389 580h410q-3 34 -16 67.5t-36 64.5t-63 50.5t-90 19.5q-52 0 -92 -19.5t-63 -51t-35.5 -65t-14.5 -66.5zM795 1346q56 0 94.5 -38.5t38.5 -95.5q0 -54 -39 -93.5t-94 -39.5t-94 39.5t-39 93.5q0 56 39 95t94 39zM379 1346q55 0 94 -39t39 -95q0 -55 -38.5 -94t-94.5 -39
q-55 0 -94 39.5t-39 93.5q0 56 39 95t94 39z" />
    <glyph glyph-name="igrave" unicode="&#xec;" horiz-adv-x="561" 
d="M422 944v-944h-295v944h295zM-41 1360h338l152 -299h-152z" />
    <glyph glyph-name="iacute" unicode="&#xed;" horiz-adv-x="561" 
d="M422 944v-944h-295v944h295zM584 1360l-336 -299h-154l154 299h336z" />
    <glyph glyph-name="icircumflex" unicode="&#xee;" horiz-adv-x="561" 
d="M422 944v-944h-295v944h295zM412 1419l202 -358h-182l-160 178l-163 -178h-181l203 358h281z" />
    <glyph glyph-name="idieresis" unicode="&#xef;" horiz-adv-x="561" 
d="M422 944v-944h-295v944h295zM479 1346q56 0 94.5 -38.5t38.5 -95.5q0 -54 -39 -93.5t-94 -39.5t-94 39.5t-39 93.5q0 56 39 95t94 39zM63 1346q55 0 94.5 -39t39.5 -95q0 -55 -39 -94t-95 -39q-55 0 -94 39.5t-39 93.5q0 56 39 95t94 39z" />
    <glyph glyph-name="eth" unicode="&#xf0;" horiz-adv-x="1259" 
d="M674 1309l293 104l47 -125l-205 -71q35 -31 55.5 -49t63 -62.5t70 -82.5t63 -98.5t56 -120.5t35.5 -139.5t15 -164.5q0 -124 -39 -220t-96.5 -150.5t-134.5 -89.5t-142 -46.5t-130 -11.5q-149 0 -270 58t-193 169.5t-72 257.5q0 112 41 207t109 157.5t153 97t174 34.5
q47 0 84.5 -8t57 -16.5t53.5 -27.5q-44 79 -81.5 127.5t-90.5 100.5l-344 -125l-45 125l266 96q-97 63 -164 88l135 90q76 -21 124 -42.5t112 -61.5zM844 485q0 27 -2 50.5t-8.5 61t-21.5 66.5t-38 56.5t-62.5 43t-90.5 15.5q-54 0 -94 -22.5t-61.5 -55t-35 -78t-17 -82.5
t-3.5 -79q0 -132 49 -205q25 -38 68.5 -62t97.5 -24q45 0 81 15t58.5 37t38.5 55t24 59.5t12 61.5t4.5 51t0.5 36z" />
    <glyph glyph-name="ntilde" unicode="&#xf1;" horiz-adv-x="1204" 
d="M424 944v-135q65 75 137.5 114.5t169.5 39.5q118 0 195 -54.5t114 -130.5q24 -48 30.5 -96.5t6.5 -124.5v-557h-299v532q0 101 -14 136q-15 42 -51 65t-82 23q-41 0 -79 -18.5t-66 -49.5t-40 -47t-22 -33v-608h-297v944h297zM338 1065h-135q3 36 9 70t23.5 79t42 77.5
t68.5 55.5t100 23q44 0 80.5 -13t106.5 -48q98 -49 137 -49q35 0 57.5 23.5t32.5 86.5h139q-4 -63 -18.5 -116t-42 -98t-73 -70t-105.5 -25t-178 57q-11 5 -31.5 15.5t-27.5 14t-21 10t-20.5 8.5t-16.5 5t-18 4t-17 1q-25 0 -43 -11.5t-28 -30t-14.5 -35t-6.5 -34.5z" />
    <glyph glyph-name="ograve" unicode="&#xf2;" horiz-adv-x="1216" 
d="M1139 469q0 -106 -34.5 -192t-89 -139.5t-126 -90t-141 -51t-138.5 -14.5q-109 0 -205.5 33t-170 94t-116 153.5t-42.5 204.5q0 144 72 258.5t194 176t270 61.5q68 0 137.5 -15t140.5 -52t125.5 -91.5t89 -141.5t34.5 -194zM821 487q0 293 -219 293q-43 0 -76.5 -14
t-55 -33.5t-37 -51.5t-22.5 -57.5t-11 -62.5t-4.5 -54.5t-0.5 -45.5q0 -20 0.5 -35t4.5 -48t11.5 -57.5t23.5 -55.5t38 -51t57.5 -34t79.5 -14q211 0 211 321zM317 1360h338l152 -299h-152z" />
    <glyph glyph-name="oacute" unicode="&#xf3;" horiz-adv-x="1216" 
d="M1139 469q0 -106 -34.5 -192t-89 -139.5t-126 -90t-141 -51t-138.5 -14.5q-109 0 -205.5 33t-170 94t-116 153.5t-42.5 204.5q0 144 72 258.5t194 176t270 61.5q68 0 137.5 -15t140.5 -52t125.5 -91.5t89 -141.5t34.5 -194zM821 487q0 293 -219 293q-43 0 -76.5 -14
t-55 -33.5t-37 -51.5t-22.5 -57.5t-11 -62.5t-4.5 -54.5t-0.5 -45.5q0 -20 0.5 -35t4.5 -48t11.5 -57.5t23.5 -55.5t38 -51t57.5 -34t79.5 -14q211 0 211 321zM922 1360l-336 -299h-154l154 299h336z" />
    <glyph glyph-name="ocircumflex" unicode="&#xf4;" horiz-adv-x="1216" 
d="M1139 469q0 -106 -34.5 -192t-89 -139.5t-126 -90t-141 -51t-138.5 -14.5q-109 0 -205.5 33t-170 94t-116 153.5t-42.5 204.5q0 144 72 258.5t194 176t270 61.5q68 0 137.5 -15t140.5 -52t125.5 -91.5t89 -141.5t34.5 -194zM821 487q0 293 -219 293q-43 0 -76.5 -14
t-55 -33.5t-37 -51.5t-22.5 -57.5t-11 -62.5t-4.5 -54.5t-0.5 -45.5q0 -20 0.5 -35t4.5 -48t11.5 -57.5t23.5 -55.5t38 -51t57.5 -34t79.5 -14q211 0 211 321zM770 1419l203 -358h-182l-160 178l-164 -178h-180l202 358h281z" />
    <glyph glyph-name="otilde" unicode="&#xf5;" horiz-adv-x="1216" 
d="M1139 469q0 -106 -34.5 -192t-89 -139.5t-126 -90t-141 -51t-138.5 -14.5q-109 0 -205.5 33t-170 94t-116 153.5t-42.5 204.5q0 144 72 258.5t194 176t270 61.5q68 0 137.5 -15t140.5 -52t125.5 -91.5t89 -141.5t34.5 -194zM821 487q0 293 -219 293q-43 0 -76.5 -14
t-55 -33.5t-37 -51.5t-22.5 -57.5t-11 -62.5t-4.5 -54.5t-0.5 -45.5q0 -20 0.5 -35t4.5 -48t11.5 -57.5t23.5 -55.5t38 -51t57.5 -34t79.5 -14q211 0 211 321zM367 1065h-136q3 36 9.5 70t23.5 79t42 77.5t69 55.5t100 23q44 0 80.5 -13t106.5 -48q98 -49 137 -49
q35 0 57.5 23.5t32.5 86.5h139q-4 -63 -19 -116t-42.5 -97.5t-73 -70t-105.5 -25.5t-178 57l-36 18l-31 15.5t-22.5 10.5t-22.5 8.5t-17.5 3.5t-21.5 2q-25 0 -43 -11.5t-28 -30t-14.5 -35t-6.5 -34.5z" />
    <glyph glyph-name="odieresis" unicode="&#xf6;" horiz-adv-x="1216" 
d="M1139 469q0 -106 -34.5 -192t-89 -139.5t-126 -90t-141 -51t-138.5 -14.5q-109 0 -205.5 33t-170 94t-116 153.5t-42.5 204.5q0 144 72 258.5t194 176t270 61.5q68 0 137.5 -15t140.5 -52t125.5 -91.5t89 -141.5t34.5 -194zM821 487q0 293 -219 293q-43 0 -76.5 -14
t-55 -33.5t-37 -51.5t-22.5 -57.5t-11 -62.5t-4.5 -54.5t-0.5 -45.5q0 -20 0.5 -35t4.5 -48t11.5 -57.5t23.5 -55.5t38 -51t57.5 -34t79.5 -14q211 0 211 321zM838 1346q56 0 94.5 -38.5t38.5 -95.5q0 -54 -39 -93.5t-94 -39.5t-94 39.5t-39 93.5q0 56 39 95t94 39z
M422 1346q55 0 94 -39t39 -95q0 -55 -38.5 -94t-94.5 -39q-55 0 -94 39.5t-39 93.5q0 56 39 95t94 39z" />
    <glyph glyph-name="divide" unicode="&#xf7;" horiz-adv-x="1193" 
d="M84 567v262h1026v-262h-1026zM598 1251q60 0 103.5 -43.5t43.5 -105.5t-43 -106t-104 -44q-62 0 -105.5 43.5t-43.5 106.5t43.5 106t105.5 43zM598 444q60 0 103.5 -43t43.5 -106q0 -62 -43 -106t-104 -44q-62 0 -105.5 43.5t-43.5 106.5t43.5 106t105.5 43z" />
    <glyph glyph-name="oslash" unicode="&#xf8;" horiz-adv-x="1216" 
d="M1130 965l-126 -146q34 -39 49.5 -59.5t41 -65t37 -98.5t11.5 -121q0 -91 -24.5 -167.5t-67 -129t-95.5 -92t-113.5 -61.5t-116.5 -32.5t-110 -10.5q-121 0 -280 59l-133 -152l-105 93l123 141q-41 39 -71.5 88t-44 87.5t-21.5 81.5t-9 60.5t-1 34.5q0 72 21 141.5
t65.5 132.5t107.5 110.5t153.5 75.5t196.5 28q60 0 113.5 -10t81 -19.5t76.5 -30.5l133 166zM813 594l-330 -385q57 -41 125 -41q43 0 78 13.5t56.5 33.5t37 51.5t23 56.5t11.5 61t4.5 53.5t0.5 43.5q0 75 -6 113zM408 342l335 391q-67 45 -143 45q-24 0 -48.5 -6.5t-54 -23
t-53.5 -53.5t-36 -91q-15 -52 -15 -137q0 -26 2 -49t4 -33.5t5.5 -25.5t3.5 -17z" />
    <glyph glyph-name="ugrave" unicode="&#xf9;" horiz-adv-x="1193" 
d="M1067 944v-944h-299v135q-108 -153 -299 -153q-68 0 -125 19.5t-95.5 51.5t-64 66t-39.5 71q-20 57 -20 164v590h299v-504q0 -33 0.5 -50.5t3 -49t7.5 -49t15.5 -40t25.5 -34.5t38 -20.5t53 -8.5q114 0 201 134v622h299zM285 1360h338l151 -299h-151z" />
    <glyph glyph-name="uacute" unicode="&#xfa;" horiz-adv-x="1193" 
d="M1067 944v-944h-299v135q-108 -153 -299 -153q-68 0 -125 19.5t-95.5 51.5t-64 66t-39.5 71q-20 57 -20 164v590h299v-504q0 -33 0.5 -50.5t3 -49t7.5 -49t15.5 -40t25.5 -34.5t38 -20.5t53 -8.5q114 0 201 134v622h299zM909 1360l-336 -299h-153l153 299h336z" />
    <glyph glyph-name="ucircumflex" unicode="&#xfb;" horiz-adv-x="1193" 
d="M1067 944v-944h-299v135q-108 -153 -299 -153q-68 0 -125 19.5t-95.5 51.5t-64 66t-39.5 71q-20 57 -20 164v590h299v-504q0 -33 0.5 -50.5t3 -49t7.5 -49t15.5 -40t25.5 -34.5t38 -20.5t53 -8.5q114 0 201 134v622h299zM737 1419l203 -358h-182l-160 178l-164 -178h-180
l203 358h280z" />
    <glyph glyph-name="udieresis" unicode="&#xfc;" horiz-adv-x="1193" 
d="M1067 944v-944h-299v135q-108 -153 -299 -153q-68 0 -125 19.5t-95.5 51.5t-64 66t-39.5 71q-20 57 -20 164v590h299v-504q0 -33 0.5 -50.5t3 -49t7.5 -49t15.5 -40t25.5 -34.5t38 -20.5t53 -8.5q114 0 201 134v622h299zM805 1346q56 0 94.5 -38.5t38.5 -95.5
q0 -54 -39 -93.5t-94 -39.5t-94 39.5t-39 93.5q0 56 39 95t94 39zM389 1346q55 0 94 -39t39 -95q0 -55 -38.5 -94t-94.5 -39q-55 0 -94 39.5t-39 93.5q0 56 39 95t94 39z" />
    <glyph glyph-name="yacute" unicode="&#xfd;" horiz-adv-x="1044" 
d="M1042 944l-632 -1397h-316l277 607l-369 790h317l199 -467l213 467h311zM836 1360l-336 -299h-154l154 299h336z" />
    <glyph glyph-name="thorn" unicode="&#xfe;" horiz-adv-x="1193" 
d="M416 1397v-535q122 101 270 101q81 0 159 -33.5t139.5 -93t99.5 -152t38 -201.5q0 -236 -131.5 -368.5t-331.5 -132.5q-137 0 -243 65v-500h-299v1850h299zM416 676v-434q82 -62 170 -62q38 0 75.5 13.5t74 43.5t59 89.5t22.5 140.5q0 135 -53 205q-24 35 -69 57.5
t-97 22.5q-47 0 -99.5 -22.5t-82.5 -53.5z" />
    <glyph glyph-name="ydieresis" unicode="&#xff;" horiz-adv-x="1044" 
d="M1042 944l-632 -1397h-316l277 607l-369 790h317l199 -467l213 467h311zM752 1346q56 0 94.5 -38.5t38.5 -95.5q0 -54 -39 -93.5t-94 -39.5t-94.5 39.5t-39.5 93.5q0 56 39 95t95 39zM336 1346q55 0 94 -39t39 -95q0 -55 -38.5 -94t-94.5 -39q-55 0 -94 39.5t-39 93.5
q0 56 39 95t94 39z" />
    <glyph glyph-name="Amacron" unicode="&#x100;" horiz-adv-x="1599" 
d="M973 1397l620 -1397h-374l-115 276h-625l-104 -276h-369l563 1397h404zM1001 520l-225 541l-205 -541h430zM1249 1749v-240h-901v240h901z" />
    <glyph glyph-name="amacron" unicode="&#x101;" horiz-adv-x="1087" 
d="M1090 233v-165q-56 -35 -135.5 -60.5t-143.5 -25.5q-49 0 -82.5 10t-50.5 29t-23.5 32t-11.5 33q-47 -30 -81 -48.5t-98.5 -37t-131.5 -18.5q-110 0 -187 68t-77 179q0 45 13.5 84t39.5 67.5t50.5 49.5t60.5 38.5t53.5 24.5t44.5 17q205 70 299 96q0 23 -1 36.5t-9 40
t-23.5 42t-48.5 28.5t-80 13q-64 0 -126.5 -19.5t-108 -49t-73 -52t-42.5 -39.5v242q183 115 411 115q20 0 39 -1t58.5 -5t75 -14.5t74.5 -26t71.5 -43.5t52.5 -64q29 -52 29 -172v-373q0 -17 1 -26.5t5 -23t14 -20t27 -6.5q33 0 115 45zM629 229v228q-3 -1 -39.5 -15.5
t-68.5 -27.5t-42 -17q-110 -49 -110 -137q0 -46 29.5 -73t64.5 -27q91 0 166 69zM899 1315v-205h-793v205h793z" />
    <glyph glyph-name="Abreve" unicode="&#x102;" horiz-adv-x="1599" 
d="M973 1397l620 -1397h-374l-115 276h-625l-104 -276h-369l563 1397h404zM1001 520l-225 541l-205 -541h430zM365 1868h227q45 -152 205 -152q152 0 211 152h225q-5 -62 -36 -126t-83 -120.5t-134.5 -92.5t-180.5 -36q-96 0 -178.5 36t-135.5 92.5t-84 121t-36 125.5z" />
    <glyph glyph-name="abreve" unicode="&#x103;" horiz-adv-x="1087" 
d="M1090 233v-165q-56 -35 -135.5 -60.5t-143.5 -25.5q-49 0 -82.5 10t-50.5 29t-23.5 32t-11.5 33q-47 -30 -81 -48.5t-98.5 -37t-131.5 -18.5q-110 0 -187 68t-77 179q0 45 13.5 84t39.5 67.5t50.5 49.5t60.5 38.5t53.5 24.5t44.5 17q205 70 299 96q0 23 -1 36.5t-9 40
t-23.5 42t-48.5 28.5t-80 13q-64 0 -126.5 -19.5t-108 -49t-73 -52t-42.5 -39.5v242q183 115 411 115q20 0 39 -1t58.5 -5t75 -14.5t74.5 -26t71.5 -43.5t52.5 -64q29 -52 29 -172v-373q0 -17 1 -26.5t5 -23t14 -20t27 -6.5q33 0 115 45zM629 229v228q-3 -1 -39.5 -15.5
t-68.5 -27.5t-42 -17q-110 -49 -110 -137q0 -46 29.5 -73t64.5 -27q91 0 166 69zM129 1411h205q14 -64 64 -95.5t104 -31.5q134 0 172 127h203q-4 -48 -28.5 -105.5t-68 -113.5t-115.5 -93.5t-157 -37.5q-149 0 -245 93t-134 257z" />
    <glyph glyph-name="Aogonek" unicode="&#x104;" horiz-adv-x="1599" 
d="M1581 -211v-182q-81 -35 -174 -35q-109 0 -171 70.5t-62 187.5q0 90 45 170l-115 276h-625l-104 -276h-369l563 1397h404l620 -1397h-190q-29 -69 -29 -102q0 -36 15 -62t38 -38t40.5 -16.5t31.5 -4.5q17 0 82 12zM1001 520l-225 541l-205 -541h430z" />
    <glyph glyph-name="aogonek" unicode="&#x105;" horiz-adv-x="1087" 
d="M1073 -190v-164q-76 -31 -155 -31q-50 0 -89 15t-61.5 38.5t-37.5 54.5t-20 58.5t-5 56.5q0 82 34 152q-43 12 -64.5 33t-31.5 63q-47 -30 -81 -48.5t-98.5 -37t-131.5 -18.5q-110 0 -187 68t-77 179q0 45 13.5 84t39.5 67.5t50.5 49.5t60.5 38.5t53.5 24.5t44.5 17
q205 70 299 96q0 23 -1 36.5t-9 40t-23.5 42t-48.5 28.5t-80 13q-64 0 -126.5 -19.5t-108 -49t-73 -52t-42.5 -39.5v242q183 115 411 115q20 0 39 -1t58.5 -5t75 -14.5t74.5 -26t71.5 -43.5t52.5 -64q29 -52 29 -172v-373q0 -17 1 -26.5t5 -23t14 -20t27 -6.5q33 0 115 45
v-165q-85 -51 -181 -74q-22 -54 -22 -86q0 -56 37.5 -82.5t79.5 -26.5q20 0 69 11zM629 229v228q-3 -1 -39.5 -15.5t-68.5 -27.5t-42 -17q-110 -49 -110 -137q0 -46 29.5 -73t64.5 -27q91 0 166 69z" />
    <glyph glyph-name="Cacute" unicode="&#x106;" horiz-adv-x="1554" 
d="M1434 442v-321q-146 -78 -276 -108.5t-273 -30.5q-158 0 -292.5 39.5t-229 108t-161 159.5t-98.5 193.5t-32 211.5q0 107 32.5 210t101.5 196t166.5 163t237.5 111t305 41q168 0 296.5 -38.5t205.5 -84.5v-321q-27 21 -66.5 42.5t-100.5 48t-143 43.5t-167 17
q-221 0 -363.5 -117t-142.5 -307q0 -100 40.5 -182t109.5 -135t158 -82t188 -29q178 0 370 97zM1251 1880l-426 -387h-207l240 387h393z" />
    <glyph glyph-name="cacute" unicode="&#x107;" horiz-adv-x="1017" 
d="M942 258v-213q-172 -63 -319 -63q-156 0 -278 54.5t-195.5 166.5t-73.5 266q0 97 30.5 178.5t82 139t120.5 98t145 59.5t156 19q156 0 318 -62v-221q-118 63 -242 63q-82 0 -142.5 -26.5t-91.5 -69.5t-45 -87t-14 -89q0 -53 17 -101.5t50 -88.5t87 -64t123 -24
q60 0 115 14.5t157 50.5zM881 1360l-336 -299h-154l154 299h336z" />
    <glyph glyph-name="Ccircumflex" unicode="&#x108;" horiz-adv-x="1554" 
d="M1434 442v-321q-146 -78 -276 -108.5t-273 -30.5q-158 0 -292.5 39.5t-229 108t-161 159.5t-98.5 193.5t-32 211.5q0 107 32.5 210t101.5 196t166.5 163t237.5 111t305 41q168 0 296.5 -38.5t205.5 -84.5v-321q-27 21 -66.5 42.5t-100.5 48t-143 43.5t-167 17
q-221 0 -363.5 -117t-142.5 -307q0 -100 40.5 -182t109.5 -135t158 -82t188 -29q178 0 370 97zM1010 1841l239 -348h-190l-238 211l-233 -211h-187l236 348h373z" />
    <glyph glyph-name="ccircumflex" unicode="&#x109;" horiz-adv-x="1017" 
d="M942 258v-213q-172 -63 -319 -63q-156 0 -278 54.5t-195.5 166.5t-73.5 266q0 97 30.5 178.5t82 139t120.5 98t145 59.5t156 19q156 0 318 -62v-221q-118 63 -242 63q-82 0 -142.5 -26.5t-91.5 -69.5t-45 -87t-14 -89q0 -53 17 -101.5t50 -88.5t87 -64t123 -24
q60 0 115 14.5t157 50.5zM678 1419l203 -358h-183l-159 178l-164 -178h-180l202 358h281z" />
    <glyph glyph-name="Cdotaccent" unicode="&#x10a;" horiz-adv-x="1579" 
d="M1458 442v-321q-146 -78 -276 -108.5t-273 -30.5q-158 0 -292.5 39.5t-229 108t-161 159.5t-98.5 193.5t-32 211.5q0 107 32.5 210t102 196t167 163t237.5 111t305 41q168 0 296.5 -38.5t205.5 -84.5v-321q-27 21 -66.5 42.5t-100.5 48t-143 43.5t-167 17
q-221 0 -363.5 -117t-142.5 -307q0 -132 70 -231.5t181 -148t244 -48.5q179 0 371 97zM870 1831q68 0 116 -48.5t48 -115.5t-48 -115.5t-116 -48.5q-67 0 -115 48t-48 116t48 116t115 48z" />
    <glyph glyph-name="cdotaccent" unicode="&#x10b;" horiz-adv-x="1024" 
d="M948 258v-213q-172 -63 -319 -63q-156 0 -278 54.5t-195.5 166.5t-73.5 266q0 97 30.5 178.5t82 139t120.5 98t145 59.5t156 19q156 0 318 -62v-221q-118 63 -242 63q-82 0 -142.5 -26.5t-91.5 -69.5t-45 -87t-14 -89q0 -53 17 -101.5t50 -88.5t87 -64t123 -24
q60 0 115 14.5t157 50.5zM545 1346q55 0 94 -39t39 -95q0 -54 -39 -93.5t-94 -39.5q-56 0 -94.5 39t-38.5 94q0 56 39 95t94 39z" />
    <glyph glyph-name="Ccaron" unicode="&#x10c;" horiz-adv-x="1554" 
d="M1434 442v-321q-146 -78 -276 -108.5t-273 -30.5q-158 0 -292.5 39.5t-229 108t-161 159.5t-98.5 193.5t-32 211.5q0 107 32.5 210t101.5 196t166.5 163t237.5 111t305 41q168 0 296.5 -38.5t205.5 -84.5v-321q-27 21 -66.5 42.5t-100.5 48t-143 43.5t-167 17
q-221 0 -363.5 -117t-142.5 -307q0 -100 40.5 -182t109.5 -135t158 -82t188 -29q178 0 370 97zM651 1493l-239 348h190l238 -213l233 213h187l-236 -348h-373z" />
    <glyph glyph-name="ccaron" unicode="&#x10d;" horiz-adv-x="1017" 
d="M942 258v-213q-172 -63 -319 -63q-156 0 -278 54.5t-195.5 166.5t-73.5 266q0 97 30.5 178.5t82 139t120.5 98t145 59.5t156 19q156 0 318 -62v-221q-118 63 -242 63q-82 0 -142.5 -26.5t-91.5 -69.5t-45 -87t-14 -89q0 -53 17 -101.5t50 -88.5t87 -64t123 -24
q60 0 115 14.5t157 50.5zM418 1061l-203 358h182l160 -190l164 190h180l-203 -358h-280z" />
    <glyph glyph-name="Dcaron" unicode="&#x10e;" horiz-adv-x="1642" 
d="M154 1397h569q216 0 379 -56q28 -10 60 -25t77 -43.5t85.5 -64t82.5 -87.5t72.5 -111.5t49.5 -140t19 -169.5q0 -50 -5.5 -100t-26.5 -121.5t-56 -133.5t-100 -128t-152 -113q-102 -55 -217.5 -79.5t-294.5 -24.5h-542v1397zM682 1130h-176v-864h141q135 0 196.5 9.5
t110.5 31.5q109 47 171.5 148.5t62.5 246.5q0 60 -12 115.5t-38 109t-73.5 97t-112.5 70.5q-42 17 -93 25.5t-81.5 9.5t-95.5 1zM575 1493l-239 348h190l238 -213l233 213h187l-236 -348h-373z" />
    <glyph glyph-name="dcaron" unicode="&#x10f;" horiz-adv-x="1429" 
d="M1073 1397v-1397h-295v76q-120 -94 -262 -94q-79 0 -154.5 30.5t-140 88.5t-104 154.5t-39.5 217.5q0 114 36.5 208t98.5 155t144 94t175 33q128 0 246 -60v494h295zM778 258v451q-9 7 -28.5 18t-59 24t-76.5 13q-95 0 -161 -66q-21 -22 -34.5 -44t-25.5 -70.5
t-12 -114.5q0 -73 19.5 -128t45.5 -83t60.5 -44.5t56.5 -20t41 -3.5q40 0 78.5 13.5t53.5 24t42 30.5zM1159 836v57q94 108 82 233q-92 43 -92 144q0 63 47 104t107 41q68 0 124 -54.5t56 -158.5q0 -130 -90.5 -239.5t-233.5 -126.5z" />
    <glyph glyph-name="Dcroat" unicode="&#x110;" horiz-adv-x="1642" 
d="M154 606h-170v187h170v604h569q216 0 379 -56q28 -10 60 -25t77 -43.5t85.5 -64t82.5 -87.5t72.5 -111.5t49.5 -140t19 -169.5q0 -50 -5.5 -100t-26.5 -121.5t-56 -133.5t-100 -128t-152 -113q-102 -55 -217.5 -79.5t-294.5 -24.5h-542v606zM813 606h-307v-340h141
q135 0 196.5 9.5t110.5 31.5q109 47 171.5 148.5t62.5 246.5q0 60 -12 115.5t-38 109t-73.5 97t-112.5 70.5q-42 17 -93 25.5t-81.5 9.5t-95.5 1h-176v-337h307v-187z" />
    <glyph glyph-name="dcroat" unicode="&#x111;" horiz-adv-x="1193" 
d="M1071 1245h113v-149h-113v-1096h-295v76q-120 -94 -262 -94q-79 0 -155 30.5t-140.5 88t-104.5 154.5t-40 218q0 114 36.5 208t99.5 155t145 94t175 33q128 0 246 -60v193h-180v149h180v152h295v-152zM776 258v451q-9 7 -28.5 18t-59.5 24t-78 13q-93 0 -159 -66
q-21 -22 -34.5 -44t-25.5 -70.5t-12 -114.5q0 -73 19.5 -128t45 -83t60 -44.5t56.5 -20t42 -3.5q40 0 78.5 13.5t53.5 24t42 30.5z" />
    <glyph glyph-name="Emacron" unicode="&#x112;" horiz-adv-x="1300" 
d="M1190 256v-256h-1030v1397h1016v-260h-664v-283h633v-262h-633v-336h678zM1130 1749v-240h-901v240h901z" />
    <glyph glyph-name="emacron" unicode="&#x113;" horiz-adv-x="1155" 
d="M1044 297v-191q-175 -124 -430 -124q-120 0 -216 31.5t-154.5 81.5t-97.5 116.5t-54.5 130.5t-15.5 129q0 110 41 204t109.5 156t159 97t189.5 35q64 0 127.5 -15t130 -54t117 -97.5t82 -155t29.5 -217.5h-678q9 -127 91 -192.5t222 -65.5q80 0 148 21t104 43t96 67z
M389 580h410q-3 34 -16 67.5t-36 64.5t-63 50.5t-90 19.5q-52 0 -92 -19.5t-63 -51t-35.5 -65t-14.5 -66.5zM993 1315v-205h-792v205h792z" />
    <glyph glyph-name="Ebreve" unicode="&#x114;" horiz-adv-x="1300" 
d="M1190 256v-256h-1030v1397h1016v-260h-664v-283h633v-262h-633v-336h678zM256 1868h227q45 -152 205 -152q152 0 211 152h225q-5 -62 -36 -126t-83 -120.5t-134.5 -92.5t-180.5 -36q-96 0 -178.5 36t-135.5 92.5t-84 121t-36 125.5z" />
    <glyph glyph-name="ebreve" unicode="&#x115;" horiz-adv-x="1155" 
d="M1044 297v-191q-175 -124 -430 -124q-120 0 -216 31.5t-154.5 81.5t-97.5 116.5t-54.5 130.5t-15.5 129q0 110 41 204t109.5 156t159 97t189.5 35q64 0 127.5 -15t130 -54t117 -97.5t82 -155t29.5 -217.5h-678q9 -127 91 -192.5t222 -65.5q80 0 148 21t104 43t96 67z
M389 580h410q-3 34 -16 67.5t-36 64.5t-63 50.5t-90 19.5q-52 0 -92 -19.5t-63 -51t-35.5 -65t-14.5 -66.5zM193 1411h204q14 -64 64 -95.5t104 -31.5q134 0 172 127h203q-4 -48 -28.5 -105.5t-68 -113.5t-115.5 -93.5t-157 -37.5q-149 0 -244.5 93t-133.5 257z" />
    <glyph glyph-name="Edotaccent" unicode="&#x116;" horiz-adv-x="1300" 
d="M1190 256v-256h-1030v1397h1016v-260h-664v-283h633v-262h-633v-336h678zM680 1831q68 0 116 -48.5t48 -115.5t-48 -115.5t-116 -48.5t-116 48.5t-48 115.5t48 115.5t116 48.5z" />
    <glyph glyph-name="edotaccent" unicode="&#x117;" horiz-adv-x="1155" 
d="M1044 297v-191q-175 -124 -430 -124q-120 0 -216 31.5t-154.5 81.5t-97.5 116.5t-54.5 130.5t-15.5 129q0 110 41 204t109.5 156t159 97t189.5 35q64 0 127.5 -15t130 -54t117 -97.5t82 -155t29.5 -217.5h-678q9 -127 91 -192.5t222 -65.5q80 0 148 21t104 43t96 67z
M389 580h410q-3 34 -16 67.5t-36 64.5t-63 50.5t-90 19.5q-52 0 -92 -19.5t-63 -51t-35.5 -65t-14.5 -66.5zM588 1346q55 0 94 -39t39 -95q0 -54 -39 -93.5t-94 -39.5q-56 0 -94.5 39t-38.5 94q0 56 39 95t94 39z" />
    <glyph glyph-name="Eogonek" unicode="&#x118;" horiz-adv-x="1300" 
d="M1190 -211v-182q-81 -35 -174 -35q-109 0 -172.5 68t-63.5 184q0 91 47 176h-667v1397h1016v-260h-664v-283h633v-262h-633v-336h678v-256h-178q-29 -67 -29 -100q0 -61 37.5 -92t93.5 -31q36 0 76 12z" />
    <glyph glyph-name="eogonek" unicode="&#x119;" horiz-adv-x="1155" 
d="M1036 -190v-164q-76 -31 -159 -31q-101 0 -155 66t-54 161q0 80 32 144q-40 -4 -75 -4q-113 0 -198.5 21t-162.5 77q-188 142 -188 391q0 110 41 204t109.5 156t159 97t189.5 35q64 0 127.5 -15t130 -54t117 -97.5t82 -155t29.5 -217.5h-678q9 -127 91 -192.5t222 -65.5
q80 0 148 21t104 43t96 67v-191q-65 -45 -159 -81q-35 -84 -35 -121q0 -50 36.5 -77.5t78.5 -27.5q25 0 71 11zM389 580h410q-3 34 -16 67.5t-36 64.5t-63 50.5t-90 19.5q-52 0 -92 -19.5t-63 -51t-35.5 -65t-14.5 -66.5z" />
    <glyph glyph-name="Ecaron" unicode="&#x11a;" horiz-adv-x="1300" 
d="M1190 256v-256h-1030v1397h1016v-260h-664v-283h633v-262h-633v-336h678zM496 1493l-240 348h190l238 -213l234 213h186l-236 -348h-372z" />
    <glyph glyph-name="ecaron" unicode="&#x11b;" horiz-adv-x="1155" 
d="M1044 297v-191q-175 -124 -430 -124q-120 0 -216 31.5t-154.5 81.5t-97.5 116.5t-54.5 130.5t-15.5 129q0 110 41 204t109.5 156t159 97t189.5 35q64 0 127.5 -15t130 -54t117 -97.5t82 -155t29.5 -217.5h-678q9 -127 91 -192.5t222 -65.5q80 0 148 21t104 43t96 67z
M389 580h410q-3 34 -16 67.5t-36 64.5t-63 50.5t-90 19.5q-52 0 -92 -19.5t-63 -51t-35.5 -65t-14.5 -66.5zM457 1061l-203 358h182l160 -190l164 190h180l-203 -358h-280z" />
    <glyph glyph-name="Gcircumflex" unicode="&#x11c;" horiz-adv-x="1646" 
d="M1464 1300v-303q-274 127 -520 127q-194 0 -319 -80q-83 -50 -137 -142t-54 -216q0 -127 66 -223t169.5 -143.5t225.5 -47.5q121 0 250 50v163h-201v260h555v-575q-106 -89 -265.5 -138.5t-332.5 -49.5q-169 0 -319 49t-263.5 139t-180 226.5t-66.5 301.5
q0 215 107.5 378.5t298.5 251t437 87.5q97 0 186.5 -12t164.5 -34t111.5 -35t86.5 -34zM1030 1841l240 -348h-191l-237 211l-234 -211h-186l235 348h373z" />
    <glyph glyph-name="gcircumflex" unicode="&#x11d;" horiz-adv-x="1110" 
d="M1087 944v-196h-137q47 -78 47 -160q0 -16 -2.5 -33.5t-9.5 -48.5t-25 -60.5t-45 -60t-73 -56.5t-105 -42q-71 -18 -172 -23q-51 -4 -71.5 -24t-20.5 -39q0 -34 47 -47t166 -21q37 -2 73 -8.5t80 -19t80 -34.5t67.5 -52.5t49 -76t17.5 -100.5q0 -61 -22 -111t-57.5 -81
t-61.5 -47t-52 -27q-62 -26 -126 -36.5t-167 -10.5q-197 0 -303 37q-94 34 -150.5 95t-56.5 142q0 33 11 64t37 64.5t78.5 62t127.5 47.5q-116 35 -116 125q0 29 13 52t29.5 36.5t44.5 25.5t44.5 16.5t42.5 10.5q-47 8 -92.5 30.5t-85 58.5t-63.5 90t-24 116q0 110 55.5 182
t129.5 109q100 51 274 51h524zM725 602q0 64 -48 115t-126 51q-80 0 -124 -55t-44 -117q0 -69 50.5 -118.5t119.5 -49.5q75 0 123.5 54t48.5 120zM788 -176q0 25 -13.5 44t-38 29.5t-48 17.5t-53.5 9.5t-43.5 3t-28.5 0.5q-17 0 -30.5 -0.5t-45 -3.5t-54.5 -10.5t-48.5 -19
t-39 -32.5t-13.5 -48q0 -11 3.5 -22.5t17 -28t36.5 -28.5t67 -21t103 -9q71 0 107 8.5t67 26.5q25 14 40 38.5t15 45.5zM696 1419l203 -358h-182l-160 178l-164 -178h-180l203 358h280z" />
    <glyph glyph-name="Gbreve" unicode="&#x11e;" horiz-adv-x="1646" 
d="M1464 1300v-303q-274 127 -520 127q-194 0 -319 -80q-83 -50 -137 -142t-54 -216q0 -127 66 -223t169.5 -143.5t225.5 -47.5q121 0 250 50v163h-201v260h555v-575q-106 -89 -265.5 -138.5t-332.5 -49.5q-169 0 -319 49t-263.5 139t-180 226.5t-66.5 301.5
q0 215 107.5 378.5t298.5 251t437 87.5q97 0 186.5 -12t164.5 -34t111.5 -35t86.5 -34zM442 1868h228q45 -152 204 -152q152 0 211 152h226q-5 -62 -36 -126t-83 -120.5t-134.5 -92.5t-180.5 -36q-96 0 -178.5 36t-135.5 92.5t-84.5 121t-36.5 125.5z" />
    <glyph glyph-name="gbreve" unicode="&#x11f;" horiz-adv-x="1110" 
d="M1087 944v-196h-137q47 -78 47 -160q0 -16 -2.5 -33.5t-9.5 -48.5t-25 -60.5t-45 -60t-73 -56.5t-105 -42q-71 -18 -172 -23q-51 -4 -71.5 -24t-20.5 -39q0 -34 47 -47t166 -21q37 -2 73 -8.5t80 -19t80 -34.5t67.5 -52.5t49 -76t17.5 -100.5q0 -61 -22 -111t-57.5 -81
t-61.5 -47t-52 -27q-62 -26 -126 -36.5t-167 -10.5q-197 0 -303 37q-94 34 -150.5 95t-56.5 142q0 33 11 64t37 64.5t78.5 62t127.5 47.5q-116 35 -116 125q0 29 13 52t29.5 36.5t44.5 25.5t44.5 16.5t42.5 10.5q-47 8 -92.5 30.5t-85 58.5t-63.5 90t-24 116q0 110 55.5 182
t129.5 109q100 51 274 51h524zM725 602q0 64 -48 115t-126 51q-80 0 -124 -55t-44 -117q0 -69 50.5 -118.5t119.5 -49.5q75 0 123.5 54t48.5 120zM788 -176q0 25 -13.5 44t-38 29.5t-48 17.5t-53.5 9.5t-43.5 3t-28.5 0.5q-17 0 -30.5 -0.5t-45 -3.5t-54.5 -10.5t-48.5 -19
t-39 -32.5t-13.5 -48q0 -11 3.5 -22.5t17 -28t36.5 -28.5t67 -21t103 -9q71 0 107 8.5t67 26.5q25 14 40 38.5t15 45.5zM213 1411h205q14 -64 64 -95.5t104 -31.5q134 0 172 127h203q-4 -48 -28.5 -105.5t-68 -113.5t-115.5 -93.5t-157 -37.5q-149 0 -245 93t-134 257z" />
    <glyph glyph-name="Gdotaccent" unicode="&#x120;" horiz-adv-x="1646" 
d="M1464 1300v-303q-274 127 -520 127q-194 0 -319 -80q-83 -50 -137 -142t-54 -216q0 -127 66 -223t169.5 -143.5t225.5 -47.5q121 0 250 50v163h-201v260h555v-575q-106 -89 -265.5 -138.5t-332.5 -49.5q-169 0 -319 49t-263.5 139t-180 226.5t-66.5 301.5
q0 215 107.5 378.5t298.5 251t437 87.5q97 0 186.5 -12t164.5 -34t111.5 -35t86.5 -34zM866 1831q68 0 116 -48.5t48 -115.5t-48 -115.5t-116 -48.5t-116 48.5t-48 115.5t48 115.5t116 48.5z" />
    <glyph glyph-name="gdotaccent" unicode="&#x121;" horiz-adv-x="1110" 
d="M1087 944v-196h-137q47 -78 47 -160q0 -16 -2.5 -33.5t-9.5 -48.5t-25 -60.5t-45 -60t-73 -56.5t-105 -42q-71 -18 -172 -23q-51 -4 -71.5 -24t-20.5 -39q0 -34 47 -47t166 -21q37 -2 73 -8.5t80 -19t80 -34.5t67.5 -52.5t49 -76t17.5 -100.5q0 -61 -22 -111t-57.5 -81
t-61.5 -47t-52 -27q-62 -26 -126 -36.5t-167 -10.5q-197 0 -303 37q-94 34 -150.5 95t-56.5 142q0 33 11 64t37 64.5t78.5 62t127.5 47.5q-116 35 -116 125q0 29 13 52t29.5 36.5t44.5 25.5t44.5 16.5t42.5 10.5q-47 8 -92.5 30.5t-85 58.5t-63.5 90t-24 116q0 110 55.5 182
t129.5 109q100 51 274 51h524zM725 602q0 64 -48 115t-126 51q-80 0 -124 -55t-44 -117q0 -69 50.5 -118.5t119.5 -49.5q75 0 123.5 54t48.5 120zM788 -176q0 25 -13.5 44t-38 29.5t-48 17.5t-53.5 9.5t-43.5 3t-28.5 0.5q-17 0 -30.5 -0.5t-45 -3.5t-54.5 -10.5t-48.5 -19
t-39 -32.5t-13.5 -48q0 -11 3.5 -22.5t17 -28t36.5 -28.5t67 -21t103 -9q71 0 107 8.5t67 26.5q25 14 40 38.5t15 45.5zM557 1346q55 0 94 -39t39 -95q0 -54 -39 -93.5t-94 -39.5q-56 0 -94.5 39t-38.5 94q0 56 39 95t94 39z" />
    <glyph glyph-name="Gcommaaccent" unicode="&#x122;" horiz-adv-x="1646" 
d="M1464 1300v-303q-274 127 -520 127q-194 0 -319 -80q-83 -50 -137 -142t-54 -216q0 -127 66 -223t169.5 -143.5t225.5 -47.5q121 0 250 50v163h-201v260h555v-575q-106 -89 -265.5 -138.5t-332.5 -49.5q-169 0 -319 49t-263.5 139t-180 226.5t-66.5 301.5
q0 215 107.5 378.5t298.5 251t437 87.5q97 0 186.5 -12t164.5 -34t111.5 -35t86.5 -34zM664 -469v115h59q91 0 122.5 16t31.5 57q0 14 -6.5 25t-21 17.5t-26.5 10.5t-33.5 5.5t-32 2t-31 0t-21.5 -0.5l10 104q164 0 209 -4q213 -20 238 -146q3 -17 3 -36q0 -81 -79.5 -135
t-217.5 -54q-124 0 -204 23z" />
    <glyph glyph-name="gcommaaccent" unicode="&#x123;" horiz-adv-x="1110" 
d="M1087 944v-196h-137q47 -78 47 -160q0 -16 -2.5 -33.5t-9.5 -48.5t-25 -60.5t-45 -60t-73 -56.5t-105 -42q-71 -18 -172 -23q-51 -4 -71.5 -24t-20.5 -39q0 -34 47 -47t166 -21q37 -2 73 -8.5t80 -19t80 -34.5t67.5 -52.5t49 -76t17.5 -100.5q0 -61 -22 -111t-57.5 -81
t-61.5 -47t-52 -27q-62 -26 -126 -36.5t-167 -10.5q-197 0 -303 37q-94 34 -150.5 95t-56.5 142q0 33 11 64t37 64.5t78.5 62t127.5 47.5q-116 35 -116 125q0 29 13 52t29.5 36.5t44.5 25.5t44.5 16.5t42.5 10.5q-47 8 -92.5 30.5t-85 58.5t-63.5 90t-24 116q0 110 55.5 182
t129.5 109q100 51 274 51h524zM725 602q0 64 -48 115t-126 51q-80 0 -124 -55t-44 -117q0 -69 50.5 -118.5t119.5 -49.5q75 0 123.5 54t48.5 120zM788 -176q0 25 -13.5 44t-38 29.5t-48 17.5t-53.5 9.5t-43.5 3t-28.5 0.5q-17 0 -30.5 -0.5t-45 -3.5t-54.5 -10.5t-48.5 -19
t-39 -32.5t-13.5 -48q0 -11 3.5 -22.5t17 -28t36.5 -28.5t67 -21t103 -9q71 0 107 8.5t67 26.5q25 14 40 38.5t15 45.5zM758 1485v-45q-77 -83 -68 -193q33 -14 51.5 -40t21.5 -42t3 -30q0 -51 -38 -84t-85 -33q-57 0 -103 44t-46 128q0 109 77 197.5t187 97.5z" />
    <glyph glyph-name="Hcircumflex" unicode="&#x124;" horiz-adv-x="1705" 
d="M1550 1397v-1397h-350v565h-692v-565h-352v1397h352v-561h692v561h350zM1036 1841l240 -348h-191l-237 211l-234 -211h-186l236 348h372z" />
    <glyph glyph-name="hcircumflex" unicode="&#x125;" horiz-adv-x="1198" 
d="M430 1397v-592q129 158 301 158q179 0 275 -140q37 -55 51 -112t14 -138v-573h-295v510q0 24 -0.5 37t-3 41t-8 46t-16.5 41t-26.5 37t-40.5 23.5t-56 9.5q-59 0 -111.5 -41t-83.5 -102v-602h-303v1397h303zM737 1853l203 -358h-182l-160 178l-164 -178h-180l203 358h280
z" />
    <glyph glyph-name="Hbar" unicode="&#x126;" horiz-adv-x="1705" 
d="M1550 1196h156v-186h-156v-1010h-350v565h-692v-565h-352v1010h-156v186h156v201h352v-201h692v201h350v-201zM1200 1010h-692v-174h692v174z" />
    <glyph glyph-name="hbar" unicode="&#x127;" horiz-adv-x="1193" 
d="M430 1206h350v-147h-350v-254q129 158 301 158q179 0 275 -140q37 -55 51 -112t14 -138v-573h-295v510q0 24 -0.5 37t-3 41t-8 46t-16.5 41t-26.5 37t-40.5 23.5t-56 9.5q-59 0 -111.5 -41t-83.5 -102v-602h-303v1059h-127v147h127v191h303v-191z" />
    <glyph glyph-name="Itilde" unicode="&#x128;" 
d="M518 1397v-1397h-352v1397h352zM39 1503h-152q0 145 69.5 236.5t199.5 91.5q48 0 96 -12t76 -24t69 -34q95 -49 148 -49q81 0 96 119h154q0 -143 -68.5 -235.5t-194.5 -92.5q-53 0 -107 14.5t-85 28.5t-88 43q-70 37 -121 37q-85 0 -92 -123z" />
    <glyph glyph-name="itilde" unicode="&#x129;" horiz-adv-x="561" 
d="M432 944v-944h-295v944h295zM18 1065h-135q3 36 9.5 70t23.5 79t42 77.5t69 55.5t100 23q43 0 79 -13t107 -48q98 -49 138 -49q35 0 57.5 23.5t32.5 86.5h139q-4 -63 -19 -116t-42.5 -97.5t-73 -70t-105.5 -25.5t-178 57l-36 18l-31 15.5t-22.5 10.5t-22.5 8.5t-17.5 3.5
t-21.5 2q-32 0 -54 -21t-29 -43t-10 -47z" />
    <glyph glyph-name="Imacron" unicode="&#x12a;" 
d="M518 1397v-1397h-352v1397h352zM791 1749v-240h-902v240h902z" />
    <glyph glyph-name="imacron" unicode="&#x12b;" horiz-adv-x="561" 
d="M422 944v-944h-295v944h295zM668 1315v-205h-793v205h793z" />
    <glyph glyph-name="Ibreve" unicode="&#x12c;" 
d="M518 1397v-1397h-352v1397h352zM-96 1868h227q45 -152 205 -152q152 0 211 152h225q-5 -62 -36 -126t-83 -120.5t-134.5 -92.5t-180.5 -36q-96 0 -178.5 36t-135.5 92.5t-84 121t-36 125.5z" />
    <glyph glyph-name="ibreve" unicode="&#x12d;" horiz-adv-x="561" 
d="M432 944v-944h-295v944h295zM-92 1411h205q14 -64 64 -95.5t104 -31.5q134 0 172 127h202q-3 -38 -18.5 -82.5t-46 -92t-71.5 -86.5t-102 -64t-130 -25q-149 0 -245 93t-134 257z" />
    <glyph glyph-name="Iogonek" unicode="&#x12e;" 
d="M530 -211v-182q-86 -35 -178 -35q-44 0 -84 14t-73.5 42.5t-53.5 79t-20 116.5q0 104 45 176v1397h352v-1397h-168q-28 -69 -28 -104q0 -36 14.5 -62t36.5 -37t39 -15.5t32 -4.5q16 0 86 12z" />
    <glyph glyph-name="iogonek" unicode="&#x12f;" horiz-adv-x="561" 
d="M459 -190v-164q-76 -31 -156 -31q-61 0 -105.5 22t-66.5 57.5t-31.5 71t-9.5 72.5q0 93 41 162v944h285v-944h-119q-25 -51 -25 -94q0 -44 29 -75.5t78 -31.5q17 0 80 11zM281 1417q67 0 114 -47t47 -115q0 -69 -47 -116t-114 -47q-68 0 -116 47t-48 116q0 68 48.5 115
t115.5 47z" />
    <glyph glyph-name="Idotaccent" unicode="&#x130;" 
d="M518 1397v-1397h-352v1397h352zM340 1831q68 0 116 -48.5t48 -115.5t-48 -115.5t-116 -48.5t-116 48.5t-48 115.5t48 115.5t116 48.5z" />
    <glyph glyph-name="dotlessi" unicode="&#x131;" horiz-adv-x="555" 
d="M428 944v-944h-295v944h295z" />
    <glyph glyph-name="IJ" unicode="&#x132;" horiz-adv-x="1366" 
d="M518 1397v-1397h-352v1397h352zM1217 1397v-1188q0 -40 -0.5 -63t-2.5 -67.5t-6.5 -74.5t-14 -73t-22 -74t-33 -68t-46 -64t-60.5 -52t-78 -42q-134 -54 -336 -34v274q21 -6 44 -6q116 0 167 86q19 32 27 89t8 200v1157h353z" />
    <glyph glyph-name="ij" unicode="&#x133;" horiz-adv-x="1110" 
d="M416 944v-944h-285v944h285zM281 1417q67 0 114 -47t47 -115q0 -69 -47 -116t-114 -47q-68 0 -116 47t-48 116q0 68 48.5 115t115.5 47zM985 944v-860q0 -56 -0.5 -86t-5.5 -81t-14.5 -86t-28 -77.5t-45.5 -79.5q-44 -61 -116 -100.5t-144 -42.5l-94 266q35 6 61 20
t42.5 36.5t26.5 46.5t15 58t6.5 61t1.5 65v860h295zM834 1419q67 0 115 -48t48 -116q0 -67 -47.5 -114t-115.5 -47q-67 0 -114.5 47.5t-47.5 113.5q0 68 47.5 116t114.5 48z" />
    <glyph glyph-name="Jcircumflex" unicode="&#x134;" 
d="M532 1397v-1188q0 -45 -0.5 -71.5t-3.5 -77t-10 -84.5t-18.5 -81.5t-31 -82t-46 -71t-65 -64t-85.5 -46.5q-134 -54 -338 -34v274q21 -6 46 -6q116 0 165 86q20 32 28.5 89t8.5 200v1157h350zM524 1841l240 -348h-191l-237 211l-234 -211h-186l236 348h372z" />
    <glyph glyph-name="jcircumflex" unicode="&#x135;" horiz-adv-x="555" 
d="M430 944v-860q0 -56 -0.5 -86t-5.5 -81t-14.5 -86t-28 -77.5t-45.5 -79.5q-44 -62 -115.5 -101t-144.5 -42l-94 266q35 6 61 20t42.5 36.5t26.5 46.5t15 58t6.5 61t1.5 65v860h295zM414 1397l200 -359h-182l-158 179l-163 -179h-181l203 359h281z" />
    <glyph glyph-name="Kcommaaccent" unicode="&#x136;" horiz-adv-x="1472" 
d="M1331 1397l-454 -656l618 -741h-436l-555 655v-655h-350v1397h350v-633l444 633h383zM553 -469v115h59q91 0 122.5 16t31.5 57q0 14 -6.5 25t-21 17.5t-26.5 10.5t-33.5 5.5t-32 2t-31 0t-21.5 -0.5l10 104h40q184 2 265 -20q146 -40 146 -166q0 -81 -79.5 -135
t-217.5 -54q-124 0 -205 23z" />
    <glyph glyph-name="kcommaaccent" unicode="&#x137;" horiz-adv-x="1163" 
d="M428 1397v-920l373 467h346l-369 -467l385 -477h-362l-373 465v-465h-299v1397h299zM387 -346v102q41 1 68 -1t45 3t27 6t13 9t4.5 11t0.5 13q0 16 -21.5 30.5t-62.5 14.5v97q172 0 237.5 -38.5t65.5 -109.5q0 -67 -57 -112.5t-160 -45.5q-74 0 -160 21z" />
    <glyph glyph-name="kgreenlandic" unicode="&#x138;" horiz-adv-x="1130" 
d="M428 944v-467l373 467h346l-369 -467l385 -477h-362l-373 465v-465h-299v944h299z" />
    <glyph glyph-name="Lacute" unicode="&#x139;" horiz-adv-x="1259" 
d="M1221 260v-260h-1065v1397h352v-1137h713zM870 1880l-426 -387h-206l239 387h393z" />
    <glyph glyph-name="lacute" unicode="&#x13a;" horiz-adv-x="552" 
d="M426 1397v-1397h-299v1397h299zM584 1794l-336 -299h-154l154 299h336z" />
    <glyph glyph-name="Lcommaaccent" unicode="&#x13b;" horiz-adv-x="1259" 
d="M1221 260v-260h-1065v1397h352v-1137h713zM446 -469v115h60q91 0 122 16t31 57q0 14 -6.5 25t-21 17.5t-26.5 10.5t-33.5 5.5t-32 2t-31 0t-21.5 -0.5l11 104q164 0 209 -4q213 -20 238 -146q3 -17 3 -36q0 -81 -79.5 -135t-217.5 -54q-125 0 -205 23z" />
    <glyph glyph-name="lcommaaccent" unicode="&#x13c;" horiz-adv-x="552" 
d="M426 1397v-1397h-299v1397h299zM92 -346v102q41 1 68 -1t45 3t27 6t13 9t4.5 11t0.5 13q0 16 -21.5 30.5t-62.5 14.5v97q172 0 237.5 -38.5t65.5 -109.5q0 -67 -57 -112.5t-160 -45.5q-74 0 -160 21z" />
    <glyph glyph-name="Lcaron" unicode="&#x13d;" horiz-adv-x="1259" 
d="M1221 260v-260h-1065v1397h352v-1137h713zM766 772v62q17 22 23 29.5t24.5 38t26.5 54.5t14 62.5t2 77.5q-35 16 -58 40t-31 50.5t-10.5 40.5t-2.5 26q0 72 51.5 117t118.5 45q77 0 139.5 -60.5t62.5 -174.5q0 -147 -102 -269t-258 -139z" />
    <glyph glyph-name="lcaron" unicode="&#x13e;" horiz-adv-x="788" 
d="M432 1397v-1397h-297v1397h297zM520 836v57q94 108 82 233q-92 43 -92 144q0 63 47 104t107 41q68 0 124 -54.5t56 -158.5q0 -130 -90.5 -239.5t-233.5 -126.5z" />
    <glyph glyph-name="Ldot" unicode="&#x13f;" horiz-adv-x="1259" 
d="M1221 260v-260h-1065v1397h354v-1137h711zM852 922q68 0 116 -47.5t48 -116.5q0 -68 -48 -117t-116 -49t-116 48.5t-48 117.5t48 116.5t116 47.5z" />
    <glyph glyph-name="ldot" unicode="&#x140;" horiz-adv-x="874" 
d="M424 1397v-1397h-297v1397h297zM696 874q68 0 117 -47.5t49 -115.5t-48.5 -117t-117.5 -49q-67 0 -115.5 49t-48.5 117t48.5 115.5t115.5 47.5z" />
    <glyph glyph-name="Lslash" unicode="&#x141;" horiz-adv-x="1259" 
d="M504 1397v-418l287 233v-270l-287 -237v-445h717v-260h-1067v418l-191 -152v266l191 160v705h350z" />
    <glyph glyph-name="lslash" unicode="&#x142;" horiz-adv-x="555" 
d="M426 915l158 129v-188l-158 -129v-727h-297v481l-158 -131v187l158 131v729h297v-482z" />
    <glyph glyph-name="Nacute" unicode="&#x143;" horiz-adv-x="1720" 
d="M1565 1397v-1397h-291l-772 864v-864h-346v1397h317l748 -824v824h344zM1327 1880l-426 -387h-207l240 387h393z" />
    <glyph glyph-name="nacute" unicode="&#x144;" horiz-adv-x="1204" 
d="M424 944v-135q65 75 137.5 114.5t169.5 39.5q118 0 195 -54.5t114 -130.5q24 -48 30.5 -96.5t6.5 -124.5v-557h-299v532q0 101 -14 136q-15 42 -51 65t-82 23q-41 0 -79 -18.5t-66 -49.5t-40 -47t-22 -33v-608h-297v944h297zM944 1360l-336 -299h-153l153 299h336z" />
    <glyph glyph-name="Ncommaaccent" unicode="&#x145;" horiz-adv-x="1720" 
d="M1565 1397v-1397h-291l-772 864v-864h-346v1397h317l748 -824v824h344zM678 -469v115h59q91 0 122.5 16t31.5 57q0 14 -6.5 25t-21 17.5t-26.5 10.5t-33.5 5.5t-32 2t-31 0t-21.5 -0.5l10 104h40q184 2 265 -20q146 -40 146 -166q0 -81 -79.5 -135t-217.5 -54
q-125 0 -205 23z" />
    <glyph glyph-name="ncommaaccent" unicode="&#x146;" horiz-adv-x="1204" 
d="M424 944v-135q65 75 137.5 114.5t169.5 39.5q118 0 195 -54.5t114 -130.5q24 -48 30.5 -96.5t6.5 -124.5v-557h-299v532q0 101 -14 136q-15 42 -51 65t-82 23q-41 0 -79 -18.5t-66 -49.5t-40 -47t-22 -33v-608h-297v944h297zM422 -346v102q41 1 68 -1t45 3t27 6t13 9
t4.5 11t0.5 13q0 16 -21.5 30.5t-62.5 14.5v97q172 0 237.5 -38.5t65.5 -109.5q0 -67 -57 -112.5t-160 -45.5q-74 0 -160 21z" />
    <glyph glyph-name="Ncaron" unicode="&#x147;" horiz-adv-x="1720" 
d="M1565 1397v-1397h-291l-772 864v-864h-346v1397h317l748 -824v824h344zM676 1493l-240 348h191l237 -213l234 213h186l-235 -348h-373z" />
    <glyph glyph-name="ncaron" unicode="&#x148;" horiz-adv-x="1204" 
d="M424 944v-135q65 75 137.5 114.5t169.5 39.5q118 0 195 -54.5t114 -130.5q24 -48 30.5 -96.5t6.5 -124.5v-557h-299v532q0 101 -14 136q-15 42 -51 65t-82 23q-41 0 -79 -18.5t-66 -49.5t-40 -47t-22 -33v-608h-297v944h297zM461 1061l-203 358h182l160 -190l164 190h180
l-203 -358h-280z" />
    <glyph glyph-name="napostrophe" unicode="&#x149;" horiz-adv-x="1599" 
d="M98 772v62q104 124 92 262q-35 16 -58.5 40t-32 50.5t-11 40.5t-2.5 26q0 72 52.5 117t119.5 45q76 0 138.5 -60.5t62.5 -174.5q0 -147 -102.5 -269t-258.5 -139zM829 944v-135q67 75 140 114.5t168 39.5q117 0 193.5 -54t115.5 -131q24 -48 30.5 -96.5t6.5 -124.5v-557
h-299v532q0 98 -15 136q-15 42 -51 65t-82 23q-41 0 -79 -18.5t-66 -49.5t-40 -47t-22 -33v-608h-297v944h297z" />
    <glyph glyph-name="Eng" unicode="&#x14a;" horiz-adv-x="1708" 
d="M952 -14v274q27 -6 56 -6q35 0 66.5 11.5t61.5 37.5t48 77.5t18 123.5v250q0 173 -86.5 270.5t-255.5 97.5q-77 0 -138.5 -21t-103 -59t-66 -72t-46.5 -79v-891h-348v1395h348v-183q30 31 51 50.5t67 52t91 51.5t114 34t146 15q284 0 429.5 -173.5t145.5 -475.5v-246
q0 -536 -487 -536q-66 0 -111 2z" />
    <glyph glyph-name="eng" unicode="&#x14b;" horiz-adv-x="1193" 
d="M1073 557v-473q0 -73 -2 -116t-16 -112.5t-41 -121.5q-47 -87 -124.5 -142t-170.5 -61l-94 266q49 8 80.5 34.5t45.5 70t18.5 82.5t4.5 96v452q0 101 -12 136q-17 42 -53.5 65t-81.5 23q-41 0 -79 -19.5t-64.5 -48t-41 -48t-20.5 -32.5v-608h-297v944h297v-135
q65 75 137.5 114.5t167.5 39.5q119 0 195.5 -54t115.5 -131q16 -33 24.5 -72.5t9.5 -67t1 -81.5z" />
    <glyph glyph-name="Omacron" unicode="&#x14c;" horiz-adv-x="1746" 
d="M1675 696q0 -82 -22.5 -165.5t-65.5 -163.5t-112 -149.5t-156 -122t-203 -83t-248 -30.5q-118 0 -226.5 27.5t-195 76.5t-157.5 116.5t-118.5 146.5t-73 167.5t-25.5 179.5q0 100 31.5 200t98 194t159.5 166t226 115.5t287 43.5q179 0 332.5 -61t254.5 -162t157.5 -230
t56.5 -266zM1315 688q0 196 -120 313t-323 117q-193 0 -315.5 -113.5t-122.5 -314.5q0 -96 30 -172t76.5 -122.5t107 -77.5t116.5 -42.5t110 -11.5q85 0 163.5 28t140.5 80t99.5 134t37.5 182zM1343 1749v-240h-901v240h901z" />
    <glyph glyph-name="omacron" unicode="&#x14d;" horiz-adv-x="1216" 
d="M1139 469q0 -106 -34.5 -192t-89 -139.5t-126 -90t-141 -51t-138.5 -14.5q-109 0 -205.5 33t-170 94t-116 153.5t-42.5 204.5q0 144 72 258.5t194 176t270 61.5q68 0 137.5 -15t140.5 -52t125.5 -91.5t89 -141.5t34.5 -194zM821 487q0 293 -219 293q-43 0 -76.5 -14
t-55 -33.5t-37 -51.5t-22.5 -57.5t-11 -62.5t-4.5 -54.5t-0.5 -45.5q0 -20 0.5 -35t4.5 -48t11.5 -57.5t23.5 -55.5t38 -51t57.5 -34t79.5 -14q211 0 211 321zM1026 1315v-205h-793v205h793z" />
    <glyph glyph-name="Obreve" unicode="&#x14e;" horiz-adv-x="1746" 
d="M1675 696q0 -82 -22.5 -165.5t-65.5 -163.5t-112 -149.5t-156 -122t-203 -83t-248 -30.5q-118 0 -226.5 27.5t-195 76.5t-157.5 116.5t-118.5 146.5t-73 167.5t-25.5 179.5q0 100 31.5 200t98 194t159.5 166t226 115.5t287 43.5q179 0 332.5 -61t254.5 -162t157.5 -230
t56.5 -266zM1315 688q0 196 -120 313t-323 117q-193 0 -315.5 -113.5t-122.5 -314.5q0 -96 30 -172t76.5 -122.5t107 -77.5t116.5 -42.5t110 -11.5q85 0 163.5 28t140.5 80t99.5 134t37.5 182zM438 1868h228q45 -152 204 -152q152 0 211 152h226q-4 -49 -24 -100t-57 -100.5
t-86.5 -88t-119 -62.5t-148.5 -24q-96 0 -178.5 36t-135.5 92.5t-84 121t-36 125.5z" />
    <glyph glyph-name="obreve" unicode="&#x14f;" horiz-adv-x="1216" 
d="M1139 469q0 -106 -34.5 -192t-89 -139.5t-126 -90t-141 -51t-138.5 -14.5q-109 0 -205.5 33t-170 94t-116 153.5t-42.5 204.5q0 144 72 258.5t194 176t270 61.5q68 0 137.5 -15t140.5 -52t125.5 -91.5t89 -141.5t34.5 -194zM821 487q0 293 -219 293q-43 0 -76.5 -14
t-55 -33.5t-37 -51.5t-22.5 -57.5t-11 -62.5t-4.5 -54.5t-0.5 -45.5q0 -20 0.5 -35t4.5 -48t11.5 -57.5t23.5 -55.5t38 -51t57.5 -34t79.5 -14q211 0 211 321zM236 1411h204q14 -64 64 -95.5t104 -31.5q134 0 172 127h203q-4 -48 -28.5 -105.5t-68 -113.5t-115.5 -93.5
t-157 -37.5q-149 0 -244.5 93t-133.5 257z" />
    <glyph glyph-name="Ohungarumlaut" unicode="&#x150;" horiz-adv-x="1746" 
d="M1675 696q0 -82 -22.5 -165.5t-65.5 -163.5t-112 -149.5t-156 -122t-203 -83t-248 -30.5q-118 0 -226.5 27.5t-195 76.5t-157.5 116.5t-118.5 146.5t-73 167.5t-25.5 179.5q0 100 31.5 200t98 194t159.5 166t226 115.5t287 43.5q179 0 332.5 -61t254.5 -162t157.5 -230
t56.5 -266zM1315 688q0 196 -120 313t-323 117q-193 0 -315.5 -113.5t-122.5 -314.5q0 -96 30 -172t76.5 -122.5t107 -77.5t116.5 -42.5t110 -11.5q85 0 163.5 28t140.5 80t99.5 134t37.5 182zM983 1880l-303 -387h-182l155 387h330zM1403 1880l-301 -387h-184l157 387h328z
" />
    <glyph glyph-name="ohungarumlaut" unicode="&#x151;" horiz-adv-x="1216" 
d="M1139 469q0 -106 -34.5 -192t-89 -139.5t-126 -90t-141 -51t-138.5 -14.5q-109 0 -205.5 33t-170 94t-116 153.5t-42.5 204.5q0 144 72 258.5t194 176t270 61.5q68 0 137.5 -15t140.5 -52t125.5 -91.5t89 -141.5t34.5 -194zM821 487q0 293 -219 293q-43 0 -76.5 -14
t-55 -33.5t-37 -51.5t-22.5 -57.5t-11 -62.5t-4.5 -54.5t-0.5 -45.5q0 -20 0.5 -35t4.5 -48t11.5 -57.5t23.5 -55.5t38 -51t57.5 -34t79.5 -14q211 0 211 321zM780 1358l-266 -297h-147l108 297h305zM1165 1358l-266 -297h-147l106 297h307z" />
    <glyph glyph-name="OE" unicode="&#x152;" horiz-adv-x="2240" 
d="M2116 1397v-262h-650v-281h621v-262h-621v-330h666v-262h-1204q-254 0 -406 63q-89 36 -163 91t-134.5 132.5t-94.5 184.5t-34 234q0 105 25 197t66.5 159.5t98.5 123t116.5 92t125.5 62.5q105 40 204.5 49t344.5 9h1039zM1116 262v873q-213 0 -268 -9
q-81 -12 -150 -44.5t-123 -84.5t-85 -129t-31 -170q0 -78 21 -143t51 -107.5t75.5 -76t83 -51t85 -30t70 -16t48.5 -6.5q106 -10 223 -6z" />
    <glyph glyph-name="oe" unicode="&#x153;" horiz-adv-x="1820" 
d="M1714 305v-203q-184 -120 -373 -120q-198 0 -366 120q-163 -120 -367 -120q-101 0 -196.5 34.5t-171 96t-121 156.5t-45.5 208q0 209 154.5 347.5t381.5 138.5q82 0 156 -20.5t111.5 -41.5t83.5 -53q124 115 282 115q97 0 180.5 -31t152 -93t110 -168t45.5 -245h-609
q-1 -56 15.5 -102t42.5 -75t59.5 -49t67 -28t65.5 -8q175 0 342 141zM1124 582h334q-3 21 -5 32t-9 40t-18.5 47.5t-29.5 39.5t-47 32t-65 11q-72 0 -116.5 -56t-43.5 -146zM825 485q0 119 -41 187q-25 42 -70.5 71t-109.5 29q-215 0 -215 -309q0 -299 219 -299q57 0 98 21
t63.5 51.5t35.5 77t16.5 85t3.5 86.5z" />
    <glyph glyph-name="Racute" unicode="&#x154;" horiz-adv-x="1390" 
d="M156 1397h536q85 0 131 -2.5t114.5 -18.5t121.5 -49q70 -46 126 -132t56 -198q0 -48 -11 -91t-25.5 -73.5t-40.5 -60t-43 -45t-47.5 -34.5t-40 -23.5t-32.5 -16.5q112 -55 201 -262q8 -17 135 -291l47 -100h-383q-15 29 -90 196.5t-90 196.5q-27 51 -54.5 85.5t-49 52.5
t-52 26.5t-49.5 10t-57 1.5h-51v-569h-352v1397zM684 1143h-176v-320h145q73 3 98.5 7t51.5 18q76 40 76 135q0 45 -17.5 77.5t-39 48t-54 24t-48.5 9.5t-36 1zM1057 1880l-426 -387h-207l240 387h393z" />
    <glyph glyph-name="racute" unicode="&#x155;" horiz-adv-x="913" 
d="M424 944v-270q73 153 147.5 221t157.5 68q48 0 92.5 -21t104.5 -65l-82 -263q-1 1 -15 10t-20.5 13t-21.5 12.5t-27 13.5t-27.5 10.5t-31 8t-31.5 2.5q-40 0 -73 -15t-60 -46t-46.5 -64t-41.5 -82q-1 -3 -12 -33.5t-13 -35.5v-408h-297v944h297zM829 1360l-335 -299h-154
l154 299h335z" />
    <glyph glyph-name="Rcommaaccent" unicode="&#x156;" horiz-adv-x="1386" 
d="M156 1397h536q85 0 131 -2.5t114.5 -18.5t121.5 -49q70 -46 126 -132t56 -198q0 -48 -11 -91t-25.5 -73.5t-40.5 -60t-43 -45t-47.5 -34.5t-40 -23.5t-32.5 -16.5q112 -55 201 -262q8 -17 135 -291l47 -100h-383q-15 29 -90 196.5t-90 196.5q-27 51 -54.5 85.5t-49 52.5
t-52 26.5t-49.5 10t-57 1.5h-51v-569h-352v1397zM684 1143h-176v-320h145q73 3 98.5 7t51.5 18q76 40 76 135q0 45 -17.5 77.5t-39 48t-54 24t-48.5 9.5t-36 1zM510 -469v115h59q91 0 122.5 16t31.5 57q0 14 -6.5 25t-21 17.5t-26.5 10.5t-33.5 5.5t-32 2t-31 0t-21.5 -0.5
l10 104q164 0 208 -4q215 -19 240 -146q3 -17 3 -36q0 -81 -79.5 -135t-217.5 -54q-125 0 -205 23z" />
    <glyph glyph-name="rcommaaccent" unicode="&#x157;" horiz-adv-x="917" 
d="M428 944v-270q73 153 147.5 221t157.5 68q48 0 92.5 -21t104.5 -65l-82 -263q-1 1 -15 10t-20.5 13t-21.5 12.5t-27 13.5t-27.5 10.5t-31 8t-31.5 2.5q-40 0 -73 -15t-60 -46t-46.5 -64t-41.5 -82q-1 -3 -12 -33.5t-13 -35.5v-408h-297v944h297zM178 -346v102q41 1 68 -1
t45 3t27 6t13 9t4.5 11t0.5 13q0 16 -21.5 30.5t-62.5 14.5v97q172 0 237.5 -38.5t65.5 -109.5q0 -67 -57 -112.5t-160 -45.5q-74 0 -160 21z" />
    <glyph glyph-name="Rcaron" unicode="&#x158;" horiz-adv-x="1386" 
d="M156 1397h536q85 0 131 -2.5t114.5 -18.5t121.5 -49q70 -46 126 -132t56 -198q0 -48 -11 -91t-25.5 -73.5t-40.5 -60t-43 -45t-47.5 -34.5t-40 -23.5t-32.5 -16.5q112 -55 201 -262q8 -17 135 -291l47 -100h-383q-15 29 -90 196.5t-90 196.5q-27 51 -54.5 85.5t-49 52.5
t-52 26.5t-49.5 10t-57 1.5h-51v-569h-352v1397zM684 1143h-176v-320h145q73 3 98.5 7t51.5 18q76 40 76 135q0 45 -17.5 77.5t-39 48t-54 24t-48.5 9.5t-36 1zM426 1493l-240 348h191l237 -213l234 213h186l-235 -348h-373z" />
    <glyph glyph-name="rcaron" unicode="&#x159;" horiz-adv-x="917" 
d="M428 944v-270q73 153 147.5 221t157.5 68q48 0 92.5 -21t104.5 -65l-82 -263q-1 1 -15 10t-20.5 13t-21.5 12.5t-27 13.5t-27.5 10.5t-31 8t-31.5 2.5q-40 0 -73 -15t-60 -46t-46.5 -64t-41.5 -82q-1 -3 -12 -33.5t-13 -35.5v-408h-297v944h297zM381 1061l-203 358h182
l160 -190l164 190h180l-202 -358h-281z" />
    <glyph glyph-name="Sacute" unicode="&#x15a;" horiz-adv-x="1232" 
d="M1090 1307v-287q-57 28 -90 42.5t-99.5 40.5t-131.5 39t-128 13q-58 0 -100.5 -11t-63 -25t-32 -33t-13.5 -28.5t-2 -17.5q0 -30 20 -55t75.5 -52t96 -43t138.5 -51l4.5 -1.5t3.5 -1.5q61 -22 108.5 -44.5t102 -60.5t90.5 -82.5t60 -110t24 -143.5q0 -93 -37.5 -167
t-94.5 -119t-132.5 -74.5t-145 -41t-137.5 -11.5q-152 0 -298 50t-195 85v301q61 -38 101.5 -60.5t106.5 -53t135 -45.5t142 -15q17 0 31.5 1t42 4t48.5 11.5t42 21.5t33 36t12 53q0 17 -3.5 31.5t-12.5 27.5t-18.5 23t-29 21t-35.5 19t-47 20t-53.5 20t-64.5 22
q-54 19 -89.5 32.5t-87.5 38t-87 48.5t-74.5 60t-62.5 75.5t-38.5 93.5t-15.5 115q0 81 34 152t98 126t166.5 87t229.5 32q103 0 213 -21.5t261 -86.5zM1051 1880l-426 -387h-207l239 387h394z" />
    <glyph glyph-name="sacute" unicode="&#x15b;" horiz-adv-x="874" 
d="M772 893v-211q-171 92 -293 92q-16 0 -33 -2t-42 -7.5t-40.5 -20t-15.5 -35.5q0 -27 22 -44.5t95 -48.5q51 -20 79 -32t71.5 -33t68 -37.5t54 -42.5t44.5 -52t26 -61t11 -75q0 -144 -101.5 -222.5t-283.5 -78.5q-101 0 -198.5 22.5t-139.5 46.5v209q169 -88 301 -88
q70 0 107 20.5t37 51.5q0 37 -32 58t-149 69q-120 51 -157 73q-57 35 -91 94t-34 132q0 126 102 209.5t283 83.5q177 0 309 -70zM780 1360l-336 -299h-153l153 299h336z" />
    <glyph glyph-name="Scircumflex" unicode="&#x15c;" horiz-adv-x="1232" 
d="M1092 1307v-287q-57 28 -90 42.5t-99.5 40.5t-131.5 39t-128 13q-58 0 -100.5 -11t-63 -25t-32 -33t-13.5 -28.5t-2 -17.5q0 -30 20 -55t75.5 -52t96 -43t138.5 -51l4.5 -1.5t3.5 -1.5q61 -22 108.5 -44.5t102 -60.5t90.5 -82.5t60 -110t24 -143.5q0 -93 -37.5 -167
t-94.5 -119t-132.5 -74.5t-145 -41t-137.5 -11.5q-152 0 -298 50t-195 85v301q61 -38 101.5 -60.5t106.5 -53t135 -45.5t142 -15q17 0 31.5 1t42 4t48.5 11.5t42 21.5t33 36t12 53q0 17 -3.5 31.5t-12.5 27.5t-18.5 23t-29 21t-35.5 19t-47 20t-53.5 20t-64.5 22
q-54 19 -89.5 32.5t-87.5 38t-87 48.5t-74.5 60t-62.5 75.5t-38.5 93.5t-15.5 115q0 81 34 152t98 126t166.5 87t229.5 32q103 0 213 -21.5t261 -86.5zM801 1841l239 -348h-190l-238 211l-233 -211h-186l235 348h373z" />
    <glyph glyph-name="scircumflex" unicode="&#x15d;" horiz-adv-x="874" 
d="M772 893v-211q-171 92 -293 92q-16 0 -33 -2t-42 -7.5t-40.5 -20t-15.5 -35.5q0 -27 22 -44.5t95 -48.5q51 -20 79 -32t71.5 -33t68 -37.5t54 -42.5t44.5 -52t26 -61t11 -75q0 -144 -101.5 -222.5t-283.5 -78.5q-101 0 -198.5 22.5t-139.5 46.5v209q169 -88 301 -88
q70 0 107 20.5t37 51.5q0 37 -32 58t-149 69q-120 51 -157 73q-57 35 -91 94t-34 132q0 126 102 209.5t283 83.5q177 0 309 -70zM578 1419l202 -358h-182l-160 178l-164 -178h-180l203 358h281z" />
    <glyph glyph-name="uni015E" unicode="&#x15e;" horiz-adv-x="1236" 
d="M758 -4l-33 -39q85 -11 134.5 -60.5t49.5 -105.5q0 -91 -94 -153q-76 -46 -225 -46q-137 0 -242 29v115q54 -4 80 -4q152 0 152 71q0 19 -11.5 31.5t-32.5 18.5t-42 8t-50 2l121 121q-139 8 -269.5 54t-178.5 79v301q61 -38 101.5 -60.5t106.5 -53t135 -45.5t142 -15
q17 0 31.5 1t42 4t48.5 11.5t42 21.5t33 36t12 53q0 17 -3.5 31.5t-12.5 27.5t-18.5 23t-29 21t-35.5 19t-47 20t-53.5 20t-64.5 22q-54 19 -89.5 32.5t-87.5 38t-87 48.5t-74.5 60t-62.5 75.5t-38.5 93.5t-15.5 115q0 81 34 152t98.5 126t167 87t229.5 32
q103 0 212.5 -21.5t260.5 -86.5v-287q-57 28 -90 42.5t-99.5 40.5t-131.5 39t-128 13q-58 0 -100.5 -11t-63 -25t-32 -33t-13.5 -28.5t-2 -17.5q0 -30 20 -55t75.5 -52t96 -43t138.5 -51l4.5 -1.5t3.5 -1.5q61 -22 108.5 -44.5t102 -60.5t90.5 -82.5t60 -110t24 -143.5
q0 -62 -17 -116t-43.5 -92t-63.5 -69.5t-73 -51.5t-77 -35.5t-69.5 -22.5t-55.5 -12z" />
    <glyph glyph-name="uni015F" unicode="&#x15f;" horiz-adv-x="874" 
d="M530 -12l-18 -47q19 -6 29.5 -10t38.5 -18.5t44.5 -30.5t31 -44.5t14.5 -62.5q0 -46 -21.5 -80t-52 -53t-72.5 -30.5t-75.5 -14.5t-67.5 -3q-45 0 -156 19v119q36 -2 60 -2t60 4.5t55.5 20t19.5 42.5q0 57 -105 64l58 123q-66 5 -149.5 24t-127.5 43v209q169 -88 301 -88
q70 0 107 20.5t37 51.5q0 37 -32 58t-149 69q-120 51 -157 73q-57 35 -91 94t-34 132q0 126 102 209.5t283 83.5q177 0 309 -70v-211q-171 92 -293 92q-16 0 -33 -2t-42 -7.5t-40.5 -20t-15.5 -35.5q0 -27 22 -44.5t95 -48.5q51 -20 79 -32t71.5 -33t68 -37.5t54 -42.5
t44.5 -52t26 -61t11 -75q0 -121 -74.5 -198t-214.5 -97z" />
    <glyph glyph-name="Scaron" unicode="&#x160;" horiz-adv-x="1236" 
d="M1094 1307v-287q-57 28 -90 42.5t-99.5 40.5t-131.5 39t-128 13q-58 0 -100.5 -11t-63 -25t-32 -33t-13.5 -28.5t-2 -17.5q0 -30 20 -55t75.5 -52t96 -43t138.5 -51l4.5 -1.5t3.5 -1.5q61 -22 108.5 -44.5t102 -60.5t90.5 -82.5t60 -110t24 -143.5q0 -93 -37.5 -167
t-94.5 -119t-132.5 -74.5t-145 -41t-137.5 -11.5q-152 0 -298 50t-195 85v301q61 -38 101.5 -60.5t106.5 -53t135 -45.5t142 -15q17 0 31.5 1t42 4t48.5 11.5t42 21.5t33 36t12 53q0 17 -3.5 31.5t-12.5 27.5t-18.5 23t-29 21t-35.5 19t-47 20t-53.5 20t-64.5 22
q-54 19 -89.5 32.5t-87.5 38t-87 48.5t-74.5 60t-62.5 75.5t-38.5 93.5t-15.5 115q0 81 34 152t98.5 126t167 87t229.5 32q103 0 212.5 -21.5t260.5 -86.5zM434 1493l-239 348h190l238 -213l233 213h186l-235 -348h-373z" />
    <glyph glyph-name="scaron" unicode="&#x161;" horiz-adv-x="874" 
d="M772 893v-211q-171 92 -293 92q-16 0 -33 -2t-42 -7.5t-40.5 -20t-15.5 -35.5q0 -27 22 -44.5t95 -48.5q51 -20 79 -32t71.5 -33t68 -37.5t54 -42.5t44.5 -52t26 -61t11 -75q0 -144 -101.5 -222.5t-283.5 -78.5q-101 0 -198.5 22.5t-139.5 46.5v209q169 -88 301 -88
q70 0 107 20.5t37 51.5q0 37 -32 58t-149 69q-120 51 -157 73q-57 35 -91 94t-34 132q0 126 102 209.5t283 83.5q177 0 309 -70zM297 1061l-203 358h182l160 -190l164 190h180l-202 -358h-281z" />
    <glyph glyph-name="Tcommaaccent" unicode="&#x162;" horiz-adv-x="1472" 
d="M1417 1397v-262h-504v-1135h-354v1135h-506v262h1364zM553 -469v115h59q91 0 122.5 16t31.5 57q0 14 -6.5 25t-21 17.5t-26.5 10.5t-33.5 5.5t-32 2t-31 0t-21.5 -0.5l10 104h40q184 2 265 -20q146 -40 146 -166q0 -81 -79.5 -135t-217.5 -54q-124 0 -205 23z" />
    <glyph glyph-name="tcommaaccent" unicode="&#x163;" horiz-adv-x="831" 
d="M801 944v-205h-340v-207q0 -180 8 -229q6 -33 22.5 -55.5t39 -31.5t39 -12t32.5 -3q55 0 99 13.5t100 41.5v-215q-3 -1 -17 -6.5t-19.5 -7.5t-21 -7.5t-25 -8t-26 -7.5t-29 -7.5t-30.5 -5.5t-34.5 -5t-36 -3t-38.5 -1q-93 0 -174.5 35.5t-132.5 105.5q-33 46 -45 106
t-12 168v342h-135v56l395 446h41v-297h340zM289 -346v102q76 -3 112 3t40.5 13t4.5 25q0 16 -21.5 30.5t-62.5 14.5v97q172 0 238 -38.5t66 -109.5q0 -67 -57 -112.5t-160 -45.5q-74 0 -160 21z" />
    <glyph glyph-name="Tcaron" unicode="&#x164;" horiz-adv-x="1472" 
d="M1417 1397v-262h-504v-1135h-354v1135h-506v262h1364zM551 1493l-240 348h191l237 -213l234 213h186l-235 -348h-373z" />
    <glyph glyph-name="tcaron" unicode="&#x165;" horiz-adv-x="1153" 
d="M805 944v-205h-340v-207q0 -180 8 -229q6 -33 23 -55.5t39.5 -31.5t38.5 -12t32 -3q55 0 99 13.5t100 41.5v-215q-3 -1 -17 -6.5t-19.5 -7.5t-21 -7.5t-25 -8t-26 -7.5t-29 -7.5t-30.5 -5.5t-34.5 -5t-36 -3t-38.5 -1q-93 0 -174.5 36t-130.5 105q-34 46 -45.5 105
t-11.5 169v342h-137v56l395 446h41v-297h340zM881 836v57q92 106 82 233q-32 15 -53.5 37.5t-29 46.5t-10 37t-2.5 23q0 63 47 104t107 41q43 0 83 -20.5t69.5 -71t29.5 -121.5q0 -130 -90 -239.5t-233 -126.5z" />
    <glyph glyph-name="Tbar" unicode="&#x166;" horiz-adv-x="1472" 
d="M913 618h351v-186h-351v-432h-354v432h-352v186h352v517h-506v262h1364v-262h-504v-517z" />
    <glyph glyph-name="tbar" unicode="&#x167;" horiz-adv-x="831" 
d="M461 608h340v-147h-340q0 -39 -0.5 -76t7 -70.5t21 -58.5t42.5 -40t71 -15q55 0 99 13.5t100 41.5v-215q-3 -1 -17 -6.5t-19.5 -7.5t-21 -7.5t-25 -8t-26 -7.5t-29 -7.5t-30.5 -5.5t-34.5 -5t-36 -3t-38.5 -1q-93 0 -174.5 35.5t-132.5 105.5q-33 46 -45 106t-12 168v64
h-135v147h135v131h-135v56l395 446h41v-297h340v-205h-340v-131z" />
    <glyph glyph-name="Utilde" unicode="&#x168;" horiz-adv-x="1685" 
d="M1544 1397v-760q0 -57 -2.5 -96.5t-13 -102.5t-37 -121.5t-68.5 -109.5q-187 -225 -587 -225q-398 0 -588 247q-50 68 -78.5 156.5t-28.5 241.5v770h353v-692q0 -143 24 -218q32 -111 122.5 -168t201.5 -57q72 0 131.5 21t97.5 55t60.5 65.5t35.5 63.5q17 42 21 87t4 151
v692h352zM541 1503h-152q0 145 69 236.5t199 91.5q48 0 96 -12t76.5 -24.5t69.5 -33.5q95 -49 148 -49q81 0 96 119h153q0 -143 -68 -235.5t-194 -92.5q-53 0 -107 14.5t-85 28.5t-88 43q-70 37 -121 37q-85 0 -92 -123z" />
    <glyph glyph-name="utilde" unicode="&#x169;" horiz-adv-x="1193" 
d="M1067 944v-944h-299v135q-108 -153 -299 -153q-68 0 -125 19.5t-95.5 51.5t-64 66t-39.5 71q-20 57 -20 164v590h299v-504q0 -33 0.5 -50.5t3 -49t7.5 -49t15.5 -40t25.5 -34.5t38 -20.5t53 -8.5q114 0 201 134v622h299zM334 1065h-135q3 36 9 70t23.5 79t42 77.5
t68.5 55.5t100 23q44 0 80.5 -13t106.5 -48q98 -49 137 -49q35 0 57.5 23.5t32.5 86.5h139q-4 -63 -18.5 -116t-42 -98t-73 -70t-105.5 -25t-178 57q-11 5 -31.5 15.5t-27.5 14t-21 10t-20.5 8.5t-16.5 5t-18 4t-17 1q-25 0 -43 -11.5t-28 -30t-14.5 -35t-6.5 -34.5z" />
    <glyph glyph-name="Umacron" unicode="&#x16a;" horiz-adv-x="1685" 
d="M1544 1397v-760q0 -57 -2.5 -96.5t-13 -102.5t-37 -121.5t-68.5 -109.5q-187 -225 -587 -225q-398 0 -588 247q-50 68 -78.5 156.5t-28.5 241.5v770h353v-692q0 -143 24 -218q32 -111 122.5 -168t201.5 -57q72 0 131.5 21t97.5 55t60.5 65.5t35.5 63.5q17 42 21 87t4 151
v692h352zM1292 1749v-240h-901v240h901z" />
    <glyph glyph-name="umacron" unicode="&#x16b;" horiz-adv-x="1193" 
d="M1067 944v-944h-299v135q-108 -153 -299 -153q-68 0 -125 19.5t-95.5 51.5t-64 66t-39.5 71q-20 57 -20 164v590h299v-504q0 -33 0.5 -50.5t3 -49t7.5 -49t15.5 -40t25.5 -34.5t38 -20.5t53 -8.5q114 0 201 134v622h299zM993 1315v-205h-792v205h792z" />
    <glyph glyph-name="Ubreve" unicode="&#x16c;" horiz-adv-x="1685" 
d="M1544 1397v-760q0 -57 -2.5 -96.5t-13 -102.5t-37 -121.5t-68.5 -109.5q-187 -225 -587 -225q-398 0 -588 247q-50 68 -78.5 156.5t-28.5 241.5v770h353v-692q0 -143 24 -218q32 -111 122.5 -168t201.5 -57q72 0 131.5 21t97.5 55t60.5 65.5t35.5 63.5q17 42 21 87t4 151
v692h352zM408 1868h227q45 -152 205 -152q152 0 211 152h225q-5 -62 -36 -126t-83 -120.5t-134.5 -92.5t-180.5 -36q-96 0 -178.5 36t-135.5 92.5t-84 121t-36 125.5z" />
    <glyph glyph-name="ubreve" unicode="&#x16d;" horiz-adv-x="1193" 
d="M1067 944v-944h-299v135q-108 -153 -299 -153q-68 0 -125 19.5t-95.5 51.5t-64 66t-39.5 71q-20 57 -20 164v590h299v-504q0 -33 0.5 -50.5t3 -49t7.5 -49t15.5 -40t25.5 -34.5t38 -20.5t53 -8.5q114 0 201 134v622h299zM223 1411h205q14 -64 64 -95.5t104 -31.5
q134 0 172 127h203q-4 -48 -28.5 -105.5t-68 -113.5t-115.5 -93.5t-157 -37.5q-149 0 -245 93t-134 257z" />
    <glyph glyph-name="Uring" unicode="&#x16e;" horiz-adv-x="1685" 
d="M1544 1397v-760q0 -57 -2.5 -96.5t-13 -102.5t-37 -121.5t-68.5 -109.5q-187 -225 -587 -225q-398 0 -588 247q-50 68 -78.5 156.5t-28.5 241.5v770h353v-692q0 -143 24 -218q32 -111 122.5 -168t201.5 -57q72 0 131.5 21t97.5 55t60.5 65.5t35.5 63.5q17 42 21 87t4 151
v692h352zM842 1960q95 0 164 -68.5t69 -165.5q0 -98 -68 -165.5t-165 -67.5t-165.5 67.5t-68.5 165.5t69 166t165 68zM842 1851q-52 0 -88.5 -36.5t-36.5 -88.5q0 -54 36 -90.5t89 -36.5q52 0 88.5 37t36.5 90q0 51 -36.5 88t-88.5 37z" />
    <glyph glyph-name="uring" unicode="&#x16f;" horiz-adv-x="1193" 
d="M1067 944v-944h-299v135q-108 -153 -299 -153q-68 0 -125 19.5t-95.5 51.5t-64 66t-39.5 71q-20 57 -20 164v590h299v-504q0 -33 0.5 -50.5t3 -49t7.5 -49t15.5 -40t25.5 -34.5t38 -20.5t53 -8.5q114 0 201 134v622h299zM598 1432q85 0 146 -60.5t61 -146.5t-60.5 -147.5
t-146.5 -61.5q-88 0 -148.5 60.5t-60.5 148.5q0 87 61 147t148 60zM596 1335q-46 0 -78.5 -32t-32.5 -78t32.5 -79.5t78.5 -33.5q47 0 80 33.5t33 79.5t-33 78t-80 32z" />
    <glyph glyph-name="Uhungarumlaut" unicode="&#x170;" horiz-adv-x="1685" 
d="M1544 1397v-760q0 -57 -2.5 -96.5t-13 -102.5t-37 -121.5t-68.5 -109.5q-187 -225 -587 -225q-398 0 -588 247q-50 68 -78.5 156.5t-28.5 241.5v770h353v-692q0 -143 24 -218q32 -111 122.5 -168t201.5 -57q72 0 131.5 21t97.5 55t60.5 65.5t35.5 63.5q17 42 21 87t4 151
v692h352zM952 1880l-303 -387h-182l156 387h329zM1372 1880l-301 -387h-184l157 387h328z" />
    <glyph glyph-name="uhungarumlaut" unicode="&#x171;" horiz-adv-x="1193" 
d="M1067 944v-944h-299v135q-108 -153 -299 -153q-68 0 -125 19.5t-95.5 51.5t-64 66t-39.5 71q-20 57 -20 164v590h299v-504q0 -33 0.5 -50.5t3 -49t7.5 -49t15.5 -40t25.5 -34.5t38 -20.5t53 -8.5q114 0 201 134v622h299zM768 1358l-266 -297h-148l109 297h305zM1153 1358
l-266 -297h-148l107 297h307z" />
    <glyph glyph-name="Uogonek" unicode="&#x172;" horiz-adv-x="1685" 
d="M1477 -211v-182q-84 -35 -179 -35q-26 0 -53 5.5t-60 22.5t-57.5 44t-41.5 74.5t-17 109.5q0 64 13.5 105.5t41.5 84.5q-124 -36 -290 -36q-396 0 -586 247q-50 68 -78.5 156.5t-28.5 241.5v770h353v-692q0 -143 24 -218q32 -111 122.5 -168t201.5 -57q58 0 109.5 15
t85.5 37t62 51t43 53.5t25 48.5q17 42 21 87t4 151v692h352v-760q0 -154 -30 -258.5t-130 -243.5q-65 -89 -89.5 -136.5t-24.5 -102.5t37.5 -87t91.5 -32q38 0 78 12z" />
    <glyph glyph-name="uogonek" unicode="&#x173;" horiz-adv-x="1193" 
d="M1096 -190v-164q-76 -31 -160 -31q-93 0 -151 62.5t-58 160.5q0 92 41 162v135q-108 -153 -299 -153q-68 0 -125 19.5t-95.5 51.5t-64 66t-39.5 71q-20 57 -20 164v590h299v-504q0 -33 0.5 -50.5t3 -49t7.5 -49t15.5 -40t25.5 -34.5t38 -20.5t53 -8.5q114 0 201 134v622
h299v-944h-133q-25 -58 -25 -94q0 -35 14.5 -59t37 -33t37 -12t26.5 -3q17 0 72 11z" />
    <glyph glyph-name="Wcircumflex" unicode="&#x174;" horiz-adv-x="2390" 
d="M2390 1397l-616 -1415h-150l-430 911l-432 -911h-150l-614 1415h369l329 -772l359 772h284l351 -772l331 772h369zM1378 1841l240 -348h-191l-237 211l-234 -211h-186l236 348h372z" />
    <glyph glyph-name="wcircumflex" unicode="&#x175;" horiz-adv-x="1599" 
d="M1602 944l-433 -962h-139l-229 514l-238 -514h-139l-426 962h303l199 -502l211 502h178l209 -502l202 502h302zM940 1419l203 -358h-182l-160 178l-164 -178h-180l202 358h281z" />
    <glyph glyph-name="Ycircumflex" unicode="&#x176;" horiz-adv-x="1449" 
d="M1452 1397l-551 -744v-653h-350v653l-551 744h420l307 -439l307 439h418zM907 1841l240 -348h-191l-237 211l-234 -211h-186l236 348h372z" />
    <glyph glyph-name="ycircumflex" unicode="&#x177;" horiz-adv-x="1044" 
d="M1042 944l-632 -1397h-316l277 607l-369 790h317l199 -467l213 467h311zM657 1419l203 -358h-182l-160 178l-164 -178h-180l203 358h280z" />
    <glyph glyph-name="Ydieresis" unicode="&#x178;" horiz-adv-x="1449" 
d="M1452 1397l-551 -744v-653h-350v653l-551 744h420l307 -439l307 439h418zM1018 1831q68 0 116 -48.5t48 -115.5t-48 -115.5t-116 -48.5t-116 48.5t-48 115.5t48 115.5t116 48.5zM434 1831q68 0 116 -48.5t48 -115.5t-48 -115.5t-116 -48.5t-116 48.5t-48 115.5t48 115.5
t116 48.5z" />
    <glyph glyph-name="Zacute" unicode="&#x179;" horiz-adv-x="1429" 
d="M1364 1397l-762 -1135h762v-262h-1356l768 1135h-715v262h1303zM1120 1880l-426 -387h-207l240 387h393z" />
    <glyph glyph-name="zacute" unicode="&#x17a;" horiz-adv-x="1067" 
d="M86 944h922l-484 -739h484v-205h-969l485 735h-438v209zM846 1360l-336 -299h-154l154 299h336z" />
    <glyph glyph-name="Zdotaccent" unicode="&#x17b;" horiz-adv-x="1429" 
d="M1364 1397l-762 -1135h762v-262h-1356l768 1135h-715v262h1303zM715 1831q67 0 115.5 -48.5t48.5 -115.5t-48.5 -115.5t-115.5 -48.5t-115.5 48.5t-48.5 115.5t48.5 115.5t115.5 48.5z" />
    <glyph glyph-name="zdotaccent" unicode="&#x17c;" horiz-adv-x="1067" 
d="M86 944h922l-484 -739h484v-205h-969l485 735h-438v209zM535 1346q55 0 94 -39t39 -95q0 -54 -39 -93.5t-94 -39.5q-56 0 -95 39t-39 94q0 56 39.5 95t94.5 39z" />
    <glyph glyph-name="Zcaron" unicode="&#x17d;" horiz-adv-x="1429" 
d="M1364 1397l-762 -1135h762v-262h-1356l768 1135h-715v262h1303zM530 1493l-239 348h190l238 -213l233 213h187l-236 -348h-373z" />
    <glyph glyph-name="zcaron" unicode="&#x17e;" horiz-adv-x="1067" 
d="M86 944h922l-484 -739h484v-205h-969l485 735h-438v209zM393 1061l-203 358h183l159 -190l164 190h181l-203 -358h-281z" />
    <glyph glyph-name="florin" unicode="&#x192;" horiz-adv-x="1130" 
d="M219 850l37 211h201l16 90q21 107 31.5 146t30.5 73q70 121 274 121q149 0 276 -41l-53 -225q-94 26 -160 26q-20 0 -36 -4t-27 -8.5t-20.5 -17t-14 -19.5t-10 -26t-7.5 -26.5t-7 -31.5l-11 -57h207l-37 -211h-204l-173 -977q-7 -40 -13 -66.5t-18 -61.5t-27 -57.5
t-39.5 -47t-55.5 -38.5t-76 -23t-100 -9q-155 0 -279 39l58 221q102 -23 168 -23q64 0 84.5 34.5t37.5 135.5l150 873h-203z" />
    <glyph glyph-name="AEacute" unicode="&#x1fc;" horiz-adv-x="2197" 
d="M2062 1397v-264h-647v-291h619v-262h-619v-320h668v-260h-1018v580h-375l-344 -580h-360l837 1397h1239zM1065 842v368l-219 -368h219zM1913 1880l-426 -387h-207l240 387h393z" />
    <glyph glyph-name="aeacute" unicode="&#x1fd;" horiz-adv-x="1632" 
d="M1518 305v-194q-177 -129 -410 -129q-111 0 -213 33.5t-170 95.5q-41 -28 -67.5 -43.5t-77 -39t-109.5 -35t-125 -11.5q-65 0 -115.5 18t-79 45t-47 61t-24.5 62t-6 53q0 77 46 142t113 102q80 44 209 84t201 57q0 51 -4 64q-9 29 -30 49.5t-47 30.5t-47.5 14t-39.5 4
q-104 0 -204 -54.5t-156 -107.5v236q117 67 209.5 94t187.5 27q98 0 163 -26t136 -79q32 27 58.5 45.5t89 39t133.5 20.5q74 0 139 -22.5t106 -53.5t76 -72t50.5 -67t25.5 -50q43 -103 43 -272h-592q-3 -69 15.5 -121t53 -82t77 -44.5t92.5 -14.5q56 0 110 14t100 40t72 44
t58 43zM940 584h307q-8 96 -47.5 146t-109.5 50q-72 0 -109.5 -52t-40.5 -144zM643 225v232q-268 -77 -268 -203q0 -39 25.5 -68.5t66.5 -29.5q83 0 176 69zM1112 1360l-336 -299h-153l153 299h336z" />
    <glyph glyph-name="Oslashacute" unicode="&#x1fe;" horiz-adv-x="1746" 
d="M1700 1282l-170 -152q158 -205 158 -432q0 -140 -57.5 -270t-159.5 -229t-252.5 -158t-325.5 -59q-90 0 -167.5 12t-140.5 36.5t-100 43.5t-88 49l-225 -199l-125 156l203 180q-162 202 -162 436q0 101 32 202t99 194.5t160.5 165t226 114.5t285.5 43q96 0 186 -18
t151 -45.5t97.5 -48.5t54.5 -37l179 157zM1280 909l-643 -573q110 -68 254 -68q189 0 313.5 117t124.5 309q0 99 -49 215zM500 481l643 576q-116 65 -264 65q-87 0 -164 -27.5t-136.5 -79t-94.5 -134t-35 -185.5q0 -124 51 -215zM1296 1880l-426 -387h-206l239 387h393z" />
    <glyph glyph-name="oslashacute" unicode="&#x1ff;" horiz-adv-x="1216" 
d="M1130 965l-126 -146q34 -39 49.5 -59.5t41 -65t37 -98.5t11.5 -121q0 -91 -24.5 -167.5t-67 -129t-95.5 -92t-113.5 -61.5t-116.5 -32.5t-110 -10.5q-121 0 -280 59l-133 -152l-105 93l123 141q-41 39 -71.5 88t-44 87.5t-21.5 81.5t-9 60.5t-1 34.5q0 72 21 141.5
t65.5 132.5t107.5 110.5t153.5 75.5t196.5 28q60 0 113.5 -10t81 -19.5t76.5 -30.5l133 166zM813 594l-330 -385q57 -41 125 -41q43 0 78 13.5t56.5 33.5t37 51.5t23 56.5t11.5 61t4.5 53.5t0.5 43.5q0 75 -6 113zM408 342l335 391q-67 45 -143 45q-24 0 -48.5 -6.5t-54 -23
t-53.5 -53.5t-36 -91q-15 -52 -15 -137q0 -26 2 -49t4 -33.5t5.5 -25.5t3.5 -17zM922 1360l-336 -299h-154l154 299h336z" />
    <glyph glyph-name="uni0218" unicode="&#x218;" horiz-adv-x="1236" 
d="M1094 1307v-287q-57 28 -90 42.5t-99.5 40.5t-131.5 39t-128 13q-58 0 -100.5 -11t-63 -25t-32 -33t-13.5 -28.5t-2 -17.5q0 -30 20 -55t75.5 -52t96 -43t138.5 -51l4.5 -1.5t3.5 -1.5q61 -22 108.5 -44.5t102 -60.5t90.5 -82.5t60 -110t24 -143.5q0 -93 -37.5 -167
t-94.5 -119t-132.5 -74.5t-145 -41t-137.5 -11.5q-152 0 -298 50t-195 85v301q61 -38 101.5 -60.5t106.5 -53t135 -45.5t142 -15q17 0 31.5 1t42 4t48.5 11.5t42 21.5t33 36t12 53q0 17 -3.5 31.5t-12.5 27.5t-18.5 23t-29 21t-35.5 19t-47 20t-53.5 20t-64.5 22
q-54 19 -89.5 32.5t-87.5 38t-87 48.5t-74.5 60t-62.5 75.5t-38.5 93.5t-15.5 115q0 81 34 152t98.5 126t167 87t229.5 32q103 0 212.5 -21.5t260.5 -86.5zM385 -469v115h59q91 0 122.5 16t31.5 57q0 14 -6.5 25t-21 17.5t-26.5 10.5t-33.5 5.5t-32 2t-31 0t-21.5 -0.5
l10 104q164 0 208 -4q215 -19 240 -146q3 -17 3 -36q0 -81 -79.5 -135t-217.5 -54q-124 0 -205 23z" />
    <glyph glyph-name="uni0219" unicode="&#x219;" horiz-adv-x="874" 
d="M772 893v-211q-171 92 -293 92q-16 0 -33 -2t-42 -7.5t-40.5 -20t-15.5 -35.5q0 -27 22 -44.5t95 -48.5q51 -20 79 -32t71.5 -33t68 -37.5t54 -42.5t44.5 -52t26 -61t11 -75q0 -144 -101.5 -222.5t-283.5 -78.5q-101 0 -198.5 22.5t-139.5 46.5v209q169 -88 301 -88
q70 0 107 20.5t37 51.5q0 37 -32 58t-149 69q-120 51 -157 73q-57 35 -91 94t-34 132q0 126 102 209.5t283 83.5q177 0 309 -70zM227 -346v102q41 1 68 -1t45 3t27 6t13 9t4.5 11t0.5 13q0 16 -21.5 30.5t-62.5 14.5v97q172 0 237.5 -38.5t65.5 -109.5q0 -67 -57 -112.5
t-160 -45.5q-74 0 -160 21z" />
    <glyph glyph-name="uni021A" unicode="&#x21a;" horiz-adv-x="1472" 
d="M1417 1397v-262h-504v-1135h-354v1135h-506v262h1364zM553 -469v115h59q91 0 122.5 16t31.5 57q0 14 -6.5 25t-21 17.5t-26.5 10.5t-33.5 5.5t-32 2t-31 0t-21.5 -0.5l10 104h40q184 2 265 -20q146 -40 146 -166q0 -81 -79.5 -135t-217.5 -54q-124 0 -205 23z" />
    <glyph glyph-name="uni021B" unicode="&#x21b;" horiz-adv-x="831" 
d="M801 944v-205h-340v-207q0 -180 8 -229q6 -33 22.5 -55.5t39 -31.5t39 -12t32.5 -3q55 0 99 13.5t100 41.5v-215q-3 -1 -17 -6.5t-19.5 -7.5t-21 -7.5t-25 -8t-26 -7.5t-29 -7.5t-30.5 -5.5t-34.5 -5t-36 -3t-38.5 -1q-93 0 -174.5 35.5t-132.5 105.5q-33 46 -45 106
t-12 168v342h-135v56l395 446h41v-297h340zM289 -346v102q76 -3 112 3t40.5 13t4.5 25q0 16 -21.5 30.5t-62.5 14.5v97q172 0 238 -38.5t66 -109.5q0 -67 -57 -112.5t-160 -45.5q-74 0 -160 21z" />
    <glyph glyph-name="circumflex" unicode="&#x2c6;" 
d="M481 1419l203 -358h-182l-160 178l-164 -178h-180l203 358h280z" />
    <glyph glyph-name="caron" unicode="&#x2c7;" 
d="M201 1061l-203 358h182l160 -190l164 190h180l-203 -358h-280z" />
    <glyph glyph-name="uni02C9" unicode="&#x2c9;" 
d="M737 1315v-205h-792v205h792z" />
    <glyph glyph-name="breve" unicode="&#x2d8;" 
d="M-33 1411h205q14 -64 64 -95.5t104 -31.5q134 0 172 127h203q-4 -48 -28.5 -105.5t-68 -113.5t-115.5 -93.5t-157 -37.5q-149 0 -245 93t-134 257z" />
    <glyph glyph-name="dotaccent" unicode="&#x2d9;" 
d="M342 1346q55 0 94 -39t39 -95q0 -54 -39 -93.5t-94 -39.5q-56 0 -94.5 39t-38.5 94q0 56 39 95t94 39z" />
    <glyph glyph-name="ring" unicode="&#x2da;" 
d="M342 1432q85 0 146 -60.5t61 -146.5t-60.5 -147.5t-146.5 -61.5q-88 0 -148.5 60.5t-60.5 148.5q0 87 61 147t148 60zM340 1335q-46 0 -78.5 -32t-32.5 -78t32.5 -79.5t78.5 -33.5q47 0 80 33.5t33 79.5t-33 78t-80 32z" />
    <glyph glyph-name="ogonek" unicode="&#x2db;" 
d="M520 -190v-164q-76 -31 -160 -31q-90 0 -148 58.5t-58 172.5q0 43 11.5 83t17.5 51t22 38h162q-33 -70 -33 -112q0 -54 37.5 -80.5t79.5 -26.5q14 0 69 11z" />
    <glyph glyph-name="tilde" unicode="&#x2dc;" 
d="M78 1065h-135q3 36 9 70t23.5 79t42 77.5t68.5 55.5t100 23q44 0 80.5 -13t106.5 -48q98 -49 137 -49q35 0 57.5 23.5t32.5 86.5h139q-4 -63 -18.5 -116t-42 -98t-73 -70t-105.5 -25t-178 57q-11 5 -31.5 15.5t-27.5 14t-21 10t-20.5 8.5t-16.5 5t-18 4t-17 1
q-25 0 -43 -11.5t-28 -30t-14.5 -35t-6.5 -34.5z" />
    <glyph glyph-name="hungarumlaut" unicode="&#x2dd;" 
d="M471 1358l-266 -297h-148l109 297h305zM856 1358l-266 -297h-148l107 297h307z" />
    <glyph glyph-name="uni03A9" unicode="&#x3a9;" horiz-adv-x="1705" 
d="M129 0v262h221q-120 128 -180.5 258t-60.5 287q0 294 231 469q101 76 223.5 107.5t286.5 31.5q360 0 553.5 -166t193.5 -450q0 -162 -61 -289t-182 -248h221v-262h-598v260q141 72 213 190.5t72 264.5q0 191 -109.5 301t-296.5 110q-193 0 -303.5 -107.5t-110.5 -295.5
q0 -166 71.5 -277t211.5 -186v-260h-596z" />
    <glyph glyph-name="uni03BC" unicode="&#x3bc;" horiz-adv-x="1185" 
d="M766 449v495h297v-645q0 -90 57 -90q3 0 43 10v-192q-88 -45 -186 -45q-92 0 -131 73q-82 -73 -187 -73q-74 0 -138.5 39.5t-106.5 109.5v-602h-297v1415h297v-608q55 -67 105.5 -101t105.5 -34t94 46.5t41 86.5q1 24 3.5 65t2.5 50z" />
    <glyph glyph-name="pi" unicode="&#x3c0;" horiz-adv-x="1433" 
d="M244 0v717q-4 0 -10.5 1t-10.5 1q-71 0 -192 -41v225q47 26 111 34.5t161 8.5h1100v-229h-213v-717h-297v717h-352v-717h-297z" />
    <glyph glyph-name="Wgrave" unicode="&#x1e80;" horiz-adv-x="2390" 
d="M2390 1397l-616 -1415h-150l-430 911l-432 -911h-150l-614 1415h369l329 -772l359 772h284l351 -772l331 772h369zM791 1880h393l239 -387h-206z" />
    <glyph glyph-name="wgrave" unicode="&#x1e81;" horiz-adv-x="1599" 
d="M1602 944l-433 -962h-139l-229 514l-238 -514h-139l-426 962h303l199 -502l211 502h178l209 -502l202 502h302zM487 1360h338l152 -299h-152z" />
    <glyph glyph-name="Wacute" unicode="&#x1e82;" horiz-adv-x="2390" 
d="M2390 1397l-616 -1415h-150l-430 911l-432 -911h-150l-614 1415h369l329 -772l359 772h284l351 -772l331 772h369zM1599 1880l-425 -387h-207l239 387h393z" />
    <glyph glyph-name="wacute" unicode="&#x1e83;" horiz-adv-x="1599" 
d="M1602 944l-433 -962h-139l-229 514l-238 -514h-139l-426 962h303l199 -502l211 502h178l209 -502l202 502h302zM1112 1360l-336 -299h-153l153 299h336z" />
    <glyph glyph-name="Wdieresis" unicode="&#x1e84;" horiz-adv-x="2390" 
d="M2390 1397l-616 -1415h-150l-430 911l-432 -911h-150l-614 1415h369l329 -772l359 772h284l351 -772l331 772h369zM1487 1831q67 0 115.5 -48.5t48.5 -115.5t-48.5 -115.5t-115.5 -48.5t-115.5 48.5t-48.5 115.5t48.5 115.5t115.5 48.5zM903 1831q67 0 115.5 -48.5
t48.5 -115.5t-48.5 -115.5t-115.5 -48.5t-115.5 48.5t-48.5 115.5t48.5 115.5t115.5 48.5z" />
    <glyph glyph-name="wdieresis" unicode="&#x1e85;" horiz-adv-x="1599" 
d="M1602 944l-433 -962h-139l-229 514l-238 -514h-139l-426 962h303l199 -502l211 502h178l209 -502l202 502h302zM1008 1346q56 0 94.5 -38.5t38.5 -95.5q0 -54 -39 -93.5t-94 -39.5t-94.5 39.5t-39.5 93.5q0 56 39 95t95 39zM592 1346q55 0 94 -39t39 -95q0 -55 -38.5 -94
t-94.5 -39q-55 0 -94 39.5t-39 93.5q0 56 39 95t94 39z" />
    <glyph glyph-name="Ygrave" unicode="&#x1ef2;" horiz-adv-x="1449" 
d="M1452 1397l-551 -744v-653h-350v653l-551 744h420l307 -439l307 439h418zM260 1880h393l240 -387h-207z" />
    <glyph glyph-name="ygrave" unicode="&#x1ef3;" horiz-adv-x="1044" 
d="M1042 944l-632 -1397h-316l277 607l-369 790h317l199 -467l213 467h311zM211 1360h338l151 -299h-151z" />
    <glyph glyph-name="endash" unicode="&#x2013;" horiz-adv-x="1024" 
d="M1040 608v-270h-1056v270h1056z" />
    <glyph glyph-name="emdash" unicode="&#x2014;" horiz-adv-x="2048" 
d="M2062 608v-270h-2076v270h2076z" />
    <glyph glyph-name="quoteleft" unicode="&#x2018;" horiz-adv-x="555" 
d="M451 1415v-61q-103 -124 -91 -262q35 -16 58.5 -40.5t32 -50.5t10.5 -39.5t2 -25.5q0 -70 -51.5 -115t-118.5 -45q-76 0 -138.5 61t-62.5 175q0 93 44 181t128 150t187 72z" />
    <glyph glyph-name="quoteright" unicode="&#x2019;" horiz-adv-x="555" 
d="M102 772v62q105 125 93 262q-35 16 -59 40.5t-32.5 50.5t-11 40t-2.5 26q0 72 52.5 117t119.5 45q76 0 138.5 -60.5t62.5 -174.5q0 -147 -102 -269t-259 -139z" />
    <glyph glyph-name="quotesinglbase" unicode="&#x201a;" horiz-adv-x="555" 
d="M102 -350v63q105 119 93 260q-35 16 -59 40.5t-32.5 50.5t-11 40.5t-2.5 26.5q0 72 52.5 117t119.5 45q35 0 69 -13.5t64.5 -41t49 -74.5t18.5 -107q0 -147 -102 -268.5t-259 -138.5z" />
    <glyph glyph-name="quotedblleft" unicode="&#x201c;" horiz-adv-x="1150" 
d="M1047 1415v-61q-103 -124 -91 -262q35 -16 58.5 -40.5t32 -50.5t10.5 -39.5t2 -25.5q0 -70 -51.5 -115t-118.5 -45q-77 0 -140 61t-63 175q0 93 44.5 181t128.5 150t188 72zM475 1415v-61q-102 -123 -90 -262q35 -16 58.5 -40.5t32 -50.5t11 -40t2.5 -25
q0 -70 -52.5 -115t-119.5 -45q-35 0 -69 14t-64 41.5t-48.5 74.5t-18.5 106q0 93 43.5 181t127.5 150t187 72z" />
    <glyph glyph-name="quotedblright" unicode="&#x201d;" horiz-adv-x="1150" 
d="M129 772v62q19 24 29.5 39.5t30 51.5t27 79.5t3.5 91.5q-35 16 -58.5 40t-32 50.5t-11 40.5t-2.5 26q0 72 52.5 117t119.5 45q76 0 138 -60t62 -175q0 -147 -101 -269t-257 -139zM698 772v62q105 125 93 262q-35 16 -59 40.5t-32.5 50.5t-11 40t-2.5 26q0 72 52.5 117
t119.5 45q76 0 138.5 -60.5t62.5 -174.5q0 -147 -102.5 -269t-258.5 -139z" />
    <glyph glyph-name="quotedblbase" unicode="&#x201e;" horiz-adv-x="1150" 
d="M117 -346v63q103 116 90 265q-35 16 -58 39.5t-31.5 49t-11 39t-2.5 25.5q0 69 52 113.5t118 44.5q78 0 140.5 -60.5t62.5 -173.5q0 -146 -101.5 -267t-258.5 -138zM688 -346v63q102 123 90 265q-35 16 -58 39.5t-31 49t-10.5 39t-2.5 25.5q0 69 52 113.5t118 44.5
q76 0 139.5 -60.5t63.5 -173.5q0 -145 -102.5 -266.5t-258.5 -138.5z" />
    <glyph glyph-name="dagger" unicode="&#x2020;" horiz-adv-x="1044" 
d="M580 907l348 74q12 3 22 3t16.5 -2.5t11.5 -5.5t8 -10t5 -12t3 -14.5t1 -15.5v-17v-127q0 -78 -39 -78q-6 0 -34 9l-342 69l106 -1202q7 -49 -45 -49h-225q-48 0 -58 16.5t-6 55.5l111 1179l-371 -73q-41 0 -41 73v127q0 82 39 82q9 0 25 -8l348 -74l-74 451
q-5 33 8.5 45t65.5 12h117q50 0 69 -9.5t13 -39.5z" />
    <glyph glyph-name="daggerdbl" unicode="&#x2021;" horiz-adv-x="1044" 
d="M573 879l82 -408l-82 -405l349 79q41 9 55 -17.5t14 -109.5q0 -61 -5.5 -93t-14.5 -41t-25 -9q-18 0 -33 6l-340 80l82 -364q5 -16 2.5 -28.5t-14 -21.5t-39 -13.5t-72.5 -4.5q-78 0 -114.5 9.5t-36.5 41.5q0 3 6 33l82 348l-344 -80q-8 -4 -23 -4q-31 0 -40 37.5
t-9 110.5q0 27 1 42.5t4 38t12.5 33.5t23.5 11q2 0 11 -2.5t12 -2.5l352 -79l-82 405l82 408l-336 -80q-9 -1 -14 -2.5t-8 -1.5q-33 0 -45.5 25.5t-12.5 107.5q0 58 5 88.5t12.5 39.5t21.5 9q3 0 13 -2t12 -2l352 -80l-82 352q-4 8 -4 29q0 19 13 30.5t38.5 16t42 5.5
t45.5 1q76 0 106.5 -10.5t30.5 -40.5q0 -17 -4 -31l-82 -352l340 80q23 6 33 6q16 0 25 -7.5t15.5 -37.5t6.5 -88q0 -64 -7.5 -96t-15 -36.5t-22.5 -4.5q-6 0 -15.5 1t-10.5 1z" />
    <glyph glyph-name="bullet" unicode="&#x2022;" horiz-adv-x="724" 
d="M657 698q0 -124 -87.5 -209.5t-209.5 -85.5t-208 86t-86 209q0 122 85.5 208.5t208.5 86.5q122 0 209.5 -85.5t87.5 -209.5z" />
    <glyph glyph-name="ellipsis" unicode="&#x2026;" horiz-adv-x="2048" 
d="M1884 160q0 -67 -50 -122.5t-126 -55.5q-73 0 -126.5 53.5t-53.5 124.5q0 70 51 123t125 53q78 0 129 -54t51 -122zM1202 160q0 -67 -50 -122.5t-126 -55.5q-73 0 -126.5 53.5t-53.5 124.5q0 70 51 123t125 53q78 0 129 -54t51 -122zM520 160q0 -67 -50 -122.5
t-126 -55.5q-73 0 -126.5 53.5t-53.5 124.5q0 70 51 123t125 53q78 0 129 -54t51 -122z" />
    <glyph glyph-name="perthousand" unicode="&#x2030;" horiz-adv-x="2217" 
d="M360 1413q136 0 233 -96.5t97 -233.5q0 -136 -97.5 -232.5t-232.5 -96.5q-136 0 -232.5 96t-96.5 233t96.5 233.5t232.5 96.5zM360 1229q-60 0 -103.5 -43t-43.5 -103q0 -61 42.5 -104t104.5 -43q60 0 103 43t43 104q0 60 -43.5 103t-102.5 43zM1073 647q136 0 234 -97
t98 -235q0 -136 -97.5 -232.5t-234.5 -96.5t-233.5 96.5t-96.5 232.5q0 138 97.5 235t232.5 97zM1071 459q-61 0 -103 -42.5t-42 -101.5q0 -60 42 -102.5t103 -42.5q60 0 101.5 42.5t41.5 102.5t-41.5 102t-101.5 42zM1858 647q136 0 233.5 -96.5t97.5 -235.5
q0 -136 -97 -232.5t-234 -96.5t-233.5 96.5t-96.5 232.5q0 138 97.5 235t232.5 97zM1855 459q-61 0 -103 -42.5t-42 -101.5q0 -60 42 -102.5t103 -42.5q60 0 102 42.5t42 102.5t-42 102t-102 42zM1284 1415l-977 -1431h-170l983 1431h164z" />
    <glyph glyph-name="guilsinglleft" unicode="&#x2039;" horiz-adv-x="661" 
d="M643 930l-330 -463l330 -453h-295l-332 453l332 463h295z" />
    <glyph glyph-name="guilsinglright" unicode="&#x203a;" horiz-adv-x="661" 
d="M18 930h295l330 -463l-330 -453h-295l330 453z" />
    <glyph glyph-name="fraction" unicode="&#x2044;" horiz-adv-x="448" 
d="M809 1415l-979 -1470h-192l980 1470h191z" />
    <glyph glyph-name="Euro" unicode="&#x20ac;" horiz-adv-x="1284" 
d="M205 467h-172l33 168h116q-2 63 2 131h-151l33 168h145q11 42 26.5 83t42.5 90t60.5 91.5t82.5 83t106 69.5t133 46.5t163 17.5q134 0 340 -43l-45 -258q-4 1 -22.5 5.5t-24.5 6t-24.5 5.5t-27 6t-26 5.5t-29 5t-28.5 3.5t-31 3t-30.5 2t-32.5 1q-49 0 -90.5 -9.5
t-84 -32.5t-78 -69t-61.5 -112h547l-33 -168h-552q-4 -56 0 -131h536l-33 -168h-471q48 -125 120 -174t171 -49q68 0 138 20.5t188 75.5v-268q-63 -27 -97.5 -41t-114.5 -31.5t-159 -17.5q-104 0 -192.5 29.5t-148.5 77t-107 113t-74 130t-43 135.5z" />
    <glyph glyph-name="afii61289" unicode="&#x2113;" horiz-adv-x="1009" 
d="M844 78q-140 -113 -289 -113q-142 0 -223 84q-45 45 -69.5 126.5t-24.5 164.5v92q-17 -17 -50 -48.5t-51 -47.5q-33 62 -78 137q29 28 89.5 85t89.5 85v399q0 217 92.5 333t247.5 116q69 0 121 -24.5t80 -65.5t41.5 -85.5t13.5 -92.5q0 -142 -62 -264.5t-180 -256.5
q-11 -11 -34.5 -37t-29.5 -32v-250q0 -197 111 -197q63 0 129 66q13 -29 38.5 -87t37.5 -87zM674 1184q0 37 -16 61.5t-48 24.5q-82 0 -82 -166v-248q1 1 10.5 12.5t14.5 18.5q53 65 87 149t34 148z" />
    <glyph glyph-name="trademark" unicode="&#x2122;" horiz-adv-x="2048" 
d="M465 578v677h-248v142h664v-142h-248v-677h-168zM979 578v819h260l150 -563l149 563h258v-819h-156v653l-178 -653h-149l-176 653v-653h-158z" />
    <glyph glyph-name="Omega" unicode="&#x2126;" horiz-adv-x="1705" 
d="M129 0v262h221q-120 128 -180.5 258t-60.5 287q0 294 231 469q101 76 223.5 107.5t286.5 31.5q360 0 553.5 -166t193.5 -450q0 -162 -61 -289t-182 -248h221v-262h-598v260q141 72 213 190.5t72 264.5q0 191 -109.5 301t-296.5 110q-193 0 -303.5 -107.5t-110.5 -295.5
q0 -166 71.5 -277t211.5 -186v-260h-596z" />
    <glyph glyph-name="estimated" unicode="&#x212e;" horiz-adv-x="1353" 
d="M1196 565h-872v-389q128 -125 311 -125q264 0 414 256q13 -7 37 -22.5t36 -22.5q-98 -143 -211.5 -215t-275.5 -72q-167 0 -294 79.5t-193 212.5t-66 298t65.5 298t192 212.5t293.5 79.5q171 0 298.5 -79.5t193 -211.5t71.5 -299zM946 641v309q-131 131 -315 131
q-181 0 -307 -129v-311h622z" />
    <glyph glyph-name="onethird" unicode="&#x2153;" horiz-adv-x="1835" 
d="M455 1415v-735h-213v735h213zM1479 1415l-979 -1470h-193l979 1470h193zM1309 590l-78 -29v141q97 35 203 35q119 0 196.5 -50t77.5 -132q0 -51 -32 -94.5t-83 -71.5q138 -50 138 -184q0 -101 -86.5 -158t-219.5 -57q-118 0 -213 45v158q35 -21 55 -31.5t58 -21.5t78 -11
q46 0 78 23t32 63q0 82 -124 94v137q32 2 55 10.5t33.5 17.5t16.5 22t6.5 18.5t0.5 11.5q0 31 -27.5 54.5t-76.5 23.5q-44 0 -88 -14z" />
    <glyph glyph-name="twothirds" unicode="&#x2154;" horiz-adv-x="1835" 
d="M602 838v-158h-571v27q73 82 108 122t85 101.5t72 97.5t39 77.5t17 74.5q0 41 -29 67.5t-69 26.5q-90 0 -211 -105v174q75 42 129.5 57t112.5 15q139 0 206.5 -61t67.5 -146q0 -44 -19.5 -93.5t-61 -107t-65 -86t-71.5 -83.5h260zM1503 1415l-979 -1470h-192l979 1470
h192zM1231 561v141q97 35 203 35q119 0 196.5 -50t77.5 -132q0 -51 -32 -94.5t-83 -71.5q138 -50 138 -184q0 -101 -86.5 -158t-219.5 -57q-118 0 -213 45v158q35 -21 55 -31.5t58 -21.5t78 -11q46 0 78 23t32 63q0 82 -124 94v137q32 2 55 10.5t33.5 17.5t16.5 22t6.5 18.5
t0.5 11.5q0 30 -26.5 54t-79.5 24q-34 0 -61 -7.5t-103 -35.5z" />
    <glyph glyph-name="oneeighth" unicode="&#x215b;" horiz-adv-x="1835" 
d="M1657 385q119 -56 119 -174q0 -94 -75.5 -157.5t-215.5 -63.5q-122 0 -204.5 59.5t-82.5 159.5q0 121 121 176q-96 52 -96 152q0 87 71 143.5t191 56.5q130 0 199 -61.5t69 -140.5q0 -96 -96 -150zM1552 528q0 88 -65 88q-28 0 -44 -20.5t-19 -37t-3 -32.5q0 -10 2 -22
t8 -29.5t21 -29t37 -11.5q4 0 9 0.5t15.5 5.5t18 14t14 28.5t6.5 45.5zM1565 211q0 53 -21.5 80.5t-56.5 27.5q-33 0 -55.5 -25.5t-22.5 -78.5q0 -56 24.5 -82.5t55.5 -26.5q33 0 54.5 27.5t21.5 77.5zM455 1415v-735h-213v735h213zM1485 1415l-979 -1470h-193l979 1470h193
z" />
    <glyph glyph-name="threeeighths" unicode="&#x215c;" horiz-adv-x="1835" 
d="M1657 385q119 -59 119 -174q0 -93 -75.5 -157t-215.5 -64q-122 0 -204.5 59.5t-82.5 159.5q0 121 121 176q-96 52 -96 152q0 87 71 143.5t191 56.5q130 0 199 -61.5t69 -140.5q0 -96 -96 -150zM1552 528q0 88 -65 88q-28 0 -44 -20.5t-19 -37t-3 -32.5q0 -10 2 -22
t8 -29.5t21 -29t37 -11.5q4 0 9 0.5t15.5 5.5t18 14t14 28.5t6.5 45.5zM1565 211q0 53 -21.5 80.5t-56.5 27.5q-33 0 -55.5 -25.5t-22.5 -78.5q0 -56 24.5 -82.5t55.5 -26.5q33 0 54.5 27.5t21.5 77.5zM92 1241v139q91 35 201 35q119 0 197.5 -50t78.5 -130
q0 -51 -31.5 -94.5t-82.5 -71.5q18 -7 28 -12t33.5 -21.5t37.5 -34.5t26 -48.5t12 -67.5q0 -101 -86.5 -158t-220.5 -57q-121 0 -213 45v157q48 -31 91 -48t101 -17q46 0 78.5 23.5t32.5 62.5q0 86 -125 94v137q32 2 55 11t33.5 18.5t16.5 22.5t6.5 18.5t0.5 11.5
q0 31 -27.5 54.5t-76.5 23.5q-30 0 -88 -14q-2 -1 -36.5 -14.5t-41.5 -14.5zM1503 1415l-979 -1470h-192l979 1470h192z" />
    <glyph glyph-name="fiveeighths" unicode="&#x215d;" horiz-adv-x="1835" 
d="M1657 385q119 -59 119 -174q0 -93 -75.5 -157t-215.5 -64q-122 0 -204.5 59.5t-82.5 159.5q0 121 121 176q-96 52 -96 152q0 87 71 143.5t191 56.5q130 0 199 -61.5t69 -140.5q0 -96 -96 -150zM1552 528q0 88 -65 88q-28 0 -44 -20.5t-19 -37t-3 -32.5q0 -10 2 -22
t8 -29.5t21 -29t37 -11.5q4 0 9 0.5t15.5 5.5t18 14t14 28.5t6.5 45.5zM1565 211q0 53 -21.5 80.5t-56.5 27.5q-33 0 -55.5 -25.5t-22.5 -78.5q0 -56 24.5 -82.5t55.5 -26.5q33 0 54.5 27.5t21.5 77.5zM573 1407v-158h-264v-121q129 6 211 -58.5t82 -166.5q0 -95 -77 -164
t-234 -69q-59 0 -118 12.5t-93 30.5v145q106 -49 186 -49q60 0 89.5 27.5t29.5 64.5q0 41 -36.5 68.5t-112.5 27.5q-50 0 -113 -14v424h450zM1503 1415l-979 -1470h-192l979 1470h192z" />
    <glyph glyph-name="seveneighths" unicode="&#x215e;" horiz-adv-x="1835" 
d="M1657 385q21 -11 34 -20t36.5 -30.5t36 -53t12.5 -70.5q0 -92 -75 -156.5t-216 -64.5q-122 0 -204.5 59.5t-82.5 159.5q0 121 121 176q-96 52 -96 152q0 87 71 143.5t191 56.5q130 0 199 -61.5t69 -140.5q0 -96 -96 -150zM1552 528q0 88 -65 88q-28 0 -44 -20.5t-19 -37
t-3 -32.5q0 -10 2 -22t8 -29.5t21 -29t37 -11.5q4 0 9 0.5t15.5 5.5t18 14t14 28.5t6.5 45.5zM1565 211q0 53 -21.5 80.5t-56.5 27.5q-33 0 -55.5 -25.5t-22.5 -78.5q0 -56 24.5 -82.5t55.5 -26.5q33 0 54.5 27.5t21.5 77.5zM608 1415l-303 -745l-186 61l219 522h-301v162
h571zM1479 1415l-979 -1470h-193l979 1470h193z" />
    <glyph glyph-name="partialdiff" unicode="&#x2202;" horiz-adv-x="1179" 
d="M1145 928q0 -200 -47 -383q-44 -166 -123.5 -292t-198.5 -201t-260 -75q-198 0 -323 119t-125 305q0 122 30.5 223.5t81.5 170.5t118.5 117t139.5 70t146 22q78 0 143.5 -31.5t91.5 -73.5h4q6 55 6 102q0 125 -63 194t-172 69q-100 0 -191 -52q-7 25 -28.5 97.5
t-32.5 113.5q118 78 301 78q231 0 366.5 -151t135.5 -422zM793 676q-44 110 -146 110q-99 0 -175.5 -119t-76.5 -288q0 -72 32 -116t89 -44q54 0 102.5 41t82.5 108t58 146t34 162z" />
    <glyph glyph-name="Delta" unicode="&#x2206;" horiz-adv-x="1599" 
d="M2 0l590 1397h405l592 -1397h-1587zM1098 297l-303 764l-303 -764h606z" />
    <glyph glyph-name="product" unicode="&#x220f;" horiz-adv-x="1472" 
d="M1335 -471h-334v1620h-532v-1620h-332v1905h1198v-1905z" />
    <glyph glyph-name="summation" unicode="&#x2211;" horiz-adv-x="1292" 
d="M1145 -471h-1096v178q87 131 260 392.5t260 392.5q-82 125 -244.5 375.5t-244.5 375.5v191h1030v-263h-643q72 -113 218 -337t218 -336q-130 -197 -463 -707h705v-262z" />
    <glyph glyph-name="minus" unicode="&#x2212;" horiz-adv-x="1193" 
d="M84 567v262h1026v-262h-1026z" />
    <glyph glyph-name="uni2215" unicode="&#x2215;" horiz-adv-x="448" 
d="M809 1415l-979 -1470h-192l980 1470h191z" />
    <glyph glyph-name="uni2219" unicode="&#x2219;" horiz-adv-x="555" 
d="M457 709q0 -68 -50 -123.5t-128 -55.5q-72 0 -125.5 53.5t-53.5 125.5q0 71 51.5 124.5t124.5 53.5q78 0 129.5 -55t51.5 -123z" />
    <glyph glyph-name="radical" unicode="&#x221a;" horiz-adv-x="1050" 
d="M1069 1493q-56 -253 -166.5 -759t-165.5 -759h-262q-38 98 -113.5 292.5t-113.5 291.5q-18 -13 -55 -38t-56 -38q-29 42 -100 152q58 40 173 119.5t173 119.5q37 -97 110.5 -292t110.5 -293q50 233 143 668.5t115 535.5h207z" />
    <glyph glyph-name="infinity" unicode="&#x221e;" horiz-adv-x="1603" 
d="M1522 602q0 -168 -108 -277.5t-267 -109.5q-105 0 -200.5 52t-160.5 149h-4q-147 -201 -358 -201q-69 0 -134.5 24t-120.5 69.5t-88.5 120.5t-33.5 169q0 72 22 134t59.5 106t86 75.5t102 46.5t107.5 15q112 0 203 -54.5t155 -146.5h4q52 80 145.5 140.5t213.5 60.5
q161 0 269 -107t108 -266zM1282 600q0 69 -43 115.5t-119 46.5q-67 0 -117.5 -41t-101.5 -125q91 -168 221 -168q73 0 116.5 51t43.5 121zM668 596q-106 166 -222 166q-71 0 -115 -48.5t-44 -117.5q0 -70 45 -119t117 -49q119 0 219 168z" />
    <glyph glyph-name="integral" unicode="&#x222b;" horiz-adv-x="1005" 
d="M842 1278q-40 16 -80 16q-123 0 -123 -161v-1174q0 -97 -22 -175.5t-67.5 -140t-123 -95t-182.5 -33.5q-49 0 -107 9t-86 21q17 72 55 228q43 -15 80 -15q60 0 92.5 41.5t32.5 120.5v1170q0 99 23 179t69.5 141t124 94.5t181.5 33.5q54 0 112 -11.5t84 -25.5
q-12 -39 -32 -113t-31 -110z" />
    <glyph glyph-name="approxequal" unicode="&#x2248;" horiz-adv-x="1193" 
d="M1135 870q-70 -105 -144 -152.5t-178 -47.5q-130 0 -229 61q-103 68 -189 68q-21 0 -41 -8.5t-33.5 -17.5t-30 -29t-22.5 -28.5t-20 -32.5l-15 -24l-172 201q34 48 63 81t67.5 63t86 44.5t103.5 14.5q118 0 229 -62q111 -67 193 -67q24 0 46.5 10.5t36.5 20.5t33 35.5
t24 34t22 36.5zM1135 369q-70 -104 -144 -152.5t-178 -48.5q-131 0 -229 63q-105 66 -189 66q-16 0 -31.5 -4.5t-27 -10t-25 -18t-20.5 -19.5t-18.5 -24t-15 -22t-13.5 -23l-11 -18l-172 202q46 65 85 104.5t100 68t135 28.5q120 0 229 -61q118 -68 193 -68q37 0 70.5 25
t46.5 43.5t39 61.5l6 9z" />
    <glyph glyph-name="notequal" unicode="&#x2260;" horiz-adv-x="1193" 
d="M1053 236h-471l-82 -193h-293l82 193h-146v264h260l103 239h-363v265h480l102 239h295l-105 -239h138v-265h-254l-103 -239h357v-264z" />
    <glyph glyph-name="lessequal" unicode="&#x2264;" horiz-adv-x="1193" 
d="M1053 0h-910v264h910v-264zM1053 303l-910 344v258l910 342v-270l-594 -203v-4l594 -201v-266z" />
    <glyph glyph-name="greaterequal" unicode="&#x2265;" horiz-adv-x="1193" 
d="M1051 0h-908v264h908v-264zM1053 645l-910 -340v270l594 201v4l-594 201v268l910 -344v-260z" />
    <glyph glyph-name="lozenge" unicode="&#x25ca;" horiz-adv-x="1144" 
d="M999 717q-66 -120 -199.5 -358.5t-199.5 -358.5h-145q-67 119 -199 357.5t-199 357.5q66 120 199 359.5t199 359.5h145q66 -120 199 -358.5t200 -358.5zM772 717q-37 70 -244 454q-166 -308 -243 -454q120 -228 243 -453q48 88 137.5 254.5t106.5 198.5z" />
    <glyph glyph-name="ampersand.sc" horiz-adv-x="1116" 
d="M866 238l221 -238h-337l-76 84q-130 -96 -277 -96q-132 0 -228.5 76.5t-96.5 195.5q0 39 10.5 73.5t33 63t41 48.5t50 40.5t44 28t38.5 21.5q-25 33 -40.5 58t-32.5 72t-17 93q0 109 83.5 188.5t225.5 79.5q140 0 217.5 -75t77.5 -171q0 -37 -12.5 -71t-29 -57
t-44.5 -47.5t-47 -38t-49 -31.5l116 -148q58 74 94 156h244q-55 -116 -92 -170.5t-117 -134.5zM506 651q78 53 78 115q0 24 -19 49t-55 25q-29 0 -51.5 -19t-22.5 -47q0 -21 13 -45.5t24 -38.5t33 -39zM551 225l-156 176q-23 -19 -36.5 -32.5t-26.5 -37t-13 -48.5
q0 -41 31.5 -70t77.5 -29q54 0 123 41z" />
    <glyph glyph-name="zero.oldstyle" horiz-adv-x="1077" 
d="M539 254q17 0 37 5t46 19.5t46.5 37.5t34.5 64t14 93q0 64 -20.5 110t-51.5 67.5t-57.5 30.5t-48.5 9q-75 0 -127 -61q-25 -29 -38.5 -64.5t-13.5 -101.5q0 -103 57.5 -156t121.5 -53zM1018 471q0 -108 -31.5 -194.5t-80.5 -140t-114 -89.5t-127 -50.5t-124 -14.5
q-96 0 -182.5 32.5t-153.5 92.5t-106.5 153.5t-39.5 206.5q0 109 38.5 202.5t104 157.5t154 100t187.5 36q63 0 126.5 -16t127 -53.5t112 -92.5t79 -140.5t30.5 -189.5z" />
    <glyph glyph-name="one.oldstyle" horiz-adv-x="841" 
d="M637 0h-301v594l-264 -211v287l334 293h231v-963z" />
    <glyph glyph-name="two.oldstyle" horiz-adv-x="1044" 
d="M948 266v-266h-876v41l245 203q76 63 129.5 116.5t79.5 87t40 65.5t16 46t2 35q0 36 -17 59.5t-43 32t-39.5 10.5t-25.5 2q-78 0 -163 -38.5t-187 -104.5v287q71 32 106 46t97.5 35.5t120.5 30.5t122 9q162 0 257 -74t95 -219q0 -64 -18 -121t-55 -107.5t-74.5 -89
t-93.5 -86.5h282z" />
    <glyph glyph-name="three.oldstyle" horiz-adv-x="952" 
d="M903 944l-307 -618q34 -8 55.5 -14.5t56.5 -25.5t66 -46q119 -111 119 -269q0 -117 -65.5 -218.5t-181 -162.5t-251.5 -61q-159 0 -340 80v270q46 -31 79.5 -49.5t94 -37.5t121.5 -19q59 0 103.5 19t68 49.5t34.5 62t11 63.5q0 85 -64 143t-173 58q-14 0 -101 -10
l242 508l-412 -2v280h844z" />
    <glyph glyph-name="four.oldstyle" horiz-adv-x="1087" 
d="M616 0h-610v135l729 828h166v-764h180v-199h-180v-453h-285v453zM317 199h306v362z" />
    <glyph glyph-name="five.oldstyle" horiz-adv-x="964" 
d="M940 944l2 -278l-467 -2l-43 -289q54 -4 89 -9t97.5 -24.5t110.5 -50.5q78 -53 123 -136.5t45 -177.5q0 -61 -15.5 -121t-53 -120t-92.5 -105t-142.5 -73.5t-194.5 -28.5q-174 0 -346 74v272q59 -31 92.5 -47t100.5 -35.5t125 -19.5q94 0 149 45.5t55 118.5q0 86 -75 143
t-230 57q-51 0 -129 -8l129 815h670z" />
    <glyph glyph-name="six.oldstyle" horiz-adv-x="1044" 
d="M541 1415l235 -119q-105 -131 -165 -213.5t-79.5 -117t-50.5 -97.5q77 31 142 31q150 0 256 -117t106 -309q0 -221 -131.5 -356t-335.5 -135t-331.5 135t-127.5 364q0 92 21.5 182.5t58.5 173t101 181t132 187.5t169 210zM684 451q0 86 -41.5 145t-116.5 59
q-67 0 -109 -54.5t-42 -156.5t43 -152t110 -50q77 0 116.5 61.5t39.5 147.5z" />
    <glyph glyph-name="seven.oldstyle" horiz-adv-x="1011" 
d="M989 944v-16l-510 -1399l-278 106l374 1029h-516v280h930z" />
    <glyph glyph-name="eight.oldstyle" horiz-adv-x="1056" 
d="M764 737q233 -109 233 -342q0 -51 -12.5 -103t-46.5 -109t-85 -100.5t-136.5 -72t-192.5 -28.5q-205 0 -335 115.5t-130 295.5q0 70 21 128.5t47.5 93t65 63.5t59.5 39t45 20q-31 17 -49.5 29t-50 40t-50 57t-33 76t-14.5 101q0 71 25.5 136t75 119.5t133.5 87t190 32.5
q93 0 168.5 -24.5t124 -63.5t81 -90t46.5 -101.5t14 -99.5q0 -62 -24 -125t-72 -106q-34 -32 -98 -68zM659 1022q0 17 -1 32t-8 45.5t-19.5 51.5t-39.5 38t-65 17q-66 0 -98 -57q-31 -52 -31 -131q0 -11 1 -24t4.5 -38t13 -46t23 -42t38 -33t55.5 -12q10 0 19.5 1t31 12
t36.5 29.5t27.5 59.5t12.5 97zM682 399q0 117 -44 171.5t-108 54.5q-10 0 -21.5 -1.5t-37.5 -13t-45.5 -32t-35 -65t-15.5 -105.5q0 -116 47.5 -171t109.5 -55t106 53t44 164z" />
    <glyph glyph-name="nine.oldstyle" horiz-adv-x="1044" 
d="M506 -471l-236 117q151 191 201.5 267.5t91.5 162.5q-78 -33 -141 -33q-150 0 -256.5 118t-106.5 310q0 220 132 356t337 136q204 0 330.5 -135.5t126.5 -364.5q0 -114 -30 -222.5t-97 -225.5t-146.5 -225t-205.5 -261zM362 494q0 -87 41.5 -147t114.5 -60q68 0 110 55
t42 158q0 102 -43.5 152t-110.5 50q-77 0 -115.5 -61t-38.5 -147z" />
    <glyph glyph-name="a.sc" horiz-adv-x="1165" 
d="M778 162h-426l-55 -162h-285l398 1014h299l444 -1014h-309zM414 358h293l-162 387z" />
    <glyph glyph-name="b.sc" horiz-adv-x="1062" 
d="M123 0v1014h381q221 0 303 -51q49 -29 78.5 -83t29.5 -116q0 -40 -11.5 -74.5t-26 -55.5t-39.5 -41.5t-38 -28t-36 -19.5q44 -7 79 -23t57 -35t38.5 -44.5t24.5 -46t12.5 -44.5t5 -35t0.5 -22q0 -70 -30 -128t-79 -91q-69 -45 -128 -60.5t-164 -15.5h-457zM395 809v-197
h84q27 0 43 1t42 6t41 15t26.5 30t11.5 49q0 27 -12 46.5t-26.5 29t-40.5 14.5t-41 5.5t-40 0.5h-88zM395 414v-209h117q28 0 43.5 0.5t41.5 3t41.5 9.5t32 18t24 29.5t7.5 43.5t-8 43.5t-26 30t-35 18t-46 9.5t-47.5 3.5t-50.5 0.5h-94z" />
    <glyph glyph-name="c.sc" horiz-adv-x="1144" 
d="M1047 342v-250q-37 -20 -61 -31.5t-77.5 -31.5t-117 -30.5t-134.5 -10.5q-117 0 -215 31t-163.5 82.5t-110.5 119t-65.5 139t-20.5 144.5q0 125 50 226.5t134.5 165t191 97t224.5 33.5q203 0 352 -80v-270q-155 112 -342 112q-142 0 -233.5 -77t-91.5 -205
q0 -130 91.5 -205.5t225.5 -75.5q63 0 138 22t118 42t107 53z" />
    <glyph glyph-name="d.sc" horiz-adv-x="1187" 
d="M121 0v1014h405q255 0 404 -121q88 -70 132 -174.5t44 -214.5q0 -128 -58.5 -244t-183.5 -188q-129 -72 -340 -72h-403zM393 793v-572h123q52 0 107 16t84 37q55 37 85.5 102t30.5 138q0 143 -106 225q-41 33 -86.5 43.5t-112.5 10.5h-125z" />
    <glyph glyph-name="e.sc" horiz-adv-x="956" 
d="M864 217v-217h-739v1014h729v-217h-457v-164h437v-217h-437v-199h467z" />
    <glyph glyph-name="f.sc" horiz-adv-x="913" 
d="M815 1014v-217h-420v-176h420v-218h-420v-403h-272v1014h692z" />
    <glyph glyph-name="g.sc" horiz-adv-x="1202" 
d="M1069 954v-252q-133 48 -206.5 67t-157.5 19q-171 0 -252 -79q-86 -83 -86 -209q0 -117 83.5 -196t213.5 -79q72 0 157 29v92h-145v211h416v-428q-162 -141 -426 -141q-118 0 -223 36t-185 101t-127 164t-47 217q0 234 164.5 377t433.5 143q178 0 375 -68q8 -3 12 -4z
" />
    <glyph glyph-name="h.sc" horiz-adv-x="1230" 
d="M393 621h445v393h270v-1014h-270v395h-445v-395h-270v1014h270v-393z" />
    <glyph glyph-name="i.sc" horiz-adv-x="536" 
d="M403 1014v-1014h-270v1014h270z" />
    <glyph glyph-name="j.sc" horiz-adv-x="536" 
d="M418 1014v-850q0 -42 -1.5 -75t-9 -82t-21 -86.5t-38.5 -78t-60 -67t-88 -43.5t-120 -17q-58 0 -125 23l12 223q39 -16 64 -16t43.5 7t30.5 16.5t20.5 30.5t12.5 35.5t6 46.5t2.5 49t0.5 56v828h271z" />
    <glyph glyph-name="k.sc" horiz-adv-x="1126" 
d="M397 590l285 424h293l-320 -467l459 -547h-356l-361 430v-430h-270v1014h270v-424z" />
    <glyph glyph-name="l.sc" horiz-adv-x="927" 
d="M885 217v-217h-762v1014h272v-797h490z" />
    <glyph glyph-name="m.sc" horiz-adv-x="1378" 
d="M1055 1014h200v-1014h-272v584l-268 -326h-53l-269 326v-584h-270v1014h199l366 -418z" />
    <glyph glyph-name="n.sc" horiz-adv-x="1247" 
d="M1122 1014v-1014h-225l-500 573v-573h-272v1014h244l481 -545v545h272z" />
    <glyph glyph-name="o.sc" horiz-adv-x="1290" 
d="M1208 504q0 -102 -42.5 -196t-115.5 -165t-179 -113t-226 -42q-155 0 -284.5 67.5t-204 186t-74.5 260.5q0 104 42.5 199.5t116 167t178.5 114.5t224 43q104 0 204 -36t181 -100.5t130.5 -165.5t49.5 -220zM924 500q0 61 -18 111t-47 82t-66 54t-73.5 31.5t-70.5 9.5
q-111 0 -196.5 -80t-85.5 -204q0 -120 82 -199.5t200 -79.5q121 0 198 83t77 192z" />
    <glyph glyph-name="p.sc" horiz-adv-x="985" 
d="M123 1014h407q48 0 78.5 -2.5t76 -12.5t85 -35t72.5 -65q73 -82 73 -197q0 -69 -30.5 -132t-75.5 -107q-41 -38 -98.5 -57.5t-93.5 -22t-95 -2.5h-127v-381h-272v1014zM502 809h-107v-223h101q22 0 35.5 1t37.5 7t38 17.5t25 35.5t11 58q0 36 -15 59.5t-42 32t-43.5 10.5
t-40.5 2z" />
    <glyph glyph-name="q.sc" horiz-adv-x="1290" 
d="M1214 -96l-190 -166q-184 38 -299.5 94.5t-243.5 169.5q-91 26 -163 72.5t-115 98.5t-71 113.5t-38 113.5t-10 102q0 146 80.5 268t211 189t279.5 67q116 0 219.5 -42.5t176 -113.5t115 -166.5t42.5 -197.5q0 -18 -1.5 -38t-9 -59.5t-20.5 -76t-39 -82.5t-61 -85t-91 -78
t-124 -67q157 -75 352 -116zM924 502q0 77 -26.5 135.5t-69 89.5t-87.5 46t-90 15q-122 0 -202 -83.5t-80 -202.5q0 -121 83 -201t197 -80q70 0 125.5 28.5t86.5 72.5t47 90.5t16 89.5z" />
    <glyph glyph-name="r.sc" horiz-adv-x="1017" 
d="M123 1014h330q164 0 246 -19t139 -73q88 -85 88 -205q0 -83 -40.5 -152t-113.5 -110q44 -39 66 -80t71 -162q39 -95 97 -213h-301q-84 247 -123.5 314t-116.5 67h-70v-381h-272v1014zM487 809h-92v-223h86q23 0 37 0.5t40.5 6.5t42 16.5t28 32.5t12.5 54t-12.5 55
t-27.5 34t-40 17t-39 6.5t-35 0.5z" />
    <glyph glyph-name="s.sc" horiz-adv-x="913" 
d="M799 956v-241q-65 29 -101.5 43.5t-103.5 32.5t-121 18q-52 0 -88.5 -19.5t-36.5 -56.5q0 -31 30 -53t91 -45q11 -4 30.5 -11.5t35 -13.5t30.5 -10q59 -21 101.5 -42.5t86 -57t66.5 -88t23 -119.5t-26 -121t-66.5 -87.5t-93.5 -56t-103 -31.5t-98 -9q-186 0 -359 78v256
q111 -62 186.5 -89.5t157.5 -27.5q15 0 32.5 2.5t41.5 9t39.5 22.5t15.5 40q0 33 -27.5 51t-164.5 76q-42 17 -64 27t-58.5 29t-57 34.5t-46 41t-39 52t-23 63t-9.5 78.5q0 124 98.5 209.5t280.5 85.5q167 0 340 -70z" />
    <glyph glyph-name="t.sc" horiz-adv-x="1073" 
d="M1020 1014v-226h-348v-788h-271v788h-348v226h967z" />
    <glyph glyph-name="u.sc" horiz-adv-x="1218" 
d="M1104 1014v-549q0 -42 -1.5 -69.5t-9 -74t-26.5 -89.5t-49 -80q-133 -164 -414 -164q-229 0 -368 127q-121 113 -121 342v557h270v-502q0 -158 74 -225q65 -62 155 -62q58 0 108.5 25.5t72.5 64.5q39 72 39 197v502h270z" />
    <glyph glyph-name="v.sc" horiz-adv-x="1083" 
d="M541 492l237 522h293l-467 -1026h-127l-465 1026h293z" />
    <glyph glyph-name="w.sc" horiz-adv-x="1740" 
d="M778 1014h187l235 -522l236 522h293l-465 -1026h-127l-267 585l-266 -585h-127l-465 1026h293l236 -522z" />
    <glyph glyph-name="x.sc" horiz-adv-x="1218" 
d="M444 526l-401 488h330l237 -287l236 287h330l-402 -488l434 -526h-329l-269 326l-268 -326h-330z" />
    <glyph glyph-name="y.sc" horiz-adv-x="1058" 
d="M1059 1014l-391 -592v-422h-277v422l-391 592h295l233 -350l236 350h295z" />
    <glyph glyph-name="z.sc" horiz-adv-x="1052" 
d="M1001 1014l-536 -795h541v-219h-994l547 795h-496v219h938z" />
    <glyph glyph-name="lslash.sc" horiz-adv-x="927" 
d="M123 225l-123 -94v219l123 92v572h272v-387l262 213v-224l-262 -210v-189h490v-217h-762v225z" />
    <glyph glyph-name="scaron.sc" horiz-adv-x="913" 
d="M799 956v-241q-65 29 -101.5 43.5t-103.5 32.5t-121 18q-52 0 -88.5 -19.5t-36.5 -56.5q0 -31 30 -53t91 -45q11 -4 30.5 -11.5t35 -13.5t30.5 -10q59 -21 101.5 -42.5t86 -57t66.5 -88t23 -119.5t-26 -121t-66.5 -87.5t-93.5 -56t-103 -31.5t-98 -9q-186 0 -359 78v256
q111 -62 186.5 -89.5t157.5 -27.5q15 0 32.5 2.5t41.5 9t39.5 22.5t15.5 40q0 33 -27.5 51t-164.5 76q-42 17 -64 27t-58.5 29t-57 34.5t-46 41t-39 52t-23 63t-9.5 78.5q0 124 98.5 209.5t280.5 85.5q167 0 340 -70zM274 1124l-239 349h190l238 -213l233 213h187l-236 -349
h-373z" />
    <glyph glyph-name="zcaron.sc" horiz-adv-x="1052" 
d="M1001 1014l-536 -795h541v-219h-994l547 795h-496v219h938zM344 1124l-240 349h191l237 -213l234 213h186l-235 -349h-373z" />
    <glyph glyph-name="agrave.sc" horiz-adv-x="1165" 
d="M778 162h-426l-55 -162h-285l398 1014h299l444 -1014h-309zM414 358h293l-162 387zM129 1511h393l240 -387h-207z" />
    <glyph glyph-name="aacute.sc" horiz-adv-x="1165" 
d="M778 162h-426l-55 -162h-285l398 1014h299l444 -1014h-309zM414 358h293l-162 387zM1022 1511l-426 -387h-207l240 387h393z" />
    <glyph glyph-name="acircumflex.sc" horiz-adv-x="1165" 
d="M778 162h-426l-55 -162h-285l398 1014h299l444 -1014h-309zM414 358h293l-162 387zM756 1473l239 -349h-190l-238 211l-233 -211h-187l236 349h373z" />
    <glyph glyph-name="atilde.sc" horiz-adv-x="1165" 
d="M778 162h-426l-55 -162h-285l398 1014h299l444 -1014h-309zM414 358h293l-162 387zM272 1135h-151q0 122 47 204q70 125 221 125q114 0 242 -71q89 -50 147 -50q81 0 96 119h154q0 -137 -68.5 -232t-193.5 -95q-53 0 -107 14.5t-86 28.5t-88 43q-68 36 -120 36
q-86 0 -93 -122z" />
    <glyph glyph-name="adieresis.sc" horiz-adv-x="1165" 
d="M778 162h-426l-55 -162h-285l398 1014h299l444 -1014h-309zM414 358h293l-162 387zM862 1462q68 0 116 -48t48 -116q0 -67 -48 -115t-116 -48t-116 48t-48 115q0 68 48 116t116 48zM281 1462q67 0 115 -48t48 -116t-48 -115.5t-115 -47.5q-68 0 -116 48t-48 115
q0 68 48.5 116t115.5 48z" />
    <glyph glyph-name="aring.sc" horiz-adv-x="1165" 
d="M778 162h-426l-55 -162h-285l398 1014h299l444 -1014h-309zM414 358h293l-162 387zM573 1591q95 0 164.5 -68t69.5 -165q0 -98 -68.5 -166t-165.5 -68t-165 68t-68 166t68.5 165.5t164.5 67.5zM573 1483q-52 0 -88 -36t-36 -89q0 -54 35.5 -90.5t88.5 -36.5q52 0 88.5 37
t36.5 90q0 51 -36.5 88t-88.5 37z" />
    <glyph glyph-name="ae.sc" horiz-adv-x="1556" 
d="M1458 1014v-217h-446v-172h426v-217h-426v-191h458v-217h-729v188h-350l-108 -188h-283l621 1014h837zM504 406h237v399z" />
    <glyph glyph-name="ccedilla.sc" horiz-adv-x="1144" 
d="M688 -12l-12 -35q26 -9 42.5 -17.5t39 -25t34 -43.5t11.5 -62q0 -76 -59.5 -124t-163.5 -48q-80 0 -154 21v102q30 0 45.5 0.5t37 2t32 5.5t21.5 11t15.5 18.5t4.5 26.5q0 20 -13.5 32.5t-28 16.5t-40.5 8l65 115q-102 13 -185 51t-137.5 89t-91.5 115.5t-53 128
t-16 128.5q0 125 50 226.5t134.5 165t191 97t224.5 33.5q203 0 352 -80v-270q-155 112 -342 112q-142 0 -233.5 -77t-91.5 -205q0 -130 91.5 -205.5t225.5 -75.5q63 0 138 22t118 42t107 53v-250q-172 -96 -359 -104z" />
    <glyph glyph-name="egrave.sc" horiz-adv-x="956" 
d="M864 217v-217h-739v1014h729v-217h-457v-164h437v-217h-437v-199h467zM35 1511h393l240 -387h-207z" />
    <glyph glyph-name="eacute.sc" horiz-adv-x="956" 
d="M864 217v-217h-739v1014h729v-217h-457v-164h437v-217h-437v-199h467zM948 1511l-426 -387h-207l240 387h393z" />
    <glyph glyph-name="ecircumflex.sc" horiz-adv-x="956" 
d="M864 217v-217h-739v1014h729v-217h-457v-164h437v-217h-437v-199h467zM662 1473l239 -349h-190l-238 211l-233 -211h-187l236 349h373z" />
    <glyph glyph-name="edieresis.sc" horiz-adv-x="956" 
d="M864 217v-217h-739v1014h729v-217h-457v-164h437v-217h-437v-199h467zM768 1462q68 0 116 -48t48 -116q0 -67 -48 -115t-116 -48t-116 48t-48 115q0 68 48 116t116 48zM186 1462q68 0 116 -48t48 -116q0 -67 -48 -115t-116 -48t-115.5 47.5t-47.5 115.5t48 116t115 48z
" />
    <glyph glyph-name="igrave.sc" horiz-adv-x="536" 
d="M403 1014v-1014h-270v1014h270zM-174 1511h393l240 -387h-207z" />
    <glyph glyph-name="iacute.sc" horiz-adv-x="536" 
d="M403 1014v-1014h-270v1014h270zM719 1511l-426 -387h-207l240 387h393z" />
    <glyph glyph-name="icircumflex.sc" horiz-adv-x="536" 
d="M403 1014v-1014h-270v1014h270zM453 1473l239 -349h-190l-238 211l-233 -211h-187l236 349h373z" />
    <glyph glyph-name="idieresis.sc" horiz-adv-x="536" 
d="M403 1014v-1014h-270v1014h270zM559 1462q67 0 115.5 -48t48.5 -116q0 -67 -48 -115t-116 -48t-116 48t-48 115q0 68 48.5 116t115.5 48zM-23 1462q67 0 115.5 -48t48.5 -116q0 -67 -48 -115t-116 -48q-67 0 -115 47.5t-48 115.5t48 116t115 48z" />
    <glyph glyph-name="eth.sc" horiz-adv-x="1187" 
d="M121 422h-121v166h121v426h405q255 0 404 -121q88 -70 132 -174.5t44 -214.5q0 -128 -58.5 -244t-183.5 -188q-129 -72 -340 -72h-403v422zM584 422h-191v-201h123q52 0 107 16t84 37q55 37 85.5 102t30.5 138q0 143 -106 225q-41 33 -86.5 43.5t-112.5 10.5h-125v-205
h191v-166z" />
    <glyph glyph-name="ntilde.sc" horiz-adv-x="1247" 
d="M1122 1014v-1014h-225l-500 573v-573h-272v1014h244l481 -545v545h272zM324 1135h-152q0 122 47 204q70 125 221 125q114 0 242 -71q89 -50 147 -50q82 0 97 119h153q0 -137 -68.5 -232t-193.5 -95q-53 0 -107 14.5t-85 28.5t-88 43q-68 36 -121 36q-85 0 -92 -122z" />
    <glyph glyph-name="ograve.sc" horiz-adv-x="1290" 
d="M1208 504q0 -102 -42.5 -196t-115.5 -165t-179 -113t-226 -42q-155 0 -284.5 67.5t-204 186t-74.5 260.5q0 104 42.5 199.5t116 167t178.5 114.5t224 43q104 0 204 -36t181 -100.5t130.5 -165.5t49.5 -220zM924 500q0 61 -18 111t-47 82t-66 54t-73.5 31.5t-70.5 9.5
q-111 0 -196.5 -80t-85.5 -204q0 -120 82 -199.5t200 -79.5q121 0 198 83t77 192zM203 1511h393l240 -387h-207z" />
    <glyph glyph-name="oacute.sc" horiz-adv-x="1290" 
d="M1208 504q0 -102 -42.5 -196t-115.5 -165t-179 -113t-226 -42q-155 0 -284.5 67.5t-204 186t-74.5 260.5q0 104 42.5 199.5t116 167t178.5 114.5t224 43q104 0 204 -36t181 -100.5t130.5 -165.5t49.5 -220zM924 500q0 61 -18 111t-47 82t-66 54t-73.5 31.5t-70.5 9.5
q-111 0 -196.5 -80t-85.5 -204q0 -120 82 -199.5t200 -79.5q121 0 198 83t77 192zM1096 1511l-426 -387h-207l239 387h394z" />
    <glyph glyph-name="ocircumflex.sc" horiz-adv-x="1290" 
d="M1208 504q0 -102 -42.5 -196t-115.5 -165t-179 -113t-226 -42q-155 0 -284.5 67.5t-204 186t-74.5 260.5q0 104 42.5 199.5t116 167t178.5 114.5t224 43q104 0 204 -36t181 -100.5t130.5 -165.5t49.5 -220zM924 500q0 61 -18 111t-47 82t-66 54t-73.5 31.5t-70.5 9.5
q-111 0 -196.5 -80t-85.5 -204q0 -120 82 -199.5t200 -79.5q121 0 198 83t77 192zM829 1473l240 -349h-190l-238 211l-233 -211h-187l236 349h372z" />
    <glyph glyph-name="otilde.sc" horiz-adv-x="1290" 
d="M1208 504q0 -102 -42.5 -196t-115.5 -165t-179 -113t-226 -42q-155 0 -284.5 67.5t-204 186t-74.5 260.5q0 104 42.5 199.5t116 167t178.5 114.5t224 43q104 0 204 -36t181 -100.5t130.5 -165.5t49.5 -220zM924 500q0 61 -18 111t-47 82t-66 54t-73.5 31.5t-70.5 9.5
q-111 0 -196.5 -80t-85.5 -204q0 -120 82 -199.5t200 -79.5q121 0 198 83t77 192zM346 1135h-151q0 122 47 204q70 125 221 125q114 0 242 -71q89 -50 147 -50q81 0 96 119h154q0 -137 -68.5 -232t-193.5 -95q-53 0 -107 14.5t-86 28.5t-88 43q-68 36 -121 36
q-85 0 -92 -122z" />
    <glyph glyph-name="odieresis.sc" horiz-adv-x="1290" 
d="M1208 504q0 -102 -42.5 -196t-115.5 -165t-179 -113t-226 -42q-155 0 -284.5 67.5t-204 186t-74.5 260.5q0 104 42.5 199.5t116 167t178.5 114.5t224 43q104 0 204 -36t181 -100.5t130.5 -165.5t49.5 -220zM924 500q0 61 -18 111t-47 82t-66 54t-73.5 31.5t-70.5 9.5
q-111 0 -196.5 -80t-85.5 -204q0 -120 82 -199.5t200 -79.5q121 0 198 83t77 192zM936 1462q68 0 116 -48t48 -116q0 -67 -48 -115t-116 -48t-116 48t-48 115q0 68 48 116t116 48zM354 1462q68 0 116 -48t48 -116q0 -67 -48 -115t-116 -48t-116 48t-48 115q0 68 48 116
t116 48z" />
    <glyph glyph-name="oe.sc" horiz-adv-x="1595" 
d="M1493 1014v-217h-446v-164h428v-217h-428v-199h456v-217h-835q-67 0 -124 7t-124.5 25.5t-128 59t-107.5 101.5q-100 133 -100 319q0 77 18 144.5t47.5 114.5t55.5 76.5t55 51.5q147 115 508 115h725zM776 219v576h-67q-161 0 -251.5 -72.5t-90.5 -214.5q0 -38 9 -76
t33 -77t60.5 -68.5t96 -48.5t134.5 -19h76z" />
    <glyph glyph-name="oslash.sc" horiz-adv-x="1290" 
d="M420 29l-31 -41h-192l84 118q-67 54 -99 97q-100 134 -100 299q0 103 42 198.5t115 167.5t178.5 115t225.5 43t250 -53l37 53h192l-96 -135q67 -59 98 -107q84 -127 84 -274q0 -144 -73 -263.5t-203 -189t-289 -69.5q-118 0 -223 41zM872 674l-307 -436q39 -13 82 -13
q120 0 198.5 80t78.5 203q0 109 -52 166zM432 322l316 448q-52 18 -99 18q-112 0 -197 -80.5t-85 -203.5q0 -105 65 -182z" />
    <glyph glyph-name="ugrave.sc" horiz-adv-x="1218" 
d="M1104 1014v-549q0 -42 -1.5 -69.5t-9 -74t-26.5 -89.5t-49 -80q-133 -164 -414 -164q-229 0 -368 127q-121 113 -121 342v557h270v-502q0 -158 74 -225q65 -62 155 -62q58 0 108.5 25.5t72.5 64.5q39 72 39 197v502h270zM166 1511h393l240 -387h-207z" />
    <glyph glyph-name="uacute.sc" horiz-adv-x="1218" 
d="M1104 1014v-549q0 -42 -1.5 -69.5t-9 -74t-26.5 -89.5t-49 -80q-133 -164 -414 -164q-229 0 -368 127q-121 113 -121 342v557h270v-502q0 -158 74 -225q65 -62 155 -62q58 0 108.5 25.5t72.5 64.5q39 72 39 197v502h270zM1059 1511l-426 -387h-207l240 387h393z" />
    <glyph glyph-name="ucircumflex.sc" horiz-adv-x="1218" 
d="M1104 1014v-549q0 -42 -1.5 -69.5t-9 -74t-26.5 -89.5t-49 -80q-133 -164 -414 -164q-229 0 -368 127q-121 113 -121 342v557h270v-502q0 -158 74 -225q65 -62 155 -62q58 0 108.5 25.5t72.5 64.5q39 72 39 197v502h270zM793 1473l239 -349h-190l-238 211l-233 -211h-187
l236 349h373z" />
    <glyph glyph-name="udieresis.sc" horiz-adv-x="1218" 
d="M1104 1014v-549q0 -42 -1.5 -69.5t-9 -74t-26.5 -89.5t-49 -80q-133 -164 -414 -164q-229 0 -368 127q-121 113 -121 342v557h270v-502q0 -158 74 -225q65 -62 155 -62q58 0 108.5 25.5t72.5 64.5q39 72 39 197v502h270zM899 1462q67 0 115.5 -48t48.5 -116
q0 -67 -48 -115t-116 -48t-116 48t-48 115q0 68 48.5 116t115.5 48zM317 1462q67 0 115.5 -48t48.5 -116q0 -67 -48 -115t-116 -48q-67 0 -115 47.5t-48 115.5t48 116t115 48z" />
    <glyph glyph-name="yacute.sc" horiz-adv-x="1058" 
d="M1059 1014l-391 -592v-422h-277v422l-391 592h295l233 -350l236 350h295zM1020 1511l-426 -387h-207l240 387h393z" />
    <glyph glyph-name="thorn.sc" horiz-adv-x="985" 
d="M123 1014h272v-180h135q106 0 180.5 -22t133.5 -91q71 -90 71 -199q0 -70 -30.5 -133.5t-75.5 -105.5q-41 -39 -98.5 -59t-93.5 -22.5t-95 -2.5h-127v-199h-272v1014zM502 627h-107v-224h101q22 0 35.5 1t37.5 7t38 17.5t25 35.5t11 58q0 105 -141 105z" />
    <glyph glyph-name="ydieresis.sc" horiz-adv-x="1058" 
d="M1059 1014l-391 -592v-422h-277v422l-391 592h295l233 -350l236 350h295zM819 1462q67 0 115.5 -48t48.5 -116q0 -67 -48 -115t-116 -48t-116 48t-48 115q0 68 48.5 116t115.5 48zM238 1462q67 0 115 -48t48 -116t-47.5 -115.5t-115.5 -47.5t-116 48t-48 115q0 68 48 116
t116 48z" />
    <glyph glyph-name="zero.fitted" horiz-adv-x="1130" 
d="M1038 705q0 -162 -27.5 -289.5t-72.5 -207.5t-107.5 -132t-126 -73t-133.5 -21q-209 0 -338 165q-141 183 -141 551q0 123 16.5 226t44.5 175.5t67 129t81 91t90 56.5t90.5 30.5t85.5 8.5q37 0 74.5 -6.5t85 -26t90 -51t84 -86.5t71 -127t48 -178.5t18.5 -234.5zM717 713
q0 167 -18 265.5t-50 136.5t-82 38q-38 0 -66 -24t-44 -62.5t-25.5 -101.5t-12.5 -127.5t-3 -153.5v-47.5t1 -53t3 -58.5t5.5 -57.5t9 -58.5t13.5 -52t19.5 -47t25.5 -35t33 -25t41 -8q102 0 131 166q19 121 19 305z" />
    <glyph glyph-name="one.fitted" horiz-adv-x="626" 
d="M473 1415v-1415h-319v1415h319z" />
    <glyph glyph-name="two.fitted" horiz-adv-x="1062" 
d="M989 285v-285h-923v41q5 5 61.5 78.5t131.5 175t116 160.5q45 65 74.5 111t72 121.5t64.5 146.5t22 133q0 83 -55 139.5t-133 56.5q-64 0 -153.5 -43t-182.5 -131v293q123 78 210 105.5t181 27.5q97 0 174 -23.5t126.5 -62t82.5 -90.5t46.5 -106t13.5 -113
q0 -83 -32 -177t-138 -268q-19 -31 -44.5 -68.5t-52 -73.5t-47 -62.5t-41.5 -54.5t-24 -31h450z" />
    <glyph glyph-name="three.fitted" horiz-adv-x="1026" 
d="M109 1108v246q145 61 319 61q192 0 319 -92.5t127 -249.5q0 -71 -29 -139t-85 -121q-40 -38 -92 -63q34 -15 56 -26t62 -42t64 -66t43.5 -95t19.5 -132q0 -80 -26 -147t-72 -114.5t-108.5 -80.5t-136 -49t-154.5 -16q-104 0 -194.5 24t-147.5 55v271q155 -107 307 -107
q87 0 147 52t60 131q0 13 -1.5 26t-13 43t-31.5 52.5t-64.5 44.5t-104.5 28v246q92 8 142 59.5t50 110.5q0 65 -53.5 114.5t-142.5 49.5q-75 0 -154 -27q-8 -3 -31 -13t-47 -21t-28 -13z" />
    <glyph glyph-name="four.fitted" horiz-adv-x="1097" 
d="M905 1415v-848h94v-223h-94v-344h-309v344h-545v223l658 848h196zM596 567v381l-299 -381h299z" />
    <glyph glyph-name="five.fitted" horiz-adv-x="1052" 
d="M909 1397v-281h-446v-262q6 0 24 1t31 1q186 0 312 -118.5t126 -311.5q0 -41 -6 -83.5t-35 -110t-79 -115.5q-135 -135 -385 -135q-106 0 -201.5 25t-136.5 50v254q157 -84 297 -84q57 0 101.5 18.5t69.5 48t37.5 61.5t12.5 65q0 82 -68 141.5t-209 59.5q-82 0 -170 -21
v797h725z" />
    <glyph glyph-name="six.fitted" horiz-adv-x="1112" 
d="M868 1415l-323 -528q46 12 82 12q87 0 161.5 -36.5t124 -97.5t77.5 -140.5t28 -165.5q0 -206 -132 -341.5t-331 -135.5q-93 0 -175.5 32t-147 92.5t-102.5 156t-38 214.5q0 135 48.5 264.5t142.5 282.5l241 391h344zM717 451q0 86 -41.5 145t-116.5 59q-67 0 -109 -54.5
t-42 -156.5t43 -152t110 -50q77 0 116.5 61.5t39.5 147.5z" />
    <glyph glyph-name="seven.fitted" horiz-adv-x="1044" 
d="M995 1397v-17l-510 -1398l-278 106l375 1030h-516v279h929z" />
    <glyph glyph-name="eight.fitted" horiz-adv-x="1130" 
d="M825 737q62 -30 103 -69q106 -106 106 -269q0 -56 -14 -110.5t-48.5 -111t-86.5 -99t-135 -69.5t-187 -27q-203 0 -334 113.5t-131 301.5q0 176 121 285q40 35 90 55q-27 18 -40.5 28t-43 39t-45 57t-29.5 75t-14 100q0 77 27 145t79 120.5t134 83t184 30.5q90 0 165 -24
t123.5 -62.5t82.5 -89t48.5 -102t14.5 -103.5q0 -59 -21 -122t-63 -107q-12 -13 -26 -24.5t-22 -17.5t-21.5 -15zM696 1022q0 17 -1 32t-8 45.5t-19.5 51.5t-39.5 38t-65 17q-66 0 -98 -57q-31 -56 -31 -131q0 -11 1 -24t4.5 -38t13 -46t23 -42t38 -33t55.5 -12q10 0 19.5 1
t31 12t36.5 29.5t27.5 59.5t12.5 97zM719 399q0 117 -44 171.5t-108 54.5q-10 0 -21.5 -1.5t-37.5 -13t-45.5 -32t-35 -65t-15.5 -105.5q0 -116 48 -171t109 -55q62 0 106 53t44 164z" />
    <glyph glyph-name="nine.fitted" horiz-adv-x="1112" 
d="M248 -18l321 524q-58 -14 -90 -14q-156 0 -270.5 126.5t-114.5 315.5q0 209 135 345t330 136q92 0 175.5 -34.5t147 -95.5t101 -152.5t37.5 -198.5q0 -151 -48.5 -280.5t-135.5 -272.5l-246 -399h-342zM707 944q0 62 -15.5 106t-41.5 65t-49.5 29.5t-47.5 8.5
q-69 0 -113.5 -59t-44.5 -150q0 -104 46.5 -155.5t109.5 -51.5q69 0 112.5 59t43.5 148z" />
    <glyph glyph-name="zero.taboldstyle" horiz-adv-x="1077" 
d="M539 254q70 0 124 56t54 163q0 90 -46 153.5t-132 63.5q-79 0 -129 -60.5t-50 -166.5q0 -89 53 -149t126 -60zM1018 471q0 -108 -31.5 -194.5t-80.5 -140t-114 -89.5t-127 -50.5t-124 -14.5q-96 0 -182.5 32.5t-153.5 92.5t-106.5 153.5t-39.5 206.5q0 109 38.5 202.5
t104 157.5t154 100t187.5 36q63 0 126.5 -16t127 -53.5t112 -92.5t79 -140.5t30.5 -189.5z" />
    <glyph glyph-name="one.taboldstyle" horiz-adv-x="1077" 
d="M786 0h-301v594l-264 -211v287l334 293h231v-963z" />
    <glyph glyph-name="two.taboldstyle" horiz-adv-x="1077" 
d="M965 266v-266h-877v41l246 203q87 72 143 128.5t81.5 97.5t33.5 67.5t8 56.5q0 102 -125 102q-79 0 -156.5 -34t-193.5 -107v287q71 32 106 46t97.5 35.5t120.5 30.5t122 9q77 0 138.5 -16t101 -43.5t65.5 -65.5t37 -79.5t11 -88.5q0 -64 -18.5 -121t-55.5 -107.5
t-74.5 -89t-93.5 -86.5h283z" />
    <glyph glyph-name="three.taboldstyle" horiz-adv-x="1077" 
d="M965 944l-308 -618q133 -24 215 -124t82 -231q0 -97 -45 -181.5t-116.5 -140.5t-159.5 -88t-176 -32q-159 0 -340 80v270q46 -31 79.5 -49.5t94 -37.5t121.5 -19q59 0 103.5 19t68.5 49.5t35.5 62t11.5 63.5q0 52 -22.5 92.5t-58.5 62t-81 35t-90.5 11.5t-87.5 -10
l241 506h-411v280h844z" />
    <glyph glyph-name="four.taboldstyle" horiz-adv-x="1077" 
d="M610 0h-610v135l729 828h166v-764h180v-199h-180v-453h-285v453zM311 199h305v362z" />
    <glyph glyph-name="five.taboldstyle" horiz-adv-x="1077" 
d="M995 944v-280h-465l-43 -289q122 -6 215 -44t146 -95.5t78.5 -123t25.5 -135.5q0 -199 -136.5 -323.5t-360.5 -124.5q-174 0 -346 74v272q59 -31 92 -47t100 -35.5t125 -19.5q90 0 146.5 41t56.5 123q0 12 -1.5 24.5t-7 30t-14.5 33.5t-26 33.5t-39 31t-55 25t-73.5 17.5
t-96 5.5t-119.5 -8.5l129 815h669z" />
    <glyph glyph-name="six.taboldstyle" horiz-adv-x="1077" 
d="M557 1415l236 -119q-105 -131 -165 -213.5t-79.5 -117t-50.5 -97.5q78 31 141 31q150 0 256 -117t106 -309q0 -221 -131 -356t-335 -135t-331.5 135t-127.5 364q0 114 30 222.5t97.5 225.5t147 225.5t206.5 260.5zM700 451q0 87 -41 145.5t-116 58.5q-67 0 -109.5 -54.5
t-42.5 -156.5t43.5 -152t110.5 -50q77 0 116 61.5t39 147.5z" />
    <glyph glyph-name="seven.taboldstyle" horiz-adv-x="1077" 
d="M1022 944v-16l-510 -1399l-279 106l375 1029h-516v280h930z" />
    <glyph glyph-name="eight.taboldstyle" horiz-adv-x="1077" 
d="M774 737q234 -110 234 -342q0 -51 -12.5 -103t-46.5 -109t-85 -100.5t-136.5 -72t-192.5 -28.5q-205 0 -335 115.5t-130 295.5q0 66 18.5 122t44 91.5t60.5 64t61 42.5t53 24q-30 17 -49 29t-50 40t-49.5 57.5t-33 76t-14.5 100.5q0 74 27 140.5t78 119.5t133.5 84
t185.5 31q93 0 168.5 -24.5t124 -63.5t81 -90t46.5 -101.5t14 -99.5q0 -202 -195 -299zM668 1022q0 83 -32 133.5t-99 50.5q-62 0 -93.5 -51t-31.5 -137q0 -45 9.5 -85.5t41 -75t80.5 -34.5q47 0 76.5 31.5t39 73t9.5 94.5zM692 399q0 107 -42 166.5t-109 59.5
q-75 0 -115.5 -58t-40.5 -159q0 -98 42.5 -163t115.5 -65q67 0 108 57.5t41 161.5z" />
    <glyph glyph-name="nine.taboldstyle" horiz-adv-x="1077" 
d="M520 -471l-235 119q105 131 165 213.5t79.5 117t50.5 97.5q-78 -31 -142 -31q-150 0 -256 117t-106 309q0 221 131.5 356.5t335.5 135.5t331 -135.5t127 -364.5q0 -114 -30 -222.5t-97.5 -225.5t-147 -225.5t-206.5 -260.5zM377 494q0 -87 41.5 -146t116.5 -59
q67 0 109 54.5t42 156.5t-43.5 152t-110.5 50q-77 0 -116 -61t-39 -147z" />
    <glyph glyph-name="zero.denominator" 
d="M633 375q0 -183 -74.5 -284t-214.5 -101q-82 0 -141 32t-91 87.5t-46.5 118.5t-14.5 137q0 179 75 275.5t216 96.5q125 0 208 -92.5t83 -269.5zM418 373q0 119 -19 168t-57 49q-41 0 -58.5 -51t-17.5 -183q0 -219 76 -219q42 0 59 53t17 183z" />
    <glyph glyph-name="one.denominator" 
d="M449 737v-737h-213v737h213z" />
    <glyph glyph-name="two.denominator" 
d="M637 158v-158h-569v29q1 0 33.5 36t78 90t74.5 91q133 161 133 252q0 44 -30 70t-68 26q-90 0 -211 -105v175q78 43 131.5 58t109.5 15q138 0 206.5 -60t68.5 -149q0 -44 -19.5 -93.5t-61 -107t-65 -86t-71.5 -83.5h260z" />
    <glyph glyph-name="three.denominator" 
d="M86 561v141q97 35 201 35q120 0 198 -50.5t78 -131.5q0 -52 -32.5 -95t-84.5 -71q140 -57 140 -184q0 -102 -87.5 -158.5t-219.5 -56.5q-114 0 -213 45v158q34 -21 55 -31.5t59 -21.5t78 -11q47 0 79 23.5t32 62.5q0 82 -127 94v137q32 2 55 10.5t33.5 17.5t16.5 22
t6.5 18.5t0.5 11.5q0 29 -26 53.5t-80 24.5q-25 0 -52.5 -6t-45.5 -12.5t-64 -24.5z" />
    <glyph glyph-name="four.denominator" 
d="M580 737v-434h55v-127h-55v-176h-207v176h-322v127l393 434h136zM373 303v160l-146 -160h146z" />
    <glyph glyph-name="five.denominator" 
d="M567 727v-156h-264v-120q130 4 211.5 -60.5t81.5 -167.5q0 -95 -77 -164t-234 -69q-59 0 -118 12.5t-93 30.5v147q110 -51 186 -51q58 0 88.5 28.5t30.5 65.5q0 39 -38 66.5t-114 27.5q-49 0 -112 -14v424h452z" />
    <glyph glyph-name="six.denominator" 
d="M537 737l-181 -266q62 3 80 -4q71 -30 98.5 -48.5t53.5 -60.5q30 -55 30 -118q0 -107 -81 -178.5t-203 -71.5q-118 0 -201.5 68.5t-83.5 191.5q0 126 117 285l143 202h228zM418 240q0 35 -20.5 65.5t-61.5 30.5q-38 0 -57 -28.5t-19 -74.5q0 -45 20 -70.5t58 -25.5
t59 28.5t21 74.5z" />
    <glyph glyph-name="seven.denominator" 
d="M657 731l-305 -741l-186 63l221 522h-301v156h571z" />
    <glyph glyph-name="eight.denominator" 
d="M512 385q119 -58 119 -174q0 -93 -75.5 -157t-215.5 -64q-121 0 -204 59.5t-83 159.5q0 85 64 139q15 14 55 37q-96 54 -96 152q0 88 71 144t191 56q130 0 200 -62t70 -140q0 -96 -96 -150zM406 532q0 16 -3.5 32.5t-19 34t-41.5 17.5q-28 0 -44 -20.5t-19 -37t-3 -32.5
q0 -10 2 -22.5t8 -30t21 -28.5t37 -11q8 0 16.5 3t20 12t18.5 30.5t7 52.5zM420 213q0 46 -20.5 76t-57.5 30q-34 0 -57 -26t-23 -78q0 -55 24.5 -82t57.5 -27q30 0 53 24.5t23 82.5z" />
    <glyph glyph-name="nine.denominator" 
d="M125 -10l186 264q-119 -12 -195.5 58t-76.5 171q0 108 82.5 181t202.5 73q117 0 200.5 -70.5t83.5 -183.5q0 -56 -19 -113t-39 -91.5t-54 -83.5l-146 -205h-225zM399 496q0 40 -21.5 66t-58.5 26t-58 -29t-21 -70q0 -51 23.5 -75.5t55.5 -24.5q31 0 55.5 25t24.5 82z" />
    <glyph glyph-name="zero.numerator" 
d="M633 1044q0 -128 -39 -217q-10 -22 -25.5 -43.5t-45 -50t-76 -46t-103.5 -17.5q-60 0 -108.5 18.5t-78 45t-51.5 66.5t-32 72t-16 73t-6.5 58.5t-0.5 38.5q0 165 62 254q78 119 229 119q37 0 73 -8.5t77 -33.5t71 -64.5t50 -108t20 -156.5zM418 1051q0 124 -19.5 170.5
t-56.5 46.5q-44 0 -60 -58t-16 -176q0 -219 76 -219q25 0 40 15.5t25.5 69.5t10.5 151z" />
    <glyph glyph-name="one.numerator" 
d="M449 1415v-735h-213v735h213z" />
    <glyph glyph-name="two.numerator" 
d="M637 838v-158h-569v27q5 5 40.5 45t90.5 105.5t90 111.5q98 127 98 211q0 41 -29 67.5t-69 26.5t-89.5 -24t-69 -39t-52.5 -42v174q78 42 131.5 57t109.5 15q141 0 208 -61t67 -146q0 -44 -20 -94.5t-59 -105t-66.5 -88t-71.5 -82.5h260z" />
    <glyph glyph-name="three.numerator" 
d="M86 1241v139q91 35 201 35q119 0 197.5 -50t78.5 -130q0 -52 -32.5 -95t-84.5 -71q140 -57 140 -184q0 -101 -87 -158t-220 -57q-121 0 -213 45v157q48 -31 91 -48t101 -17q46 0 78.5 23.5t32.5 62.5q0 86 -127 94v137q32 2 55 11t33.5 18.5t16.5 22.5t6.5 18.5t0.5 11.5
q0 30 -25.5 54t-78.5 24q-36 0 -63 -7.5t-101 -35.5z" />
    <glyph glyph-name="four.numerator" 
d="M580 1415v-432h55v-127h-55v-176h-207v176h-322v127l393 432h136zM373 983v160l-146 -160h146z" />
    <glyph glyph-name="five.numerator" 
d="M567 1405v-158h-264v-121q70 2 125 -14.5t85.5 -42.5t50.5 -59.5t26 -60t6 -48.5q0 -99 -76.5 -166t-234.5 -67q-59 0 -118 12.5t-93 30.5v145q106 -49 186 -49q55 0 87 26t32 66q0 41 -41 68.5t-111 27.5q-49 0 -112 -14v424h452z" />
    <glyph glyph-name="six.numerator" 
d="M537 1415l-189 -266q68 5 122 -14.5t85 -55t47 -76.5t16 -83q0 -107 -80.5 -178.5t-203.5 -71.5q-120 0 -202.5 68.5t-82.5 191.5q0 76 31.5 143t85.5 141l143 201h228zM418 915q0 40 -20.5 69.5t-61.5 29.5q-38 0 -57 -28.5t-19 -72.5q0 -46 20 -72t58 -26q42 0 61 31.5
t19 68.5z" />
    <glyph glyph-name="seven.numerator" 
d="M657 1409l-305 -739l-186 61l221 522h-301v156h571z" />
    <glyph glyph-name="eight.numerator" 
d="M512 1063q119 -62 119 -172q0 -92 -75 -156.5t-216 -64.5q-122 0 -204.5 59.5t-82.5 159.5q0 119 119 174q-96 55 -96 151q0 88 71.5 144.5t190.5 56.5q131 0 200.5 -61.5t69.5 -139.5q0 -46 -26.5 -86.5t-69.5 -64.5zM406 1208q0 88 -64 88q-22 0 -36.5 -11t-20.5 -28
t-7.5 -28.5t-1.5 -22.5t2 -23t8 -30t21 -29.5t37 -11.5q4 0 9 0.5t15.5 5.5t18 14.5t13.5 29t6 46.5zM420 889q0 53 -22 80.5t-56 27.5q-33 0 -56.5 -25.5t-23.5 -76.5q0 -56 25 -83.5t57 -27.5q33 0 54.5 27.5t21.5 77.5z" />
    <glyph glyph-name="nine.numerator" 
d="M125 670l186 264q-121 -11 -196.5 59t-75.5 170q0 108 82 180t203 72q117 0 200.5 -70t83.5 -184q0 -55 -18.5 -111.5t-39 -92t-54.5 -83.5l-146 -204h-225zM399 1167q0 52 -22.5 76.5t-57.5 24.5q-37 0 -58 -29t-21 -70q0 -49 23 -74.5t56 -25.5q37 0 58.5 29t21.5 69z
" />
    <glyph glyph-name="abreve.sc" horiz-adv-x="1165" 
d="M778 162h-426l-55 -162h-285l398 1014h299l444 -1014h-309zM414 358h293l-162 387zM147 1501h228q24 -80 85.5 -115.5t129.5 -35.5q69 0 119 33.5t82 117.5h225q-6 -35 -18.5 -74t-45 -96t-76 -100.5t-119 -75t-167.5 -31.5q-86 0 -160 28t-123 70.5t-85 94.5t-53.5 98.5
t-21.5 85.5z" />
    <glyph glyph-name="amacron.sc" horiz-adv-x="1165" 
d="M778 162h-426l-55 -162h-285l398 1014h299l444 -1014h-309zM414 358h293l-162 387zM1032 1417v-239h-901v239h901z" />
    <glyph glyph-name="aogonek.sc" horiz-adv-x="1165" 
d="M1208 -209v-182q-95 -35 -172 -35q-44 0 -83.5 13.5t-75.5 42t-57 81t-21 123.5q0 52 10.5 85t34.5 81l-66 162h-426l-55 -162h-285l398 1014h299l444 -1014h-125q-29 -67 -29 -111q0 -36 16 -60t41 -33.5t40 -12t28 -2.5q22 0 84 10zM414 358h293l-162 387z" />
    <glyph glyph-name="aeacute.sc" horiz-adv-x="1556" 
d="M1458 1014v-217h-446v-172h426v-217h-426v-191h458v-217h-729v188h-350l-108 -188h-283l621 1014h837zM504 406h237v399zM1495 1511l-426 -387h-207l240 387h393z" />
    <glyph glyph-name="cacute.sc" horiz-adv-x="1144" 
d="M1047 342v-250q-37 -20 -61 -31.5t-77.5 -31.5t-117 -30.5t-134.5 -10.5q-117 0 -215 31t-163.5 82.5t-110.5 119t-65.5 139t-20.5 144.5q0 125 50 226.5t134.5 165t191 97t224.5 33.5q203 0 352 -80v-270q-155 112 -342 112q-142 0 -233.5 -77t-91.5 -205
q0 -130 91.5 -205.5t225.5 -75.5q63 0 138 22t118 42t107 53zM1083 1511l-426 -387h-206l239 387h393z" />
    <glyph glyph-name="ccaron.sc" horiz-adv-x="1144" 
d="M1047 342v-250q-37 -20 -61 -31.5t-77.5 -31.5t-117 -30.5t-134.5 -10.5q-117 0 -215 31t-163.5 82.5t-110.5 119t-65.5 139t-20.5 144.5q0 125 50 226.5t134.5 165t191 97t224.5 33.5q203 0 352 -80v-270q-155 112 -342 112q-142 0 -233.5 -77t-91.5 -205
q0 -130 91.5 -205.5t225.5 -75.5q63 0 138 22t118 42t107 53zM440 1124l-239 349h190l238 -213l233 213h187l-236 -349h-373z" />
    <glyph glyph-name="ccircumflex.sc" horiz-adv-x="1144" 
d="M1047 342v-250q-37 -20 -61 -31.5t-77.5 -31.5t-117 -30.5t-134.5 -10.5q-117 0 -215 31t-163.5 82.5t-110.5 119t-65.5 139t-20.5 144.5q0 125 50 226.5t134.5 165t191 97t224.5 33.5q203 0 352 -80v-270q-155 112 -342 112q-142 0 -233.5 -77t-91.5 -205
q0 -130 91.5 -205.5t225.5 -75.5q63 0 138 22t118 42t107 53zM817 1473l240 -349h-191l-237 211l-234 -211h-186l235 349h373z" />
    <glyph glyph-name="cdotaccent.sc" horiz-adv-x="1144" 
d="M1047 342v-250q-37 -20 -61 -31.5t-77.5 -31.5t-117 -30.5t-134.5 -10.5q-117 0 -215 31t-163.5 82.5t-110.5 119t-65.5 139t-20.5 144.5q0 125 50 226.5t134.5 165t191 97t224.5 33.5q203 0 352 -80v-270q-155 112 -342 112q-142 0 -233.5 -77t-91.5 -205
q0 -130 91.5 -205.5t225.5 -75.5q63 0 138 22t118 42t107 53zM635 1464q68 0 116 -47.5t48 -116.5t-48 -117t-116 -48q-69 0 -116.5 48.5t-47.5 116.5q0 69 48 116.5t116 47.5z" />
    <glyph glyph-name="dcaron.sc" horiz-adv-x="1187" 
d="M121 0v1014h405q255 0 404 -121q88 -70 132 -174.5t44 -214.5q0 -128 -58.5 -244t-183.5 -188q-129 -72 -340 -72h-403zM393 793v-572h123q52 0 107 16t84 37q55 37 85.5 102t30.5 138q0 143 -106 225q-41 33 -86.5 43.5t-112.5 10.5h-125zM340 1124l-240 349h191
l237 -213l234 213h186l-235 -349h-373z" />
    <glyph glyph-name="dcroat.sc" horiz-adv-x="1187" 
d="M121 422h-121v166h121v426h405q255 0 404 -121q88 -70 132 -174.5t44 -214.5q0 -128 -58.5 -244t-183.5 -188q-129 -72 -340 -72h-403v422zM584 422h-191v-201h123q52 0 107 16t84 37q55 37 85.5 102t30.5 138q0 143 -106 225q-41 33 -86.5 43.5t-112.5 10.5h-125v-205
h191v-166z" />
    <glyph glyph-name="ebreve.sc" horiz-adv-x="956" 
d="M864 217v-217h-739v1014h729v-217h-457v-164h437v-217h-437v-199h467zM63 1501h228q24 -80 85.5 -115.5t129.5 -35.5q69 0 119 33.5t82 117.5h225q-6 -35 -18.5 -74t-45 -96t-76 -100.5t-119 -75t-167.5 -31.5q-86 0 -160 28t-123 70.5t-85 94.5t-53.5 98.5t-21.5 85.5z
" />
    <glyph glyph-name="ecaron.sc" horiz-adv-x="956" 
d="M864 217v-217h-739v1014h729v-217h-457v-164h437v-217h-437v-199h467zM315 1124l-239 349h190l238 -213l233 213h187l-236 -349h-373z" />
    <glyph glyph-name="edotaccent.sc" horiz-adv-x="956" 
d="M864 217v-217h-739v1014h729v-217h-457v-164h437v-217h-437v-199h467zM516 1464q68 0 116 -47.5t48 -116.5t-48 -117t-116 -48q-69 0 -116.5 48.5t-47.5 116.5q0 69 48 116.5t116 47.5z" />
    <glyph glyph-name="emacron.sc" horiz-adv-x="956" 
d="M864 217v-217h-739v1014h729v-217h-457v-164h437v-217h-437v-199h467zM948 1417v-239h-901v239h901z" />
    <glyph glyph-name="eng.sc" horiz-adv-x="1230" 
d="M631 -14v204q36 -4 57 -4q57 0 89.5 31.5t42 76t9.5 112.5v100q0 55 -1 81.5t-9 68.5t-24 73q-21 40 -62 62t-84 22q-155 0 -260 -176v-637h-272v1014h274v-137q26 30 47 49t62 47.5t95 43.5t118 15q38 0 78 -7t90.5 -28.5t90.5 -55.5t72.5 -93.5t42.5 -136.5
q1 -6 5 -35.5t8 -76.5t4 -83v-113q0 -221 -84 -320t-295 -99q-14 0 -45 1t-49 1z" />
    <glyph glyph-name="eogonek.sc" horiz-adv-x="956" 
d="M864 -209v-182q-88 -35 -178 -35q-100 0 -164.5 67t-64.5 191q0 89 41 168h-373v1014h729v-217h-457v-164h437v-217h-437v-199h467v-217h-182q-27 -68 -27 -102q0 -55 40.5 -86t88.5 -31q35 0 80 10z" />
    <glyph glyph-name="gbreve.sc" horiz-adv-x="1202" 
d="M1069 954v-252q-133 48 -206.5 67t-157.5 19q-171 0 -252 -79q-86 -83 -86 -209q0 -117 83.5 -196t213.5 -79q72 0 157 29v92h-145v211h416v-428q-162 -141 -426 -141q-118 0 -223 36t-185 101t-127 164t-47 217q0 234 164.5 377t433.5 143q178 0 375 -68q8 -3 12 -4z
M186 1501h228q24 -80 85.5 -115.5t129.5 -35.5q69 0 118.5 33.5t81.5 117.5h226q-6 -35 -18.5 -74t-45 -96t-76 -100.5t-119 -75t-167.5 -31.5q-86 0 -160 28t-123 70.5t-85 94.5t-53.5 98.5t-21.5 85.5z" />
    <glyph glyph-name="gcircumflex.sc" horiz-adv-x="1202" 
d="M1069 954v-252q-133 48 -206.5 67t-157.5 19q-171 0 -252 -79q-86 -83 -86 -209q0 -117 83.5 -196t213.5 -79q72 0 157 29v92h-145v211h416v-428q-162 -141 -426 -141q-118 0 -223 36t-185 101t-127 164t-47 217q0 234 164.5 377t433.5 143q178 0 375 -68q8 -3 12 -4z
M821 1473l240 -349h-191l-237 211l-234 -211h-186l236 349h372z" />
    <glyph glyph-name="gcommaaccent.sc" horiz-adv-x="1202" 
d="M1069 954v-252q-133 48 -206.5 67t-157.5 19q-171 0 -252 -79q-86 -83 -86 -209q0 -117 83.5 -196t213.5 -79q72 0 157 29v92h-145v211h416v-428q-162 -141 -426 -141q-118 0 -223 36t-185 101t-127 164t-47 217q0 234 164.5 377t433.5 143q178 0 375 -68q8 -3 12 -4z
M418 -469v115h59q91 0 122.5 16t31.5 57q0 14 -6.5 25t-21 17.5t-26.5 10.5t-33.5 5.5t-32 2t-31 0t-21.5 -0.5l10 104q164 0 208 -4q215 -19 240 -146q3 -17 3 -36q0 -81 -79.5 -135t-217.5 -54q-125 0 -205 23z" />
    <glyph glyph-name="gdotaccent.sc" horiz-adv-x="1202" 
d="M1069 954v-252q-133 48 -206.5 67t-157.5 19q-171 0 -252 -79q-86 -83 -86 -209q0 -117 83.5 -196t213.5 -79q72 0 157 29v92h-145v211h416v-428q-162 -141 -426 -141q-118 0 -223 36t-185 101t-127 164t-47 217q0 234 164.5 377t433.5 143q178 0 375 -68q8 -3 12 -4z
M653 1464q68 0 116 -47.5t48 -116.5t-48 -117t-116 -48q-69 0 -116.5 48.5t-47.5 116.5q0 69 48 116.5t116 47.5z" />
    <glyph glyph-name="hbar.sc" horiz-adv-x="1230" 
d="M838 909v105h270v-105h102v-202h-102v-707h-270v395h-445v-395h-270v707h-103v202h103v105h270v-105h445zM838 621v86h-445v-86h445z" />
    <glyph glyph-name="hcircumflex.sc" horiz-adv-x="1230" 
d="M393 621h445v393h270v-1014h-270v395h-445v-395h-270v1014h270v-393zM799 1473l239 -349h-190l-238 211l-233 -211h-187l236 349h373z" />
    <glyph glyph-name="ibreve.sc" horiz-adv-x="536" 
d="M403 1014v-1014h-270v1014h270zM-166 1501h227q24 -80 85.5 -115.5t129.5 -35.5q69 0 119 33.5t82 117.5h225q-6 -35 -18.5 -74t-45 -96t-76 -100.5t-119 -75t-167.5 -31.5q-86 0 -160 28t-122.5 70.5t-85 94.5t-53.5 98.5t-21 85.5z" />
    <glyph glyph-name="ij.sc" horiz-adv-x="1073" 
d="M403 1014v-1014h-270v1014h270zM956 1014v-850q0 -42 -1.5 -75t-9 -82t-21 -86.5t-38.5 -78t-60 -67t-88 -43.5t-120 -17q-57 0 -124 23l12 223q39 -16 63 -16q22 0 39 4.5t29 15t20.5 21t14 31t8.5 34.5t4 42t1.5 44t0.5 49v828h270z" />
    <glyph glyph-name="imacron.sc" horiz-adv-x="536" 
d="M403 1014v-1014h-270v1014h270zM719 1417v-239h-901v239h901z" />
    <glyph glyph-name="iogonek.sc" horiz-adv-x="536" 
d="M498 -209v-182q-95 -35 -172 -35q-44 0 -84.5 13.5t-76 42t-56.5 81t-21 123.5q0 53 10.5 87t34.5 79v1014h270v-1014h-88q-26 -69 -26 -111q0 -36 16 -60t41 -33.5t40 -12t28 -2.5q22 0 84 10z" />
    <glyph glyph-name="itilde.sc" horiz-adv-x="536" 
d="M403 1014v-1014h-270v1014h270zM-31 1135h-151q0 122 47 204q70 125 221 125q114 0 242 -71q89 -50 147 -50q81 0 96 119h154q0 -137 -68.5 -232t-193.5 -95q-53 0 -107 14.5t-86 28.5t-88 43q-68 36 -121 36q-85 0 -92 -122z" />
    <glyph glyph-name="jcircumflex.sc" horiz-adv-x="536" 
d="M418 1014v-850q0 -42 -1.5 -75t-9 -82t-21 -86.5t-38.5 -78t-60 -67t-88 -43.5t-120 -17q-58 0 -125 23l12 223q39 -16 64 -16t43.5 7t30.5 16.5t20.5 30.5t12.5 35.5t6 46.5t2.5 49t0.5 56v828h271zM453 1473l239 -349h-190l-238 211l-233 -211h-187l236 349h373z" />
    <glyph glyph-name="kcommaaccent.sc" horiz-adv-x="1126" 
d="M397 590l285 424h293l-320 -467l459 -547h-356l-361 430v-430h-270v1014h270v-424zM381 -469v115h59q91 0 122.5 16t31.5 57q0 14 -6.5 25t-21 17.5t-26.5 10.5t-33.5 5.5t-32 2t-31 0t-21.5 -0.5l10 104q164 0 208 -4q215 -19 240 -146q3 -17 3 -36q0 -81 -79.5 -135
t-217.5 -54q-125 0 -205 23z" />
    <glyph glyph-name="lacute.sc" horiz-adv-x="927" 
d="M885 217v-217h-762v1014h272v-797h490zM913 1511l-426 -387h-206l239 387h393z" />
    <glyph glyph-name="lcaron.sc" horiz-adv-x="927" 
d="M885 217v-217h-762v1014h272v-797h490zM547 545v47q82 87 82 153q0 13 -11 41q-81 41 -81 121q0 50 40.5 84.5t94.5 34.5q61 0 110 -45t49 -131q0 -111 -81 -202t-203 -103z" />
    <glyph glyph-name="lcommaaccent.sc" horiz-adv-x="927" 
d="M885 217v-217h-762v1014h272v-797h490zM281 -469v115h59q91 0 122.5 16t31.5 57q0 14 -6.5 25t-21 17.5t-26.5 10.5t-33.5 5.5t-32 2t-31 0t-21.5 -0.5l10 104q164 0 209 -4q213 -20 238 -146q3 -17 3 -36q0 -81 -79.5 -135t-217.5 -54q-123 0 -204 23z" />
    <glyph glyph-name="ldot.sc" horiz-adv-x="927" 
d="M885 217v-217h-762v1014h272v-797h490zM666 793q65 0 111 -45t46 -111q0 -64 -46 -110t-111 -46q-64 0 -110 45.5t-46 110.5t46 110.5t110 45.5z" />
    <glyph glyph-name="nacute.sc" horiz-adv-x="1247" 
d="M1122 1014v-1014h-225l-500 573v-573h-272v1014h244l481 -545v545h272zM1073 1511l-426 -387h-207l240 387h393z" />
    <glyph glyph-name="ncaron.sc" horiz-adv-x="1247" 
d="M1122 1014v-1014h-225l-500 573v-573h-272v1014h244l481 -545v545h272zM440 1124l-239 349h190l238 -213l233 213h187l-236 -349h-373z" />
    <glyph glyph-name="ncommaaccent.sc" horiz-adv-x="1247" 
d="M1122 1014v-1014h-225l-500 573v-573h-272v1014h244l481 -545v545h272zM440 -469v115h60q91 0 122 16t31 57q0 14 -6.5 25t-21 17.5t-26.5 10.5t-33.5 5.5t-32 2t-31 0t-21.5 -0.5l11 104q164 0 209 -4q213 -20 238 -146q3 -17 3 -36q0 -81 -79.5 -135t-217.5 -54
q-124 0 -205 23z" />
    <glyph glyph-name="obreve.sc" horiz-adv-x="1290" 
d="M1208 504q0 -102 -42.5 -196t-115.5 -165t-179 -113t-226 -42q-155 0 -284.5 67.5t-204 186t-74.5 260.5q0 104 42.5 199.5t116 167t178.5 114.5t224 43q104 0 204 -36t181 -100.5t130.5 -165.5t49.5 -220zM924 500q0 61 -18 111t-47 82t-66 54t-73.5 31.5t-70.5 9.5
q-111 0 -196.5 -80t-85.5 -204q0 -120 82 -199.5t200 -79.5q121 0 198 83t77 192zM211 1501h227q24 -80 85.5 -115.5t129.5 -35.5q69 0 119 33.5t82 117.5h225q-6 -35 -18.5 -74t-45 -96t-76 -100.5t-119 -75t-167.5 -31.5q-86 0 -160 28t-122.5 70.5t-85 94.5t-53.5 98.5
t-21 85.5z" />
    <glyph glyph-name="ohungarumlaut.sc" horiz-adv-x="1290" 
d="M1208 504q0 -102 -42.5 -196t-115.5 -165t-179 -113t-226 -42q-155 0 -284.5 67.5t-204 186t-74.5 260.5q0 104 42.5 199.5t116 167t178.5 114.5t224 43q104 0 204 -36t181 -100.5t130.5 -165.5t49.5 -220zM924 500q0 61 -18 111t-47 82t-66 54t-73.5 31.5t-70.5 9.5
q-111 0 -196.5 -80t-85.5 -204q0 -120 82 -199.5t200 -79.5q121 0 198 83t77 192zM754 1511l-303 -387h-183l156 387h330zM1174 1511l-302 -387h-184l158 387h328z" />
    <glyph glyph-name="omacron.sc" horiz-adv-x="1290" 
d="M1208 504q0 -102 -42.5 -196t-115.5 -165t-179 -113t-226 -42q-155 0 -284.5 67.5t-204 186t-74.5 260.5q0 104 42.5 199.5t116 167t178.5 114.5t224 43q104 0 204 -36t181 -100.5t130.5 -165.5t49.5 -220zM924 500q0 61 -18 111t-47 82t-66 54t-73.5 31.5t-70.5 9.5
q-111 0 -196.5 -80t-85.5 -204q0 -120 82 -199.5t200 -79.5q121 0 198 83t77 192zM1096 1417v-239h-901v239h901z" />
    <glyph glyph-name="oslashacute.sc" horiz-adv-x="1290" 
d="M420 29l-31 -41h-192l84 118q-67 54 -99 97q-100 134 -100 299q0 103 42 198.5t115 167.5t178.5 115t225.5 43t250 -53l37 53h192l-96 -135q67 -59 98 -107q84 -127 84 -274q0 -144 -73 -263.5t-203 -189t-289 -69.5q-118 0 -223 41zM872 674l-307 -436q39 -13 82 -13
q120 0 198.5 80t78.5 203q0 109 -52 166zM432 322l316 448q-52 18 -99 18q-112 0 -197 -80.5t-85 -203.5q0 -105 65 -182zM1096 1511l-426 -387h-207l239 387h394z" />
    <glyph glyph-name="racute.sc" horiz-adv-x="1017" 
d="M123 1014h330q164 0 246 -19t139 -73q88 -85 88 -205q0 -83 -40.5 -152t-113.5 -110q44 -39 66 -80t71 -162q39 -95 97 -213h-301q-84 247 -123.5 314t-116.5 67h-70v-381h-272v1014zM487 809h-92v-223h86q23 0 37 0.5t40.5 6.5t42 16.5t28 32.5t12.5 54t-12.5 55
t-27.5 34t-40 17t-39 6.5t-35 0.5zM958 1511l-426 -387h-206l239 387h393z" />
    <glyph glyph-name="rcaron.sc" horiz-adv-x="1017" 
d="M123 1014h330q164 0 246 -19t139 -73q88 -85 88 -205q0 -83 -40.5 -152t-113.5 -110q44 -39 66 -80t71 -162q39 -95 97 -213h-301q-84 247 -123.5 314t-116.5 67h-70v-381h-272v1014zM487 809h-92v-223h86q23 0 37 0.5t40.5 6.5t42 16.5t28 32.5t12.5 54t-12.5 55
t-27.5 34t-40 17t-39 6.5t-35 0.5zM305 1124l-239 349h190l238 -213l233 213h186l-235 -349h-373z" />
    <glyph glyph-name="rcommaaccent.sc" horiz-adv-x="1017" 
d="M123 1014h330q164 0 246 -19t139 -73q88 -85 88 -205q0 -83 -40.5 -152t-113.5 -110q44 -39 66 -80t71 -162q39 -95 97 -213h-301q-84 247 -123.5 314t-116.5 67h-70v-381h-272v1014zM487 809h-92v-223h86q23 0 37 0.5t40.5 6.5t42 16.5t28 32.5t12.5 54t-12.5 55
t-27.5 34t-40 17t-39 6.5t-35 0.5zM326 -469v115h59q91 0 122.5 16t31.5 57q0 14 -6.5 25t-21 17.5t-26.5 10.5t-33.5 5.5t-32 2t-31 0t-21.5 -0.5l10 104q164 0 209 -4q213 -20 238 -146q3 -17 3 -36q0 -81 -79.5 -135t-217.5 -54q-124 0 -204 23z" />
    <glyph glyph-name="sacute.sc" horiz-adv-x="913" 
d="M799 956v-241q-65 29 -101.5 43.5t-103.5 32.5t-121 18q-52 0 -88.5 -19.5t-36.5 -56.5q0 -31 30 -53t91 -45q11 -4 30.5 -11.5t35 -13.5t30.5 -10q59 -21 101.5 -42.5t86 -57t66.5 -88t23 -119.5t-26 -121t-66.5 -87.5t-93.5 -56t-103 -31.5t-98 -9q-186 0 -359 78v256
q111 -62 186.5 -89.5t157.5 -27.5q15 0 32.5 2.5t41.5 9t39.5 22.5t15.5 40q0 33 -27.5 51t-164.5 76q-42 17 -64 27t-58.5 29t-57 34.5t-46 41t-39 52t-23 63t-9.5 78.5q0 124 98.5 209.5t280.5 85.5q167 0 340 -70zM938 1511l-426 -387h-207l240 387h393z" />
    <glyph glyph-name="scedilla.sc" horiz-adv-x="913" 
d="M553 -4l-23 -47q168 -53 168 -166q0 -34 -15 -65.5t-47 -61t-92 -47t-141 -17.5q-138 0 -206 23v115h5h43t38 1t36 2.5t29 5t25 8.5t17 12t12.5 17t3.5 23q0 18 -8.5 30t-26.5 19t-33.5 10t-42.5 7l88 125q-70 7 -135.5 24t-87 25.5t-64.5 26.5v256q111 -62 186.5 -89.5
t157.5 -27.5q15 0 32.5 2.5t41.5 9t39.5 22.5t15.5 40q0 33 -27.5 51t-164.5 76q-42 17 -64 27t-58.5 29t-57 34.5t-46 41t-39 52t-23 63t-9.5 78.5q0 124 98.5 209.5t280.5 85.5q167 0 340 -70v-241q-65 29 -101.5 43.5t-103.5 32.5t-121 18q-52 0 -88.5 -19.5t-36.5 -56.5
q0 -31 30 -53t91 -45q11 -4 30.5 -11.5t35 -13.5t30.5 -10q59 -21 101.5 -42.5t86 -57t66.5 -88t23 -119.5q0 -49 -14 -91t-33 -70t-51 -52t-54 -37t-57.5 -25t-46 -14.5t-33.5 -7.5z" />
    <glyph glyph-name="scircumflex.sc" horiz-adv-x="913" 
d="M799 956v-241q-65 29 -101.5 43.5t-103.5 32.5t-121 18q-52 0 -88.5 -19.5t-36.5 -56.5q0 -31 30 -53t91 -45q11 -4 30.5 -11.5t35 -13.5t30.5 -10q59 -21 101.5 -42.5t86 -57t66.5 -88t23 -119.5t-26 -121t-66.5 -87.5t-93.5 -56t-103 -31.5t-98 -9q-186 0 -359 78v256
q111 -62 186.5 -89.5t157.5 -27.5q15 0 32.5 2.5t41.5 9t39.5 22.5t15.5 40q0 33 -27.5 51t-164.5 76q-42 17 -64 27t-58.5 29t-57 34.5t-46 41t-39 52t-23 63t-9.5 78.5q0 124 98.5 209.5t280.5 85.5q167 0 340 -70zM641 1473l240 -349h-191l-237 211l-234 -211h-186
l235 349h373z" />
    <glyph glyph-name="scommaaccent.sc" horiz-adv-x="913" 
d="M799 956v-241q-65 29 -101.5 43.5t-103.5 32.5t-121 18q-52 0 -88.5 -19.5t-36.5 -56.5q0 -31 30 -53t91 -45q11 -4 30.5 -11.5t35 -13.5t30.5 -10q59 -21 101.5 -42.5t86 -57t66.5 -88t23 -119.5t-26 -121t-66.5 -87.5t-93.5 -56t-103 -31.5t-98 -9q-186 0 -359 78v256
q111 -62 186.5 -89.5t157.5 -27.5q15 0 32.5 2.5t41.5 9t39.5 22.5t15.5 40q0 33 -27.5 51t-164.5 76q-42 17 -64 27t-58.5 29t-57 34.5t-46 41t-39 52t-23 63t-9.5 78.5q0 124 98.5 209.5t280.5 85.5q167 0 340 -70zM274 -469v115h60q91 0 122 16t31 57q0 14 -6.5 25
t-21 17.5t-26.5 10.5t-33.5 5.5t-32 2t-31 0t-21.5 -0.5l11 104q164 0 209 -4q213 -20 238 -146q3 -17 3 -36q0 -81 -79.5 -135t-217.5 -54q-125 0 -205 23z" />
    <glyph glyph-name="tbar.sc" horiz-adv-x="1073" 
d="M672 346v-346h-271v346h-309v195h309v247h-348v226h967v-226h-348v-247h309v-195h-309z" />
    <glyph glyph-name="tcaron.sc" horiz-adv-x="1073" 
d="M1020 1014v-226h-348v-788h-271v788h-348v226h967zM354 1124l-239 349h190l238 -213l233 213h187l-236 -349h-373z" />
    <glyph glyph-name="tcommaaccent.sc" horiz-adv-x="1073" 
d="M1020 1014v-226h-348v-788h-271v788h-348v226h967zM354 -469v115h60q91 0 122 16t31 57q0 14 -6.5 25t-21 17.5t-26.5 10.5t-33.5 5.5t-32 2t-31 0t-21.5 -0.5l11 104q164 0 209 -4q213 -20 238 -146q3 -17 3 -36q0 -81 -79.5 -135t-217.5 -54q-125 0 -205 23z" />
    <glyph glyph-name="ubreve.sc" horiz-adv-x="1218" 
d="M1104 1014v-549q0 -42 -1.5 -69.5t-9 -74t-26.5 -89.5t-49 -80q-133 -164 -414 -164q-229 0 -368 127q-121 113 -121 342v557h270v-502q0 -158 74 -225q65 -62 155 -62q58 0 108.5 25.5t72.5 64.5q39 72 39 197v502h270zM174 1501h227q24 -80 85.5 -115.5t129.5 -35.5
q69 0 119 33.5t82 117.5h225q-6 -35 -18.5 -74t-45 -96t-76 -100.5t-119 -75t-167.5 -31.5q-86 0 -160 28t-122.5 70.5t-85 94.5t-53.5 98.5t-21 85.5z" />
    <glyph glyph-name="uhungarumlaut.sc" horiz-adv-x="1218" 
d="M1104 1014v-549q0 -42 -1.5 -69.5t-9 -74t-26.5 -89.5t-49 -80q-133 -164 -414 -164q-229 0 -368 127q-121 113 -121 342v557h270v-502q0 -158 74 -225q65 -62 155 -62q58 0 108.5 25.5t72.5 64.5q39 72 39 197v502h270zM717 1511l-303 -387h-183l156 387h330zM1137 1511
l-301 -387h-185l158 387h328z" />
    <glyph glyph-name="umacron.sc" horiz-adv-x="1218" 
d="M1104 1014v-549q0 -42 -1.5 -69.5t-9 -74t-26.5 -89.5t-49 -80q-133 -164 -414 -164q-229 0 -368 127q-121 113 -121 342v557h270v-502q0 -158 74 -225q65 -62 155 -62q58 0 108.5 25.5t72.5 64.5q39 72 39 197v502h270zM1059 1417v-239h-901v239h901z" />
    <glyph glyph-name="uogonek.sc" horiz-adv-x="1218" 
d="M985 -207v-182q-95 -35 -172 -35q-112 0 -178 68.5t-66 183.5q0 34 7.5 66.5t14.5 48.5t21 45q-41 0 -72 2.5t-87.5 13t-112 39t-104.5 72.5q-121 113 -121 342v557h270v-502q0 -121 43 -190q29 -43 78.5 -70t107.5 -27t108.5 25.5t72.5 64.5q39 72 39 197v502h270v-549
q0 -37 -1 -62t-7 -66.5t-16.5 -72.5t-32 -70t-51.5 -68.5t-76 -59t-105 -50.5q-41 -53 -41 -131q0 -52 39.5 -77t87.5 -25q42 0 84 10z" />
    <glyph glyph-name="uring.sc" horiz-adv-x="1218" 
d="M1104 1014v-549q0 -42 -1.5 -69.5t-9 -74t-26.5 -89.5t-49 -80q-133 -164 -414 -164q-229 0 -368 127q-121 113 -121 342v557h270v-502q0 -158 74 -225q65 -62 155 -62q58 0 108.5 25.5t72.5 64.5q39 72 39 197v502h270zM610 1591q95 0 164.5 -68t69.5 -165
q0 -98 -68.5 -166t-165.5 -68t-165 68t-68 166t68.5 165.5t164.5 67.5zM610 1483q-52 0 -88.5 -36.5t-36.5 -88.5q0 -54 36 -90.5t89 -36.5q52 0 88.5 37t36.5 90q0 51 -36.5 88t-88.5 37z" />
    <glyph glyph-name="utilde.sc" horiz-adv-x="1218" 
d="M1104 1014v-549q0 -42 -1.5 -69.5t-9 -74t-26.5 -89.5t-49 -80q-133 -164 -414 -164q-229 0 -368 127q-121 113 -121 342v557h270v-502q0 -158 74 -225q65 -62 155 -62q58 0 108.5 25.5t72.5 64.5q39 72 39 197v502h270zM309 1135h-151q0 122 47 204q70 125 221 125
q114 0 242 -71q89 -50 147 -50q81 0 96 119h154q0 -137 -68.5 -232t-193.5 -95q-53 0 -107 14.5t-86 28.5t-88 43q-68 36 -121 36q-85 0 -92 -122z" />
    <glyph glyph-name="wacute.sc" horiz-adv-x="1740" 
d="M778 1014h187l235 -522l236 522h293l-465 -1026h-127l-267 585l-266 -585h-127l-465 1026h293l236 -522zM1321 1511l-426 -387h-207l240 387h393z" />
    <glyph glyph-name="wcircumflex.sc" horiz-adv-x="1740" 
d="M778 1014h187l235 -522l236 522h293l-465 -1026h-127l-267 585l-266 -585h-127l-465 1026h293l236 -522zM1055 1473l239 -349h-190l-238 211l-233 -211h-187l236 349h373z" />
    <glyph glyph-name="wdieresis.sc" horiz-adv-x="1740" 
d="M778 1014h187l235 -522l236 522h293l-465 -1026h-127l-267 585l-266 -585h-127l-465 1026h293l236 -522zM1161 1462q67 0 115.5 -48t48.5 -116q0 -67 -48 -115t-116 -48t-116 48t-48 115q0 68 48.5 116t115.5 48zM580 1462q67 0 115 -48t48 -116t-47.5 -115.5
t-115.5 -47.5t-116 48t-48 115q0 68 48 116t116 48z" />
    <glyph glyph-name="wgrave.sc" horiz-adv-x="1740" 
d="M778 1014h187l235 -522l236 522h293l-465 -1026h-127l-267 585l-266 -585h-127l-465 1026h293l236 -522zM428 1511h393l240 -387h-207z" />
    <glyph glyph-name="ycircumflex.sc" horiz-adv-x="1058" 
d="M1059 1014l-391 -592v-422h-277v422l-391 592h295l233 -350l236 350h295zM723 1473l240 -349h-191l-237 211l-234 -211h-186l235 349h373z" />
    </font>
</defs>
</svg>
