<?xml version="1.0" standalone="no"?>
<!DOCTYPE svg PUBLIC "-//W3C//DTD SVG 1.1//EN" "http://www.w3.org/Graphics/SVG/1.1/DTD/svg11.dtd" >
<svg xmlns="http://www.w3.org/2000/svg" xmlns:xlink="http://www.w3.org/1999/xlink" version="1.1">
<metadata>
Created by FontForge 20170731 at Thu Dec 10 06:46:30 2020
 By Aleksey,,,
Font software Copyright 2001 Adobe Systems Incorporated. Typeface designs Copyright The Monotype Corporation. All Rights Reserved.
</metadata>
<defs>
<font id="GillSansMTPro-Medium" horiz-adv-x="1024" >
  <font-face 
    font-family="Gill Sans MT Pro Medium"
    font-weight="500"
    font-stretch="normal"
    units-per-em="2048"
    panose-1="2 11 6 2 2 1 4 2 2 3"
    ascent="1638"
    descent="-410"
    x-height="920"
    cap-height="1397"
    bbox="-332 -479 2132 1907"
    underline-thickness="102"
    underline-position="-307"
    unicode-range="U+0020-FB04"
  />
<missing-glyph 
d="M25 0v1362h972v-1362h-972zM180 1266l332 -498l330 498h-662zM123 1178v-992q0 -1 82.5 123t164.5 249l83 124zM901 1178l-332 -496l332 -498v994zM842 98l-330 496l-332 -496h662z" />
    <glyph glyph-name="f_f" unicode="ff" horiz-adv-x="1073" 
d="M1020 920v-158h-141v-762h-181v762h-366v-762h-185v762h-129v158h129v41q0 74 2.5 113.5t16.5 92.5t43 99q43 72 119.5 110.5t163.5 38.5q65 0 114 -18v-168q-42 10 -92 10q-30 0 -54.5 -5.5t-42 -13t-31.5 -23t-23 -28t-15 -35.5t-9 -38.5t-5 -44t-2 -44v-46.5v-41h366
v114q0 73 20.5 140t60.5 121.5t107 87t152 32.5q61 0 117 -18v-168q-62 10 -108 10q-105 0 -148 -92q-20 -41 -20 -186v-41h141z" />
    <glyph glyph-name="fi" unicode="fi" 
d="M551 920v-154h-205v-766h-182v766h-137v154h137q-6 231 90 363t299 132q84 0 149 -24t104 -65.5t59 -93t22 -110.5h-172q-8 22 -12 31t-19 32.5t-30.5 35.5t-44 23t-62.5 11q-47 0 -83.5 -15.5t-57 -41.5t-35 -60.5t-18.5 -71.5t-7 -75t0 -71h205zM887 920v-920h-172v920
h172z" />
    <glyph glyph-name="fl" unicode="fl" 
d="M547 920v-154h-209v-766h-178v766h-142v154h142v45q0 197 63 297q103 153 275 153q62 0 123 -18v-166q-47 14 -82 14q-52 0 -99.5 -22t-72.5 -66q-29 -51 -29 -192v-45h209zM895 1397v-1397h-184v1397h184z" />
    <glyph glyph-name="f_f_i" unicode="ffi" horiz-adv-x="1556" 
d="M1079 920v-154h-207v-766h-182v766h-371v-766h-180v766h-131v154h131v51q0 199 64 299q98 145 280 145q62 0 123 -18v-168q-67 10 -98 10q-39 0 -69.5 -9.5t-50 -23t-33.5 -37.5t-21 -43.5t-10.5 -52t-4 -51t-0.5 -51.5v-51h371q1 30 1.5 48t4.5 61t10.5 72t20.5 72.5
t32.5 74t48.5 64.5t67 54.5t88.5 34.5t113.5 14q76 0 136.5 -18.5t97.5 -47.5t62 -69t35.5 -78.5t12.5 -79.5h-180q-9 27 -17.5 44t-27 40t-50.5 35t-75 12q-47 0 -82.5 -15.5t-56.5 -44.5t-34.5 -59.5t-18.5 -73t-6.5 -72t-0.5 -68.5h207zM1427 920v-920h-180v920h180z" />
    <glyph glyph-name="f_f_l" unicode="ffl" horiz-adv-x="1556" 
d="M1427 1397v-1397h-178v1397h178zM1090 920v-158h-209v-762h-183v762h-366v-762h-182v762h-130v158h130v41q0 76 2 114t16 91.5t43 99.5q43 72 118.5 110.5t164.5 38.5q63 0 112 -18v-168q-42 10 -90 10q-30 0 -54.5 -5.5t-42.5 -13t-32 -23t-23.5 -28t-15.5 -35.5
t-9 -38.5t-5 -44t-2 -44v-46.5v-41h366v114q0 73 21 140t61 121.5t107.5 87t152.5 32.5q58 0 117 -18v-168q-65 10 -108 10q-45 0 -86 -22t-64 -70q-18 -42 -18 -186v-41h209z" />
    <glyph glyph-name=".notdef" 
d="M25 0v1362h972v-1362h-972zM180 1266l332 -498l330 498h-662zM123 1178v-992q0 -1 82.5 123t164.5 249l83 124zM901 1178l-332 -496l332 -498v994zM842 98l-330 496l-332 -496h662z" />
    <glyph glyph-name=".null" horiz-adv-x="0" 
 />
    <glyph glyph-name="nonmarkingreturn" horiz-adv-x="682" 
 />
    <glyph glyph-name="space" unicode=" " horiz-adv-x="569" 
 />
    <glyph glyph-name="exclam" unicode="!" horiz-adv-x="555" 
d="M401 106q0 -49 -33 -86.5t-89 -37.5q-50 0 -88.5 34t-38.5 88q0 52 34 89.5t90 37.5q57 0 91 -38.5t34 -86.5zM279 1415q112 0 112 -285q0 -259 -69 -626q-2 -21 -15.5 -61t-25.5 -40q-36 0 -76.5 264t-40.5 455q0 293 115 293z" />
    <glyph glyph-name="quotedbl" unicode="&#x22;" horiz-adv-x="724" 
d="M141 879l-47 274v244h205v-244l-47 -274h-111zM473 879l-47 274v244h205v-244l-47 -274h-111z" />
    <glyph glyph-name="numbersign" unicode="#" horiz-adv-x="1366" 
d="M86 840h315l84 399h148l-82 -399h397l84 399h144l-82 -399h186v-142h-217l-72 -348h289v-145h-317l-84 -395h-146l82 395h-397l-82 -395h-148l82 395h-184v145h215l72 348h-287v142zM918 698h-398l-74 -348h400z" />
    <glyph glyph-name="dollar" unicode="$" horiz-adv-x="1110" 
d="M963 1221v-230q-62 65 -145 109.5t-161 60.5v-405q178 -49 274.5 -155t96.5 -232q0 -46 -10 -90.5t-36 -93t-66.5 -87.5t-107 -71t-151.5 -47v-222h-168v222q-181 18 -385 145v252q64 -58 122 -98.5t109 -62.5t81.5 -31.5t72.5 -18.5v440q-109 31 -187 75.5t-119 95.5
t-59 100.5t-18 101.5q0 57 23 114t67.5 109.5t120.5 90t172 48.5v74h168v-74q199 -30 306 -120zM489 809v352q-87 -8 -135.5 -62t-48.5 -108q0 -64 44 -104t140 -78zM657 539v-371q170 41 170 176q0 38 -11 66.5t-39 52.5t-50.5 38t-69.5 38z" />
    <glyph glyph-name="percent" unicode="%" horiz-adv-x="1449" 
d="M1087 608q129 0 220.5 -91t91.5 -220t-91.5 -220t-220.5 -91t-220 91t-91 220t91 220t220 91zM1085 133q67 0 114.5 47.5t47.5 114.5t-47.5 114.5t-114.5 47.5t-114 -47t-47 -115t47 -115t114 -47zM428 1413q129 0 220 -91t91 -220t-91 -220t-220 -91t-220 91t-91 220
t91 220t220 91zM426 938q68 0 115 47t47 115t-47 115t-115 47t-115 -47t-47 -115t47 -115t115 -47zM1290 1417l-919 -1435h-154l920 1435h153z" />
    <glyph glyph-name="ampersand" unicode="&#x26;" horiz-adv-x="1280" 
d="M987 328l283 -328h-256l-162 190q-94 -81 -123 -98q-181 -110 -323 -110q-88 0 -166.5 39t-130.5 115.5t-52 172.5q0 109 75.5 212t254.5 204q-35 36 -66 77.5t-61.5 111.5t-30.5 135q0 55 19 108.5t58 102.5t109.5 79.5t162.5 30.5q73 0 133 -19.5t99 -51t66 -72.5
t38.5 -82.5t11.5 -83.5q0 -53 -20 -104.5t-45 -87t-67 -75t-65.5 -57t-60.5 -43.5l196 -225q88 100 150 225h200q-71 -187 -227 -366zM684 289l45 41l-227 262l-88 -62q-156 -107 -156 -213q0 -57 48.5 -101t123.5 -44q62 0 132.5 34.5t121.5 82.5zM555 829q182 110 182 228
q0 60 -44.5 101.5t-112.5 41.5q-65 0 -109.5 -38t-44.5 -95q0 -39 17.5 -82t42.5 -76t42 -52.5t27 -27.5z" />
    <glyph glyph-name="quotesingle" unicode="'" horiz-adv-x="382" 
d="M135 879l-45 274v244h205v-244l-47 -274h-113z" />
    <glyph glyph-name="parenleft" unicode="(" horiz-adv-x="661" 
d="M637 -471h-113q-131 163 -189 252t-110 217q-94 232 -94 473q0 93 14 183.5t33.5 162t55.5 150t64.5 129.5t76 120t74 103.5t75.5 95.5h113q-38 -57 -57 -86.5t-56 -94t-57.5 -113t-47.5 -126.5t-41.5 -152t-25 -173t-10.5 -205q0 -260 73.5 -500t221.5 -436z" />
    <glyph glyph-name="parenright" unicode=")" horiz-adv-x="661" 
d="M25 1415h112q133 -168 190.5 -255t108.5 -214q94 -232 94 -473q0 -93 -14 -183.5t-33.5 -162t-55.5 -150t-64.5 -129.5t-76 -120t-74 -103.5t-75.5 -95.5h-112q38 56 57.5 86.5t55.5 94.5t56.5 112.5t47.5 126t41.5 152t25 172.5t10.5 204q0 261 -73 501.5t-221 436.5z
" />
    <glyph glyph-name="asterisk" unicode="*" horiz-adv-x="854" 
d="M485 1081l172 164q6 6 18.5 16t36 22.5t40.5 12.5q27 0 46 -20t19 -51q0 -36 -22.5 -56.5t-77.5 -38.5l-219 -79q4 -16 4 -25q0 -10 -4 -22l207 -72q112 -42 112 -105q0 -20 -18 -44.5t-49 -24.5q-46 0 -115 69l-150 148q-17 -21 -41 -21l41 -211q0 -1 4.5 -36t4.5 -58
q0 -86 -72 -86q-33 0 -49.5 26.5t-16.5 61.5q0 37 9 58q0 3 4.5 16.5t5.5 17.5l39 211q-18 0 -39 21l-160 -148q-72 -67 -113 -67q-33 0 -50 23.5t-17 43.5q0 21 11 38t33 30.5t38 20.5t41 16l202 72q-4 16 -4 24q0 13 4 23l-231 86q-90 32 -90 86q0 30 22 52.5t48 22.5
q32 0 92 -53l174 -164q19 19 39 21l-39 207q-15 66 -15 92q0 9 1.5 18.5t7 27.5t21.5 29t40 11q23 0 38.5 -11t21 -28t7 -25.5t1.5 -15.5q0 -13 -13 -98l-41 -207q24 0 41 -21z" />
    <glyph glyph-name="plus" unicode="+" horiz-adv-x="1193" 
d="M514 215v399h-401v168h401v400h168v-400h399v-168h-399v-399h-168z" />
    <glyph glyph-name="comma" unicode="," horiz-adv-x="448" 
d="M100 -244v37q48 48 64.5 93.5t19.5 113.5q-106 33 -106 131q0 53 36.5 93t86.5 40q63 0 101 -57t38 -135q0 -13 -1.5 -27t-7 -47.5t-21.5 -64.5t-40.5 -65.5t-68.5 -64t-101 -47.5z" />
    <glyph glyph-name="hyphen" unicode="-" horiz-adv-x="661" 
d="M580 551v-195h-498v195h498z" />
    <glyph glyph-name="period" unicode="." horiz-adv-x="448" 
d="M223 223q48 0 85.5 -34.5t37.5 -86.5q0 -51 -36 -85.5t-87 -34.5q-50 0 -85.5 34.5t-35.5 85.5q0 52 36.5 86.5t84.5 34.5z" />
    <glyph glyph-name="slash" unicode="/" horiz-adv-x="575" 
d="M14 -18l402 1433h145l-401 -1433h-146z" />
    <glyph glyph-name="zero" unicode="0" 
d="M520 1415q125 0 226 -89.5t159 -253t58 -370.5q0 -325 -128 -522.5t-323 -197.5q-199 0 -325 194t-126 522q0 172 39.5 312t105 226.5t146.5 132.5t168 46zM512 1225q-38 0 -72.5 -17t-67.5 -57t-57 -99t-38.5 -149t-14.5 -201q0 -124 16.5 -220.5t41.5 -153.5t59 -93.5
t65.5 -49.5t65.5 -13t67 14t67.5 51t59.5 93.5t41.5 151t16.5 214.5q0 135 -21 237.5t-49.5 156t-66.5 86t-64 41t-49 8.5z" />
    <glyph glyph-name="one" unicode="1" 
d="M614 1397v-1397h-200v1397h200z" />
    <glyph glyph-name="two" unicode="2" 
d="M954 193v-193h-884v14q108 130 173 211t160 209.5t150 222.5q49 82 74.5 150t25.5 149q0 59 -16.5 105.5t-42 75t-59 47.5t-64 26t-59.5 7q-85 0 -167.5 -50t-146.5 -139v254q44 35 82 59.5t109.5 49t146.5 24.5q181 0 299.5 -121t118.5 -309q0 -56 -12.5 -114
t-28.5 -106t-53 -111.5t-63.5 -106t-82.5 -115.5t-89 -113.5t-103 -125.5h532z" />
    <glyph glyph-name="three" unicode="3" 
d="M131 61v218q158 -99 307 -99q41 0 78 11.5t70 36t53 68.5t20 103q0 45 -13.5 83.5t-45 72.5t-90.5 54t-141 20v184q280 0 280 211q0 37 -13.5 72.5t-40.5 67t-75.5 50.5t-111.5 19q-109 0 -242 -68v191q118 59 266 59q181 0 297.5 -96.5t116.5 -278.5q0 -57 -13.5 -105.5
t-31 -78.5t-45.5 -56t-45.5 -38t-42.5 -25q71 -24 118 -80t64.5 -118.5t17.5 -132.5q0 -127 -60.5 -225t-156.5 -148.5t-209 -50.5q-161 0 -311 79z" />
    <glyph glyph-name="four" unicode="4" 
d="M809 1415v-784h156v-172h-156v-459h-195v459h-591v88l704 868h82zM614 631v405l-323 -405h323z" />
    <glyph glyph-name="five" unicode="5" 
d="M827 1397v-178h-438v-353q152 8 268.5 -47.5t178 -157t61.5 -231.5q0 -190 -125.5 -319t-339.5 -129q-164 0 -330 86v206q150 -98 295 -98q126 0 211.5 72.5t85.5 181.5q0 57 -24 103.5t-59.5 75t-80.5 47.5t-84 26.5t-73 7.5q-122 0 -166 -20v727h620z" />
    <glyph glyph-name="six" unicode="6" 
d="M649 1415l121 -153q-92 -59 -165.5 -125t-115 -116t-75.5 -110t-45.5 -89.5t-26.5 -71.5q109 57 221 57q160 0 274.5 -114.5t114.5 -289.5q0 -177 -123 -299t-297 -122q-56 0 -113 14.5t-117.5 51.5t-106.5 92t-75.5 144.5t-29.5 200.5q0 172 67.5 345t194.5 323
q46 55 98.5 103.5t90 77.5t108.5 81zM299 543q-8 -50 -8 -107q0 -67 23 -120.5t59.5 -84.5t78 -47t83.5 -16q90 0 155.5 62.5t65.5 166.5q0 59 -22.5 104.5t-59 71t-77.5 38t-83 12.5q-47 0 -91 -14t-65.5 -27t-58.5 -39z" />
    <glyph glyph-name="seven" unicode="7" 
d="M1004 1397l-633 -1415l-178 77l512 1147h-605v191h904z" />
    <glyph glyph-name="eight" unicode="8" 
d="M764 713q25 -15 42 -27t49 -42t51.5 -62.5t35.5 -85.5t16 -113q0 -167 -123 -284t-321 -117q-196 0 -322 119.5t-126 283.5q0 149 102 256q39 39 96 72q-26 21 -40.5 34t-42 44.5t-42.5 61t-28 74.5t-13 95q0 112 58.5 202.5t155.5 140.5t210 50q109 0 204 -49
t153.5 -140t58.5 -202q0 -191 -174 -311zM739 1016q0 82 -59 145.5t-162 63.5q-95 0 -159 -57t-64 -150q0 -50 22.5 -92t56.5 -67t72.5 -38.5t73.5 -13.5q82 0 150.5 57.5t68.5 151.5zM756 395q0 86 -63 151.5t-183 65.5q-64 0 -113 -21t-76 -55t-40 -70.5t-13 -72.5
q0 -89 64.5 -154t183.5 -65q117 0 178.5 65.5t61.5 155.5z" />
    <glyph glyph-name="nine" unicode="9" 
d="M383 -18l-123 147q36 22 74.5 50.5t95 80t103 107t90 132t63.5 154.5q-98 -59 -223 -59q-84 0 -158 34.5t-124 91t-78.5 129.5t-28.5 150q0 105 50.5 199.5t148 155.5t219.5 61q136 0 240 -68t158 -183.5t54 -258.5q0 -256 -160 -514.5t-401 -408.5zM725 852
q10 82 10 109q0 44 -12.5 88.5t-39 86t-75 67.5t-112.5 26q-60 0 -106 -23.5t-70.5 -60.5t-36 -74t-11.5 -72q0 -68 39 -121t91 -77.5t104 -24.5q105 0 219 76z" />
    <glyph glyph-name="colon" unicode=":" horiz-adv-x="448" 
d="M215 227q48 0 85.5 -35t37.5 -88q0 -52 -36.5 -87t-86.5 -35t-85.5 35t-35.5 87t37 87.5t84 35.5zM231 938q48 0 85.5 -35t37.5 -88q0 -51 -36.5 -87t-86.5 -36t-85 35.5t-35 87.5q0 54 36 88.5t84 34.5z" />
    <glyph glyph-name="semicolon" unicode=";" horiz-adv-x="468" 
d="M246 938q48 0 84.5 -35t36.5 -88q0 -51 -35.5 -87t-85.5 -36t-86.5 35.5t-36.5 87.5q0 54 37 88.5t86 34.5zM125 -244v37q48 48 64.5 93.5t19.5 113.5q-107 33 -107 131q0 53 35.5 93t87.5 40q63 0 101.5 -57t38.5 -135q0 -13 -1.5 -27t-7 -47.5t-21.5 -64.5t-40.5 -65.5
t-68.5 -64t-101 -47.5z" />
    <glyph glyph-name="less" unicode="&#x3c;" horiz-adv-x="1193" 
d="M113 616v168l968 410v-178l-770 -316l770 -319v-178z" />
    <glyph glyph-name="equal" unicode="=" horiz-adv-x="1193" 
d="M1081 391h-968v168h968v-168zM1081 838h-968v168h968v-168z" />
    <glyph glyph-name="greater" unicode="&#x3e;" horiz-adv-x="1193" 
d="M1081 780v-168l-968 -409v178l770 315l-770 320v178z" />
    <glyph glyph-name="question" unicode="?" horiz-adv-x="681" 
d="M133 1198l131 219q123 -7 185 -43q75 -43 110 -114t35 -142q0 -57 -12.5 -110.5t-42 -112.5t-53.5 -98.5t-70 -110.5q-131 -204 -131 -285q0 -25 6 -43q-19 8 -32 15t-32.5 22.5t-32 34.5t-21.5 50t-9 69q0 50 17.5 100.5t39.5 89t80 131.5q84 134 84 226q0 41 -15 70
t-39 42t-44.5 18t-40.5 5q-14 0 -27 -2t-27 -6.5t-21 -7t-21.5 -9.5t-16.5 -8zM438 104q0 -54 -37 -88t-88 -34q-48 0 -84 33t-36 87q0 55 37 90t85 35q45 0 84 -32.5t39 -90.5z" />
    <glyph glyph-name="at" unicode="@" horiz-adv-x="2068" 
d="M1313 856l35 156h180l-146 -672q-30 -153 -30 -156q0 -30 23 -47.5t46 -17.5q34 0 82.5 24t101.5 73t98.5 113.5t75 155.5t29.5 189q0 184 -97 329.5t-259.5 223.5t-357.5 78q-191 0 -350.5 -71t-264 -191t-162 -275t-57.5 -326q0 -124 26.5 -229t72 -182.5t111 -139
t140 -102t161 -67t172.5 -37.5t177 -11q124 0 233.5 22.5t183 54.5t135.5 75.5t95 78t58 70.5h180q-9 -19 -23.5 -42.5t-52 -70t-82 -88t-118 -89t-157.5 -81.5t-201.5 -56.5t-248.5 -22.5q-210 0 -381 48.5t-287 132t-194.5 199t-113.5 246t-35 275.5q0 87 14.5 179t49 193
t86 193.5t132 177t180 146.5t236.5 98.5t295 36.5q163 0 303 -43.5t239.5 -119t170 -175t105 -212t34.5 -230.5q0 -97 -24 -188.5t-61 -160t-86 -128.5t-93.5 -99t-89.5 -67q-112 -74 -248 -74q-50 0 -87 12t-55.5 27.5t-30.5 42t-14.5 42.5t-5.5 42q-147 -166 -307 -166
q-155 0 -258.5 130t-103.5 318q0 151 70 298.5t192 244t258 96.5q28 0 57 -5.5t73.5 -21.5t89.5 -56.5t81 -100.5zM678 387q0 -131 65 -208t148 -77q66 0 132.5 41.5t117.5 109.5t82.5 161.5t31.5 191.5q0 136 -66.5 211.5t-164.5 75.5q-65 0 -122.5 -35t-97.5 -90t-69 -123
t-43 -134.5t-14 -123.5z" />
    <glyph glyph-name="A" unicode="A" horiz-adv-x="1366" 
d="M741 1405l625 -1405h-205l-186 412h-594l-176 -412h-205l600 1405h141zM459 592h434l-225 506z" />
    <glyph glyph-name="B" unicode="B" horiz-adv-x="1150" 
d="M154 1397h366q152 0 234 -31q106 -39 170.5 -124t64.5 -208q0 -204 -213 -295q153 -29 243.5 -126.5t90.5 -231.5q0 -65 -20.5 -121t-50.5 -93t-69.5 -67t-70.5 -45.5t-61 -25.5q-57 -20 -112.5 -24.5t-184.5 -4.5h-387v1397zM485 1219h-133v-420h133q135 0 189 32
q41 21 74.5 67t33.5 120q0 59 -26 105.5t-72 68.5q-57 27 -199 27zM541 618h-189v-440h199q153 0 207 21q72 27 108.5 83t36.5 117q0 33 -10.5 66.5t-42 69t-80.5 55.5q-65 28 -229 28z" />
    <glyph glyph-name="C" unicode="C" horiz-adv-x="1449" 
d="M1343 1300v-215q-245 140 -483 140q-123 0 -228.5 -43.5t-175.5 -116.5t-109.5 -169.5t-39.5 -201.5q0 -100 35.5 -192.5t102 -167.5t175 -120.5t242.5 -45.5q257 0 496 156v-220q-225 -122 -508 -122q-150 0 -276.5 43t-212.5 114.5t-146.5 164.5t-88.5 192.5t-28 199.5
q0 143 56.5 274.5t155 229.5t240.5 156.5t304 58.5q224 0 489 -115z" />
    <glyph glyph-name="D" unicode="D" horiz-adv-x="1536" 
d="M156 1397h471q70 0 118 -3t129 -15t156.5 -44t140.5 -82q122 -93 195.5 -237.5t73.5 -317.5q0 -100 -27.5 -192.5t-65 -154.5t-88.5 -117t-86 -82t-69 -48q-60 -37 -126.5 -60t-140.5 -31.5t-119 -10.5t-120 -2h-442v1397zM606 1219h-252v-1039h258q255 0 387 80
q107 67 170.5 187.5t63.5 261.5q0 67 -16 131t-49 126t-91 114.5t-135 86.5q-54 24 -113 36t-101.5 14t-121.5 2z" />
    <glyph glyph-name="E" unicode="E" horiz-adv-x="1067" 
d="M946 1397v-178h-592v-426h572v-179h-572v-434h611v-180h-811v1397h792z" />
    <glyph glyph-name="F" unicode="F" horiz-adv-x="960" 
d="M901 1397v-180h-545v-388h545v-180h-545v-649h-200v1397h745z" />
    <glyph glyph-name="G" unicode="G" horiz-adv-x="1515" 
d="M1378 686v-590q-257 -114 -512 -114q-156 0 -286.5 43t-217 113.5t-146.5 163t-87 189.5t-27 195q0 111 32 217.5t96.5 199t154 162t211.5 110t262 40.5q133 0 242.5 -30t249.5 -89v-204q-250 145 -496 145q-105 0 -202.5 -38.5t-173.5 -106.5t-121.5 -171t-45.5 -223
q0 -115 40.5 -214.5t113 -171.5t177.5 -113t230 -41q73 0 136 13.5t170 47.5v291h-269v176h469z" />
    <glyph glyph-name="H" unicode="H" horiz-adv-x="1492" 
d="M1339 1397v-1397h-202v608h-783v-608h-200v1397h200v-604h783v604h202z" />
    <glyph glyph-name="I" unicode="I" horiz-adv-x="512" 
d="M356 1397v-1397h-200v1397h200z" />
    <glyph glyph-name="J" unicode="J" horiz-adv-x="512" 
d="M356 1397v-1379q0 -148 -24.5 -238.5t-93.5 -158.5q-99 -94 -263 -94q-5 0 -65 6l-37 186q62 -1 101.5 2.5t74 16t53 33.5t32 59t18 87.5t4.5 123.5v1356h200z" />
    <glyph glyph-name="K" unicode="K" horiz-adv-x="1343" 
d="M1194 1397l-606 -662l755 -735h-274l-713 690v-690h-202v1397h202v-639l588 639h250z" />
    <glyph glyph-name="L" unicode="L" horiz-adv-x="1003" 
d="M354 1397v-1215h629v-182h-831v1397h202z" />
    <glyph glyph-name="M" unicode="M" horiz-adv-x="1599" 
d="M1452 1397v-1397h-201v1087l-430 -540h-37l-434 540v-1087h-200v1397h188l465 -574l463 574h186z" />
    <glyph glyph-name="N" unicode="N" horiz-adv-x="1599" 
d="M1454 1397v-1397h-172l-934 1075v-1075h-188v1397h162l942 -1084v1084h190z" />
    <glyph glyph-name="O" unicode="O" horiz-adv-x="1685" 
d="M840 1415q169 0 313 -59t239 -158t148 -228t53 -270q0 -149 -55.5 -281t-154.5 -228.5t-242.5 -152.5t-311.5 -56q-161 0 -299.5 56.5t-234 153t-149.5 227t-54 275.5q0 140 50.5 269t143.5 230t237 161.5t317 60.5zM848 1227q-95 0 -176.5 -23t-140 -63.5t-104 -92.5
t-73 -112.5t-41.5 -121t-14 -120.5q0 -154 75 -275.5t198 -186t270 -64.5q114 0 225 44.5t182 121.5q64 70 102 172.5t38 195.5q0 71 -20.5 143.5t-65 141t-107 122t-153 86t-195.5 32.5z" />
    <glyph glyph-name="P" unicode="P" horiz-adv-x="1044" 
d="M143 1397h361q65 0 97 -1t84 -7t84.5 -18t72 -35t73.5 -58q109 -109 109 -277q0 -169 -117 -282q-66 -63 -159 -88t-256 -25h-148v-606h-201v1397zM496 1221h-152v-437h160q54 0 82.5 1t69.5 10t69 26q92 55 92 185q0 99 -61 155q-43 41 -91.5 50.5t-168.5 9.5z" />
    <glyph glyph-name="Q" unicode="Q" horiz-adv-x="1685" 
d="M1563 -90l-201 -195q-313 14 -686 285q-112 19 -215.5 76t-187 144t-133.5 210.5t-50 263.5q0 205 96 369.5t268 258t388 93.5q171 0 315 -59t238.5 -158t147 -227.5t52.5 -268.5q0 -167 -71.5 -314.5t-204.5 -250.5t-305 -137q90 -38 138.5 -56.5t129 -39.5t141.5 -21
q66 0 140 27zM842 1227q-116 0 -211.5 -36t-156 -92t-102 -128.5t-58.5 -141.5t-17 -135q0 -225 155.5 -375.5t389.5 -150.5q160 0 286.5 75.5t192 195.5t65.5 259q0 67 -17.5 136.5t-59 141t-102 126.5t-155.5 90t-210 35z" />
    <glyph glyph-name="R" unicode="R" horiz-adv-x="1236" 
d="M160 1397h350q138 0 240 -45q108 -45 163.5 -138.5t55.5 -205.5q0 -122 -60 -211t-174 -133q37 -24 72 -57.5t61 -63t61.5 -81t55.5 -83.5t62 -100q53 -87 190 -279h-238q-15 22 -137.5 210t-148.5 222q-40 51 -75.5 85.5t-61 52.5t-57.5 26.5t-51 10t-56 1.5h-54v-608
h-198v1397zM420 1227h-62v-441h78q137 0 195 21q66 26 99.5 82t33.5 119q0 61 -29 112t-78 74q-67 33 -237 33z" />
    <glyph glyph-name="S" unicode="S" horiz-adv-x="937" 
d="M817 1317v-227q-150 145 -328 145q-100 0 -160.5 -47t-60.5 -115q0 -75 56 -131q49 -49 219 -149q22 -13 73 -43q117 -70 181 -156q75 -96 75 -232q0 -167 -111 -273.5t-294 -106.5q-206 0 -377 129v254q165 -205 377 -205q85 0 151 50t66 134q0 41 -18.5 80.5
t-49.5 70.5t-58.5 52t-57.5 39q-181 109 -242 152t-104 98q-70 90 -70 208q0 161 113 266t299 105q172 0 321 -98z" />
    <glyph glyph-name="T" unicode="T" horiz-adv-x="1236" 
d="M1202 1397v-176h-487v-1221h-201v1221h-479v176h1167z" />
    <glyph glyph-name="U" unicode="U" horiz-adv-x="1449" 
d="M1325 1397v-793q0 -56 -1 -89t-9 -93t-23.5 -103t-47.5 -94.5t-77 -91.5q-170 -151 -440 -151q-162 0 -304 59.5t-220 183.5q-36 56 -54.5 136t-21 126.5t-2.5 116.5v793h201v-793q0 -141 17.5 -208t70.5 -120q112 -116 313 -116q79 0 144.5 18.5t107.5 49t66.5 58.5
t41.5 58q39 71 39 260v793h199z" />
    <glyph glyph-name="V" unicode="V" horiz-adv-x="1236" 
d="M1237 1397l-590 -1405h-45l-602 1405h201l420 -981l417 981h199z" />
    <glyph glyph-name="W" unicode="W" horiz-adv-x="2134" 
d="M2132 1397l-565 -1405h-43l-457 1138l-461 -1138h-43l-563 1405h201l385 -963l387 963h190l389 -963l381 963h199z" />
    <glyph glyph-name="X" unicode="X" horiz-adv-x="1449" 
d="M1407 1397l-557 -674l596 -723h-242l-475 578l-481 -578h-244l602 723l-559 674h244l438 -533l436 533h242z" />
    <glyph glyph-name="Y" unicode="Y" horiz-adv-x="1236" 
d="M1237 1397l-516 -658v-739h-205v739l-516 658h242l374 -482l379 482h242z" />
    <glyph glyph-name="Z" unicode="Z" horiz-adv-x="1323" 
d="M1286 1397l-893 -1221h893v-176h-1261l895 1221h-838v176h1204z" />
    <glyph glyph-name="bracketleft" unicode="[" horiz-adv-x="681" 
d="M653 1397v-166h-280v-1520h280v-164h-477v1850h477z" />
    <glyph glyph-name="backslash" unicode="\" horiz-adv-x="575" 
d="M416 -18l-402 1433h146l401 -1433h-145z" />
    <glyph glyph-name="bracketright" unicode="]" horiz-adv-x="681" 
d="M31 -453v164h278v1522h-278v164h475v-1850h-475z" />
    <glyph glyph-name="asciicircum" unicode="^" horiz-adv-x="960" 
d="M238 596h-185l355 801h145l354 -801h-182l-246 598z" />
    <glyph glyph-name="underscore" unicode="_" 
d="M-12 -154h1048v-102h-1048v102z" />
    <glyph glyph-name="grave" unicode="`" horiz-adv-x="681" 
d="M328 1337l137 -301h-113l-229 301h205z" />
    <glyph glyph-name="a" unicode="a" horiz-adv-x="874" 
d="M850 164v-111q-65 -42 -99.5 -56.5t-76.5 -14.5q-60 0 -93.5 22.5t-45.5 71.5q-119 -94 -248 -94q-99 0 -162.5 66.5t-63.5 158.5q0 51 20.5 94t42 68t75 53.5t77 38t89.5 33.5q7 3 10 4l162 57v49q0 85 -40.5 123.5t-125.5 38.5q-162 0 -291 -152v199q107 125 305 125
q148 0 241 -76.5t93 -226.5v-473q0 -47 35 -47q31 0 96 49zM537 186v269q-55 -19 -91 -32.5t-78 -34.5t-65.5 -41t-40 -47.5t-16.5 -59.5q0 -57 37 -93t94 -36q82 0 160 75z" />
    <glyph glyph-name="b" unicode="b" 
d="M303 1397v-543q113 84 254 84q120 0 211 -63.5t137.5 -169.5t46.5 -236q0 -118 -38.5 -212.5t-104.5 -154t-151 -91t-181 -31.5q-90 0 -190.5 19.5t-165.5 51.5v1346h182zM303 680v-498q90 -28 193 -28q44 0 89 16.5t87.5 50.5t69 96.5t26.5 143.5q0 147 -76 228t-182 81
t-207 -90z" />
    <glyph glyph-name="c" unicode="c" horiz-adv-x="894" 
d="M799 874v-194q-37 24 -64 39t-82 32t-110 17q-68 0 -123.5 -27.5t-89 -72t-51 -98t-17.5 -109.5q0 -60 18.5 -113.5t55 -97.5t99 -70t143.5 -26q107 0 241 61v-180q-1 0 -20 -7t-29 -10t-32 -9.5t-40 -10t-43 -8t-51 -6.5t-53 -2q-115 0 -207 38t-149 104t-87 150.5
t-30 180.5q0 69 15.5 136t50.5 130.5t86 111t129 76.5t173 29q55 0 108.5 -11t81.5 -21.5t77 -31.5z" />
    <glyph glyph-name="d" unicode="d" horiz-adv-x="1044" 
d="M926 1397v-1397h-389q-103 0 -184 33t-129 82.5t-79.5 115.5t-43 125.5t-11.5 118.5q0 144 66 251.5t167.5 159.5t219.5 52q100 0 198 -37v496h185zM741 154v585q-84 43 -170 43q-126 0 -211.5 -83t-85.5 -246q0 -108 38 -174.5t98 -96.5q35 -18 74.5 -23t117.5 -5h139z
" />
    <glyph glyph-name="e" unicode="e" horiz-adv-x="980" 
d="M897 268v-178q-34 -22 -58.5 -35.5t-70.5 -33t-104.5 -29.5t-126.5 -10q-89 0 -166 25.5t-152 103.5q-137 142 -137 354q0 213 120.5 343t309.5 130q157 0 262 -99.5t129 -256.5q10 -61 10 -138h-647q2 -53 21 -103t54 -92t92.5 -67.5t129.5 -25.5q182 0 334 112z
M270 553h463q-1 20 -3.5 39t-16.5 56t-35.5 63.5t-65.5 47.5t-102 21q-46 0 -93.5 -19.5t-82.5 -58.5q-50 -54 -64 -149z" />
    <glyph glyph-name="f" unicode="f" horiz-adv-x="532" 
d="M606 1397v-178q-40 16 -84 16q-31 0 -56.5 -6t-44 -14.5t-33 -24t-24 -29t-16 -35.5t-9.5 -37t-5 -39.5t-2 -37.5v-37v-55h164v-164h-164v-756h-185v756h-129v164h129v55q0 149 48 258q42 83 115.5 132.5t160.5 49.5q65 0 135 -18z" />
    <glyph glyph-name="g" unicode="g" horiz-adv-x="874" 
d="M862 920v-142h-188q54 -54 75 -98t21 -102q0 -54 -26 -113.5t-60 -93.5q-41 -43 -109.5 -66.5t-124 -29t-97.5 -23.5t-42 -55q0 -36 66.5 -62.5t214.5 -56.5q266 -53 266 -256q0 -137 -115 -215t-319 -78q-186 0 -305 78t-119 200q0 102 55.5 163.5t175.5 90.5
q-92 57 -92 117q0 44 40 80t106 51v4q-101 43 -154 117q-49 70 -49 172q0 148 107.5 233t293.5 85h379zM606 600q0 66 -53 114t-125 48q-75 0 -128.5 -49t-53.5 -117q0 -75 50.5 -121.5t133.5 -46.5q77 0 126.5 48.5t49.5 123.5zM682 -193q0 41 -30.5 72t-78.5 46.5
t-96.5 22.5t-95.5 7q-92 0 -150.5 -39t-58.5 -100q0 -69 66 -105.5t190 -36.5q120 0 187 35t67 98z" />
    <glyph glyph-name="h" unicode="h" 
d="M307 1397v-598q55 65 128.5 102t154.5 37q97 0 170 -50t104 -124q35 -85 35 -240v-524h-182v569q0 83 -33 142q-24 39 -63.5 61.5t-81.5 22.5q-63 0 -116 -32.5t-116 -103.5v-659h-182v1397h182z" />
    <glyph glyph-name="i" unicode="i" horiz-adv-x="448" 
d="M223 1307q45 0 77 -32t32 -75t-32.5 -75.5t-76.5 -32.5q-48 0 -77 34.5t-29 73.5q0 40 31 73.5t75 33.5zM315 920v-920h-182v920h182z" />
    <glyph glyph-name="j" unicode="j" horiz-adv-x="448" 
d="M213 1307q41 0 75 -29t34 -78q0 -44 -29 -76t-78 -32q-50 0 -79.5 35t-29.5 73q0 40 31.5 73.5t75.5 33.5zM309 920v-975q0 -46 -0.5 -69.5t-4 -65.5t-10 -66.5t-20 -59t-32.5 -58.5t-49 -50t-68 -47l-137 133q11 4 20.5 8.5t18 10t16 10.5t14 11.5t11 10.5t10 10.5
t7.5 9.5t6.5 8.5t4.5 6.5q15 25 21.5 54.5t7 52.5t0.5 100v965h184z" />
    <glyph glyph-name="k" unicode="k" horiz-adv-x="980" 
d="M944 920l-393 -451l473 -469h-244l-461 469l408 451h217zM311 1397v-1397h-184v1397h184z" />
    <glyph glyph-name="l" unicode="l" horiz-adv-x="448" 
d="M315 1397v-1397h-182v1397h182z" />
    <glyph glyph-name="m" unicode="m" horiz-adv-x="1579" 
d="M121 920h180v-121q78 78 140 108.5t134 30.5q84 0 155.5 -43.5t115.5 -122.5q92 92 157.5 129t145.5 37q149 0 228 -95t79 -270v-573h-180v561q0 107 -50.5 164t-140.5 57q-52 0 -108 -31.5t-98 -82.5v-668h-181v551q0 51 -7 89t-25.5 72.5t-56.5 53t-93 18.5
q-117 0 -215 -116v-668h-180v920z" />
    <glyph glyph-name="n" unicode="n" 
d="M125 920h186v-117q59 66 134 100.5t143 34.5q26 0 55 -5.5t67 -20t74.5 -45.5t63.5 -76q26 -40 38.5 -96t12.5 -171v-524h-184v524q0 86 -7.5 126.5t-41.5 78.5q-51 57 -138 57q-62 0 -118.5 -34t-98.5 -95v-657h-186v920z" />
    <glyph glyph-name="o" unicode="o" horiz-adv-x="1130" 
d="M569 938q209 0 348.5 -133t139.5 -348q0 -95 -29.5 -175t-79 -134.5t-114 -92.5t-133 -55.5t-138.5 -17.5q-144 0 -256.5 65t-172.5 174t-60 240q0 130 58.5 237.5t173 173.5t263.5 66zM559 774q-128 0 -213.5 -84t-85.5 -231q0 -83 28.5 -146t75 -98t98 -52.5
t105.5 -17.5q135 0 219 88t84 228q0 66 -20 120.5t-51.5 89.5t-73.5 59t-83.5 34t-82.5 10z" />
    <glyph glyph-name="p" unicode="p" 
d="M117 920h319q27 0 64.5 -2t122.5 -21.5t141 -54.5q58 -37 98.5 -89.5t59 -108t25.5 -99.5t7 -86q0 -204 -127 -340.5t-329 -136.5q-15 0 -29.5 0.5t-28.5 2.5l-24.5 3.5t-23.5 5t-20.5 5.5t-20 6.5t-17 6t-17 6t-14.5 5.5v-494h-186v1391zM432 750h-129v-566
q84 -43 176 -43q125 0 207 87t82 231q0 60 -14.5 107.5t-35.5 77.5t-54.5 51.5t-60.5 31.5t-65.5 16t-57.5 6.5t-48 0.5z" />
    <glyph glyph-name="q" unicode="q" 
d="M905 920v-1391h-180v487q-109 -34 -201 -34q-123 0 -225 56t-164.5 164.5t-62.5 248.5q0 58 12.5 116.5t46.5 123.5t87 114.5t142 82t203 32.5h342zM725 174v576h-115q-53 0 -82 -1t-69 -10t-68 -26q-135 -89 -135 -258q0 -138 83 -229t220 -91q34 0 59 6t107 33z" />
    <glyph glyph-name="r" unicode="r" horiz-adv-x="790" 
d="M121 920h182v-211q32 50 52 77.5t57.5 69t78.5 62t87 20.5q107 0 215 -104l-97 -160q-29 29 -79 59.5t-97 30.5q-28 0 -63 -15.5t-70.5 -46.5t-59.5 -89t-24 -132v-481h-182v920z" />
    <glyph glyph-name="s" unicode="s" horiz-adv-x="788" 
d="M662 862v-180q-81 50 -143.5 74t-123.5 24q-59 0 -87.5 -25.5t-28.5 -56.5q0 -39 37.5 -69t144.5 -90q11 -6 16 -9q230 -126 230 -288q0 -29 -8.5 -60.5t-31 -68t-56.5 -65t-91.5 -47.5t-128.5 -19q-87 0 -154 21t-153 63v196q89 -61 169 -91t124 -30q49 0 94 26.5
t45 68.5q0 24 -8.5 42.5t-31.5 37t-41.5 30t-59.5 33.5q-55 30 -89 51t-76 53t-65 61t-39 69t-16 85q0 103 81.5 171.5t211.5 68.5q137 0 279 -76z" />
    <glyph glyph-name="t" unicode="t" horiz-adv-x="710" 
d="M342 1110v-190h291v-164h-291v-402q2 -89 7 -116.5t26 -51.5q37 -39 98 -39q99 0 207 66v-170q-112 -61 -236 -61q-59 0 -128 27.5t-111 88.5q-21 32 -31.5 79.5t-12 80t-1.5 90.5v408h-160v18z" />
    <glyph glyph-name="u" unicode="u" 
d="M897 0h-184v117q-60 -66 -135.5 -100.5t-143.5 -34.5q-26 0 -55 5.5t-67 20t-74.5 45.5t-63.5 76q-26 40 -38.5 95.5t-12.5 170.5v525h184v-525q0 -30 0.5 -48t4 -49t10.5 -50.5t20.5 -43.5t33 -38t49.5 -23.5t69 -9.5q63 0 120 34.5t99 94.5v658h184v-920z" />
    <glyph glyph-name="v" unicode="v" horiz-adv-x="894" 
d="M889 920l-406 -938h-61l-416 938h199l248 -566l239 566h197z" />
    <glyph glyph-name="w" unicode="w" horiz-adv-x="1472" 
d="M1473 920l-406 -938h-57l-273 643l-268 -643h-59l-410 938h195l241 -558l234 558h135l233 -558l240 558h195z" />
    <glyph glyph-name="x" unicode="x" 
d="M997 920l-379 -453l406 -467h-233l-289 330l-273 -330h-229l387 467l-387 453h229l273 -316l262 316h233z" />
    <glyph glyph-name="y" unicode="y" horiz-adv-x="894" 
d="M897 920l-651 -1391h-203l313 668l-356 723h207l248 -519l237 519h205z" />
    <glyph glyph-name="z" unicode="z" horiz-adv-x="854" 
d="M829 920l-487 -752h487v-168h-806l483 750h-463v170h786z" />
    <glyph glyph-name="braceleft" unicode="{" horiz-adv-x="681" 
d="M580 1397h57v-152h-33q-124 0 -147 -52t-23 -294q0 -90 -9.5 -157t-25.5 -111t-44 -77t-57.5 -52.5t-74.5 -40.5q45 -18 78 -42.5t56 -48.5t37.5 -68.5t22.5 -76t12 -99.5t4.5 -111t0.5 -136q0 -67 7.5 -106t29 -60.5t51 -28t82.5 -6.5h33v-153h-57q-33 0 -51 0.5t-53 6
t-56.5 15t-50.5 30t-46.5 49.5t-32.5 74t-20 103q-4 33 -7 190.5t-3 158.5q-13 226 -203 231v158q34 1 61.5 8.5t47.5 18.5t35.5 31t26 37.5t17.5 47.5t11 51.5t5.5 58.5t2 60t0.5 64q1 99 2.5 139.5t7.5 97t20 89.5t38 65q25 31 56 50.5t68.5 27t61 9t62.5 1.5z" />
    <glyph glyph-name="bar" unicode="|" horiz-adv-x="532" 
d="M188 -475v1872h156v-1872h-156z" />
    <glyph glyph-name="braceright" unicode="}" horiz-adv-x="681" 
d="M102 -475h-55v153h31q125 0 148.5 52t23.5 293q0 113 13 188.5t42.5 123.5t63.5 74t90 52q-45 18 -77.5 43t-55 49t-37.5 68.5t-23 76t-11.5 99t-4 111t-0.5 136.5q0 88 -16.5 130.5t-50.5 56.5t-105 14h-31v152h55q33 0 51.5 -0.5t53.5 -6t57 -15.5t51 -30.5t46.5 -49
t32.5 -74t20 -103.5q2 -31 4.5 -182.5t3.5 -165.5q13 -224 203 -229v-158q-59 -2 -99.5 -25t-61 -51.5t-31 -86t-12.5 -97t-3 -114.5v-5q0 -178 -10.5 -254t-57.5 -137q-24 -31 -54.5 -50.5t-68.5 -27t-61.5 -9t-63.5 -1.5z" />
    <glyph glyph-name="asciitilde" unicode="~" horiz-adv-x="1193" 
d="M86 537v202q57 64 131.5 92.5t147.5 28.5q111 0 272 -69q94 -40 132 -52t81 -12q123 0 258 135v-211q-118 -114 -277 -114q-108 0 -243 61q-60 27 -89.5 39.5t-72 23.5t-80.5 11q-42 0 -79 -10.5t-73.5 -36t-53 -39.5t-54.5 -49z" />
    <glyph glyph-name="uni00A0" unicode="&#xa0;" horiz-adv-x="569" 
 />
    <glyph glyph-name="exclamdown" unicode="&#xa1;" horiz-adv-x="555" 
d="M152 924q0 48 34.5 85.5t89.5 37.5q50 0 87.5 -34t37.5 -89q0 -51 -33 -89t-89 -38q-57 0 -92 38.5t-35 88.5zM276 -393q-114 0 -114 287q0 266 71 626q2 22 16 61.5t27 39.5q34 0 73.5 -266t39.5 -455q0 -293 -113 -293z" />
    <glyph glyph-name="cent" unicode="&#xa2;" horiz-adv-x="894" 
d="M834 1270l-129 -359q78 -29 92 -39v-192q-65 52 -150 74l-209 -576q75 -26 125 -26q63 0 134.5 17t119.5 46v-176q-147 -59 -278 -59q-92 0 -162 20l-141 -389h-97l158 428q-33 19 -65.5 48.5t-70 78t-60.5 122t-23 158.5q0 218 123 355t338 137q52 0 79 -6l121 338h95z
M362 223l197 545q-126 5 -211.5 -78.5t-85.5 -234.5q0 -142 100 -232z" />
    <glyph glyph-name="sterling" unicode="&#xa3;" horiz-adv-x="1087" 
d="M682 764v-178h-209l-102 -387q40 4 75 4q117 0 185 -13q83 -15 110.5 -18.5t71.5 -3.5q129 0 203 45v-195q-110 -36 -205 -36q-72 0 -225 26q-53 8 -150 8q-176 0 -315 -34l162 604h-148v178h195q24 87 51.5 164.5t74 170.5t100 159.5t129.5 111.5t161 45q38 0 74 -8
l114 -213q-27 17 -76 23q-40 8 -73 8q-220 0 -338 -398l-21 -63h156z" />
    <glyph glyph-name="currency" unicode="&#xa4;" horiz-adv-x="1130" 
d="M213 934l-139 137l114 119l140 -141q105 73 237 73q129 0 238 -73l139 141l115 -119l-139 -137q71 -112 71 -236q0 -123 -71 -235l139 -135l-115 -119l-139 139q-110 -74 -238 -74q-131 0 -237 74l-140 -139l-114 119l139 135q-72 113 -72 235q0 123 72 236zM305 698
q0 -107 76 -183.5t182 -76.5q107 0 183.5 76.5t76.5 183.5t-76.5 183.5t-183.5 76.5q-106 0 -182 -76.5t-76 -183.5z" />
    <glyph glyph-name="yen" unicode="&#xa5;" horiz-adv-x="1130" 
d="M477 0v319h-416v144h416v149h-416v144h342l-405 710h201l288 -516q50 -89 76 -153q14 33 82 161l275 508h213l-404 -710h340v-144h-412v-149h412v-144h-412v-319h-180z" />
    <glyph glyph-name="brokenbar" unicode="&#xa6;" horiz-adv-x="532" 
d="M188 -475v766h156v-766h-156zM188 633v764h156v-764h-156z" />
    <glyph glyph-name="section" unicode="&#xa7;" horiz-adv-x="831" 
d="M508 1214l2 27q0 15 -15.5 29t-48.5 14q-55 0 -96 -33.5t-41 -105.5q0 -129 180 -299q96 -89 133.5 -129.5t73.5 -100.5q70 -115 70 -233q0 -100 -40 -172.5t-112 -144.5q72 -104 72 -226q0 -127 -89 -219t-226 -92q-104 0 -173 50t-69 132q0 48 30.5 87.5t82.5 39.5
q40 0 69 -25.5t29 -72.5q0 -3 -3 -21.5t-3 -21.5q0 -16 14.5 -26.5t32.5 -10.5q55 0 101 41.5t46 108.5q0 27 -7.5 55t-27.5 60.5t-34.5 54t-48 58.5t-46.5 51t-51 54q-44 45 -69.5 72.5t-64 78.5t-59.5 95t-37.5 104.5t-16.5 124.5q0 56 15 105t42 87t41.5 54t36.5 37
q-58 97 -58 197q0 33 8.5 71.5t31 83t55.5 80t89 59t126 23.5q39 0 79 -9t78 -28t62 -54.5t24 -82.5q0 -53 -31 -83t-75 -30q-42 0 -62 28t-20 58zM385 692l-98 94q-23 -27 -32.5 -40.5t-21.5 -45t-12 -67.5q0 -44 14 -84.5t48 -87t62 -79t85 -91.5l100 -107
q23 23 49.5 71.5t26.5 100.5q0 75 -44 142t-177 194z" />
    <glyph glyph-name="dieresis" unicode="&#xa8;" horiz-adv-x="681" 
d="M150 1286q38 0 66 -28t28 -66t-28 -66t-66 -28t-66.5 28t-28.5 66t28.5 66t66.5 28zM535 1286q38 0 66 -28t28 -66t-28 -66t-66 -28t-66.5 28t-28.5 66t28.5 66t66.5 28z" />
    <glyph glyph-name="copyright" unicode="&#xa9;" horiz-adv-x="1515" 
d="M999 539l123 -37q-22 -94 -81 -157.5t-130 -89.5t-153 -26q-176 0 -286 114.5t-110 315.5q0 197 107.5 310.5t296.5 113.5q123 0 215 -58.5t127 -176.5l-119 -29q-23 58 -63 94q-67 60 -164 60q-69 0 -121.5 -28t-82 -75t-44 -101.5t-14.5 -113.5q0 -152 70.5 -230.5
t181.5 -78.5q20 0 42.5 3.5t55 15.5t59.5 31.5t52.5 56.5t37.5 86zM758 1415q153 0 292 -59.5t240 -160t161 -240t60 -293.5q0 -205 -100.5 -379t-274 -275.5t-378.5 -101.5q-154 0 -294 60t-241 161t-161 241t-60 294q0 206 102 379.5t276 273.5t378 100zM758 1290
q-170 0 -314.5 -83.5t-229.5 -228t-85 -316.5q0 -128 49.5 -245t134 -201.5t201 -134.5t244.5 -50q127 0 243.5 50t200.5 134.5t134 201.5t50 245q0 129 -50 245.5t-134.5 200t-200.5 133t-243 49.5z" />
    <glyph glyph-name="ordfeminine" unicode="&#xaa;" horiz-adv-x="575" 
d="M559 973v-88q-27 -17 -42 -25t-39 -15t-50 -7q-71 0 -94 47q-70 -47 -154 -47q-64 0 -106.5 43t-42.5 100q0 32 16.5 60t37 45t54.5 33t53.5 22.5t49.5 15.5l92 27v26q0 17 -2 28t-9.5 27.5t-28 25.5t-52.5 9q-33 0 -63 -9t-58.5 -30t-41 -31.5t-38.5 -35.5v141
q109 80 217 80q48 0 99.5 -19t78.5 -53q17 -20 26 -49.5t10 -50.5t1 -59v-211q0 -24 2 -32.5t12 -8.5q11 0 72 41zM334 965v147l-64 -22q-57 -21 -77.5 -41.5t-20.5 -51.5q0 -30 19 -49.5t53 -19.5q7 0 14.5 1t13 2t13 4.5t11 5t11 6t9 5.5l10.5 7z" />
    <glyph glyph-name="guillemotleft" unicode="&#xab;" horiz-adv-x="1003" 
d="M956 0h-180l-301 461l301 459h180l-303 -459zM541 0h-181l-303 461l303 459h181l-303 -459z" />
    <glyph glyph-name="logicalnot" unicode="&#xac;" horiz-adv-x="1193" 
d="M1081 391h-168v447h-800v168h968v-615z" />
    <glyph glyph-name="uni00AD" unicode="&#xad;" horiz-adv-x="661" 
d="M580 551v-195h-498v195h498z" />
    <glyph glyph-name="registered" unicode="&#xae;" horiz-adv-x="1515" 
d="M426 244v811h281q61 0 98 -2t87.5 -15t82.5 -39q78 -68 78 -163q0 -36 -13 -72.5t-39.5 -71t-73 -58.5t-106.5 -28q42 -16 81.5 -55t107.5 -150l98 -157h-160l-71 129q-75 133 -120 174t-122 41h-78v-344h-131zM557 944v-244h160q27 0 44.5 1t49.5 7.5t51.5 18.5t35 37
t15.5 61q0 25 -7.5 44t-18.5 31.5t-30.5 21t-34.5 13t-40 6.5t-38 2.5t-37 0.5h-150zM758 1415q153 0 292 -59.5t240 -160t161 -240t60 -293.5q0 -205 -100.5 -379t-274 -275.5t-378.5 -101.5q-154 0 -294 60t-241 161t-161 241t-60 294q0 206 102 379.5t276 273.5t378 100z
M758 1290q-170 0 -314.5 -83.5t-229.5 -228t-85 -316.5q0 -128 49.5 -245t134 -201.5t201 -134.5t244.5 -50q127 0 243.5 50t200.5 134.5t134 201.5t50 245q0 129 -50 245.5t-134.5 200t-200.5 133t-243 49.5z" />
    <glyph glyph-name="macron" unicode="&#xaf;" horiz-adv-x="681" 
d="M680 1266v-150h-678v150h678z" />
    <glyph glyph-name="degree" unicode="&#xb0;" horiz-adv-x="811" 
d="M127 1139q0 115 81.5 195.5t197.5 80.5t196 -80.5t80 -195.5q0 -117 -81 -198t-195 -81q-115 0 -197 81.5t-82 197.5zM236 1139q0 -70 50.5 -120t119.5 -50t118 50t49 120q0 69 -49 118.5t-118 49.5q-70 0 -120 -49.5t-50 -118.5z" />
    <glyph glyph-name="plusminus" unicode="&#xb1;" horiz-adv-x="1193" 
d="M1081 -25h-968v168h968v-168zM514 238v399h-401v168h401v401h168v-401h399v-168h-399v-399h-168z" />
    <glyph glyph-name="two.superior" unicode="&#xb2;" horiz-adv-x="661" 
d="M604 670v-111h-547v14q140 140 254 285q53 66 71.5 110t18.5 87q0 47 -24 77t-51 39t-56 9q-104 0 -194 -119v160q93 73 209 73q113 0 186.5 -64t73.5 -163q0 -49 -18.5 -98t-60.5 -105t-74 -92t-95 -102h307z" />
    <glyph glyph-name="three.superior" unicode="&#xb3;" horiz-adv-x="661" 
d="M94 594v129q102 -59 193 -59q13 0 27.5 2.5t38 11.5t38.5 32t15 58q0 25 -7 44t-22 30.5t-29 19t-38 11.5t-37.5 5.5t-39.5 2.5v106q25 0 41.5 1t42.5 6t42 15.5t28 31t12 49.5q0 39 -31.5 68.5t-97.5 29.5q-31 0 -62 -7t-45.5 -13t-47.5 -21v113q71 34 168 34
q48 0 91.5 -10.5t81.5 -32t60.5 -61.5t22.5 -94q0 -104 -97 -154q38 -14 63.5 -39.5t34 -55t11 -44.5t2.5 -31q0 -98 -77.5 -160.5t-188.5 -62.5q-87 0 -193 45z" />
    <glyph glyph-name="acute" unicode="&#xb4;" horiz-adv-x="681" 
d="M547 1337l-225 -301h-113l135 301h203z" />
    <glyph glyph-name="mu" unicode="&#xb5;" horiz-adv-x="1069" 
d="M719 338v582h182v-641q0 -4 -1 -19.5t-1 -19.5q0 -37 14.5 -57.5t40.5 -20.5q33 0 93 33v-144q-151 -69 -236 -69q-28 0 -47 8.5t-28 25t-12 30t-5 34.5q-44 -46 -88 -72t-105 -26q-23 0 -43.5 3.5t-39 12.5t-31.5 15.5t-30.5 22.5t-25 23t-25.5 26.5t-24 25.5v-580h-182
v1389h182v-668q47 -58 95.5 -89.5t111.5 -31.5q84 0 144.5 60t60.5 147z" />
    <glyph glyph-name="paragraph" unicode="&#xb6;" horiz-adv-x="1110" 
d="M406 -475v1044q-100 5 -179 40.5t-127 92t-73 126t-25 147.5q0 125 56 226.5t165 148.5q49 22 99.5 33t78 12.5t72.5 1.5h633v-172h-143v-1700h-166v1700h-224v-1700h-167z" />
    <glyph glyph-name="periodcentered" unicode="&#xb7;" horiz-adv-x="532" 
d="M266 819q46 0 78.5 -33t32.5 -79t-32.5 -78.5t-78.5 -32.5t-78 32.5t-32 78.5q0 47 32.5 79.5t77.5 32.5z" />
    <glyph glyph-name="cedilla" unicode="&#xb8;" horiz-adv-x="681" 
d="M428 16l-14 -49q62 -15 87 -55t25 -80q0 -42 -24 -82.5t-56 -62.5q-55 -37 -174 -37q-44 0 -65 6v113q56 -5 63 -5q22 0 44.5 4t43.5 17.5t21 34.5q0 23 -16.5 37t-40 16t-39 2t-23.5 -2l51 143h117z" />
    <glyph glyph-name="one.superior" unicode="&#xb9;" horiz-adv-x="661" 
d="M401 1286v-727h-141v727h141z" />
    <glyph glyph-name="ordmasculine" unicode="&#xba;" horiz-adv-x="747" 
d="M700 1126q0 -121 -91 -203.5t-236 -82.5q-144 0 -235 82.5t-91 203.5q0 122 91 205.5t235 83.5q146 0 236.5 -83.5t90.5 -205.5zM559 1128q0 50 -18.5 87t-48 56t-59 27.5t-58.5 8.5q-30 0 -60 -8.5t-59 -27.5t-47.5 -56t-18.5 -87t18.5 -86.5t48.5 -55t59 -26.5t59 -8
q29 0 58 8t59 26.5t48.5 55t18.5 86.5z" />
    <glyph glyph-name="guillemotright" unicode="&#xbb;" horiz-adv-x="1003" 
d="M47 920h178l303 -461l-303 -459h-178l303 459zM463 920h178l303 -461l-303 -459h-178l303 459z" />
    <glyph glyph-name="onequarter" unicode="&#xbc;" horiz-adv-x="1728" 
d="M1587 737v-401h92v-100h-92v-236h-139v236h-348v51l420 450h67zM1448 336v172l-160 -172h160zM399 1407v-727h-141v727h141zM1423 1415l-931 -1470h-138l930 1470h139z" />
    <glyph glyph-name="onehalf" unicode="&#xbd;" horiz-adv-x="1728" 
d="M399 1407v-727h-141v727h141zM1362 1415l-932 -1470h-137l932 1470h137zM1673 111v-111h-547v14q140 140 254 285q53 67 71.5 111t18.5 86q0 47 -24 77.5t-51.5 40t-55.5 9.5q-33 0 -62.5 -10t-55.5 -32t-40 -36.5t-38 -42.5v162q105 73 211 73q114 0 187 -64t73 -163
q0 -49 -18.5 -98t-60 -104t-75.5 -93t-98 -104h311z" />
    <glyph glyph-name="threequarters" unicode="&#xbe;" horiz-adv-x="1728" 
d="M92 715v129q103 -60 193 -60q9 0 19.5 1t29.5 7t33 16.5t25 31.5t11 49q0 25 -7 44t-22 30.5t-28.5 19t-38 11t-37.5 5t-39 2.5v107q26 0 41 0.5t42 6t42.5 15.5t28 30.5t12.5 49.5q0 39 -31.5 69t-97.5 30q-67 0 -155 -41v112q73 35 168 35q48 0 91.5 -10.5t81.5 -32
t60.5 -61.5t22.5 -94q0 -104 -97 -154q42 -15 68.5 -47t34.5 -62t8 -61q0 -98 -77.5 -160.5t-188.5 -62.5q-87 0 -193 45zM1399 1415l-932 -1470h-137l930 1470h139zM1587 737v-401h92v-100h-92v-236h-139v236h-348v51l420 450h67zM1448 336v172l-160 -172h160z" />
    <glyph glyph-name="questiondown" unicode="&#xbf;" horiz-adv-x="681" 
d="M594 -174l-133 -217q-114 0 -185 43q-75 42 -109 112.5t-34 141.5q0 57 12.5 111t41 112t53 99t69.5 110q22 32 47.5 73.5t55.5 107.5t30 104q0 21 -6 45q21 -11 31 -16.5t31.5 -23t32.5 -35t20.5 -49t9.5 -69.5q0 -72 -28 -133t-109 -188q-45 -74 -64.5 -125t-19.5 -101
q0 -41 15.5 -70t39.5 -42t44.5 -18t39.5 -5q41 0 115 33zM287 922q0 52 38 86t87 34q50 0 86.5 -32.5t36.5 -87.5t-37.5 -90t-85.5 -35q-46 0 -85.5 33t-39.5 92z" />
    <glyph glyph-name="Agrave" unicode="&#xc0;" horiz-adv-x="1366" 
d="M741 1405l625 -1405h-205l-186 412h-594l-176 -412h-205l600 1405h141zM459 592h434l-225 506zM688 1800l150 -307h-107l-336 307h293z" />
    <glyph glyph-name="Aacute" unicode="&#xc1;" horiz-adv-x="1366" 
d="M741 1405l625 -1405h-205l-186 412h-594l-176 -412h-205l600 1405h141zM459 592h434l-225 506zM684 1800h293l-336 -307h-106z" />
    <glyph glyph-name="Acircumflex" unicode="&#xc2;" horiz-adv-x="1366" 
d="M741 1405l625 -1405h-205l-186 412h-594l-176 -412h-205l600 1405h141zM459 592h434l-225 506zM1024 1493h-127l-213 195l-215 -195h-125l193 322h290z" />
    <glyph glyph-name="Atilde" unicode="&#xc3;" horiz-adv-x="1366" 
d="M741 1405l625 -1405h-205l-186 412h-594l-176 -412h-205l600 1405h141zM459 592h434l-225 506zM455 1493h-107q13 116 70 182t137 66q40 0 73 -12t115 -52q81 -37 103 -37q56 0 69 101h107q-7 -115 -64.5 -181.5t-134.5 -66.5q-36 0 -65.5 10.5t-136.5 57.5
q-71 32 -97 32q-14 0 -24.5 -6.5t-16.5 -13.5t-12 -24t-8.5 -25.5t-7.5 -30.5z" />
    <glyph glyph-name="Adieresis" unicode="&#xc4;" horiz-adv-x="1366" 
d="M741 1405l625 -1405h-205l-186 412h-594l-176 -412h-205l600 1405h141zM459 592h434l-225 506zM895 1761q44 0 76.5 -32t32.5 -76t-32.5 -76.5t-76.5 -32.5t-76.5 32.5t-32.5 76.5t32.5 76t76.5 32zM473 1761q44 0 76.5 -32t32.5 -76t-32.5 -76.5t-76.5 -32.5t-76 32.5
t-32 76.5t32 76t76 32z" />
    <glyph glyph-name="Aring" unicode="&#xc5;" horiz-adv-x="1366" 
d="M741 1405l625 -1405h-205l-186 412h-594l-176 -412h-205l600 1405h141zM459 592h434l-225 506zM684 1907q92 0 149.5 -65t57.5 -142q0 -83 -57.5 -145t-149.5 -62q-91 0 -149 62t-58 145q0 86 60.5 146.5t146.5 60.5zM684 1587q46 0 79.5 33.5t33.5 79.5t-33.5 79
t-79.5 33t-79.5 -33t-33.5 -79t33.5 -79.5t79.5 -33.5z" />
    <glyph glyph-name="AE" unicode="&#xc6;" horiz-adv-x="1835" 
d="M1743 1397v-178h-574v-422h555v-181h-555v-436h596v-180h-796v616h-381l-365 -616h-219l827 1397h912zM969 797v465l-277 -465h277z" />
    <glyph glyph-name="Ccedilla" unicode="&#xc7;" horiz-adv-x="1449" 
d="M1358 322v-213q-89 -54 -212.5 -91.5t-250.5 -40.5q72 -11 114 -51.5t42 -105.5q0 -68 -54 -118.5t-128.5 -73.5t-153.5 -23q-55 0 -133 8v129q20 -4 104 -4q156 0 156 65q0 24 -21 39.5t-48.5 18.5t-55 5t-39.5 -1l51 135q-143 15 -264 81t-200 163t-123 215.5
t-44 240.5q0 109 33.5 213.5t100 195t157 159t212 108t257.5 39.5q98 0 197 -21t152 -41t136 -55v-215q-47 26 -78 40.5t-100 43t-144 43.5t-151 15q-162 0 -291 -69.5t-200.5 -191t-71.5 -270.5q0 -156 76.5 -279t200.5 -187t270 -64q251 0 504 158z" />
    <glyph glyph-name="Egrave" unicode="&#xc8;" horiz-adv-x="1067" 
d="M946 1397v-178h-592v-426h572v-179h-572v-434h611v-180h-811v1397h792zM549 1800l149 -307h-106l-336 307h293z" />
    <glyph glyph-name="Eacute" unicode="&#xc9;" horiz-adv-x="1067" 
d="M946 1397v-178h-592v-426h572v-179h-572v-434h611v-180h-811v1397h792zM596 1800h293l-336 -307h-107z" />
    <glyph glyph-name="Ecircumflex" unicode="&#xca;" horiz-adv-x="1067" 
d="M946 1397v-178h-592v-426h572v-179h-572v-434h611v-180h-811v1397h792zM885 1493h-127l-213 195l-215 -195h-125l192 322h291z" />
    <glyph glyph-name="Edieresis" unicode="&#xcb;" horiz-adv-x="1067" 
d="M946 1397v-178h-592v-426h572v-179h-572v-434h611v-180h-811v1397h792zM756 1761q44 0 76 -32t32 -76t-32 -76.5t-76 -32.5t-76.5 32.5t-32.5 76.5t32.5 76t76.5 32zM334 1761q44 0 76 -32t32 -76t-32 -76.5t-76 -32.5t-76.5 32.5t-32.5 76.5t32.5 76t76.5 32z" />
    <glyph glyph-name="Igrave" unicode="&#xcc;" horiz-adv-x="512" 
d="M356 1397v-1397h-200v1397h200zM262 1800l150 -307h-107l-336 307h293z" />
    <glyph glyph-name="Iacute" unicode="&#xcd;" horiz-adv-x="512" 
d="M356 1397v-1397h-200v1397h200zM258 1800h293l-336 -307h-106z" />
    <glyph glyph-name="Icircumflex" unicode="&#xce;" horiz-adv-x="512" 
d="M356 1397v-1397h-200v1397h200zM598 1493h-127l-213 195l-215 -195h-125l193 322h290z" />
    <glyph glyph-name="Idieresis" unicode="&#xcf;" horiz-adv-x="512" 
d="M356 1397v-1397h-200v1397h200zM469 1761q44 0 76.5 -32t32.5 -76t-32.5 -76.5t-76.5 -32.5t-76.5 32.5t-32.5 76.5t32.5 76t76.5 32zM47 1761q44 0 76.5 -32t32.5 -76t-32.5 -76.5t-76.5 -32.5t-76 32.5t-32 76.5t32 76t76 32z" />
    <glyph glyph-name="Eth" unicode="&#xd0;" horiz-adv-x="1536" 
d="M156 633h-164v131h164v633h471q70 0 118 -3t129 -15t156.5 -44t140.5 -82q122 -93 195.5 -237.5t73.5 -317.5q0 -100 -27.5 -192.5t-65 -154.5t-88.5 -117t-86 -82t-69 -48q-60 -37 -126.5 -60t-140.5 -31.5t-119 -10.5t-120 -2h-442v633zM752 633h-398v-453h258
q255 0 387 80q107 67 170.5 187.5t63.5 261.5q0 67 -16 131t-49 126t-91 114.5t-135 86.5q-54 24 -113 36t-101.5 14t-121.5 2h-252v-455h398v-131z" />
    <glyph glyph-name="Ntilde" unicode="&#xd1;" horiz-adv-x="1599" 
d="M1454 1397v-1397h-172l-934 1075v-1075h-188v1397h162l942 -1084v1084h190zM571 1493h-106q13 116 70 182t137 66q40 0 73 -12t115 -52q81 -37 103 -37q56 0 69 101h107q-7 -115 -64.5 -181.5t-134.5 -66.5q-37 0 -67 10.5t-136 57.5q-76 30 -96 32q-17 0 -29 -7.5
t-20 -24.5t-11.5 -29.5t-9.5 -38.5z" />
    <glyph glyph-name="Ograve" unicode="&#xd2;" horiz-adv-x="1685" 
d="M840 1415q169 0 313 -59t239 -158t148 -228t53 -270q0 -149 -55.5 -281t-154.5 -228.5t-242.5 -152.5t-311.5 -56q-161 0 -299.5 56.5t-234 153t-149.5 227t-54 275.5q0 140 50.5 269t143.5 230t237 161.5t317 60.5zM848 1227q-95 0 -176.5 -23t-140 -63.5t-104 -92.5
t-73 -112.5t-41.5 -121t-14 -120.5q0 -154 75 -275.5t198 -186t270 -64.5q114 0 225 44.5t182 121.5q64 70 102 172.5t38 195.5q0 71 -20.5 143.5t-65 141t-107 122t-153 86t-195.5 32.5zM868 1800l150 -307h-107l-336 307h293z" />
    <glyph glyph-name="Oacute" unicode="&#xd3;" horiz-adv-x="1685" 
d="M840 1415q169 0 313 -59t239 -158t148 -228t53 -270q0 -149 -55.5 -281t-154.5 -228.5t-242.5 -152.5t-311.5 -56q-161 0 -299.5 56.5t-234 153t-149.5 227t-54 275.5q0 140 50.5 269t143.5 230t237 161.5t317 60.5zM848 1227q-95 0 -176.5 -23t-140 -63.5t-104 -92.5
t-73 -112.5t-41.5 -121t-14 -120.5q0 -154 75 -275.5t198 -186t270 -64.5q114 0 225 44.5t182 121.5q64 70 102 172.5t38 195.5q0 71 -20.5 143.5t-65 141t-107 122t-153 86t-195.5 32.5zM844 1800h293l-336 -307h-107z" />
    <glyph glyph-name="Ocircumflex" unicode="&#xd4;" horiz-adv-x="1685" 
d="M840 1415q169 0 313 -59t239 -158t148 -228t53 -270q0 -149 -55.5 -281t-154.5 -228.5t-242.5 -152.5t-311.5 -56q-161 0 -299.5 56.5t-234 153t-149.5 227t-54 275.5q0 140 50.5 269t143.5 230t237 161.5t317 60.5zM848 1227q-95 0 -176.5 -23t-140 -63.5t-104 -92.5
t-73 -112.5t-41.5 -121t-14 -120.5q0 -154 75 -275.5t198 -186t270 -64.5q114 0 225 44.5t182 121.5q64 70 102 172.5t38 195.5q0 71 -20.5 143.5t-65 141t-107 122t-153 86t-195.5 32.5zM1184 1493h-127l-213 195l-215 -195h-125l192 322h291z" />
    <glyph glyph-name="Otilde" unicode="&#xd5;" horiz-adv-x="1685" 
d="M840 1415q169 0 313 -59t239 -158t148 -228t53 -270q0 -149 -55.5 -281t-154.5 -228.5t-242.5 -152.5t-311.5 -56q-161 0 -299.5 56.5t-234 153t-149.5 227t-54 275.5q0 140 50.5 269t143.5 230t237 161.5t317 60.5zM848 1227q-95 0 -176.5 -23t-140 -63.5t-104 -92.5
t-73 -112.5t-41.5 -121t-14 -120.5q0 -154 75 -275.5t198 -186t270 -64.5q114 0 225 44.5t182 121.5q64 70 102 172.5t38 195.5q0 71 -20.5 143.5t-65 141t-107 122t-153 86t-195.5 32.5zM614 1493h-106q13 116 70 182t137 66q40 0 73 -12t115 -52q81 -37 103 -37
q56 0 69 101h107q-7 -115 -64.5 -181.5t-134.5 -66.5q-37 0 -67 10.5t-136 57.5q-76 30 -96 32q-17 0 -29 -7.5t-20 -24.5t-11.5 -29.5t-9.5 -38.5z" />
    <glyph glyph-name="Odieresis" unicode="&#xd6;" horiz-adv-x="1685" 
d="M840 1415q169 0 313 -59t239 -158t148 -228t53 -270q0 -149 -55.5 -281t-154.5 -228.5t-242.5 -152.5t-311.5 -56q-161 0 -299.5 56.5t-234 153t-149.5 227t-54 275.5q0 140 50.5 269t143.5 230t237 161.5t317 60.5zM848 1227q-95 0 -176.5 -23t-140 -63.5t-104 -92.5
t-73 -112.5t-41.5 -121t-14 -120.5q0 -154 75 -275.5t198 -186t270 -64.5q114 0 225 44.5t182 121.5q64 70 102 172.5t38 195.5q0 71 -20.5 143.5t-65 141t-107 122t-153 86t-195.5 32.5zM1055 1761q44 0 76 -32t32 -76t-32 -76.5t-76 -32.5t-76.5 32.5t-32.5 76.5t32.5 76
t76.5 32zM633 1761q44 0 76 -32t32 -76t-32 -76.5t-76 -32.5t-76.5 32.5t-32.5 76.5t32.5 76t76.5 32z" />
    <glyph glyph-name="multiply" unicode="&#xd7;" horiz-adv-x="1193" 
d="M162 385l315 313l-315 314l121 123l315 -314l313 314l121 -123l-313 -314l313 -313l-121 -123l-313 316l-315 -316z" />
    <glyph glyph-name="Oslash" unicode="&#xd8;" horiz-adv-x="1685" 
d="M1468 1337l-94 -114q93 -83 156 -218t63 -303q0 -150 -55.5 -282.5t-153.5 -229t-238 -152.5t-302 -56q-260 0 -434 118l-101 -108l-96 67l96 119q-96 88 -156.5 222.5t-60.5 291.5q0 145 53 275.5t148 230t238 158.5t313 59q100 0 192.5 -22t138 -42.5t101.5 -52.5
l98 121zM1239 1071l-700 -819q143 -82 303 -82q162 0 287.5 73t191 194t65.5 268q0 97 -37.5 195.5t-109.5 170.5zM442 328l703 821q-135 80 -299 80q-131 0 -237.5 -46.5t-172.5 -123t-101.5 -169.5t-35.5 -190q0 -142 63 -262q29 -54 80 -110z" />
    <glyph glyph-name="Ugrave" unicode="&#xd9;" horiz-adv-x="1449" 
d="M1325 1397v-793q0 -56 -1 -89t-9 -93t-23.5 -103t-47.5 -94.5t-77 -91.5q-170 -151 -440 -151q-162 0 -304 59.5t-220 183.5q-36 56 -54.5 136t-21 126.5t-2.5 116.5v793h201v-793q0 -141 17.5 -208t70.5 -120q112 -116 313 -116q79 0 144.5 18.5t107.5 49t66.5 58.5
t41.5 58q39 71 39 260v793h199zM731 1800l150 -307h-107l-336 307h293z" />
    <glyph glyph-name="Uacute" unicode="&#xda;" horiz-adv-x="1449" 
d="M1325 1397v-793q0 -56 -1 -89t-9 -93t-23.5 -103t-47.5 -94.5t-77 -91.5q-170 -151 -440 -151q-162 0 -304 59.5t-220 183.5q-36 56 -54.5 136t-21 126.5t-2.5 116.5v793h201v-793q0 -141 17.5 -208t70.5 -120q112 -116 313 -116q79 0 144.5 18.5t107.5 49t66.5 58.5
t41.5 58q39 71 39 260v793h199zM727 1800h293l-336 -307h-106z" />
    <glyph glyph-name="Ucircumflex" unicode="&#xdb;" horiz-adv-x="1449" 
d="M1325 1397v-793q0 -56 -1 -89t-9 -93t-23.5 -103t-47.5 -94.5t-77 -91.5q-170 -151 -440 -151q-162 0 -304 59.5t-220 183.5q-36 56 -54.5 136t-21 126.5t-2.5 116.5v793h201v-793q0 -141 17.5 -208t70.5 -120q112 -116 313 -116q79 0 144.5 18.5t107.5 49t66.5 58.5
t41.5 58q39 71 39 260v793h199zM1067 1493h-127l-213 195l-215 -195h-125l193 322h290z" />
    <glyph glyph-name="Udieresis" unicode="&#xdc;" horiz-adv-x="1449" 
d="M1325 1397v-793q0 -56 -1 -89t-9 -93t-23.5 -103t-47.5 -94.5t-77 -91.5q-170 -151 -440 -151q-162 0 -304 59.5t-220 183.5q-36 56 -54.5 136t-21 126.5t-2.5 116.5v793h201v-793q0 -141 17.5 -208t70.5 -120q112 -116 313 -116q79 0 144.5 18.5t107.5 49t66.5 58.5
t41.5 58q39 71 39 260v793h199zM938 1761q44 0 76.5 -32t32.5 -76t-32.5 -76.5t-76.5 -32.5t-76.5 32.5t-32.5 76.5t32.5 76t76.5 32zM516 1761q44 0 76.5 -32t32.5 -76t-32.5 -76.5t-76.5 -32.5t-76 32.5t-32 76.5t32 76t76 32z" />
    <glyph glyph-name="Yacute" unicode="&#xdd;" horiz-adv-x="1236" 
d="M1237 1397l-516 -658v-739h-205v739l-516 658h242l374 -482l379 482h242zM682 1800h293l-336 -307h-107z" />
    <glyph glyph-name="Thorn" unicode="&#xde;" horiz-adv-x="1044" 
d="M143 1397h201v-303h160q65 0 97 -1t84 -7t84.5 -18t72 -35t73.5 -58q109 -113 109 -279q0 -168 -117 -280q-66 -63 -159 -88t-256 -25h-148v-303h-201v1397zM496 918h-152v-437h160q54 0 82.5 1t69.5 10t69 26q92 55 92 184q0 97 -61 156q-43 41 -91.5 50.5t-168.5 9.5z
" />
    <glyph glyph-name="germandbls" unicode="&#xdf;" 
d="M121 0v920q0 58 1 90.5t8.5 92.5t21 96t42 82t68.5 71.5t103 44t143 18.5q92 0 163.5 -23t113 -58t68 -82t35.5 -88t9 -83q0 -31 -6 -64.5t-24 -82t-62 -93t-109 -71.5q92 -24 152.5 -84.5t84 -131.5t23.5 -153q0 -77 -21.5 -149.5t-63.5 -133.5t-112.5 -98.5
t-158.5 -37.5q-73 0 -143 18v178q51 -22 100 -22q60 0 104 25t67 65.5t33.5 82.5t10.5 85q0 54 -13.5 97t-31.5 70t-49 47t-54 29t-58.5 15t-50.5 6.5t-42 1.5v166q57 0 82 4q51 8 86.5 35t50 63t20 62t5.5 49q0 96 -60.5 155.5t-150.5 59.5q-30 0 -61.5 -8t-67 -34
t-53.5 -67q-14 -36 -17.5 -85.5t-3.5 -159.5v-920h-182z" />
    <glyph glyph-name="agrave" unicode="&#xe0;" horiz-adv-x="874" 
d="M850 164v-111q-65 -42 -99.5 -56.5t-76.5 -14.5q-60 0 -93.5 22.5t-45.5 71.5q-119 -94 -248 -94q-99 0 -162.5 66.5t-63.5 158.5q0 51 20.5 94t42 68t75 53.5t77 38t89.5 33.5q7 3 10 4l162 57v49q0 85 -40.5 123.5t-125.5 38.5q-162 0 -291 -152v199q107 125 305 125
q148 0 241 -76.5t93 -226.5v-473q0 -47 35 -47q31 0 96 49zM537 186v269q-55 -19 -91 -32.5t-78 -34.5t-65.5 -41t-40 -47.5t-16.5 -59.5q0 -57 37 -93t94 -36q82 0 160 75zM391 1337l137 -301h-112l-230 301h205z" />
    <glyph glyph-name="aacute" unicode="&#xe1;" horiz-adv-x="874" 
d="M850 164v-111q-65 -42 -99.5 -56.5t-76.5 -14.5q-60 0 -93.5 22.5t-45.5 71.5q-119 -94 -248 -94q-99 0 -162.5 66.5t-63.5 158.5q0 51 20.5 94t42 68t75 53.5t77 38t89.5 33.5q7 3 10 4l162 57v49q0 85 -40.5 123.5t-125.5 38.5q-162 0 -291 -152v199q107 125 305 125
q148 0 241 -76.5t93 -226.5v-473q0 -47 35 -47q31 0 96 49zM537 186v269q-55 -19 -91 -32.5t-78 -34.5t-65.5 -41t-40 -47.5t-16.5 -59.5q0 -57 37 -93t94 -36q82 0 160 75zM610 1337l-225 -301h-113l136 301h202z" />
    <glyph glyph-name="acircumflex" unicode="&#xe2;" horiz-adv-x="874" 
d="M850 164v-111q-65 -42 -99.5 -56.5t-76.5 -14.5q-60 0 -93.5 22.5t-45.5 71.5q-119 -94 -248 -94q-99 0 -162.5 66.5t-63.5 158.5q0 51 20.5 94t42 68t75 53.5t77 38t89.5 33.5q7 3 10 4l162 57v49q0 85 -40.5 123.5t-125.5 38.5q-162 0 -291 -152v199q107 125 305 125
q148 0 241 -76.5t93 -226.5v-473q0 -47 35 -47q31 0 96 49zM537 186v269q-55 -19 -91 -32.5t-78 -34.5t-65.5 -41t-40 -47.5t-16.5 -59.5q0 -57 37 -93t94 -36q82 0 160 75zM498 1346l192 -310h-112l-179 176l-170 -176h-108l186 310h191z" />
    <glyph glyph-name="atilde" unicode="&#xe3;" horiz-adv-x="874" 
d="M850 164v-111q-65 -42 -99.5 -56.5t-76.5 -14.5q-60 0 -93.5 22.5t-45.5 71.5q-119 -94 -248 -94q-99 0 -162.5 66.5t-63.5 158.5q0 51 20.5 94t42 68t75 53.5t77 38t89.5 33.5q7 3 10 4l162 57v49q0 85 -40.5 123.5t-125.5 38.5q-162 0 -291 -152v199q107 125 305 125
q148 0 241 -76.5t93 -226.5v-473q0 -47 35 -47q31 0 96 49zM537 186v269q-55 -19 -91 -32.5t-78 -34.5t-65.5 -41t-40 -47.5t-16.5 -59.5q0 -57 37 -93t94 -36q82 0 160 75zM188 1073h-84q1 70 17.5 119.5t43 73t51.5 33.5t52 10q54 0 146 -35q13 -5 35 -13q85 -31 104 -32
q34 0 51 20t23 60h78q-3 -125 -52.5 -180.5t-107.5 -55.5q-39 0 -75 11.5t-105 41.5q-64 27 -109 27q-25 0 -44.5 -19t-23.5 -61z" />
    <glyph glyph-name="adieresis" unicode="&#xe4;" horiz-adv-x="874" 
d="M850 164v-111q-65 -42 -99.5 -56.5t-76.5 -14.5q-60 0 -93.5 22.5t-45.5 71.5q-119 -94 -248 -94q-99 0 -162.5 66.5t-63.5 158.5q0 51 20.5 94t42 68t75 53.5t77 38t89.5 33.5q7 3 10 4l162 57v49q0 85 -40.5 123.5t-125.5 38.5q-162 0 -291 -152v199q107 125 305 125
q148 0 241 -76.5t93 -226.5v-473q0 -47 35 -47q31 0 96 49zM537 186v269q-55 -19 -91 -32.5t-78 -34.5t-65.5 -41t-40 -47.5t-16.5 -59.5q0 -57 37 -93t94 -36q82 0 160 75zM213 1286q38 0 66 -28t28 -66t-28 -66t-66 -28t-66 28t-28 66t28 66t66 28zM598 1286q38 0 66 -28
t28 -66t-28 -66t-66 -28t-66 28t-28 66t28 66t66 28z" />
    <glyph glyph-name="aring" unicode="&#xe5;" horiz-adv-x="874" 
d="M850 164v-111q-65 -42 -99.5 -56.5t-76.5 -14.5q-60 0 -93.5 22.5t-45.5 71.5q-119 -94 -248 -94q-99 0 -162.5 66.5t-63.5 158.5q0 51 20.5 94t42 68t75 53.5t77 38t89.5 33.5q7 3 10 4l162 57v49q0 85 -40.5 123.5t-125.5 38.5q-162 0 -291 -152v199q107 125 305 125
q148 0 241 -76.5t93 -226.5v-473q0 -47 35 -47q31 0 96 49zM537 186v269q-55 -19 -91 -32.5t-78 -34.5t-65.5 -41t-40 -47.5t-16.5 -59.5q0 -57 37 -93t94 -36q82 0 160 75zM408 1415q73 0 129.5 -53.5t56.5 -134.5t-56 -136t-135 -55q-77 0 -132.5 55t-55.5 134
q0 83 58.5 136.5t134.5 53.5zM401 1333q-51 0 -81.5 -29.5t-30.5 -78.5t33.5 -83t83.5 -34q46 0 80 34t34 81q0 49 -35.5 79.5t-83.5 30.5z" />
    <glyph glyph-name="ae" unicode="&#xe6;" horiz-adv-x="1343" 
d="M1276 258v-178q-46 -31 -78 -48t-96 -33.5t-139 -16.5q-111 0 -194.5 46.5t-115.5 96.5q-179 -143 -344 -143q-121 0 -184.5 69t-63.5 166q0 126 129 209q30 19 101 47.5t108 38.5l127 39v29q0 30 -1 47t-9 47.5t-22.5 48t-45.5 31.5t-75 14q-156 0 -291 -152v220
q39 28 66.5 45t92.5 37t136 20q82 0 155 -30t121 -89q41 35 67.5 54.5t85 42t120.5 22.5q165 0 257.5 -115.5t92.5 -294.5v-28h-567q1 -50 5 -83.5t24.5 -89.5t58.5 -98q74 -82 200 -82q132 0 279 111zM731 616h363q-6 46 -26 79.5t-40 49t-47 24.5t-38.5 10t-22.5 1t-22 -1
t-37 -10t-47 -24.5t-45 -49t-38 -79.5zM526 162v297l-98 -39q-104 -41 -145 -80t-41 -88q0 -55 36 -100.5t95 -45.5q25 0 51 8t44 17t58 31z" />
    <glyph glyph-name="ccedilla" unicode="&#xe7;" horiz-adv-x="894" 
d="M801 872v-192q-40 25 -64 38.5t-80.5 31.5t-111.5 18q-61 0 -110.5 -20.5t-80.5 -53t-52.5 -75t-30.5 -83t-9 -79.5q0 -130 83 -217.5t230 -87.5q121 0 246 61v-180q-122 -44 -237 -49l-21 -43q58 -9 92 -37q56 -46 56 -115q0 -11 -3 -26.5t-11.5 -39t-29.5 -46.5
t-51 -39q-61 -31 -219 -31q-35 0 -75 4v119q9 1 59.5 2t58.5 2q86 13 86 57q0 62 -155 62l59 131q-116 29 -174 75q-77 62 -127.5 161t-50.5 233q0 70 16.5 138t53 131.5t89 111t129.5 76t169 28.5q56 0 109.5 -11t83.5 -23t73 -32z" />
    <glyph glyph-name="egrave" unicode="&#xe8;" horiz-adv-x="980" 
d="M897 268v-178q-34 -22 -58.5 -35.5t-70.5 -33t-104.5 -29.5t-126.5 -10q-89 0 -166 25.5t-152 103.5q-137 142 -137 354q0 213 120.5 343t309.5 130q157 0 262 -99.5t129 -256.5q10 -61 10 -138h-647q2 -53 21 -103t54 -92t92.5 -67.5t129.5 -25.5q182 0 334 112z
M270 553h463q-1 20 -3.5 39t-16.5 56t-35.5 63.5t-65.5 47.5t-102 21q-46 0 -93.5 -19.5t-82.5 -58.5q-50 -54 -64 -149zM508 1337l137 -301h-113l-229 301h205z" />
    <glyph glyph-name="eacute" unicode="&#xe9;" horiz-adv-x="980" 
d="M897 268v-178q-34 -22 -58.5 -35.5t-70.5 -33t-104.5 -29.5t-126.5 -10q-89 0 -166 25.5t-152 103.5q-137 142 -137 354q0 213 120.5 343t309.5 130q157 0 262 -99.5t129 -256.5q10 -61 10 -138h-647q2 -53 21 -103t54 -92t92.5 -67.5t129.5 -25.5q182 0 334 112z
M270 553h463q-1 20 -3.5 39t-16.5 56t-35.5 63.5t-65.5 47.5t-102 21q-46 0 -93.5 -19.5t-82.5 -58.5q-50 -54 -64 -149zM727 1337l-225 -301h-113l135 301h203z" />
    <glyph glyph-name="ecircumflex" unicode="&#xea;" horiz-adv-x="980" 
d="M897 268v-178q-34 -22 -58.5 -35.5t-70.5 -33t-104.5 -29.5t-126.5 -10q-89 0 -166 25.5t-152 103.5q-137 142 -137 354q0 213 120.5 343t309.5 130q157 0 262 -99.5t129 -256.5q10 -61 10 -138h-647q2 -53 21 -103t54 -92t92.5 -67.5t129.5 -25.5q182 0 334 112z
M270 553h463q-1 20 -3.5 39t-16.5 56t-35.5 63.5t-65.5 47.5t-102 21q-46 0 -93.5 -19.5t-82.5 -58.5q-50 -54 -64 -149zM604 1346l193 -310h-113l-178 176l-170 -176h-109l187 310h190z" />
    <glyph glyph-name="edieresis" unicode="&#xeb;" horiz-adv-x="980" 
d="M897 268v-178q-34 -22 -58.5 -35.5t-70.5 -33t-104.5 -29.5t-126.5 -10q-89 0 -166 25.5t-152 103.5q-137 142 -137 354q0 213 120.5 343t309.5 130q157 0 262 -99.5t129 -256.5q10 -61 10 -138h-647q2 -53 21 -103t54 -92t92.5 -67.5t129.5 -25.5q182 0 334 112z
M270 553h463q-1 20 -3.5 39t-16.5 56t-35.5 63.5t-65.5 47.5t-102 21q-46 0 -93.5 -19.5t-82.5 -58.5q-50 -54 -64 -149zM319 1286q38 0 66.5 -28t28.5 -66t-28.5 -66t-66.5 -28t-66 28t-28 66t28 66t66 28zM705 1286q38 0 66 -28t28 -66t-28 -66t-66 -28t-66.5 28t-28.5 66
t28.5 66t66.5 28z" />
    <glyph glyph-name="igrave" unicode="&#xec;" horiz-adv-x="448" 
d="M315 920v-920h-184v920h184zM211 1337l137 -301h-112l-230 301h205z" />
    <glyph glyph-name="iacute" unicode="&#xed;" horiz-adv-x="448" 
d="M315 920v-920h-184v920h184zM430 1337l-225 -301h-113l135 301h203z" />
    <glyph glyph-name="icircumflex" unicode="&#xee;" horiz-adv-x="448" 
d="M315 920v-920h-184v920h184zM317 1346l193 -310h-113l-178 176l-170 -176h-108l186 310h190z" />
    <glyph glyph-name="idieresis" unicode="&#xef;" horiz-adv-x="448" 
d="M315 920v-920h-184v920h184zM33 1286q38 0 66 -28t28 -66t-28 -66t-66 -28t-66 28t-28 66t28 66t66 28zM418 1286q38 0 66 -28t28 -66t-28 -66t-66 -28t-66 28t-28 66t28 66t66 28z" />
    <glyph glyph-name="eth" unicode="&#xf0;" horiz-adv-x="1153" 
d="M618 1309l224 104l49 -110l-154 -76q34 -31 48 -43.5t47.5 -47t61.5 -72.5t56 -83q127 -214 127 -459q0 -125 -33.5 -222.5t-85.5 -155.5t-122 -96t-135 -52t-132 -14q-113 0 -207.5 41.5t-154 109t-92.5 151t-33 169.5q0 67 18.5 134t59.5 130.5t98.5 112.5t142 78.5
t183.5 29.5q48 0 89 -7.5t64.5 -15.5t59.5 -24q-44 84 -91 138t-137 120l-297 -137l-45 112l215 103q-70 37 -170 59l95 127q81 -24 130.5 -44.5t120.5 -59.5zM897 463q0 79 -28.5 141t-75.5 98t-101 54t-112 18q-141 0 -231.5 -95.5t-90.5 -225.5t91.5 -218t232.5 -88
q139 0 227 84t88 232z" />
    <glyph glyph-name="ntilde" unicode="&#xf1;" 
d="M125 920h186v-117q59 66 134 100.5t143 34.5q26 0 55 -5.5t67 -20t74.5 -45.5t63.5 -76q26 -40 38.5 -96t12.5 -171v-524h-184v524q0 86 -7.5 126.5t-41.5 78.5q-51 57 -138 57q-62 0 -118.5 -34t-98.5 -95v-657h-186v920zM297 1073h-84q1 70 17.5 119.5t43 73t51.5 33.5
t52 10q53 0 145 -35q10 -4 27 -10q94 -34 113 -35q34 0 50.5 19.5t22.5 60.5h78q-3 -125 -52.5 -180.5t-107.5 -55.5q-39 0 -75 11.5t-105 41.5q-64 27 -108 27q-25 0 -44.5 -19t-23.5 -61z" />
    <glyph glyph-name="ograve" unicode="&#xf2;" horiz-adv-x="1130" 
d="M569 938q209 0 348.5 -133t139.5 -348q0 -95 -29.5 -175t-79 -134.5t-114 -92.5t-133 -55.5t-138.5 -17.5q-144 0 -256.5 65t-172.5 174t-60 240q0 130 58.5 237.5t173 173.5t263.5 66zM559 774q-128 0 -213.5 -84t-85.5 -231q0 -83 28.5 -146t75 -98t98 -52.5
t105.5 -17.5q135 0 219 88t84 228q0 66 -20 120.5t-51.5 89.5t-73.5 59t-83.5 34t-82.5 10zM573 1337l138 -301h-113l-229 301h204z" />
    <glyph glyph-name="oacute" unicode="&#xf3;" horiz-adv-x="1130" 
d="M569 938q209 0 348.5 -133t139.5 -348q0 -95 -29.5 -175t-79 -134.5t-114 -92.5t-133 -55.5t-138.5 -17.5q-144 0 -256.5 65t-172.5 174t-60 240q0 130 58.5 237.5t173 173.5t263.5 66zM559 774q-128 0 -213.5 -84t-85.5 -231q0 -83 28.5 -146t75 -98t98 -52.5
t105.5 -17.5q135 0 219 88t84 228q0 66 -20 120.5t-51.5 89.5t-73.5 59t-83.5 34t-82.5 10zM772 1337l-225 -301h-113l135 301h203z" />
    <glyph glyph-name="ocircumflex" unicode="&#xf4;" horiz-adv-x="1130" 
d="M569 938q209 0 348.5 -133t139.5 -348q0 -95 -29.5 -175t-79 -134.5t-114 -92.5t-133 -55.5t-138.5 -17.5q-144 0 -256.5 65t-172.5 174t-60 240q0 130 58.5 237.5t173 173.5t263.5 66zM559 774q-128 0 -213.5 -84t-85.5 -231q0 -83 28.5 -146t75 -98t98 -52.5
t105.5 -17.5q135 0 219 88t84 228q0 66 -20 120.5t-51.5 89.5t-73.5 59t-83.5 34t-82.5 10zM680 1346l192 -310h-112l-178 176l-170 -176h-109l186 310h191z" />
    <glyph glyph-name="otilde" unicode="&#xf5;" horiz-adv-x="1130" 
d="M569 938q209 0 348.5 -133t139.5 -348q0 -95 -29.5 -175t-79 -134.5t-114 -92.5t-133 -55.5t-138.5 -17.5q-144 0 -256.5 65t-172.5 174t-60 240q0 130 58.5 237.5t173 173.5t263.5 66zM559 774q-128 0 -213.5 -84t-85.5 -231q0 -83 28.5 -146t75 -98t98 -52.5
t105.5 -17.5q135 0 219 88t84 228q0 66 -20 120.5t-51.5 89.5t-73.5 59t-83.5 34t-82.5 10zM371 1073h-84q1 70 17.5 119.5t43 73t51.5 33.5t52 10q53 0 145 -35q13 -5 35 -13q85 -31 104 -32q34 0 51 20t23 60h78q-3 -125 -52.5 -180.5t-107.5 -55.5q-39 0 -75 11.5
t-105 41.5q-64 27 -109 27q-25 0 -44 -19t-23 -61z" />
    <glyph glyph-name="odieresis" unicode="&#xf6;" horiz-adv-x="1130" 
d="M569 938q209 0 348.5 -133t139.5 -348q0 -95 -29.5 -175t-79 -134.5t-114 -92.5t-133 -55.5t-138.5 -17.5q-144 0 -256.5 65t-172.5 174t-60 240q0 130 58.5 237.5t173 173.5t263.5 66zM559 774q-128 0 -213.5 -84t-85.5 -231q0 -83 28.5 -146t75 -98t98 -52.5
t105.5 -17.5q135 0 219 88t84 228q0 66 -20 120.5t-51.5 89.5t-73.5 59t-83.5 34t-82.5 10zM395 1286q38 0 66 -28t28 -66t-28 -66t-66 -28t-66 28t-28 66t28 66t66 28zM780 1286q38 0 66 -28t28 -66t-28 -66t-66 -28t-66 28t-28 66t28 66t66 28z" />
    <glyph glyph-name="divide" unicode="&#xf7;" horiz-adv-x="1193" 
d="M1081 614h-968v168h968v-168zM598 1106q45 0 77 -32t32 -77q0 -44 -32.5 -76t-76.5 -32q-46 0 -77.5 31.5t-31.5 76.5t32 77t77 32zM598 508q44 0 76.5 -32.5t32.5 -76.5t-32.5 -76t-76.5 -32q-46 0 -77.5 31.5t-31.5 76.5t32 77t77 32z" />
    <glyph glyph-name="oslash" unicode="&#xf8;" horiz-adv-x="1130" 
d="M942 969l68 -62l-90 -106q23 -26 30 -35t33.5 -48t38.5 -70.5t24.5 -84.5t12.5 -108q0 -204 -142.5 -338.5t-363.5 -134.5q-153 0 -270 75l-115 -133l-68 62l111 129q-139 142 -139 344q0 93 34 179t95 153t155.5 107t206.5 40q163 0 285 -82zM805 670l-410 -480
q72 -51 168 -51q126 0 223 87t97 231q0 52 -14.5 98t-28 66.5t-35.5 48.5zM326 248l407 477q-81 47 -168 47q-142 0 -229.5 -94.5t-87.5 -224.5q0 -118 78 -205z" />
    <glyph glyph-name="ugrave" unicode="&#xf9;" 
d="M897 0h-184v117q-60 -66 -135.5 -100.5t-143.5 -34.5q-26 0 -55 5.5t-67 20t-74.5 45.5t-63.5 76q-26 40 -38.5 95.5t-12.5 170.5v525h184v-525q0 -30 0.5 -48t4 -49t10.5 -50.5t20.5 -43.5t33 -38t49.5 -23.5t69 -9.5q63 0 120 34.5t99 94.5v658h184v-920zM500 1337
l137 -301h-113l-229 301h205z" />
    <glyph glyph-name="uacute" unicode="&#xfa;" 
d="M897 0h-184v117q-60 -66 -135.5 -100.5t-143.5 -34.5q-26 0 -55 5.5t-67 20t-74.5 45.5t-63.5 76q-26 40 -38.5 95.5t-12.5 170.5v525h184v-525q0 -30 0.5 -48t4 -49t10.5 -50.5t20.5 -43.5t33 -38t49.5 -23.5t69 -9.5q63 0 120 34.5t99 94.5v658h184v-920zM719 1337
l-225 -301h-113l135 301h203z" />
    <glyph glyph-name="ucircumflex" unicode="&#xfb;" 
d="M897 0h-184v117q-60 -66 -135.5 -100.5t-143.5 -34.5q-26 0 -55 5.5t-67 20t-74.5 45.5t-63.5 76q-26 40 -38.5 95.5t-12.5 170.5v525h184v-525q0 -30 0.5 -48t4 -49t10.5 -50.5t20.5 -43.5t33 -38t49.5 -23.5t69 -9.5q63 0 120 34.5t99 94.5v658h184v-920zM606 1346
l193 -310h-113l-178 176l-170 -176h-109l187 310h190z" />
    <glyph glyph-name="udieresis" unicode="&#xfc;" 
d="M897 0h-184v117q-60 -66 -135.5 -100.5t-143.5 -34.5q-26 0 -55 5.5t-67 20t-74.5 45.5t-63.5 76q-26 40 -38.5 95.5t-12.5 170.5v525h184v-525q0 -30 0.5 -48t4 -49t10.5 -50.5t20.5 -43.5t33 -38t49.5 -23.5t69 -9.5q63 0 120 34.5t99 94.5v658h184v-920zM322 1286
q38 0 66 -28t28 -66t-28 -66t-66 -28t-66.5 28t-28.5 66t28.5 66t66.5 28zM707 1286q38 0 66 -28t28 -66t-28 -66t-66 -28t-66.5 28t-28.5 66t28.5 66t66.5 28z" />
    <glyph glyph-name="yacute" unicode="&#xfd;" horiz-adv-x="894" 
d="M897 920l-651 -1391h-203l313 668l-356 723h207l248 -519l237 519h205zM653 1337l-225 -301h-113l136 301h202z" />
    <glyph glyph-name="thorn" unicode="&#xfe;" 
d="M117 1397h186v-477h133q27 0 64.5 -2t122.5 -21.5t141 -54.5q58 -37 98.5 -89.5t58.5 -108.5t25.5 -100t7.5 -85q0 -204 -127 -340.5t-329 -136.5q-15 0 -29.5 0.5t-28.5 2.5l-24.5 3.5t-23.5 5t-20.5 5.5t-20 6.5t-17 6t-17 6t-14.5 5.5v-494h-186v1868zM432 750h-129
v-566q84 -43 176 -43q125 0 207 87t82 231q0 60 -14.5 107.5t-35.5 77.5t-54.5 51.5t-60.5 31.5t-65.5 16t-57.5 6.5t-48 0.5z" />
    <glyph glyph-name="ydieresis" unicode="&#xff;" horiz-adv-x="894" 
d="M897 920l-651 -1391h-203l313 668l-356 723h207l248 -519l237 519h205zM276 1286q38 0 66.5 -28t28.5 -66t-28.5 -66t-66.5 -28t-66 28t-28 66t28 66t66 28zM662 1286q38 0 66 -28t28 -66t-28 -66t-66 -28t-66.5 28t-28.5 66t28.5 66t66.5 28z" />
    <glyph glyph-name="Amacron" unicode="&#x100;" horiz-adv-x="1366" 
d="M741 1405l625 -1405h-205l-186 412h-594l-176 -412h-205l600 1405h141zM459 592h434l-225 506zM1020 1698v-162h-676v162h676z" />
    <glyph glyph-name="amacron" unicode="&#x101;" horiz-adv-x="874" 
d="M850 164v-111q-65 -42 -99.5 -56.5t-76.5 -14.5q-60 0 -93.5 22.5t-45.5 71.5q-119 -94 -248 -94q-99 0 -162.5 66.5t-63.5 158.5q0 51 20.5 94t42 68t75 53.5t77 38t89.5 33.5q7 3 10 4l162 57v49q0 85 -40.5 123.5t-125.5 38.5q-162 0 -291 -152v199q107 125 305 125
q148 0 241 -76.5t93 -226.5v-473q0 -47 35 -47q31 0 96 49zM537 186v269q-55 -19 -91 -32.5t-78 -34.5t-65.5 -41t-40 -47.5t-16.5 -59.5q0 -57 37 -93t94 -36q82 0 160 75zM743 1266v-150h-677v150h677z" />
    <glyph glyph-name="Abreve" unicode="&#x102;" horiz-adv-x="1366" 
d="M741 1405l625 -1405h-205l-186 412h-594l-176 -412h-205l600 1405h141zM459 592h434l-225 506zM342 1784h160q18 -58 59.5 -92.5t128.5 -34.5q44 0 76 11t51 32t29 39.5t18 44.5h160q-11 -65 -38 -117t-61 -84t-77 -53t-83 -29t-81 -8q-38 0 -79 9.5t-84 32.5t-79 55.5
t-63.5 82.5t-36.5 111z" />
    <glyph glyph-name="abreve" unicode="&#x103;" horiz-adv-x="874" 
d="M850 164v-111q-65 -42 -99.5 -56.5t-76.5 -14.5q-60 0 -93.5 22.5t-45.5 71.5q-119 -94 -248 -94q-99 0 -162.5 66.5t-63.5 158.5q0 51 20.5 94t42 68t75 53.5t77 38t89.5 33.5q7 3 10 4l162 57v49q0 85 -40.5 123.5t-125.5 38.5q-162 0 -291 -152v199q107 125 305 125
q148 0 241 -76.5t93 -226.5v-473q0 -47 35 -47q31 0 96 49zM537 186v269q-55 -19 -91 -32.5t-78 -34.5t-65.5 -41t-40 -47.5t-16.5 -59.5q0 -57 37 -93t94 -36q82 0 160 75zM115 1300h137q32 -126 156 -126q62 0 94.5 27.5t52.5 98.5h139q-13 -120 -95 -192t-196 -72
q-115 0 -190 69.5t-98 194.5z" />
    <glyph glyph-name="Aogonek" unicode="&#x104;" horiz-adv-x="1366" 
d="M1161 0l-186 412h-594l-176 -412h-205l600 1405h141l625 -1405h-51q-64 -90 -64 -139q0 -43 35.5 -73t75.5 -30q31 0 113 25v-152q-75 -34 -154 -34q-100 0 -171 54t-71 156q0 104 82 193zM893 592l-225 506l-209 -506h434z" />
    <glyph glyph-name="aogonek" unicode="&#x105;" horiz-adv-x="874" 
d="M375 498l160 55v49q0 21 -1 35t-9.5 41t-24.5 44t-49 30.5t-80 13.5q-156 0 -293 -152v199q106 125 303 125q84 0 166 -31.5t121 -97.5q21 -37 31.5 -80t12 -75.5t1.5 -100.5v-391q0 -47 32 -47q34 0 103 49v-111q-47 -32 -68.5 -43.5t-54.5 -21.5q-49 -54 -49 -115
q0 -35 27 -63.5t67 -28.5q34 0 107 22v-137q-75 -31 -140 -31q-94 0 -155.5 52.5t-61.5 138.5q0 88 70 172q-20 11 -32.5 27t-15 24t-7.5 27q-122 -94 -252 -94q-102 0 -162 71t-60 154q0 38 11 71.5t27 58t44 47.5t51.5 37.5t60.5 31t60 24.5t60 21zM535 182v273l-123 -47
q-90 -36 -130 -73t-40 -97q0 -57 38 -92t91 -35q90 0 164 71z" />
    <glyph glyph-name="Cacute" unicode="&#x106;" horiz-adv-x="1449" 
d="M1343 1300v-215q-245 140 -483 140q-123 0 -228.5 -43.5t-175.5 -116.5t-109.5 -169.5t-39.5 -201.5q0 -100 35.5 -192.5t102 -167.5t175 -120.5t242.5 -45.5q257 0 496 156v-220q-225 -122 -508 -122q-150 0 -276.5 43t-212.5 114.5t-146.5 164.5t-88.5 192.5t-28 199.5
q0 143 56.5 274.5t155 229.5t240.5 156.5t304 58.5q224 0 489 -115zM809 1800h293l-336 -307h-107z" />
    <glyph glyph-name="cacute" unicode="&#x107;" horiz-adv-x="894" 
d="M799 874v-194q-37 24 -64 39t-82 32t-110 17q-68 0 -123.5 -27.5t-89 -72t-51 -98t-17.5 -109.5q0 -60 18.5 -113.5t55 -97.5t99 -70t143.5 -26q107 0 241 61v-180q-1 0 -20 -7t-29 -10t-32 -9.5t-40 -10t-43 -8t-51 -6.5t-53 -2q-115 0 -207 38t-149 104t-87 150.5
t-30 180.5q0 69 15.5 136t50.5 130.5t86 111t129 76.5t173 29q55 0 108.5 -11t81.5 -21.5t77 -31.5zM715 1337l-226 -301h-112l135 301h203z" />
    <glyph glyph-name="Ccircumflex" unicode="&#x108;" horiz-adv-x="1449" 
d="M1343 1300v-215q-245 140 -483 140q-123 0 -228.5 -43.5t-175.5 -116.5t-109.5 -169.5t-39.5 -201.5q0 -100 35.5 -192.5t102 -167.5t175 -120.5t242.5 -45.5q257 0 496 156v-220q-225 -122 -508 -122q-150 0 -276.5 43t-212.5 114.5t-146.5 164.5t-88.5 192.5t-28 199.5
q0 143 56.5 274.5t155 229.5t240.5 156.5t304 58.5q224 0 489 -115zM1128 1493h-127l-213 195l-215 -195h-124l192 322h291z" />
    <glyph glyph-name="ccircumflex" unicode="&#x109;" horiz-adv-x="894" 
d="M799 874v-194q-37 24 -64 39t-82 32t-110 17q-68 0 -123.5 -27.5t-89 -72t-51 -98t-17.5 -109.5q0 -60 18.5 -113.5t55 -97.5t99 -70t143.5 -26q107 0 241 61v-180q-1 0 -20 -7t-29 -10t-32 -9.5t-40 -10t-43 -8t-51 -6.5t-53 -2q-115 0 -207 38t-149 104t-87 150.5
t-30 180.5q0 69 15.5 136t50.5 130.5t86 111t129 76.5t173 29q55 0 108.5 -11t81.5 -21.5t77 -31.5zM571 1346l193 -310h-113l-178 176l-170 -176h-108l186 310h190z" />
    <glyph glyph-name="Cdotaccent" unicode="&#x10a;" horiz-adv-x="1449" 
d="M1343 1300v-215q-245 140 -483 140q-123 0 -228.5 -43.5t-175.5 -116.5t-109.5 -169.5t-39.5 -201.5q0 -100 35.5 -192.5t102 -167.5t175 -120.5t242.5 -45.5q257 0 496 156v-220q-225 -122 -508 -122q-150 0 -276.5 43t-212.5 114.5t-146.5 164.5t-88.5 192.5t-28 199.5
q0 143 56.5 274.5t155 229.5t240.5 156.5t304 58.5q224 0 489 -115zM788 1761q44 0 76.5 -32t32.5 -76t-32.5 -76.5t-76.5 -32.5t-76 32.5t-32 76.5t32 76t76 32z" />
    <glyph glyph-name="cdotaccent" unicode="&#x10b;" horiz-adv-x="894" 
d="M799 874v-194q-37 24 -64 39t-82 32t-110 17q-68 0 -123.5 -27.5t-89 -72t-51 -98t-17.5 -109.5q0 -60 18.5 -113.5t55 -97.5t99 -70t143.5 -26q107 0 241 61v-180q-1 0 -20 -7t-29 -10t-32 -9.5t-40 -10t-43 -8t-51 -6.5t-53 -2q-115 0 -207 38t-149 104t-87 150.5
t-30 180.5q0 69 15.5 136t50.5 130.5t86 111t129 76.5t173 29q55 0 108.5 -11t81.5 -21.5t77 -31.5zM479 1286q38 0 66 -28t28 -66t-28 -66t-66 -28t-66 28t-28 66t28 66t66 28z" />
    <glyph glyph-name="Ccaron" unicode="&#x10c;" horiz-adv-x="1449" 
d="M1343 1300v-215q-245 140 -483 140q-123 0 -228.5 -43.5t-175.5 -116.5t-109.5 -169.5t-39.5 -201.5q0 -100 35.5 -192.5t102 -167.5t175 -120.5t242.5 -45.5q257 0 496 156v-220q-225 -122 -508 -122q-150 0 -276.5 43t-212.5 114.5t-146.5 164.5t-88.5 192.5t-28 199.5
q0 143 56.5 274.5t155 229.5t240.5 156.5t304 58.5q224 0 489 -115zM457 1815h127l213 -195l215 195h125l-193 -322h-291z" />
    <glyph glyph-name="ccaron" unicode="&#x10d;" horiz-adv-x="894" 
d="M799 874v-194q-37 24 -64 39t-82 32t-110 17q-68 0 -123.5 -27.5t-89 -72t-51 -98t-17.5 -109.5q0 -60 18.5 -113.5t55 -97.5t99 -70t143.5 -26q107 0 241 61v-180q-1 0 -20 -7t-29 -10t-32 -9.5t-40 -10t-43 -8t-51 -6.5t-53 -2q-115 0 -207 38t-149 104t-87 150.5
t-30 180.5q0 69 15.5 136t50.5 130.5t86 111t129 76.5t173 29q55 0 108.5 -11t81.5 -21.5t77 -31.5zM821 1346l-227 -310h-188l-224 310h113l207 -175l205 175h114z" />
    <glyph glyph-name="Dcaron" unicode="&#x10e;" horiz-adv-x="1536" 
d="M156 1397h471q70 0 118 -3t129 -15t156.5 -44t140.5 -82q122 -93 195.5 -237.5t73.5 -317.5q0 -100 -27.5 -192.5t-65 -154.5t-88.5 -117t-86 -82t-69 -48q-60 -37 -126.5 -60t-140.5 -31.5t-119 -10.5t-120 -2h-442v1397zM606 1219h-252v-1039h258q255 0 387 80
q107 67 170.5 187.5t63.5 261.5q0 67 -16 131t-49 126t-91 114.5t-135 86.5q-54 24 -113 36t-101.5 14t-121.5 2zM367 1815h127l213 -195l215 195h125l-193 -322h-291z" />
    <glyph glyph-name="dcaron" unicode="&#x10f;" horiz-adv-x="1044" 
d="M926 1397v-1397h-389q-102 0 -183 33t-129.5 82.5t-80 115.5t-43 125.5t-11.5 118.5q0 144 66 251.5t167.5 159.5t219.5 52q100 0 198 -37v496h185zM741 154v585q-84 43 -170 43q-59 0 -111 -19.5t-94.5 -58t-67 -103t-24.5 -148.5q0 -108 38.5 -174.5t97.5 -96.5
q35 -18 75.5 -23t118.5 -5h137zM1049 909v37q48 47 65 92.5t19 112.5q-107 33 -107 131q0 54 36.5 93.5t88.5 39.5q63 0 100 -56.5t37 -135.5q0 -10 -0.5 -20t-5 -37.5t-12.5 -51.5t-26 -56t-42.5 -58t-64 -51t-88.5 -40z" />
    <glyph glyph-name="Dcroat" unicode="&#x110;" horiz-adv-x="1536" 
d="M156 633h-164v131h164v633h471q70 0 118 -3t129 -15t156.5 -44t140.5 -82q122 -93 195.5 -237.5t73.5 -317.5q0 -100 -27.5 -192.5t-65 -154.5t-88.5 -117t-86 -82t-69 -48q-60 -37 -126.5 -60t-140.5 -31.5t-119 -10.5t-120 -2h-442v633zM752 633h-398v-453h258
q255 0 387 80q107 67 170.5 187.5t63.5 261.5q0 67 -16 131t-49 126t-91 114.5t-135 86.5q-54 24 -113 36t-101.5 14t-121.5 2h-252v-455h398v-131z" />
    <glyph glyph-name="dcroat" unicode="&#x111;" horiz-adv-x="1044" 
d="M926 1208h159v-106h-159v-1102h-389q-103 0 -184 33t-129 82.5t-79.5 115.5t-43 125.5t-11.5 118.5q0 144 66 251.5t167.5 159.5t219.5 52q100 0 198 -37v201h-219v106h219v189h185v-189zM741 154v585q-84 43 -170 43q-126 0 -211.5 -83t-85.5 -246q0 -108 38 -174.5
t98 -96.5q35 -18 74.5 -23t117.5 -5h139z" />
    <glyph glyph-name="Emacron" unicode="&#x112;" horiz-adv-x="1067" 
d="M946 1397v-178h-592v-426h572v-179h-572v-434h611v-180h-811v1397h792zM881 1698v-162h-676v162h676z" />
    <glyph glyph-name="emacron" unicode="&#x113;" horiz-adv-x="980" 
d="M897 268v-178q-34 -22 -58.5 -35.5t-70.5 -33t-104.5 -29.5t-126.5 -10q-89 0 -166 25.5t-152 103.5q-137 142 -137 354q0 213 120.5 343t309.5 130q157 0 262 -99.5t129 -256.5q10 -61 10 -138h-647q2 -53 21 -103t54 -92t92.5 -67.5t129.5 -25.5q182 0 334 112z
M270 553h463q-1 20 -3.5 39t-16.5 56t-35.5 63.5t-65.5 47.5t-102 21q-46 0 -93.5 -19.5t-82.5 -58.5q-50 -54 -64 -149zM860 1266v-150h-678v150h678z" />
    <glyph glyph-name="Ebreve" unicode="&#x114;" horiz-adv-x="1067" 
d="M946 1397v-178h-592v-426h572v-179h-572v-434h611v-180h-811v1397h792zM213 1784h160q18 -58 59.5 -92.5t128.5 -34.5q44 0 76 11t51 32t29 39.5t18 44.5h160q-11 -65 -38 -117t-61 -84t-77 -53t-83 -29t-81 -8q-38 0 -79 9.5t-84 32.5t-79 55.5t-63.5 82.5t-36.5 111z
" />
    <glyph glyph-name="ebreve" unicode="&#x115;" horiz-adv-x="980" 
d="M897 268v-178q-34 -22 -58.5 -35.5t-70.5 -33t-104.5 -29.5t-126.5 -10q-89 0 -166 25.5t-152 103.5q-137 142 -137 354q0 213 120.5 343t309.5 130q157 0 262 -99.5t129 -256.5q10 -61 10 -138h-647q2 -53 21 -103t54 -92t92.5 -67.5t129.5 -25.5q182 0 334 112z
M270 553h463q-1 20 -3.5 39t-16.5 56t-35.5 63.5t-65.5 47.5t-102 21q-46 0 -93.5 -19.5t-82.5 -58.5q-50 -54 -64 -149zM201 1300h137q32 -126 156 -126q62 0 94.5 27.5t52.5 98.5h139q-13 -120 -95 -192t-196 -72q-115 0 -190 69.5t-98 194.5z" />
    <glyph glyph-name="Edotaccent" unicode="&#x116;" horiz-adv-x="1067" 
d="M946 1397v-178h-592v-426h572v-179h-572v-434h611v-180h-811v1397h792zM545 1761q44 0 76 -32t32 -76t-32 -76.5t-76 -32.5t-76.5 32.5t-32.5 76.5t32.5 76t76.5 32z" />
    <glyph glyph-name="edotaccent" unicode="&#x117;" horiz-adv-x="980" 
d="M897 268v-178q-34 -22 -58.5 -35.5t-70.5 -33t-104.5 -29.5t-126.5 -10q-89 0 -166 25.5t-152 103.5q-137 142 -137 354q0 213 120.5 343t309.5 130q157 0 262 -99.5t129 -256.5q10 -61 10 -138h-647q2 -53 21 -103t54 -92t92.5 -67.5t129.5 -25.5q182 0 334 112z
M270 553h463q-1 20 -3.5 39t-16.5 56t-35.5 63.5t-65.5 47.5t-102 21q-46 0 -93.5 -19.5t-82.5 -58.5q-50 -54 -64 -149zM512 1286q38 0 66 -28t28 -66t-28 -66t-66 -28t-66 28t-28 66t28 66t66 28z" />
    <glyph glyph-name="Eogonek" unicode="&#x118;" horiz-adv-x="1067" 
d="M965 -217v-152q-75 -34 -154 -34q-100 0 -171 54.5t-71 155.5q0 100 82 193h-497v1397h792v-178h-592v-426h572v-179h-572v-434h611v-180h-158q-66 -90 -66 -139q0 -43 36 -73t75 -30q31 0 113 25z" />
    <glyph glyph-name="eogonek" unicode="&#x119;" horiz-adv-x="980" 
d="M913 444h-647q2 -53 21 -103t54 -92t92.5 -67.5t129.5 -25.5q182 0 334 112v-178q-74 -49 -137 -72q-72 -87 -72 -147q0 -34 29.5 -62t79.5 -28q35 0 92 22v-137q-70 -31 -137 -31q-97 0 -158.5 53t-61.5 136q0 74 60 160q-133 -7 -207 18q-35 12 -72 33.5t-79.5 61
t-75 89t-54.5 122.5t-22 157q0 213 120.5 343t309.5 130q157 0 262 -99.5t129 -256.5q10 -61 10 -138zM270 553h463q-1 20 -3.5 39t-16.5 56t-35.5 63.5t-65.5 47.5t-102 21q-46 0 -93.5 -19.5t-82.5 -58.5q-50 -54 -64 -149z" />
    <glyph glyph-name="Ecaron" unicode="&#x11a;" horiz-adv-x="1067" 
d="M946 1397v-178h-592v-426h572v-179h-572v-434h611v-180h-811v1397h792zM203 1815h127l213 -195l215 195h125l-193 -322h-291z" />
    <glyph glyph-name="ecaron" unicode="&#x11b;" horiz-adv-x="980" 
d="M897 268v-178q-34 -22 -58.5 -35.5t-70.5 -33t-104.5 -29.5t-126.5 -10q-89 0 -166 25.5t-152 103.5q-137 142 -137 354q0 213 120.5 343t309.5 130q157 0 262 -99.5t129 -256.5q10 -61 10 -138h-647q2 -53 21 -103t54 -92t92.5 -67.5t129.5 -25.5q182 0 334 112z
M270 553h463q-1 20 -3.5 39t-16.5 56t-35.5 63.5t-65.5 47.5t-102 21q-46 0 -93.5 -19.5t-82.5 -58.5q-50 -54 -64 -149zM844 1346l-228 -310h-188l-223 310h112l207 -175l205 175h115z" />
    <glyph glyph-name="Gcircumflex" unicode="&#x11c;" horiz-adv-x="1515" 
d="M1378 686v-590q-257 -114 -512 -114q-156 0 -286.5 43t-217 113.5t-146.5 163t-87 189.5t-27 195q0 111 32 217.5t96.5 199t154 162t211.5 110t262 40.5q133 0 242.5 -30t249.5 -89v-204q-250 145 -496 145q-105 0 -202.5 -38.5t-173.5 -106.5t-121.5 -171t-45.5 -223
q0 -115 40.5 -214.5t113 -171.5t177.5 -113t230 -41q73 0 136 13.5t170 47.5v291h-269v176h469zM1141 1493h-127l-213 195l-215 -195h-125l192 322h291z" />
    <glyph glyph-name="gcircumflex" unicode="&#x11d;" horiz-adv-x="874" 
d="M864 918v-142h-188q28 -28 43.5 -46.5t34 -62.5t18.5 -94q0 -43 -12 -84.5t-39.5 -84t-81.5 -75t-129 -46.5q-110 -19 -143 -29q-56 -15 -56 -57q0 -15 4.5 -24.5t23.5 -23.5t66 -28t123 -29q190 -37 261 -100t71 -178q0 -73 -35.5 -129.5t-96.5 -90.5t-135.5 -51.5
t-158.5 -17.5q-86 0 -162 17.5t-138 51.5t-98 91.5t-36 130.5q0 47 17 87t42 65.5t58 45.5t61 30t55 15q-18 10 -36 23.5t-37 40t-19 53.5q0 40 37.5 77.5t108.5 55.5q-97 35 -150 115t-53 172q0 144 100 233t301 89h379zM426 760q-76 0 -128 -50t-52 -118q0 -72 51 -119
t129 -47q47 0 84 16t57.5 41t30.5 53t10 56q0 27 -9.5 54.5t-29.5 54t-57 43t-86 16.5zM383 -47q-90 0 -149.5 -36t-59.5 -105q0 -140 254 -140q48 0 90 6.5t80.5 21t61 42t22.5 65.5q0 41 -29 71t-76 45.5t-95.5 22.5t-98.5 7zM475 1346l193 -310h-113l-178 176l-170 -176
h-109l187 310h190z" />
    <glyph glyph-name="Gbreve" unicode="&#x11e;" horiz-adv-x="1515" 
d="M1378 686v-590q-257 -114 -512 -114q-156 0 -286.5 43t-217 113.5t-146.5 163t-87 189.5t-27 195q0 111 32 217.5t96.5 199t154 162t211.5 110t262 40.5q133 0 242.5 -30t249.5 -89v-204q-250 145 -496 145q-105 0 -202.5 -38.5t-173.5 -106.5t-121.5 -171t-45.5 -223
q0 -115 40.5 -214.5t113 -171.5t177.5 -113t230 -41q73 0 136 13.5t170 47.5v291h-269v176h469zM469 1784h160q18 -58 59.5 -92.5t128.5 -34.5q44 0 76 11t51 32t29 39.5t18 44.5h160q-11 -65 -38 -117t-61 -84t-77 -53t-83 -29t-81 -8q-38 0 -79 9.5t-84 32.5t-79 55.5
t-63.5 82.5t-36.5 111z" />
    <glyph glyph-name="gbreve" unicode="&#x11f;" horiz-adv-x="874" 
d="M864 918v-142h-188q28 -28 43.5 -46.5t34 -62.5t18.5 -94q0 -43 -12 -84.5t-39.5 -84t-81.5 -75t-129 -46.5q-110 -19 -143 -29q-56 -15 -56 -57q0 -15 4.5 -24.5t23.5 -23.5t66 -28t123 -29q190 -37 261 -100t71 -178q0 -73 -35.5 -129.5t-96.5 -90.5t-135.5 -51.5
t-158.5 -17.5q-86 0 -162 17.5t-138 51.5t-98 91.5t-36 130.5q0 47 17 87t42 65.5t58 45.5t61 30t55 15q-18 10 -36 23.5t-37 40t-19 53.5q0 40 37.5 77.5t108.5 55.5q-97 35 -150 115t-53 172q0 144 100 233t301 89h379zM426 760q-76 0 -128 -50t-52 -118q0 -72 51 -119
t129 -47q47 0 84 16t57.5 41t30.5 53t10 56q0 27 -9.5 54.5t-29.5 54t-57 43t-86 16.5zM383 -47q-90 0 -149.5 -36t-59.5 -105q0 -140 254 -140q48 0 90 6.5t80.5 21t61 42t22.5 65.5q0 41 -29 71t-76 45.5t-95.5 22.5t-98.5 7zM178 1300h137q31 -126 156 -126
q62 0 94.5 27.5t52.5 98.5h140q-13 -120 -95 -192t-196 -72q-115 0 -190.5 69.5t-98.5 194.5z" />
    <glyph glyph-name="Gdotaccent" unicode="&#x120;" horiz-adv-x="1515" 
d="M1378 686v-590q-257 -114 -512 -114q-156 0 -286.5 43t-217 113.5t-146.5 163t-87 189.5t-27 195q0 111 32 217.5t96.5 199t154 162t211.5 110t262 40.5q133 0 242.5 -30t249.5 -89v-204q-250 145 -496 145q-105 0 -202.5 -38.5t-173.5 -106.5t-121.5 -171t-45.5 -223
q0 -115 40.5 -214.5t113 -171.5t177.5 -113t230 -41q73 0 136 13.5t170 47.5v291h-269v176h469zM801 1761q44 0 76 -32t32 -76t-32 -76.5t-76 -32.5t-76.5 32.5t-32.5 76.5t32.5 76t76.5 32z" />
    <glyph glyph-name="gdotaccent" unicode="&#x121;" horiz-adv-x="874" 
d="M864 918v-142h-188q28 -28 43.5 -46.5t34 -62.5t18.5 -94q0 -43 -12 -84.5t-39.5 -84t-81.5 -75t-129 -46.5q-110 -19 -143 -29q-56 -15 -56 -57q0 -15 4.5 -24.5t23.5 -23.5t66 -28t123 -29q190 -37 261 -100t71 -178q0 -73 -35.5 -129.5t-96.5 -90.5t-135.5 -51.5
t-158.5 -17.5q-86 0 -162 17.5t-138 51.5t-98 91.5t-36 130.5q0 47 17 87t42 65.5t58 45.5t61 30t55 15q-18 10 -36 23.5t-37 40t-19 53.5q0 40 37.5 77.5t108.5 55.5q-97 35 -150 115t-53 172q0 144 100 233t301 89h379zM426 760q-76 0 -128 -50t-52 -118q0 -72 51 -119
t129 -47q47 0 84 16t57.5 41t30.5 53t10 56q0 27 -9.5 54.5t-29.5 54t-57 43t-86 16.5zM383 -47q-90 0 -149.5 -36t-59.5 -105q0 -140 254 -140q48 0 90 6.5t80.5 21t61 42t22.5 65.5q0 41 -29 71t-76 45.5t-95.5 22.5t-98.5 7zM383 1286q38 0 66 -28t28 -66t-28 -66
t-66 -28t-66 28t-28 66t28 66t66 28z" />
    <glyph glyph-name="Gcommaaccent" unicode="&#x122;" horiz-adv-x="1515" 
d="M1378 686v-590q-257 -114 -512 -114q-156 0 -286.5 43t-217 113.5t-146.5 163t-87 189.5t-27 195q0 111 32 217.5t96.5 199t154 162t211.5 110t262 40.5q133 0 242.5 -30t249.5 -89v-204q-250 145 -496 145q-105 0 -202.5 -38.5t-173.5 -106.5t-121.5 -171t-45.5 -223
q0 -115 40.5 -214.5t113 -171.5t177.5 -113t230 -41q73 0 136 13.5t170 47.5v291h-269v176h469zM662 -465v125q50 -4 88 -4q141 0 141 63q0 16 -7 28t-23 18t-30 10t-39.5 4t-39 -0.5t-41.5 -1.5l22 123h58q16 0 31 -0.5t47 -4t58 -9.5t57 -18.5t52.5 -30t36 -45.5t14.5 -62
q0 -35 -18.5 -75t-58.5 -71q-77 -55 -262 -55q-52 0 -86 6z" />
    <glyph glyph-name="gcommaaccent" unicode="&#x123;" horiz-adv-x="874" 
d="M864 918v-142h-188q28 -28 43.5 -46.5t34 -62.5t18.5 -94q0 -29 -5 -57.5t-21.5 -66.5t-44 -68.5t-77 -57.5t-114.5 -40q-110 -19 -143 -29q-56 -15 -56 -57q0 -15 3.5 -23.5t18.5 -21.5t53.5 -25.5t102.5 -26.5q142 -32 192.5 -48t92.5 -48q86 -68 86 -190
q0 -78 -38.5 -136.5t-102.5 -90t-135.5 -47t-149.5 -15.5q-86 0 -162 17.5t-138 51.5t-98 91.5t-36 130.5q0 186 233 243q-18 10 -36 23.5t-37 40t-19 53.5q0 40 37.5 77.5t108.5 55.5q-63 26 -101 60q-102 89 -102 227q0 88 45.5 164t118.5 110q108 48 237 48h379zM426 760
q-71 0 -125.5 -46.5t-54.5 -121.5q0 -72 51 -119t129 -47q85 0 133.5 50t48.5 116t-49 117t-133 51zM383 -47q-86 0 -147.5 -36t-61.5 -105q0 -33 14.5 -58t40.5 -39.5t51.5 -24t58.5 -13t51 -4.5t38 -1q19 0 36 1t50 4.5t59 12.5t52.5 23t41.5 38t15 56q0 146 -299 146z
M602 1475v-31q-39 -36 -53.5 -73.5t-16.5 -92.5q86 -27 86 -107q0 -44 -29 -76t-71 -32q-51 0 -81.5 46t-30.5 112q0 16 2.5 35.5t14 53t31 62.5t58 58t90.5 45z" />
    <glyph glyph-name="Hcircumflex" unicode="&#x124;" horiz-adv-x="1492" 
d="M1339 1397v-1397h-202v608h-783v-608h-200v1397h200v-604h783v604h202zM1087 1493h-126l-213 195l-216 -195h-124l192 322h291z" />
    <glyph glyph-name="hcircumflex" unicode="&#x125;" 
d="M307 1397v-598q55 65 128.5 102t154.5 37q97 0 170 -50t104 -124q35 -85 35 -240v-524h-182v569q0 83 -33 142q-24 39 -63.5 61.5t-81.5 22.5q-63 0 -116 -32.5t-116 -103.5v-659h-182v1397h182zM606 1780l193 -310h-113l-178 177l-170 -177h-109l187 310h190z" />
    <glyph glyph-name="Hbar" unicode="&#x126;" horiz-adv-x="1492" 
d="M1339 1155h154v-133h-154v-1022h-202v608h-783v-608h-200v1022h-154v133h154v242h200v-242h783v242h202v-242zM1137 1022h-783v-229h783v229z" />
    <glyph glyph-name="hbar" unicode="&#x127;" 
d="M307 1196h338v-106h-338v-291q55 65 128.5 102t154.5 37q97 0 170 -50t104 -124q35 -85 35 -240v-524h-182v569q0 83 -33 142q-24 39 -63.5 61.5t-81.5 22.5q-63 0 -116 -32.5t-116 -103.5v-659h-182v1090h-143v106h143v201h182v-201z" />
    <glyph glyph-name="Itilde" unicode="&#x128;" horiz-adv-x="512" 
d="M356 1397v-1397h-200v1397h200zM29 1493h-107q13 116 70 182t137 66q40 0 73 -12t115 -52q81 -37 103 -37q56 0 69 101h107q-7 -115 -64.5 -181.5t-134.5 -66.5q-36 0 -65.5 10.5t-136.5 57.5q-71 32 -97 32q-14 0 -24.5 -6.5t-16.5 -13.5t-12 -24t-8.5 -25.5t-7.5 -30.5
z" />
    <glyph glyph-name="itilde" unicode="&#x129;" horiz-adv-x="448" 
d="M315 920v-920h-184v920h184zM8 1073h-84q1 70 17.5 119.5t43 73t51.5 33.5t52 10q53 0 145 -35q10 -4 27 -10q94 -34 113 -35q34 0 50.5 19.5t22.5 60.5h78q-3 -125 -52 -180.5t-107 -55.5q-39 0 -75.5 11.5t-105.5 41.5q-64 27 -108 27q-25 0 -44.5 -19t-23.5 -61z" />
    <glyph glyph-name="Imacron" unicode="&#x12a;" horiz-adv-x="512" 
d="M356 1397v-1397h-200v1397h200zM594 1698v-162h-676v162h676z" />
    <glyph glyph-name="imacron" unicode="&#x12b;" horiz-adv-x="448" 
d="M315 920v-920h-184v920h184zM563 1266v-150h-678v150h678z" />
    <glyph glyph-name="Ibreve" unicode="&#x12c;" horiz-adv-x="512" 
d="M356 1397v-1397h-200v1397h200zM-84 1784h160q18 -58 59.5 -92.5t128.5 -34.5q44 0 76 11t51 32t29 39.5t18 44.5h160q-11 -65 -38 -117t-61 -84t-77 -53t-83 -29t-81 -8q-38 0 -79 9.5t-84 32.5t-79 55.5t-63.5 82.5t-36.5 111z" />
    <glyph glyph-name="ibreve" unicode="&#x12d;" horiz-adv-x="448" 
d="M315 920v-920h-184v920h184zM-66 1300h138q32 -126 155 -126q62 0 95 27.5t53 98.5h139q-13 -120 -95 -192t-196 -72q-115 0 -190.5 69.5t-98.5 194.5z" />
    <glyph glyph-name="Iogonek" unicode="&#x12e;" horiz-adv-x="512" 
d="M471 -217v-152q-75 -34 -154 -34q-105 0 -174 56t-69 154q0 99 82 193v1397h200v-1397h-45q-63 -86 -63 -139q0 -42 34 -72.5t72 -30.5q32 0 117 25z" />
    <glyph glyph-name="iogonek" unicode="&#x12f;" horiz-adv-x="448" 
d="M416 -197v-137q-70 -31 -137 -31q-94 0 -157 52.5t-63 138.5q0 89 74 174v920h182v-920h-41q-59 -74 -59 -127q0 -36 28 -64t66 -28q30 0 107 22zM223 1307q46 0 77.5 -31.5t31.5 -75.5q0 -43 -32.5 -75.5t-76.5 -32.5q-48 0 -77 34.5t-29 73.5q0 40 31 73.5t75 33.5z
" />
    <glyph glyph-name="Idotaccent" unicode="&#x130;" horiz-adv-x="512" 
d="M356 1397v-1397h-200v1397h200zM258 1761q44 0 76.5 -32t32.5 -76t-32.5 -76.5t-76.5 -32.5t-76 32.5t-32 76.5t32 76t76 32z" />
    <glyph glyph-name="dotlessi" unicode="&#x131;" horiz-adv-x="448" 
d="M315 920v-920h-184v920h184z" />
    <glyph glyph-name="IJ" unicode="&#x132;" 
d="M356 1397v-1397h-200v1397h200zM868 1397v-1379q0 -148 -24.5 -238.5t-93.5 -158.5q-99 -94 -263 -94q-5 0 -65 6l-37 186q62 -1 101.5 2.5t74 16t53 33.5t32 59t18 87.5t4.5 123.5v1356h200z" />
    <glyph glyph-name="ij" unicode="&#x133;" horiz-adv-x="894" 
d="M223 1307q45 0 77 -32t32 -75t-32.5 -75.5t-76.5 -32.5q-48 0 -77 34.5t-29 73.5q0 40 31 73.5t75 33.5zM315 920v-920h-182v920h182zM662 1307q41 0 74.5 -29t33.5 -78q0 -43 -29.5 -75.5t-76.5 -32.5q-50 0 -79.5 35t-29.5 73q0 40 31 73.5t76 33.5zM758 920v-975
q0 -45 -0.5 -69.5t-4 -65.5t-10.5 -66t-20 -59.5t-32.5 -58.5t-49.5 -50t-68 -47l-137 133q69 25 107 86q15 25 21.5 53.5t7.5 54.5t1 99v965h185z" />
    <glyph glyph-name="Jcircumflex" unicode="&#x134;" horiz-adv-x="512" 
d="M356 1397v-1379q0 -148 -24.5 -238.5t-93.5 -158.5q-99 -94 -263 -94q-5 0 -65 6l-37 186q62 -1 101.5 2.5t74 16t53 33.5t32 59t18 87.5t4.5 123.5v1356h200zM598 1493h-127l-213 195l-215 -195h-125l193 322h290z" />
    <glyph glyph-name="jcircumflex" unicode="&#x135;" horiz-adv-x="448" 
d="M309 920v-975q0 -46 -0.5 -69.5t-4 -65.5t-10 -66.5t-20 -59t-32.5 -58.5t-49 -50t-68 -47l-137 133q11 4 20.5 8.5t18 10t16 10.5t14 11.5t11 10.5t10 10.5t7.5 9.5t6.5 8.5t4.5 6.5q15 25 21.5 54.5t7 52.5t0.5 100v965h184zM317 1427l193 -309h-111l-178 176
l-172 -176h-108l188 309h188z" />
    <glyph glyph-name="Kcommaaccent" unicode="&#x136;" horiz-adv-x="1343" 
d="M1194 1397l-606 -662l755 -735h-274l-713 690v-690h-202v1397h202v-639l588 639h250zM535 -465v125q50 -4 88 -4q141 0 141 63q0 16 -7 28t-23 18t-30 10t-39.5 4t-39 -0.5t-41.5 -1.5l22 123h58q16 0 31 -0.5t47 -4t58 -9.5t57.5 -18.5t53 -30t36 -45.5t14.5 -62
q0 -35 -19 -75t-59 -71q-77 -55 -262 -55q-51 0 -86 6z" />
    <glyph glyph-name="kcommaaccent" unicode="&#x137;" horiz-adv-x="980" 
d="M944 920l-393 -451l473 -469h-244l-461 469l408 451h217zM311 1397v-1397h-184v1397h184zM356 -418v113q45 -4 62 -4q15 0 31 2t34.5 7.5t30.5 17.5t12 28q0 23 -15.5 36.5t-39 16t-38 2.5t-25.5 -2l36 101q22 0 35 -0.5t40.5 -3t45 -7.5t41 -15.5t37 -25t23.5 -38
t10 -52.5q0 -38 -21 -79t-59 -66q-56 -37 -176 -37q-43 0 -64 6z" />
    <glyph glyph-name="kgreenlandic" unicode="&#x138;" horiz-adv-x="980" 
d="M311 463v-463h-184v920h184v-443l400 443h219l-393 -451l473 -469h-244z" />
    <glyph glyph-name="Lacute" unicode="&#x139;" horiz-adv-x="1003" 
d="M354 1397v-1215h629v-182h-831v1397h202zM338 1800h293l-336 -307h-107z" />
    <glyph glyph-name="lacute" unicode="&#x13a;" horiz-adv-x="448" 
d="M315 1397v-1397h-182v1397h182zM430 1772l-225 -302h-113l135 302h203z" />
    <glyph glyph-name="Lcommaaccent" unicode="&#x13b;" horiz-adv-x="1003" 
d="M354 1397v-1215h629v-182h-831v1397h202zM365 -467v125q50 -4 88 -4q141 0 141 63q0 16 -7 28t-23 18t-30 10t-39.5 4t-39 -0.5t-41.5 -1.5l22 123h58q16 0 31 -0.5t47 -4t58 -9.5t57.5 -18.5t53 -30t36 -45.5t14.5 -62q0 -35 -19 -75t-59 -71q-77 -55 -262 -55
q-51 0 -86 6z" />
    <glyph glyph-name="lcommaaccent" unicode="&#x13c;" horiz-adv-x="448" 
d="M315 1397v-1397h-182v1397h182zM90 -418v113q45 -4 62 -4q15 0 31 2t34.5 7.5t30.5 17.5t12 28q0 23 -15.5 36.5t-39.5 16t-38.5 2.5t-25.5 -2l39 105q230 0 230 -146q0 -38 -21 -79t-59 -66q-56 -37 -174 -37q-45 0 -66 6z" />
    <glyph glyph-name="Lcaron" unicode="&#x13d;" horiz-adv-x="1003" 
d="M354 1397v-1215h629v-182h-831v1397h202zM623 907v39q49 46 66 91t20 114q-107 33 -107 131q0 55 35.5 94t87.5 39q63 0 101 -56.5t38 -135.5q0 -17 -1.5 -35t-14 -63t-35.5 -81.5t-72.5 -76t-117.5 -60.5z" />
    <glyph glyph-name="lcaron" unicode="&#x13e;" horiz-adv-x="448" 
d="M311 1397v-1397h-182v1397h182zM434 909v37q48 47 65 92.5t19 112.5q-106 33 -106 131q0 54 36 93.5t87 39.5q65 0 102 -56.5t37 -135.5q0 -12 -1.5 -26t-7 -47.5t-21.5 -64.5t-40.5 -65.5t-68.5 -63.5t-101 -47z" />
    <glyph glyph-name="Ldot" unicode="&#x13f;" horiz-adv-x="1003" 
d="M352 1397v-1215h631v-182h-831v1397h200zM664 821q45 0 77.5 -32.5t32.5 -77.5t-32.5 -78t-77.5 -33q-47 0 -80 33t-33 78t33 77.5t80 32.5z" />
    <glyph glyph-name="ldot" unicode="&#x140;" horiz-adv-x="638" 
d="M313 1397v-1397h-182v1397h182zM516 829q42 0 74.5 -30.5t32.5 -77.5q0 -45 -32 -77t-75 -32q-44 0 -76 32.5t-32 76.5q0 47 33 77.5t75 30.5z" />
    <glyph glyph-name="Lslash" unicode="&#x141;" horiz-adv-x="1003" 
d="M352 1397v-533l283 232v-176l-283 -244v-488h631v-188h-831v512l-183 -145v186l183 149v695h200z" />
    <glyph glyph-name="lslash" unicode="&#x142;" horiz-adv-x="448" 
d="M317 1397v-539l164 129v-162l-164 -133v-692h-182v545l-162 -125v162l162 131v684h182z" />
    <glyph glyph-name="Nacute" unicode="&#x143;" horiz-adv-x="1599" 
d="M1454 1397v-1397h-172l-934 1075v-1075h-188v1397h162l942 -1084v1084h190zM862 1800h293l-336 -307h-106z" />
    <glyph glyph-name="nacute" unicode="&#x144;" 
d="M125 920h186v-117q59 66 134 100.5t143 34.5q26 0 55 -5.5t67 -20t74.5 -45.5t63.5 -76q26 -40 38.5 -96t12.5 -171v-524h-184v524q0 86 -7.5 126.5t-41.5 78.5q-51 57 -138 57q-62 0 -118.5 -34t-98.5 -95v-657h-186v920zM719 1337l-225 -301h-113l135 301h203z" />
    <glyph glyph-name="Ncommaaccent" unicode="&#x145;" horiz-adv-x="1599" 
d="M1454 1397v-1397h-172l-934 1075v-1075h-188v1397h162l942 -1084v1084h190zM662 -465v125q50 -4 88 -4q141 0 141 63q0 16 -7 28t-23 18t-30 10t-39.5 4t-39 -0.5t-41.5 -1.5l22 123h58q16 0 31 -0.5t47 -4t58 -9.5t57 -18.5t52.5 -30t36 -45.5t14.5 -62q0 -35 -18.5 -75
t-58.5 -71q-77 -55 -262 -55q-52 0 -86 6z" />
    <glyph glyph-name="ncommaaccent" unicode="&#x146;" 
d="M125 920h186v-117q59 66 134 100.5t143 34.5q26 0 55 -5.5t67 -20t74.5 -45.5t63.5 -76q26 -40 38.5 -96t12.5 -171v-524h-184v524q0 86 -7.5 126.5t-41.5 78.5q-51 57 -138 57q-62 0 -118.5 -34t-98.5 -95v-657h-186v920zM379 -422v113q45 -4 61 -4q15 0 31.5 2t35 7.5
t30.5 17.5t12 28q0 23 -15.5 36.5t-39.5 16t-38.5 2.5t-25.5 -2l39 105q229 0 229 -146q0 -38 -21 -79.5t-59 -65.5q-56 -37 -174 -37q-44 0 -65 6z" />
    <glyph glyph-name="Ncaron" unicode="&#x147;" horiz-adv-x="1599" 
d="M1454 1397v-1397h-172l-934 1075v-1075h-188v1397h162l942 -1084v1084h190zM459 1815h127l213 -195l215 195h125l-193 -322h-291z" />
    <glyph glyph-name="ncaron" unicode="&#x148;" 
d="M125 920h186v-117q59 66 134 100.5t143 34.5q26 0 55 -5.5t67 -20t74.5 -45.5t63.5 -76q26 -40 38.5 -96t12.5 -171v-524h-184v524q0 86 -7.5 126.5t-41.5 78.5q-51 57 -138 57q-62 0 -118.5 -34t-98.5 -95v-657h-186v920zM836 1346l-228 -310h-188l-223 310h112
l207 -175l205 175h115z" />
    <glyph glyph-name="napostrophe" unicode="&#x149;" horiz-adv-x="1323" 
d="M104 907v39q48 47 65 92.5t19 112.5q-106 33 -106 131q0 54 36.5 93.5t88.5 39.5q63 0 100 -56.5t37 -135.5q0 -13 -1.5 -27t-7 -47.5t-21.5 -64.5t-40.5 -65.5t-68.5 -64t-101 -47.5zM420 920h184v-117q60 66 134.5 100.5t142.5 34.5q26 0 55 -5.5t67 -20t75.5 -45.5
t64.5 -76q26 -40 38.5 -96t12.5 -171v-524h-184v524q0 85 -8.5 126t-43.5 79q-48 57 -137 57q-62 0 -118.5 -34t-98.5 -95v-657h-184v920z" />
    <glyph glyph-name="Eng" unicode="&#x14a;" horiz-adv-x="1492" 
d="M1337 889v-469q0 -216 -100.5 -327t-263.5 -111q-80 0 -109 6l-39 192q62 -6 78 -6q60 0 100.5 9.5t72 35.5t46.5 74t15 121v417q0 107 -27.5 185.5t-77 123.5t-110 66t-134.5 21q-139 0 -249.5 -71.5t-180.5 -168.5v-987h-202v1397h202v-189q192 207 459 207
q104 0 196 -32.5t165.5 -95t116 -165t42.5 -233.5z" />
    <glyph glyph-name="eng" unicode="&#x14b;" 
d="M715 -45v569q0 86 -7.5 126.5t-41.5 78.5q-51 57 -138 57q-62 0 -118.5 -34t-98.5 -95v-657h-186v920h186v-117q59 66 134 100.5t143 34.5q26 0 55 -5.5t67 -20t74.5 -45.5t63.5 -76q26 -40 38.5 -96t12.5 -171v-579q0 -46 -0.5 -69.5t-4 -65.5t-10 -66.5t-20 -59
t-32.5 -58.5t-49 -50t-68 -47l-137 133q43 15 69.5 41t36.5 47q22 34 26.5 71t4.5 134z" />
    <glyph glyph-name="Omacron" unicode="&#x14c;" horiz-adv-x="1685" 
d="M840 1415q169 0 313 -59t239 -158t148 -228t53 -270q0 -149 -55.5 -281t-154.5 -228.5t-242.5 -152.5t-311.5 -56q-161 0 -299.5 56.5t-234 153t-149.5 227t-54 275.5q0 140 50.5 269t143.5 230t237 161.5t317 60.5zM848 1227q-95 0 -176.5 -23t-140 -63.5t-104 -92.5
t-73 -112.5t-41.5 -121t-14 -120.5q0 -154 75 -275.5t198 -186t270 -64.5q114 0 225 44.5t182 121.5q64 70 102 172.5t38 195.5q0 71 -20.5 143.5t-65 141t-107 122t-153 86t-195.5 32.5zM1200 1698v-162h-676v162h676z" />
    <glyph glyph-name="omacron" unicode="&#x14d;" horiz-adv-x="1130" 
d="M569 938q209 0 348.5 -133t139.5 -348q0 -95 -29.5 -175t-79 -134.5t-114 -92.5t-133 -55.5t-138.5 -17.5q-144 0 -256.5 65t-172.5 174t-60 240q0 130 58.5 237.5t173 173.5t263.5 66zM559 774q-128 0 -213.5 -84t-85.5 -231q0 -83 28.5 -146t75 -98t98 -52.5
t105.5 -17.5q135 0 219 88t84 228q0 66 -20 120.5t-51.5 89.5t-73.5 59t-83.5 34t-82.5 10zM926 1266v-150h-678v150h678z" />
    <glyph glyph-name="Obreve" unicode="&#x14e;" horiz-adv-x="1685" 
d="M840 1415q169 0 313 -59t239 -158t148 -228t53 -270q0 -149 -55.5 -281t-154.5 -228.5t-242.5 -152.5t-311.5 -56q-161 0 -299.5 56.5t-234 153t-149.5 227t-54 275.5q0 140 50.5 269t143.5 230t237 161.5t317 60.5zM848 1227q-95 0 -176.5 -23t-140 -63.5t-104 -92.5
t-73 -112.5t-41.5 -121t-14 -120.5q0 -154 75 -275.5t198 -186t270 -64.5q114 0 225 44.5t182 121.5q64 70 102 172.5t38 195.5q0 71 -20.5 143.5t-65 141t-107 122t-153 86t-195.5 32.5zM502 1784h160q18 -58 59.5 -92.5t128.5 -34.5q44 0 76 11t51 32t29 39.5t18 44.5h160
q-11 -65 -38 -117t-61 -84t-77 -53t-83 -29t-81 -8q-38 0 -79 9.5t-84 32.5t-79 55.5t-63.5 82.5t-36.5 111z" />
    <glyph glyph-name="obreve" unicode="&#x14f;" horiz-adv-x="1130" 
d="M569 938q209 0 348.5 -133t139.5 -348q0 -95 -29.5 -175t-79 -134.5t-114 -92.5t-133 -55.5t-138.5 -17.5q-144 0 -256.5 65t-172.5 174t-60 240q0 130 58.5 237.5t173 173.5t263.5 66zM559 774q-128 0 -213.5 -84t-85.5 -231q0 -83 28.5 -146t75 -98t98 -52.5
t105.5 -17.5q135 0 219 88t84 228q0 66 -20 120.5t-51.5 89.5t-73.5 59t-83.5 34t-82.5 10zM276 1300h138q32 -126 155 -126q62 0 95 27.5t53 98.5h139q-13 -120 -95 -192t-196 -72q-115 0 -190.5 69.5t-98.5 194.5z" />
    <glyph glyph-name="Ohungarumlaut" unicode="&#x150;" horiz-adv-x="1685" 
d="M840 1415q169 0 313 -59t239 -158t148 -228t53 -270q0 -149 -55.5 -281t-154.5 -228.5t-242.5 -152.5t-311.5 -56q-161 0 -299.5 56.5t-234 153t-149.5 227t-54 275.5q0 140 50.5 269t143.5 230t237 161.5t317 60.5zM848 1227q-95 0 -176.5 -23t-140 -63.5t-104 -92.5
t-73 -112.5t-41.5 -121t-14 -120.5q0 -154 75 -275.5t198 -186t270 -64.5q114 0 225 44.5t182 121.5q64 70 102 172.5t38 195.5q0 71 -20.5 143.5t-65 141t-107 122t-153 86t-195.5 32.5zM971 1800l-256 -307h-90l90 307h256zM1307 1800l-256 -307h-90l90 307h256z" />
    <glyph glyph-name="ohungarumlaut" unicode="&#x151;" horiz-adv-x="1130" 
d="M569 938q209 0 348.5 -133t139.5 -348q0 -95 -29.5 -175t-79 -134.5t-114 -92.5t-133 -55.5t-138.5 -17.5q-144 0 -256.5 65t-172.5 174t-60 240q0 130 58.5 237.5t173 173.5t263.5 66zM559 774q-128 0 -213.5 -84t-85.5 -231q0 -83 28.5 -146t75 -98t98 -52.5
t105.5 -17.5q135 0 219 88t84 228q0 66 -20 120.5t-51.5 89.5t-73.5 59t-83.5 34t-82.5 10zM1059 1335l-228 -299h-112l135 299h205zM729 1335l-227 -299h-111l133 299h205z" />
    <glyph glyph-name="OE" unicode="&#x152;" horiz-adv-x="1916" 
d="M1792 1397v-174h-571v-426h551v-181h-551v-442h594v-174h-861q-197 0 -344.5 39t-281.5 151q-232 199 -232 502q0 178 78.5 329t245.5 257q66 42 137.5 68.5t149.5 36t124.5 12t122.5 2.5h838zM926 174h94v1049h-78q-160 0 -269.5 -31.5t-207.5 -122.5
q-87 -80 -122.5 -180t-35.5 -191q0 -102 41.5 -204t126.5 -175q47 -41 103.5 -70.5t101 -43.5t100 -21.5t82 -8.5t64.5 -1z" />
    <glyph glyph-name="oe" unicode="&#x153;" horiz-adv-x="1705" 
d="M1634 264v-184q-39 -24 -61 -35.5t-65 -29t-93.5 -25.5t-111.5 -8q-60 0 -117 14t-120.5 57t-104.5 111q-72 -89 -178 -135.5t-224 -46.5q-112 0 -206 41t-154 109t-93.5 153t-33.5 174q0 92 34.5 178t97 153t158 107.5t209.5 40.5q82 0 149.5 -18.5t115 -52.5t73 -59
t52.5 -60q48 81 129.5 135.5t187.5 54.5q96 0 178 -49t125 -139q47 -97 53 -250h-577q1 -48 2.5 -71.5t8 -59.5t20.5 -64.5t38 -58.5q77 -96 217 -96t291 114zM1075 618h375q-7 52 -33 89q-51 73 -145 73q-12 0 -24.5 -1t-39.5 -10t-49.5 -24.5t-46.5 -48.5t-37 -78z
M567 760q-129 0 -217 -86t-88 -221q0 -131 90 -213t217 -82q141 0 220 88t79 213q0 129 -85 215t-216 86z" />
    <glyph glyph-name="Racute" unicode="&#x154;" horiz-adv-x="1236" 
d="M160 1397h350q138 0 240 -45q108 -45 163.5 -138.5t55.5 -205.5q0 -122 -60 -211t-174 -133q37 -24 72 -57.5t61 -63t61.5 -81t55.5 -83.5t62 -100q53 -87 190 -279h-238q-15 22 -137.5 210t-148.5 222q-40 51 -75.5 85.5t-61 52.5t-57.5 26.5t-51 10t-56 1.5h-54v-608
h-198v1397zM420 1227h-62v-441h78q137 0 195 21q66 26 99.5 82t33.5 119q0 61 -29 112t-78 74q-67 33 -237 33zM559 1800h293l-336 -307h-106z" />
    <glyph glyph-name="racute" unicode="&#x155;" horiz-adv-x="790" 
d="M121 920h182v-211q32 50 52 77.5t57.5 69t78.5 62t87 20.5q107 0 215 -104l-97 -160q-29 29 -79 59.5t-97 30.5q-28 0 -63 -15.5t-70.5 -46.5t-59.5 -89t-24 -132v-481h-182v920zM653 1337l-225 -301h-113l136 301h202z" />
    <glyph glyph-name="Rcommaaccent" unicode="&#x156;" horiz-adv-x="1236" 
d="M160 1397h350q138 0 240 -45q108 -45 163.5 -138.5t55.5 -205.5q0 -122 -60 -211t-174 -133q37 -24 72 -57.5t61 -63t61.5 -81t55.5 -83.5t62 -100q53 -87 190 -279h-238q-15 22 -137.5 210t-148.5 222q-40 51 -75.5 85.5t-61 52.5t-57.5 26.5t-51 10t-56 1.5h-54v-608
h-198v1397zM420 1227h-62v-441h78q137 0 195 21q66 26 99.5 82t33.5 119q0 61 -29 112t-78 74q-67 33 -237 33zM481 -465v125q50 -4 88 -4q142 0 142 63q0 24 -15.5 38t-48 18t-54.5 4t-63 -2l23 123h57q16 0 31 -0.5t47 -4t58 -9.5t57.5 -18.5t53 -30t36 -45.5t14.5 -62
q0 -35 -19 -75t-59 -71q-77 -55 -262 -55q-51 0 -86 6z" />
    <glyph glyph-name="rcommaaccent" unicode="&#x157;" horiz-adv-x="790" 
d="M121 920h182v-211q32 50 52 77.5t57.5 69t78.5 62t87 20.5q107 0 215 -104l-97 -160q-29 29 -79 59.5t-97 30.5q-28 0 -63 -15.5t-70.5 -46.5t-59.5 -89t-24 -132v-481h-182v920zM147 -422v113q45 -4 62 -4q15 0 31 2t34.5 7.5t30.5 17.5t12 28q0 23 -15.5 36.5t-39 16
t-38 2.5t-25.5 -2l39 105q229 0 229 -146q0 -38 -20.5 -79t-59.5 -66q-56 -37 -174 -37q-45 0 -66 6z" />
    <glyph glyph-name="Rcaron" unicode="&#x158;" horiz-adv-x="1236" 
d="M160 1397h350q138 0 240 -45q108 -45 163.5 -138.5t55.5 -205.5q0 -122 -60 -211t-174 -133q37 -24 72 -57.5t61 -63t61.5 -81t55.5 -83.5t62 -100q53 -87 190 -279h-238q-15 22 -137.5 210t-148.5 222q-40 51 -75.5 85.5t-61 52.5t-57.5 26.5t-51 10t-56 1.5h-54v-608
h-198v1397zM420 1227h-62v-441h78q137 0 195 21q66 26 99.5 82t33.5 119q0 61 -29 112t-78 74q-67 33 -237 33zM197 1815h127l213 -195l215 195h125l-193 -322h-291z" />
    <glyph glyph-name="rcaron" unicode="&#x159;" horiz-adv-x="790" 
d="M121 920h182v-211q32 50 52 77.5t57.5 69t78.5 62t87 20.5q107 0 215 -104l-97 -160q-29 29 -79 59.5t-97 30.5q-28 0 -63 -15.5t-70.5 -46.5t-59.5 -89t-24 -132v-481h-182v920zM770 1346l-227 -310h-189l-223 310h113l207 -175l204 175h115z" />
    <glyph glyph-name="Sacute" unicode="&#x15a;" horiz-adv-x="937" 
d="M817 1317v-227q-150 145 -328 145q-100 0 -160.5 -47t-60.5 -115q0 -75 56 -131q49 -49 219 -149q22 -13 73 -43q117 -70 181 -156q75 -96 75 -232q0 -167 -111 -273.5t-294 -106.5q-206 0 -377 129v254q165 -205 377 -205q85 0 151 50t66 134q0 41 -18.5 80.5
t-49.5 70.5t-58.5 52t-57.5 39q-181 109 -242 152t-104 98q-70 90 -70 208q0 161 113 266t299 105q172 0 321 -98zM502 1800h293l-336 -307h-107z" />
    <glyph glyph-name="sacute" unicode="&#x15b;" horiz-adv-x="788" 
d="M662 862v-180q-81 50 -143.5 74t-123.5 24q-59 0 -87.5 -25.5t-28.5 -56.5q0 -39 37.5 -69t144.5 -90q11 -6 16 -9q230 -126 230 -288q0 -29 -8.5 -60.5t-31 -68t-56.5 -65t-91.5 -47.5t-128.5 -19q-87 0 -154 21t-153 63v196q89 -61 169 -91t124 -30q49 0 94 26.5
t45 68.5q0 24 -8.5 42.5t-31.5 37t-41.5 30t-59.5 33.5q-55 30 -89 51t-76 53t-65 61t-39 69t-16 85q0 103 81.5 171.5t211.5 68.5q137 0 279 -76zM631 1337l-225 -301h-113l135 301h203z" />
    <glyph glyph-name="Scircumflex" unicode="&#x15c;" horiz-adv-x="937" 
d="M817 1317v-227q-150 145 -328 145q-100 0 -160.5 -47t-60.5 -115q0 -75 56 -131q49 -49 219 -149q22 -13 73 -43q117 -70 181 -156q75 -96 75 -232q0 -167 -111 -273.5t-294 -106.5q-206 0 -377 129v254q165 -205 377 -205q85 0 151 50t66 134q0 41 -18.5 80.5
t-49.5 70.5t-58.5 52t-57.5 39q-181 109 -242 152t-104 98q-70 90 -70 208q0 161 113 266t299 105q172 0 321 -98zM811 1493h-127l-213 195l-215 -195h-125l193 322h290z" />
    <glyph glyph-name="scircumflex" unicode="&#x15d;" horiz-adv-x="788" 
d="M662 862v-180q-81 50 -143.5 74t-123.5 24q-59 0 -87.5 -25.5t-28.5 -56.5q0 -39 37.5 -69t144.5 -90q11 -6 16 -9q230 -126 230 -288q0 -29 -8.5 -60.5t-31 -68t-56.5 -65t-91.5 -47.5t-128.5 -19q-87 0 -154 21t-153 63v196q89 -61 169 -91t124 -30q49 0 94 26.5
t45 68.5q0 24 -8.5 42.5t-31.5 37t-41.5 30t-59.5 33.5q-55 30 -89 51t-76 53t-65 61t-39 69t-16 85q0 103 81.5 171.5t211.5 68.5q137 0 279 -76zM487 1346l193 -310h-113l-178 176l-170 -176h-108l186 310h190z" />
    <glyph glyph-name="uni015E" unicode="&#x15e;" horiz-adv-x="937" 
d="M774 1317v-227q-150 145 -325 145q-98 0 -160 -46t-62 -118q0 -61 38 -107.5t102 -89.5q14 -10 127 -76.5t135 -82.5q38 -28 65.5 -53.5t62 -69.5t53.5 -102.5t19 -127.5q0 -44 -9 -87.5t-31.5 -89.5t-56.5 -83t-90 -67.5t-126 -44.5l-2 -13q77 -12 116.5 -53.5
t39.5 -103.5q0 -67 -54 -118t-128 -74t-152 -23q-59 0 -133 8v129q18 -4 102 -4q156 0 156 65q0 24 -21 39.5t-48.5 18.5t-55 5t-39.5 -1l47 123q-104 21 -163 44t-134 79v254q165 -205 377 -205q84 0 150.5 49.5t66.5 134.5q0 136 -182 242q-92 55 -133.5 81t-101.5 67.5
t-84 68.5t-52 67t-36.5 81t-8.5 93q0 161 112.5 266t299.5 105q173 0 319 -98z" />
    <glyph glyph-name="uni015F" unicode="&#x15f;" horiz-adv-x="788" 
d="M455 -14v-2l-21 -43q58 -9 92 -37q56 -44 56 -115q0 -11 -3 -26.5t-11.5 -39t-29.5 -46.5t-51 -39q-61 -31 -219 -31q-35 0 -75 4v119q9 1 59.5 2t58.5 2q86 12 86 57q0 62 -155 62l63 135q-89 14 -221 78v196q89 -61 169 -91t124 -30q49 0 94 26.5t45 68.5
q0 24 -8.5 42.5t-31.5 37t-41.5 30t-59.5 33.5q-55 30 -89 51t-76 53t-65 61t-39 69t-16 85q0 75 44 131.5t107 82.5t130 26q125 0 241 -47q70 -28 50 -209q-81 50 -143.5 74t-123.5 24q-59 0 -87.5 -25.5t-28.5 -56.5q0 -39 37.5 -69t144.5 -90q11 -6 16 -9
q230 -126 230 -288q0 -102 -82 -181q-28 -27 -61 -43.5t-54 -21.5t-55 -10z" />
    <glyph glyph-name="Scaron" unicode="&#x160;" horiz-adv-x="937" 
d="M817 1317v-227q-150 145 -328 145q-100 0 -160.5 -47t-60.5 -115q0 -75 56 -131q49 -49 219 -149q22 -13 73 -43q117 -70 181 -156q75 -96 75 -232q0 -167 -111 -273.5t-294 -106.5q-206 0 -377 129v254q165 -205 377 -205q85 0 151 50t66 134q0 41 -18.5 80.5
t-49.5 70.5t-58.5 52t-57.5 39q-181 109 -242 152t-104 98q-70 90 -70 208q0 161 113 266t299 105q172 0 321 -98zM129 1815h127l213 -195l215 195h125l-193 -322h-290z" />
    <glyph glyph-name="scaron" unicode="&#x161;" horiz-adv-x="788" 
d="M662 862v-180q-81 50 -143.5 74t-123.5 24q-59 0 -87.5 -25.5t-28.5 -56.5q0 -39 37.5 -69t144.5 -90q11 -6 16 -9q230 -126 230 -288q0 -29 -8.5 -60.5t-31 -68t-56.5 -65t-91.5 -47.5t-128.5 -19q-87 0 -154 21t-153 63v196q89 -61 169 -91t124 -30q49 0 94 26.5
t45 68.5q0 24 -8.5 42.5t-31.5 37t-41.5 30t-59.5 33.5q-55 30 -89 51t-76 53t-65 61t-39 69t-16 85q0 103 81.5 171.5t211.5 68.5q137 0 279 -76zM717 1346l-228 -310h-188l-223 310h112l207 -175l205 175h115z" />
    <glyph glyph-name="Tcommaaccent" unicode="&#x162;" horiz-adv-x="1236" 
d="M1202 1397v-176h-487v-1221h-201v1221h-479v176h1167zM430 -465v125q50 -4 88 -4q141 0 141 63q0 16 -7 28t-23 18t-30 10t-39.5 4t-39 -0.5t-41.5 -1.5l23 123h57q16 0 31 -0.5t47 -4t58 -9.5t57.5 -18.5t53 -30t36 -45.5t14.5 -62q0 -35 -19 -75t-59 -71
q-77 -55 -262 -55q-52 0 -86 6z" />
    <glyph glyph-name="tcommaaccent" unicode="&#x163;" horiz-adv-x="710" 
d="M342 1110v-190h291v-164h-291v-402q2 -89 7 -116.5t26 -51.5q37 -39 98 -39q99 0 207 66v-170q-112 -61 -236 -61q-59 0 -128 27.5t-111 88.5q-21 32 -31.5 79.5t-12 80t-1.5 90.5v408h-160v18zM258 -422v113q45 -4 61 -4q15 0 31.5 2t35 7.5t30.5 17.5t12 28
q0 23 -15.5 36.5t-39.5 16t-38.5 2.5t-25.5 -2l39 105q230 0 230 -146q0 -38 -21 -79.5t-59 -65.5q-56 -37 -174 -37q-45 0 -66 6z" />
    <glyph glyph-name="Tcaron" unicode="&#x164;" horiz-adv-x="1236" 
d="M1202 1397v-176h-487v-1221h-201v1221h-479v176h1167zM279 1815h127l212 -195l216 195h124l-192 -322h-291z" />
    <glyph glyph-name="tcaron" unicode="&#x165;" horiz-adv-x="710" 
d="M342 1110v-190h291v-164h-291v-402q2 -92 6.5 -118t26.5 -50q37 -39 98 -39q99 0 207 66v-170q-112 -61 -236 -61q-59 0 -128 27.5t-111 88.5q-21 32 -31.5 79.5t-12 80t-1.5 90.5v408h-160v18zM709 909v37q49 46 65.5 91.5t18.5 113.5q-105 33 -105 131q0 55 35.5 94
t87.5 39q63 0 101 -56.5t38 -135.5q0 -10 -0.5 -20t-5 -37.5t-13 -51.5t-26.5 -56t-42.5 -58t-64.5 -51t-89 -40z" />
    <glyph glyph-name="Tbar" unicode="&#x166;" horiz-adv-x="1236" 
d="M715 729h391v-131h-391v-598h-201v598h-383v131h383v492h-479v176h1167v-176h-487v-492z" />
    <glyph glyph-name="tbar" unicode="&#x167;" horiz-adv-x="710" 
d="M342 578h291v-107h-291v-131q0 -28 0.5 -43.5t4 -42.5t12 -42.5t22 -32t37 -24.5t55.5 -8q98 0 207 66v-170q-58 -31 -123 -46t-113 -15q-29 0 -63 7.5t-74.5 24.5t-75 52.5t-51.5 85.5q-20 56 -20 176v143h-176v107h176v178h-160v18l342 336v-190h291v-164h-291v-178z
" />
    <glyph glyph-name="Utilde" unicode="&#x168;" horiz-adv-x="1449" 
d="M1325 1397v-793q0 -56 -1 -89t-9 -93t-23.5 -103t-47.5 -94.5t-77 -91.5q-170 -151 -440 -151q-162 0 -304 59.5t-220 183.5q-36 56 -54.5 136t-21 126.5t-2.5 116.5v793h201v-793q0 -141 17.5 -208t70.5 -120q112 -116 313 -116q79 0 144.5 18.5t107.5 49t66.5 58.5
t41.5 58q39 71 39 260v793h199zM498 1493h-107q13 116 70 182t137 66q40 0 73 -12t115 -52q81 -37 103 -37q56 0 69 101h107q-7 -115 -64.5 -181.5t-134.5 -66.5q-36 0 -65.5 10.5t-136.5 57.5q-71 32 -97 32q-14 0 -24.5 -6.5t-16.5 -13.5t-12 -24t-8.5 -25.5t-7.5 -30.5z
" />
    <glyph glyph-name="utilde" unicode="&#x169;" 
d="M897 0h-184v117q-60 -66 -135.5 -100.5t-143.5 -34.5q-26 0 -55 5.5t-67 20t-74.5 45.5t-63.5 76q-26 40 -38.5 95.5t-12.5 170.5v525h184v-525q0 -30 0.5 -48t4 -49t10.5 -50.5t20.5 -43.5t33 -38t49.5 -23.5t69 -9.5q63 0 120 34.5t99 94.5v658h184v-920zM297 1073h-84
q1 70 17.5 119.5t43 73t51.5 33.5t52 10q53 0 145 -35q10 -4 27 -10q94 -34 113 -35q34 0 50.5 19.5t22.5 60.5h78q-3 -125 -52.5 -180.5t-107.5 -55.5q-39 0 -75 11.5t-105 41.5q-64 27 -108 27q-25 0 -44.5 -19t-23.5 -61z" />
    <glyph glyph-name="Umacron" unicode="&#x16a;" horiz-adv-x="1449" 
d="M1325 1397v-793q0 -56 -1 -89t-9 -93t-23.5 -103t-47.5 -94.5t-77 -91.5q-170 -151 -440 -151q-162 0 -304 59.5t-220 183.5q-36 56 -54.5 136t-21 126.5t-2.5 116.5v793h201v-793q0 -141 17.5 -208t70.5 -120q112 -116 313 -116q79 0 144.5 18.5t107.5 49t66.5 58.5
t41.5 58q39 71 39 260v793h199zM1063 1698v-162h-676v162h676z" />
    <glyph glyph-name="umacron" unicode="&#x16b;" 
d="M897 0h-184v117q-60 -66 -135.5 -100.5t-143.5 -34.5q-26 0 -55 5.5t-67 20t-74.5 45.5t-63.5 76q-26 40 -38.5 95.5t-12.5 170.5v525h184v-525q0 -30 0.5 -48t4 -49t10.5 -50.5t20.5 -43.5t33 -38t49.5 -23.5t69 -9.5q63 0 120 34.5t99 94.5v658h184v-920zM852 1266
v-150h-678v150h678z" />
    <glyph glyph-name="Ubreve" unicode="&#x16c;" horiz-adv-x="1449" 
d="M1325 1397v-793q0 -56 -1 -89t-9 -93t-23.5 -103t-47.5 -94.5t-77 -91.5q-170 -151 -440 -151q-162 0 -304 59.5t-220 183.5q-36 56 -54.5 136t-21 126.5t-2.5 116.5v793h201v-793q0 -141 17.5 -208t70.5 -120q112 -116 313 -116q79 0 144.5 18.5t107.5 49t66.5 58.5
t41.5 58q39 71 39 260v793h199zM385 1784h160q18 -58 59.5 -92.5t128.5 -34.5q44 0 76 11t51 32t29 39.5t18 44.5h160q-11 -65 -38 -117t-61 -84t-77 -53t-83 -29t-81 -8q-38 0 -79 9.5t-84 32.5t-79 55.5t-63.5 82.5t-36.5 111z" />
    <glyph glyph-name="ubreve" unicode="&#x16d;" 
d="M897 0h-184v117q-60 -66 -135.5 -100.5t-143.5 -34.5q-26 0 -55 5.5t-67 20t-74.5 45.5t-63.5 76q-26 40 -38.5 95.5t-12.5 170.5v525h184v-525q0 -30 0.5 -48t4 -49t10.5 -50.5t20.5 -43.5t33 -38t49.5 -23.5t69 -9.5q63 0 120 34.5t99 94.5v658h184v-920zM223 1300h137
q32 -126 156 -126q62 0 95 27.5t53 98.5h139q-13 -120 -95 -192t-196 -72q-115 0 -190.5 69.5t-98.5 194.5z" />
    <glyph glyph-name="Uring" unicode="&#x16e;" horiz-adv-x="1449" 
d="M1325 1397v-793q0 -56 -1 -89t-9 -93t-23.5 -103t-47.5 -94.5t-77 -91.5q-170 -151 -440 -151q-162 0 -304 59.5t-220 183.5q-36 56 -54.5 136t-21 126.5t-2.5 116.5v793h201v-793q0 -141 17.5 -208t70.5 -120q112 -116 313 -116q79 0 144.5 18.5t107.5 49t66.5 58.5
t41.5 58q39 71 39 260v793h199zM727 1907q92 0 149.5 -65t57.5 -142q0 -83 -57.5 -145t-149.5 -62q-91 0 -149 62t-58 145q0 86 60.5 146.5t146.5 60.5zM727 1587q46 0 79.5 33.5t33.5 79.5t-33.5 79t-79.5 33t-79.5 -33t-33.5 -79t33.5 -79.5t79.5 -33.5z" />
    <glyph glyph-name="uring" unicode="&#x16f;" 
d="M897 0h-184v117q-60 -66 -135.5 -100.5t-143.5 -34.5q-26 0 -55 5.5t-67 20t-74.5 45.5t-63.5 76q-26 40 -38.5 95.5t-12.5 170.5v525h184v-525q0 -30 0.5 -48t4 -49t10.5 -50.5t20.5 -43.5t33 -38t49.5 -23.5t69 -9.5q63 0 120 34.5t99 94.5v658h184v-920zM516 1415
q73 0 129.5 -53.5t56.5 -134.5t-55.5 -136t-134.5 -55q-77 0 -132.5 55t-55.5 134q0 83 58 136.5t134 53.5zM510 1333q-51 0 -82 -29.5t-31 -78.5t33.5 -83t83.5 -34q46 0 80.5 34t34.5 81q0 49 -35.5 79.5t-83.5 30.5z" />
    <glyph glyph-name="Uhungarumlaut" unicode="&#x170;" horiz-adv-x="1449" 
d="M1325 1397v-793q0 -56 -1 -89t-9 -93t-23.5 -103t-47.5 -94.5t-77 -91.5q-170 -151 -440 -151q-162 0 -304 59.5t-220 183.5q-36 56 -54.5 136t-21 126.5t-2.5 116.5v793h201v-793q0 -141 17.5 -208t70.5 -120q112 -116 313 -116q79 0 144.5 18.5t107.5 49t66.5 58.5
t41.5 58q39 71 39 260v793h199zM854 1800l-256 -307h-90l90 307h256zM1190 1800l-256 -307h-90l90 307h256z" />
    <glyph glyph-name="uhungarumlaut" unicode="&#x171;" 
d="M897 0h-184v117q-60 -66 -135.5 -100.5t-143.5 -34.5q-26 0 -55 5.5t-67 20t-74.5 45.5t-63.5 76q-26 40 -38.5 95.5t-12.5 170.5v525h184v-525q0 -30 0.5 -48t4 -49t10.5 -50.5t20.5 -43.5t33 -38t49.5 -23.5t69 -9.5q63 0 120 34.5t99 94.5v658h184v-920zM975 1335
l-227 -299h-113l135 299h205zM645 1335l-227 -299h-111l133 299h205z" />
    <glyph glyph-name="Uogonek" unicode="&#x172;" horiz-adv-x="1449" 
d="M125 604v793h201v-793q0 -141 17.5 -208t70.5 -120q112 -116 313 -116q79 0 144.5 18.5t107.5 49t66.5 58.5t41.5 58q39 71 39 260v793h199v-793q0 -56 -1 -89t-9 -93t-23.5 -103t-47.5 -94.5t-77 -91.5q-144 -128 -374 -149q-54 -77 -54 -123q0 -41 34.5 -72t78.5 -31
q42 0 111 25v-152q-75 -34 -154 -34q-106 0 -175 56.5t-69 151.5q0 94 72 181q-152 17 -263.5 80.5t-170.5 158.5q-36 56 -54.5 136t-21 126.5t-2.5 116.5z" />
    <glyph glyph-name="uogonek" unicode="&#x173;" 
d="M995 -197v-137q-75 -31 -139 -31q-92 0 -155.5 51t-63.5 140t76 174v117q-60 -66 -135.5 -100.5t-143.5 -34.5q-26 0 -55 5.5t-67 20t-74.5 45.5t-63.5 76q-26 40 -38.5 95.5t-12.5 170.5v525h184v-525q0 -30 0.5 -48t4 -49t10.5 -50.5t20.5 -43.5t33 -38t49.5 -23.5
t69 -9.5q63 0 120 34.5t99 94.5v658h184v-920h-45q-32 -44 -44.5 -69.5t-12.5 -55.5q0 -40 28.5 -67t65.5 -27q27 0 106 22z" />
    <glyph glyph-name="Wcircumflex" unicode="&#x174;" horiz-adv-x="2134" 
d="M2132 1397l-565 -1405h-43l-457 1138l-461 -1138h-43l-563 1405h201l385 -963l387 963h190l389 -963l381 963h199zM1409 1493h-127l-213 195l-215 -195h-125l193 322h290z" />
    <glyph glyph-name="wcircumflex" unicode="&#x175;" horiz-adv-x="1472" 
d="M1473 920l-406 -938h-57l-273 643l-268 -643h-59l-410 938h195l241 -558l234 558h135l233 -558l240 558h195zM829 1346l193 -310h-113l-178 176l-170 -176h-108l186 310h190z" />
    <glyph glyph-name="Ycircumflex" unicode="&#x176;" horiz-adv-x="1236" 
d="M1237 1397l-516 -658v-739h-205v739l-516 658h242l374 -482l379 482h242zM952 1493h-127l-213 195l-215 -195h-125l193 322h291z" />
    <glyph glyph-name="ycircumflex" unicode="&#x177;" horiz-adv-x="894" 
d="M897 920l-651 -1391h-203l313 668l-356 723h207l248 -519l237 519h205zM551 1346l192 -310h-112l-178 176l-170 -176h-109l186 310h191z" />
    <glyph glyph-name="Ydieresis" unicode="&#x178;" horiz-adv-x="1236" 
d="M1237 1397l-516 -658v-739h-205v739l-516 658h242l374 -482l379 482h242zM831 1761q44 0 76.5 -32t32.5 -76t-32.5 -76.5t-76.5 -32.5t-76 32.5t-32 76.5t32 76t76 32zM410 1761q44 0 76 -32t32 -76t-32 -76.5t-76 -32.5t-76.5 32.5t-32.5 76.5t32.5 76t76.5 32z" />
    <glyph glyph-name="Zacute" unicode="&#x179;" horiz-adv-x="1323" 
d="M1286 1397l-893 -1221h893v-176h-1261l895 1221h-838v176h1204zM664 1800h292l-335 -307h-107z" />
    <glyph glyph-name="zacute" unicode="&#x17a;" horiz-adv-x="854" 
d="M829 920l-487 -752h487v-168h-806l483 750h-463v170h786zM633 1337l-225 -301h-113l135 301h203z" />
    <glyph glyph-name="Zdotaccent" unicode="&#x17b;" horiz-adv-x="1323" 
d="M1286 1397l-893 -1221h893v-176h-1261l895 1221h-838v176h1204zM664 1761q44 0 76 -32t32 -76t-32 -76.5t-76 -32.5t-76.5 32.5t-32.5 76.5t32.5 76t76.5 32z" />
    <glyph glyph-name="zdotaccent" unicode="&#x17c;" horiz-adv-x="854" 
d="M829 920l-487 -752h487v-168h-806l483 750h-463v170h786zM428 1286q38 0 66 -28t28 -66t-28 -66t-66 -28t-66 28t-28 66t28 66t66 28z" />
    <glyph glyph-name="Zcaron" unicode="&#x17d;" horiz-adv-x="1323" 
d="M1286 1397l-893 -1221h893v-176h-1261l895 1221h-838v176h1204zM322 1815h127l213 -195l215 195h124l-192 -322h-291z" />
    <glyph glyph-name="zcaron" unicode="&#x17e;" horiz-adv-x="854" 
d="M829 920l-487 -752h487v-168h-806l483 750h-463v170h786zM750 1346l-228 -310h-188l-223 310h112l207 -175l205 175h115z" />
    <glyph glyph-name="florin" unicode="&#x192;" horiz-adv-x="1130" 
d="M-25 -406l35 156q105 -22 154 -22q36 0 60 12t37 37.5t18.5 46.5t11.5 57l176 1041h-201l25 139h201l24 135q7 37 11 58t15 56.5t23.5 57t34 48.5t48.5 41.5t67 25t88 10.5q19 0 38.5 -2t33 -3.5t36.5 -6.5t32 -7.5t37.5 -10t35.5 -9.5l-37 -154q-103 25 -154 25
q-65 0 -89.5 -35.5t-41.5 -124.5l-18 -104h203l-25 -139h-205l-190 -1092q-23 -133 -79.5 -196.5t-176.5 -63.5q-106 0 -228 24z" />
    <glyph glyph-name="AEacute" unicode="&#x1fc;" horiz-adv-x="1835" 
d="M1743 1397v-178h-574v-422h555v-181h-555v-436h596v-180h-796v616h-381l-365 -616h-219l827 1397h912zM969 797v465l-277 -465h277zM1329 1800h293l-336 -307h-106z" />
    <glyph glyph-name="aeacute" unicode="&#x1fd;" horiz-adv-x="1343" 
d="M1276 258v-178q-46 -31 -78 -48t-96 -33.5t-139 -16.5q-111 0 -194.5 46.5t-115.5 96.5q-179 -143 -344 -143q-121 0 -184.5 69t-63.5 166q0 126 129 209q30 19 101 47.5t108 38.5l127 39v29q0 30 -1 47t-9 47.5t-22.5 48t-45.5 31.5t-75 14q-156 0 -291 -152v220
q39 28 66.5 45t92.5 37t136 20q82 0 155 -30t121 -89q41 35 67.5 54.5t85 42t120.5 22.5q165 0 257.5 -115.5t92.5 -294.5v-28h-567q1 -50 5 -83.5t24.5 -89.5t58.5 -98q74 -82 200 -82q132 0 279 111zM731 616h363q-6 46 -26 79.5t-40 49t-47 24.5t-38.5 10t-22.5 1t-22 -1
t-37 -10t-47 -24.5t-45 -49t-38 -79.5zM526 162v297l-98 -39q-104 -41 -145 -80t-41 -88q0 -55 36 -100.5t95 -45.5q25 0 51 8t44 17t58 31zM879 1337l-226 -301h-112l135 301h203z" />
    <glyph glyph-name="Oslashacute" unicode="&#x1fe;" horiz-adv-x="1685" 
d="M1468 1337l-94 -114q93 -83 156 -218t63 -303q0 -150 -55.5 -282.5t-153.5 -229t-238 -152.5t-302 -56q-260 0 -434 118l-101 -108l-96 67l96 119q-96 88 -156.5 222.5t-60.5 291.5q0 145 53 275.5t148 230t238 158.5t313 59q100 0 192.5 -22t138 -42.5t101.5 -52.5
l98 121zM1239 1071l-700 -819q143 -82 303 -82q162 0 287.5 73t191 194t65.5 268q0 97 -37.5 195.5t-109.5 170.5zM442 328l703 821q-135 80 -299 80q-131 0 -237.5 -46.5t-172.5 -123t-101.5 -169.5t-35.5 -190q0 -142 63 -262q29 -54 80 -110zM844 1800h293l-336 -307
h-107z" />
    <glyph glyph-name="oslashacute" unicode="&#x1ff;" horiz-adv-x="1130" 
d="M942 969l68 -62l-90 -106q23 -26 30 -35t33.5 -48t38.5 -70.5t24.5 -84.5t12.5 -108q0 -204 -142.5 -338.5t-363.5 -134.5q-153 0 -270 75l-115 -133l-68 62l111 129q-139 142 -139 344q0 93 34 179t95 153t155.5 107t206.5 40q163 0 285 -82zM805 670l-410 -480
q72 -51 168 -51q126 0 223 87t97 231q0 52 -14.5 98t-28 66.5t-35.5 48.5zM326 248l407 477q-81 47 -168 47q-142 0 -229.5 -94.5t-87.5 -224.5q0 -118 78 -205zM772 1337l-225 -301h-113l135 301h203z" />
    <glyph glyph-name="uni0218" unicode="&#x218;" horiz-adv-x="937" 
d="M817 1317v-227q-150 145 -328 145q-100 0 -160.5 -47t-60.5 -115q0 -75 56 -131q49 -49 219 -149q22 -13 73 -43q117 -70 181 -156q75 -96 75 -232q0 -167 -111 -273.5t-294 -106.5q-206 0 -377 129v254q165 -205 377 -205q85 0 151 50t66 134q0 41 -18.5 80.5
t-49.5 70.5t-58.5 52t-57.5 39q-181 109 -242 152t-104 98q-70 90 -70 208q0 161 113 266t299 105q172 0 321 -98zM281 -465v125q50 -4 88 -4q141 0 141 63q0 16 -7 28t-23 18t-30 10t-39.5 4t-39 -0.5t-41.5 -1.5l22 123h58q16 0 31 -0.5t47 -4t58 -9.5t57.5 -18.5t53 -30
t36 -45.5t14.5 -62q0 -35 -19 -75t-59 -71q-77 -55 -262 -55q-51 0 -86 6z" />
    <glyph glyph-name="uni0219" unicode="&#x219;" horiz-adv-x="788" 
d="M662 862v-180q-81 50 -143.5 74t-123.5 24q-59 0 -87.5 -25.5t-28.5 -56.5q0 -39 37.5 -69t144.5 -90q11 -6 16 -9q230 -126 230 -288q0 -29 -8.5 -60.5t-31 -68t-56.5 -65t-91.5 -47.5t-128.5 -19q-87 0 -154 21t-153 63v196q89 -61 169 -91t124 -30q49 0 94 26.5
t45 68.5q0 24 -8.5 42.5t-31.5 37t-41.5 30t-59.5 33.5q-55 30 -89 51t-76 53t-65 61t-39 69t-16 85q0 103 81.5 171.5t211.5 68.5q137 0 279 -76zM229 -422v113q45 -4 62 -4q15 0 31 2t34.5 7.5t30.5 17.5t12 28q0 23 -15.5 36.5t-39 16t-38 2.5t-25.5 -2l38 105
q230 0 230 -146q0 -38 -21 -79.5t-59 -65.5q-56 -37 -174 -37q-45 0 -66 6z" />
    <glyph glyph-name="uni021A" unicode="&#x21a;" horiz-adv-x="1236" 
d="M1202 1397v-176h-487v-1221h-201v1221h-479v176h1167zM430 -465v125q50 -4 88 -4q141 0 141 63q0 16 -7 28t-23 18t-30 10t-39.5 4t-39 -0.5t-41.5 -1.5l23 123h57q16 0 31 -0.5t47 -4t58 -9.5t57.5 -18.5t53 -30t36 -45.5t14.5 -62q0 -35 -19 -75t-59 -71
q-77 -55 -262 -55q-52 0 -86 6z" />
    <glyph glyph-name="uni021B" unicode="&#x21b;" horiz-adv-x="710" 
d="M342 1110v-190h291v-164h-291v-402q2 -89 7 -116.5t26 -51.5q37 -39 98 -39q99 0 207 66v-170q-112 -61 -236 -61q-59 0 -128 27.5t-111 88.5q-21 32 -31.5 79.5t-12 80t-1.5 90.5v408h-160v18zM258 -422v113q45 -4 61 -4q15 0 31.5 2t35 7.5t30.5 17.5t12 28
q0 23 -15.5 36.5t-39.5 16t-38.5 2.5t-25.5 -2l39 105q230 0 230 -146q0 -38 -21 -79.5t-59 -65.5q-56 -37 -174 -37q-45 0 -66 6z" />
    <glyph glyph-name="circumflex" unicode="&#x2c6;" horiz-adv-x="681" 
d="M434 1346l193 -310h-113l-178 176l-170 -176h-109l187 310h190z" />
    <glyph glyph-name="caron" unicode="&#x2c7;" horiz-adv-x="681" 
d="M664 1346l-228 -310h-188l-223 310h112l207 -175l205 175h115z" />
    <glyph glyph-name="uni02C9" unicode="&#x2c9;" horiz-adv-x="681" 
d="M680 1266v-150h-678v150h678z" />
    <glyph glyph-name="breve" unicode="&#x2d8;" horiz-adv-x="681" 
d="M51 1300h137q32 -126 156 -126q62 0 95 27.5t53 98.5h139q-13 -120 -95 -192t-196 -72q-115 0 -190.5 69.5t-98.5 194.5z" />
    <glyph glyph-name="dotaccent" unicode="&#x2d9;" horiz-adv-x="681" 
d="M342 1286q38 0 66 -28t28 -66t-28 -66t-66 -28t-66 28t-28 66t28 66t66 28z" />
    <glyph glyph-name="ring" unicode="&#x2da;" horiz-adv-x="681" 
d="M344 1415q73 0 129.5 -53.5t56.5 -134.5t-55.5 -136t-134.5 -55q-77 0 -132.5 55t-55.5 134q0 83 58 136.5t134 53.5zM338 1333q-51 0 -82 -29.5t-31 -78.5t33.5 -83t83.5 -34q46 0 80.5 34t34.5 81q0 49 -35.5 79.5t-83.5 30.5z" />
    <glyph glyph-name="ogonek" unicode="&#x2db;" horiz-adv-x="681" 
d="M545 -197v-137q-75 -31 -137 -31q-95 0 -157.5 52t-62.5 137q0 100 91 194h137q-72 -91 -72 -145q0 -42 31 -67t69 -25q40 0 101 22z" />
    <glyph glyph-name="tilde" unicode="&#x2dc;" horiz-adv-x="681" 
d="M125 1073h-84q1 70 17.5 119.5t43 73t51.5 33.5t52 10q53 0 145 -35q13 -5 35 -13q85 -31 104 -32q34 0 51 20t23 60h78q-3 -125 -52.5 -180.5t-107.5 -55.5q-39 0 -75 11.5t-105 41.5q-64 27 -108 27q-25 0 -44.5 -19t-23.5 -61z" />
    <glyph glyph-name="hungarumlaut" unicode="&#x2dd;" horiz-adv-x="681" 
d="M762 1335l-227 -299h-113l135 299h205zM432 1335l-227 -299h-111l133 299h205z" />
    <glyph glyph-name="uni03A9" unicode="&#x3a9;" horiz-adv-x="1558" 
d="M127 0v178h342q-127 90 -206 176t-125 199t-46 250q0 126 41 226t129 188q103 103 228.5 149.5t293.5 46.5q160 0 293 -49t220.5 -133t135.5 -194.5t48 -233.5q0 -107 -26 -197t-79 -165t-118 -136t-158 -127h340v-178h-527v180q177 147 268 291.5t91 321.5
q0 197 -139.5 313.5t-356.5 116.5q-212 0 -343.5 -121t-131.5 -305q0 -81 19.5 -156.5t50 -136t78.5 -121t95 -106t109 -97.5v-180h-526z" />
    <glyph glyph-name="uni03BC" unicode="&#x3bc;" horiz-adv-x="1069" 
d="M719 338v582h182v-641q0 -4 -1 -19.5t-1 -19.5q0 -37 14.5 -57.5t40.5 -20.5q33 0 93 33v-144q-151 -69 -236 -69q-28 0 -47 8.5t-28 25t-12 30t-5 34.5q-44 -46 -88 -72t-105 -26q-23 0 -43.5 3.5t-39 12.5t-31.5 15.5t-30.5 22.5t-25 23t-25.5 26.5t-24 25.5v-580h-182
v1389h182v-668q47 -58 95.5 -89.5t111.5 -31.5q84 0 144.5 60t60.5 147z" />
    <glyph glyph-name="pi" unicode="&#x3c0;" horiz-adv-x="1259" 
d="M248 0v766q-73 -5 -107 -13t-92 -38v147q33 18 55.5 27.5t73 20t111.5 10.5h928v-156h-193v-764h-182v764h-412v-764h-182z" />
    <glyph glyph-name="Wgrave" unicode="&#x1e80;" horiz-adv-x="2134" 
d="M2132 1397l-565 -1405h-43l-457 1138l-461 -1138h-43l-563 1405h201l385 -963l387 963h190l389 -963l381 963h199zM1073 1800l150 -307h-107l-336 307h293z" />
    <glyph glyph-name="wgrave" unicode="&#x1e81;" horiz-adv-x="1472" 
d="M1473 920l-406 -938h-57l-273 643l-268 -643h-59l-410 938h195l241 -558l234 558h135l233 -558l240 558h195zM723 1337l137 -301h-112l-230 301h205z" />
    <glyph glyph-name="Wacute" unicode="&#x1e82;" horiz-adv-x="2134" 
d="M2132 1397l-565 -1405h-43l-457 1138l-461 -1138h-43l-563 1405h201l385 -963l387 963h190l389 -963l381 963h199zM1069 1800h293l-336 -307h-106z" />
    <glyph glyph-name="wacute" unicode="&#x1e83;" horiz-adv-x="1472" 
d="M1473 920l-406 -938h-57l-273 643l-268 -643h-59l-410 938h195l241 -558l234 558h135l233 -558l240 558h195zM942 1337l-225 -301h-113l135 301h203z" />
    <glyph glyph-name="Wdieresis" unicode="&#x1e84;" horiz-adv-x="2134" 
d="M2132 1397l-565 -1405h-43l-457 1138l-461 -1138h-43l-563 1405h201l385 -963l387 963h190l389 -963l381 963h199zM1280 1761q44 0 76.5 -32t32.5 -76t-32.5 -76.5t-76.5 -32.5t-76.5 32.5t-32.5 76.5t32.5 76t76.5 32zM858 1761q44 0 76.5 -32t32.5 -76t-32.5 -76.5
t-76.5 -32.5t-76 32.5t-32 76.5t32 76t76 32z" />
    <glyph glyph-name="wdieresis" unicode="&#x1e85;" horiz-adv-x="1472" 
d="M1473 920l-406 -938h-57l-273 643l-268 -643h-59l-410 938h195l241 -558l234 558h135l233 -558l240 558h195zM545 1286q38 0 66 -28t28 -66t-28 -66t-66 -28t-66 28t-28 66t28 66t66 28zM930 1286q38 0 66 -28t28 -66t-28 -66t-66 -28t-66 28t-28 66t28 66t66 28z" />
    <glyph glyph-name="Ygrave" unicode="&#x1ef2;" horiz-adv-x="1236" 
d="M1237 1397l-516 -658v-739h-205v739l-516 658h242l374 -482l379 482h242zM563 1800l150 -307h-107l-336 307h293z" />
    <glyph glyph-name="ygrave" unicode="&#x1ef3;" horiz-adv-x="894" 
d="M897 920l-651 -1391h-203l313 668l-356 723h207l248 -519l237 519h205zM434 1337l137 -301h-112l-230 301h205z" />
    <glyph glyph-name="endash" unicode="&#x2013;" 
d="M1042 578v-129h-1060v129h1060z" />
    <glyph glyph-name="emdash" unicode="&#x2014;" horiz-adv-x="2048" 
d="M2066 584v-131h-2084v131h2084z" />
    <glyph glyph-name="quoteleft" unicode="&#x2018;" horiz-adv-x="448" 
d="M350 1415v-37q-48 -47 -65 -93t-19 -114q37 -11 61 -30t32.5 -41.5t11 -34.5t2.5 -25q0 -53 -36.5 -93t-88.5 -40q-63 0 -100 57.5t-37 135.5q0 11 0.5 21.5t5 38t13 51.5t26 56t42 57.5t64 50.5t88.5 40z" />
    <glyph glyph-name="quoteright" unicode="&#x2019;" horiz-adv-x="448" 
d="M100 907v39q48 46 64.5 91.5t19.5 113.5q-106 33 -106 131q0 54 36 93.5t87 39.5q63 0 101 -56.5t38 -135.5q0 -13 -1.5 -27t-7 -47.5t-21.5 -64.5t-40.5 -65.5t-68.5 -64t-101 -47.5z" />
    <glyph glyph-name="quotesinglbase" unicode="&#x201a;" horiz-adv-x="448" 
d="M100 -244v37q48 48 64.5 93.5t19.5 113.5q-106 33 -106 131q0 53 36.5 93t86.5 40q63 0 101 -57t38 -135q0 -13 -1.5 -27t-7 -47.5t-21.5 -64.5t-40.5 -65.5t-68.5 -64t-101 -47.5z" />
    <glyph glyph-name="quotedblleft" unicode="&#x201c;" horiz-adv-x="874" 
d="M768 1415v-37q-49 -46 -66 -91.5t-20 -115.5q106 -31 106 -131q0 -54 -35 -93.5t-87 -39.5q-63 0 -101.5 57.5t-38.5 135.5q0 11 0.5 21.5t5.5 38t13 51.5t26 56t43 57.5t64.5 50.5t89.5 40zM307 1415v-37q-48 -46 -64.5 -91.5t-19.5 -115.5q37 -11 61 -30t32.5 -41.5
t11 -34.5t2.5 -25q0 -53 -35.5 -93t-87.5 -40q-63 0 -101 57.5t-38 135.5q0 11 0.5 21.5t5 38t13 51.5t26 56t42 57.5t64 50.5t88.5 40z" />
    <glyph glyph-name="quotedblright" unicode="&#x201d;" horiz-adv-x="874" 
d="M100 907v39q49 46 66 91t20 114q-106 33 -106 131q0 55 35.5 94t87.5 39q63 0 101 -56.5t38 -135.5q0 -11 -0.5 -21.5t-5.5 -37.5t-13 -51.5t-26 -56.5t-43 -57.5t-64.5 -50.5t-89.5 -41zM561 907v39q48 46 64.5 91.5t19.5 113.5q-106 33 -106 131q0 55 35.5 94t87.5 39
q63 0 101 -56.5t38 -135.5q0 -13 -1.5 -27t-7 -47.5t-21.5 -64.5t-40.5 -65.5t-68.5 -64t-101 -47.5z" />
    <glyph glyph-name="quotedblbase" unicode="&#x201e;" horiz-adv-x="917" 
d="M123 -244v37q48 48 65 94t19 113q-107 33 -107 131q0 53 36.5 93t88.5 40q63 0 100 -57t37 -135q0 -17 -1.5 -35t-14 -63t-35 -81.5t-72 -76t-116.5 -60.5zM582 -244v37q48 48 65 94t19 113q-105 33 -105 131q0 53 35.5 93t87.5 40q63 0 100 -57t37 -135q0 -17 -1.5 -35
t-14 -63t-35 -81.5t-72 -76t-116.5 -60.5z" />
    <glyph glyph-name="dagger" unicode="&#x2020;" horiz-adv-x="1003" 
d="M541 770q46 -538 51 -594q12 -196 12 -350q0 -61 -3 -103t-12.5 -92t-32.5 -76t-58 -26q-37 0 -63.5 34t-33.5 79q-10 68 -10 200q0 77 19 338.5t51 589.5q-61 -19 -93 -27.5t-80.5 -17t-92.5 -8.5q-27 0 -56 6t-56.5 27.5t-27.5 54.5q0 38 34 67t104 29q57 0 133.5 -15
t134.5 -38q-41 211 -49.5 263.5t-8.5 117.5q0 97 30 141.5t73 44.5q42 0 69 -43.5t27 -136.5q0 -76 -12 -150q-11 -69 -49 -237q54 21 132.5 37t133.5 16q76 0 108.5 -30.5t32.5 -63.5q0 -38 -38 -64t-97 -26q-85 0 -272 53z" />
    <glyph glyph-name="daggerdbl" unicode="&#x2021;" horiz-adv-x="1003" 
d="M539 901q169 51 272 51q61 0 98 -26.5t37 -65.5q0 -41 -40 -66.5t-101 -25.5q-100 0 -266 53q4 -81 14 -147q22 -155 22 -205q0 -40 -28 -227q-8 -49 -8 -115q74 20 108.5 28t81 15.5t86.5 7.5q14 0 33 -3.5t43 -12t40.5 -28t16.5 -46.5q0 -30 -18 -51t-45 -28.5t-44 -10
t-30 -2.5q-122 0 -272 55q14 -45 37.5 -156.5t23.5 -191.5q0 -48 -9.5 -83t-22 -52t-29.5 -26.5t-25.5 -11t-17.5 -1.5q-34 0 -63.5 41t-29.5 127q0 119 60 354q-164 -57 -277 -57q-37 0 -64 10t-39 22t-19 28t-8 22.5t-1 11.5q0 39 40.5 64.5t97.5 25.5q100 0 270 -51
q-1 8 -2 21t-3 36.5t-5 61.5q-23 186 -23 227q0 20 12 113.5t13 105.5q10 90 8 129q-77 -22 -111.5 -30.5t-78 -15.5t-83.5 -7q-68 0 -101.5 27.5t-33.5 58.5q0 6 1.5 14.5t9.5 24t22.5 28t43.5 22t69 9.5q94 0 262 -51q-42 195 -51 247t-9 101q0 79 29.5 122.5t71.5 43.5
q37 0 67.5 -40t30.5 -130q0 -65 -12.5 -129t-50.5 -215z" />
    <glyph glyph-name="bullet" unicode="&#x2022;" horiz-adv-x="724" 
d="M109 698q0 106 74.5 180t178.5 74t179 -75t75 -179q0 -105 -74.5 -179.5t-179.5 -74.5q-103 0 -178 74.5t-75 179.5z" />
    <glyph glyph-name="ellipsis" unicode="&#x2026;" horiz-adv-x="2048" 
d="M340 227q51 0 87 -36t36 -87t-36 -86.5t-87 -35.5t-87 35.5t-36 86.5t36 87t87 36zM1024 227q51 0 87 -36t36 -87t-36 -86.5t-87 -35.5t-87 35.5t-36 86.5t36 87t87 36zM1708 -18q-51 0 -87 35.5t-36 86.5t36 87t87 36t87 -36t36 -87t-36 -86.5t-87 -35.5z" />
    <glyph glyph-name="perthousand" unicode="&#x2030;" horiz-adv-x="2068" 
d="M995 608q128 0 220 -90.5t92 -220.5q0 -129 -91.5 -220t-220.5 -91t-220 91t-91 220q0 130 91.5 220.5t219.5 90.5zM995 457q-66 0 -113.5 -46.5t-47.5 -113.5t47.5 -114.5t113.5 -47.5q67 0 114.5 47.5t47.5 114.5t-47.5 113.5t-114.5 46.5zM338 1413q128 0 219.5 -91.5
t91.5 -221.5q0 -128 -91 -220t-220 -92q-130 0 -220.5 92t-90.5 220q0 130 91 221.5t220 91.5zM336 1262q-66 0 -114 -47.5t-48 -114.5q0 -66 47.5 -114t114.5 -48q66 0 114 48t48 114q0 67 -48 114.5t-114 47.5zM1733 608q127 0 219 -91t92 -220t-91.5 -220t-219.5 -91
q-129 0 -220.5 91t-91.5 220q0 130 92 220.5t220 90.5zM1733 457q-67 0 -114.5 -46.5t-47.5 -113.5t47.5 -114.5t114.5 -47.5q66 0 112.5 47.5t46.5 114.5t-46.5 113.5t-112.5 46.5zM1200 1417l-919 -1435h-156l922 1435h153z" />
    <glyph glyph-name="guilsinglleft" unicode="&#x2039;" horiz-adv-x="638" 
d="M555 0h-180l-301 461l301 459h180l-303 -459z" />
    <glyph glyph-name="guilsinglright" unicode="&#x203a;" horiz-adv-x="638" 
d="M86 920h178l303 -461l-303 -459h-178l303 459z" />
    <glyph glyph-name="fraction" unicode="&#x2044;" horiz-adv-x="405" 
d="M737 1415l-932 -1470h-137l930 1470h139z" />
    <glyph glyph-name="Euro" unicode="&#x20ac;" horiz-adv-x="1249" 
d="M426 909h594l-29 -155h-590q-5 -45 0 -111h570l-29 -156h-516q45 -167 145 -244t232 -77q62 0 119 14t104 40.5t69.5 42t53.5 40.5v-219q-27 -19 -50.5 -32t-68 -31.5t-104 -28.5t-129.5 -10q-91 0 -169 21.5t-133 55.5t-101.5 82t-74.5 93t-50.5 97t-32.5 86.5t-17 69.5
h-162l29 156h115q-2 40 2 111h-146l27 155h141q15 66 42.5 131.5t76.5 134.5t112 121t154.5 85.5t196.5 33.5q158 0 350 -67l-39 -191q-57 23 -93.5 36t-99 25.5t-124.5 12.5q-279 0 -375 -322z" />
    <glyph glyph-name="afii61289" unicode="&#x2113;" horiz-adv-x="950" 
d="M778 94q-119 -123 -254 -123q-108 0 -176 68q-80 80 -80 256v197q-19 -20 -54 -60t-54 -61q-11 16 -34.5 46.5t-35.5 45.5q29 33 88.5 97t89.5 97v459q0 186 72 280.5t192 94.5q56 0 98.5 -21t65.5 -56t34 -72.5t11 -77.5q0 -140 -58.5 -268t-168.5 -271
q-11 -14 -33.5 -43t-25.5 -33v-344q0 -188 114 -188q70 0 150 88q50 -92 59 -111zM621 1241q0 43 -17 72.5t-55 29.5q-45 0 -69.5 -46t-24.5 -160v-308q19 23 28 41q63 90 100.5 188t37.5 183z" />
    <glyph glyph-name="trademark" unicode="&#x2122;" horiz-adv-x="2048" 
d="M492 584v692h-267v121h666v-121h-264v-692h-135zM983 584v813h201l205 -652l198 652h197v-813h-125v682l-209 -682h-123l-219 692v-692h-125z" />
    <glyph glyph-name="Omega" unicode="&#x2126;" horiz-adv-x="1558" 
d="M127 0v178h342q-127 90 -206 176t-125 199t-46 250q0 126 41 226t129 188q103 103 228.5 149.5t293.5 46.5q160 0 293 -49t220.5 -133t135.5 -194.5t48 -233.5q0 -107 -26 -197t-79 -165t-118 -136t-158 -127h340v-178h-527v180q177 147 268 291.5t91 321.5
q0 197 -139.5 313.5t-356.5 116.5q-212 0 -343.5 -121t-131.5 -305q0 -81 19.5 -156.5t50 -136t78.5 -121t95 -106t109 -97.5v-180h-526z" />
    <glyph glyph-name="estimated" unicode="&#x212e;" horiz-adv-x="1304" 
d="M1182 557h-860v-383q123 -123 305 -123q261 0 409 252q13 -7 36.5 -21.5t35.5 -21.5q-95 -143 -207 -214t-274 -71q-123 0 -226.5 45.5t-172.5 124t-107.5 185t-38.5 227.5q0 163 65 294.5t190 209.5t290 78q169 0 294.5 -78t190 -208t70.5 -296zM934 633v303
q-128 131 -309 131q-179 0 -303 -127v-307h612z" />
    <glyph glyph-name="onethird" unicode="&#x2153;" horiz-adv-x="1728" 
d="M399 1407v-727h-141v727h141zM1374 1415l-932 -1470h-137l932 1470h137zM1163 35v129q103 -60 193 -60q9 0 20 1.5t29.5 7.5t33 16.5t25.5 31t11 48.5q0 30 -11.5 52t-27 33t-42 17.5t-44.5 8t-47 2.5v106q25 0 40.5 0.5t42 6t42 15.5t28 30.5t12.5 49.5q0 40 -31.5 70.5
t-97.5 30.5q-31 0 -62.5 -8t-46 -14t-46.5 -21v114q88 35 168 35q48 0 91.5 -10.5t81.5 -33t60.5 -62t22.5 -92.5q0 -104 -97 -154q111 -47 111 -172q0 -98 -77.5 -160.5t-188.5 -62.5q-87 0 -193 45z" />
    <glyph glyph-name="twothirds" unicode="&#x2154;" horiz-adv-x="1728" 
d="M602 791v-111h-547v14q140 140 254 285q53 66 71.5 110t18.5 87q0 36 -13.5 62t-35 38.5t-42 18t-40.5 5.5q-36 0 -68.5 -12.5t-59.5 -36t-39 -36t-29 -33.5v159q100 74 211 74q113 0 186.5 -64t73.5 -163q0 -49 -18.5 -98t-60.5 -105t-74 -92t-95 -102h307zM1411 1415
l-932 -1470h-137l930 1470h139zM1163 35v129q103 -60 193 -60q9 0 20 1.5t29.5 7.5t33 16.5t25.5 31t11 48.5q0 30 -11.5 52t-27 33t-42 17.5t-44.5 8t-47 2.5v106q25 0 40.5 0.5t42 6t42 15.5t28 30.5t12.5 49.5q0 40 -31.5 70.5t-97.5 30.5q-31 0 -62.5 -8t-46 -14
t-46.5 -21v114q88 35 168 35q48 0 91.5 -10.5t81.5 -33t60.5 -62t22.5 -92.5q0 -104 -97 -154l22 -11t27 -18.5t31.5 -31.5t20.5 -46t10 -65q0 -98 -77.5 -160.5t-188.5 -62.5q-87 0 -193 45z" />
    <glyph glyph-name="oneeighth" unicode="&#x215b;" horiz-adv-x="1728" 
d="M1565 371q110 -58 110 -168q0 -88 -77 -150.5t-197 -62.5q-121 0 -199 63.5t-78 149.5q0 14 3 29t12.5 41t34.5 52t63 46q-94 65 -94 157q0 89 78 149t186 60q103 0 179.5 -59.5t76.5 -149.5q0 -95 -98 -157zM1522 526q0 39 -30.5 69t-88.5 30q-51 0 -85 -27t-34 -72
q0 -49 39.5 -74.5t81.5 -25.5q43 0 80 26t37 74zM1532 209q0 38 -32.5 71t-100.5 33q-70 0 -100.5 -34t-30.5 -72q0 -42 33.5 -73.5t99.5 -31.5q65 0 98 32t33 75zM399 1407v-727h-141v727h141zM1386 1415l-931 -1470h-138l930 1470h139z" />
    <glyph glyph-name="threeeighths" unicode="&#x215c;" horiz-adv-x="1728" 
d="M1565 371q110 -58 110 -168q0 -88 -77 -150.5t-197 -62.5q-121 0 -199 63.5t-78 149.5q0 14 3 29t12.5 41t34.5 52t63 46q-94 65 -94 157q0 89 78 149t186 60q103 0 179.5 -59.5t76.5 -149.5q0 -95 -98 -157zM1522 526q0 39 -30.5 69t-88.5 30q-51 0 -85 -27t-34 -72
q0 -49 39.5 -74.5t81.5 -25.5q43 0 80 26t37 74zM1532 209q0 38 -32.5 71t-100.5 33q-70 0 -100.5 -34t-30.5 -72q0 -42 33.5 -73.5t99.5 -31.5q65 0 98 32t33 75zM92 715v129q103 -60 193 -60q9 0 19.5 1t29.5 7t33 16.5t25 31.5t11 49q0 25 -7 44t-22 30.5t-28.5 19
t-38 11t-37.5 5t-39 2.5v107q26 0 41 0.5t42 6t42.5 15.5t28 30.5t12.5 49.5q0 39 -31.5 69t-97.5 30q-67 0 -155 -41v112q73 35 168 35q48 0 91.5 -10.5t81.5 -32t60.5 -61.5t22.5 -94q0 -104 -97 -154q37 -16 56 -33q55 -50 55 -137q0 -98 -77.5 -160.5t-188.5 -62.5
q-87 0 -193 45zM1393 1415l-932 -1470h-137l929 1470h140z" />
    <glyph glyph-name="fiveeighths" unicode="&#x215d;" horiz-adv-x="1728" 
d="M1565 371q110 -58 110 -168q0 -88 -77 -150.5t-197 -62.5q-121 0 -199 63.5t-78 149.5q0 14 3 29t12.5 41t34.5 52t63 46q-94 65 -94 157q0 89 78 149t186 60q103 0 179.5 -59.5t76.5 -149.5q0 -95 -98 -157zM1522 526q0 39 -30.5 69t-88.5 30q-51 0 -85 -27t-34 -72
q0 -49 39.5 -74.5t81.5 -25.5q43 0 80 26t37 74zM1532 209q0 38 -32.5 71t-100.5 33q-70 0 -100.5 -34t-30.5 -72q0 -42 33.5 -73.5t99.5 -31.5q65 0 98 32t33 75zM526 1407v-104h-258v-168q68 0 121.5 -15.5t86 -39t54 -55t29.5 -61t8 -59.5q0 -99 -77 -167t-209 -68
q-90 0 -207 47v125q105 -60 186 -60q68 0 116 33.5t48 89.5q0 64 -57.5 95.5t-130.5 31.5q-62 0 -101 -16v391h391zM1386 1415l-931 -1470h-138l930 1470h139z" />
    <glyph glyph-name="seveneighths" unicode="&#x215e;" horiz-adv-x="1728" 
d="M1565 371q110 -58 110 -168q0 -88 -77 -150.5t-197 -62.5q-121 0 -199 63.5t-78 149.5q0 14 3 29t12.5 41t34.5 52t63 46q-94 65 -94 157q0 89 78 149t186 60q103 0 179.5 -59.5t76.5 -149.5q0 -95 -98 -157zM1522 526q0 39 -30.5 69t-88.5 30q-51 0 -85 -27t-34 -72
q0 -49 39.5 -74.5t81.5 -25.5q43 0 80 26t37 74zM1532 209q0 38 -32.5 71t-100.5 33q-70 0 -100.5 -34t-30.5 -72q0 -42 33.5 -73.5t99.5 -31.5q65 0 98 32t33 75zM657 1415l-381 -745l-126 47l301 581h-353v117h559zM1380 1415l-931 -1470h-138l932 1470h137z" />
    <glyph glyph-name="partialdiff" unicode="&#x2202;" horiz-adv-x="1099" 
d="M1040 987q0 -192 -49 -395q-23 -94 -57 -179.5t-84 -165.5t-109.5 -138.5t-136.5 -93.5t-162 -35q-164 0 -266 106.5t-102 278.5q0 145 44.5 270t117.5 207t165.5 128t188.5 46q85 0 147.5 -36.5t91.5 -88.5h5q10 103 10 137q0 156 -67 232.5t-185 76.5q-93 0 -176 -47
q-19 54 -45 137q43 27 110 45.5t135 18.5q195 0 309.5 -129t114.5 -375zM811 721q-22 70 -72.5 109.5t-124.5 39.5q-88 0 -166 -69.5t-125 -189.5t-47 -259q0 -100 45 -158.5t121 -58.5q129 0 227.5 163.5t141.5 422.5z" />
    <glyph glyph-name="Delta" unicode="&#x2206;" horiz-adv-x="1357" 
d="M745 1405l613 -1405h-1358l616 1405h129zM1079 178l-399 909l-397 -909h796z" />
    <glyph glyph-name="product" unicode="&#x220f;" horiz-adv-x="1366" 
d="M1214 -471h-204v1728h-652v-1728h-204v1905h1060v-1905z" />
    <glyph glyph-name="summation" unicode="&#x2211;" horiz-adv-x="1206" 
d="M1096 -471h-1045v100q103 157 297 446t277 414q-89 138 -266.5 416t-266.5 416v113h961v-166h-723q248 -380 499 -774q-235 -355 -532 -799h799v-166z" />
    <glyph glyph-name="minus" unicode="&#x2212;" horiz-adv-x="1193" 
d="M1081 614h-968v168h968v-168z" />
    <glyph glyph-name="uni2215" unicode="&#x2215;" horiz-adv-x="405" 
d="M737 1415l-932 -1470h-137l930 1470h139z" />
    <glyph glyph-name="uni2219" unicode="&#x2219;" horiz-adv-x="532" 
d="M266 819q46 0 78.5 -33t32.5 -79t-32.5 -78.5t-78.5 -32.5t-78 32.5t-32 78.5q0 47 32.5 79.5t77.5 32.5z" />
    <glyph glyph-name="radical" unicode="&#x221a;" horiz-adv-x="944" 
d="M971 1491q-79 -362 -328 -1516h-176q-145 401 -242 662q-17 -12 -51.5 -33t-52.5 -33q-63 102 -68 109q66 44 264 172q40 -108 118 -321.5t118 -321.5q106 504 274 1282h144z" />
    <glyph glyph-name="infinity" unicode="&#x221e;" horiz-adv-x="1480" 
d="M1391 600q0 -143 -92.5 -240.5t-229.5 -97.5q-105 0 -193 57t-145 150h-4q-140 -207 -330 -207q-136 0 -231.5 90.5t-95.5 243.5q0 151 95 242.5t228 91.5q111 0 195.5 -59.5t138.5 -145.5h4q32 51 74 93.5t112 77t146 34.5q139 0 233.5 -93.5t94.5 -236.5zM1227 600
q0 81 -46 133.5t-130 52.5q-74 0 -131.5 -47.5t-114.5 -140.5q48 -92 111.5 -142t134.5 -50q85 0 130.5 56t45.5 138zM653 598q-50 84 -113 136t-132 52q-85 0 -131 -55t-46 -137q0 -80 50.5 -134t126.5 -54q137 0 245 192z" />
    <glyph glyph-name="integral" unicode="&#x222b;" horiz-adv-x="946" 
d="M784 1362q-32 14 -79 14q-71 0 -108.5 -47t-37.5 -139v-1292q0 -165 -80 -263t-239 -98q-90 0 -146 23q6 25 18.5 74t18.5 73q35 -12 80 -12q145 0 145 184v1292q0 165 83 264t245 99q39 0 81.5 -8t59.5 -19q-8 -27 -22.5 -78.5t-18.5 -66.5z" />
    <glyph glyph-name="approxequal" unicode="&#x2248;" horiz-adv-x="1193" 
d="M1071 862q-58 -86 -122 -131t-152 -45q-110 0 -213 64q-106 65 -181 65q-89 0 -167 -133l-111 125q58 84 121 130t153 46q109 0 211 -63q109 -66 183 -66q94 0 168 133zM1071 406q-57 -87 -121.5 -132t-152.5 -45q-110 0 -213 64q-106 65 -181 65q-89 0 -167 -133
l-111 125q58 84 121 130t153 46q109 0 211 -63q109 -66 183 -66q93 0 168 131z" />
    <glyph glyph-name="notequal" unicode="&#x2260;" horiz-adv-x="1193" 
d="M1022 295h-477l-107 -240h-182l109 240h-193v168h268l131 291h-399v168h475l115 260h182l-117 -260h195v-168h-270l-131 -291h401v-168z" />
    <glyph glyph-name="lessequal" unicode="&#x2264;" horiz-adv-x="1193" 
d="M1022 0h-850v168h850v-168zM1022 283l-850 381v139l850 381v-178l-627 -271v-4l627 -272v-176z" />
    <glyph glyph-name="greaterequal" unicode="&#x2265;" horiz-adv-x="1193" 
d="M1022 0h-850v168h850v-168zM1022 664l-850 -379v178l627 270v4l-627 271v178l850 -381v-141z" />
    <glyph glyph-name="lozenge" unicode="&#x25ca;" horiz-adv-x="1056" 
d="M924 717q-62 -120 -186.5 -358.5t-186.5 -358.5h-98q-61 119 -185 357.5t-186 357.5q61 120 185 359.5t186 359.5h98q62 -120 186.5 -358.5t186.5 -358.5zM770 717q-88 174 -268 522q-44 -87 -133 -261t-133 -261q176 -348 266 -522q45 87 134 261t134 261z" />
    <glyph glyph-name="ampersand.sc" horiz-adv-x="933" 
d="M719 244l203 -244h-217l-101 121q-30 -26 -48.5 -40.5t-58.5 -40.5t-85.5 -39t-94.5 -13q-110 0 -184 69.5t-74 171.5q0 41 14 78.5t31 63.5t51.5 57.5t54.5 46l60 43.5q-33 38 -53 65.5t-37.5 72.5t-17.5 92q0 32 8 65.5t27.5 67.5t48.5 60.5t75 43t103 16.5
q58 0 105 -17.5t75.5 -44t47.5 -60.5t26.5 -64.5t7.5 -58.5q0 -48 -17 -90.5t-48.5 -76.5t-55.5 -54.5t-57 -42.5l115 -142q54 75 77 160h172q-42 -146 -153 -266zM483 207l29 20l-147 181l-50 -37q-28 -20 -56 -57.5t-28 -77.5q0 -30 24.5 -56t72.5 -26q75 0 155 53z
M416 600q37 28 54 43.5t35.5 45.5t18.5 63q0 39 -27 68.5t-71 29.5q-43 0 -69.5 -28t-26.5 -66q0 -27 14 -56.5t29 -48.5t43 -51z" />
    <glyph glyph-name="zero.oldstyle" horiz-adv-x="1036" 
d="M522 938q195 0 321 -134.5t126 -348.5q0 -116 -40.5 -209t-106.5 -149t-145 -85.5t-161 -29.5q-131 0 -234 64t-158.5 172.5t-55.5 240.5q0 129 52 236.5t157 175t245 67.5zM512 760q-115 0 -188.5 -83t-73.5 -220q0 -75 23.5 -133.5t62.5 -93t86 -52.5t98 -18
q122 0 194 86t72 215q0 144 -83 221.5t-191 77.5z" />
    <glyph glyph-name="one.oldstyle" horiz-adv-x="796" 
d="M606 0h-184v647l-234 -170l-82 121l435 340h65v-938z" />
    <glyph glyph-name="two.oldstyle" horiz-adv-x="931" 
d="M842 168v-168h-768q111 106 154 148.5t94 99.5t98 121q71 94 98 155.5t27 124.5q0 57 -41 91t-109 34q-41 0 -81.5 -12t-68.5 -26.5t-61.5 -41t-48 -40t-39.5 -38.5v201q30 24 53 39t63.5 37t90 33.5t103.5 11.5q133 0 228 -70.5t95 -185.5q0 -53 -18.5 -112.5
t-42.5 -107t-66.5 -108t-71 -95.5t-75.5 -91h387z" />
    <glyph glyph-name="three.oldstyle" horiz-adv-x="892" 
d="M537 750h-474v168h752l-319 -596q157 -37 233 -138t76 -233q0 -122 -62 -221.5t-164.5 -154t-222.5 -54.5q-154 0 -288 86l-5 192q132 -110 293 -110q117 0 188.5 72t71.5 173q0 136 -122 203q-43 25 -91.5 35.5t-87 9t-79.5 -3.5z" />
    <glyph glyph-name="four.oldstyle" horiz-adv-x="1032" 
d="M635 0h-629v45l776 893h39v-788h195v-150h-195v-479h-186v479zM293 150h342v415z" />
    <glyph glyph-name="five.oldstyle" horiz-adv-x="956" 
d="M877 918v-168h-428l-66 -412q81 2 160 -21.5t145 -70t107 -124t41 -173.5q0 -116 -58 -213.5t-163.5 -156t-235.5 -58.5q-161 0 -330 96v205q138 -127 311 -127q72 0 129 22.5t89.5 58t49.5 76t17 80.5q0 105 -92 174.5t-252 69.5q-43 0 -121 -10l119 752h578z" />
    <glyph glyph-name="six.oldstyle" horiz-adv-x="995" 
d="M627 1417l112 -145q-67 -43 -123.5 -89.5t-96 -85.5t-74 -86.5t-53.5 -77.5t-39.5 -75t-27.5 -63t-20 -56q43 22 66.5 33t68 22t92.5 11q174 0 285 -118.5t111 -285.5q0 -175 -122.5 -297t-297.5 -122q-57 0 -115 15t-117.5 52.5t-105 93t-74 144.5t-28.5 198
q0 172 67 346t195 326q46 55 99.5 104t91 77.5t106.5 78.5zM268 547q-10 -51 -10 -94q0 -144 75 -219.5t177 -75.5q92 0 161.5 63.5t69.5 173.5q0 62 -23 109.5t-61 73.5t-80.5 38.5t-87.5 12.5q-47 0 -89.5 -13t-66.5 -27t-65 -42z" />
    <glyph glyph-name="seven.oldstyle" horiz-adv-x="942" 
d="M922 918l-633 -1395l-170 74l545 1153h-603v168h861z" />
    <glyph glyph-name="eight.oldstyle" horiz-adv-x="1036" 
d="M723 715q33 -16 55.5 -29t61.5 -43.5t63 -63.5t43 -86.5t19 -115.5q0 -76 -31 -146.5t-86.5 -126t-141 -89t-186.5 -33.5q-102 0 -188 34.5t-142 91t-87 127t-31 144.5q0 176 155 285q30 21 90 51q-37 24 -58 39.5t-54.5 46.5t-52.5 61t-33.5 75t-14.5 95
q0 161 123.5 275t300.5 114q172 0 294 -113.5t122 -273.5q0 -47 -11 -88.5t-32.5 -73.5t-41.5 -56t-50 -46t-46 -31.5t-40 -23.5zM756 1022q0 86 -62 151.5t-172 65.5q-95 0 -162 -59.5t-67 -155.5q0 -68 39.5 -120t91.5 -75.5t102 -23.5q87 0 158.5 60t71.5 157zM770 393
q0 41 -15 80.5t-44.5 73t-80 54t-114.5 20.5q-66 0 -116.5 -22t-79 -57t-42.5 -73t-14 -76q0 -94 67.5 -161.5t190.5 -67.5q120 0 184 68.5t64 160.5z" />
    <glyph glyph-name="nine.oldstyle" horiz-adv-x="1003" 
d="M375 -479l-117 141q115 70 198.5 152t135.5 155q31 43 51 83.5t27.5 63.5t19.5 68q-116 -67 -235 -67q-110 0 -200.5 59t-138.5 151.5t-48 194.5q0 77 29.5 151t82 133t134.5 95.5t178 36.5q87 0 164.5 -29.5t141 -88t101 -156t37.5 -222.5q0 -135 -39.5 -264.5
t-99.5 -228t-138.5 -186.5t-147.5 -144.5t-136 -97.5zM727 371q10 63 10 104q0 116 -64.5 200.5t-185.5 84.5q-50 0 -90.5 -16.5t-66 -42t-43 -57.5t-24.5 -62t-7 -58q0 -106 74 -169.5t168 -63.5q111 0 229 80z" />
    <glyph glyph-name="a.sc" horiz-adv-x="985" 
d="M686 246h-393l-105 -246h-176l412 995h119l430 -995h-176zM354 391h267l-138 340z" />
    <glyph glyph-name="b.sc" horiz-adv-x="835" 
d="M119 0v989h262q137 0 215 -41q53 -29 84 -85.5t31 -121.5q0 -41 -11.5 -75.5t-26 -55t-40.5 -40.5t-40 -27.5t-40 -20.5q35 -6 58 -11.5t58.5 -25.5t61.5 -51q60 -69 60 -164q0 -71 -33.5 -128t-91.5 -87q-70 -36 -124.5 -45.5t-146.5 -9.5h-276zM289 838v-267h69
q32 0 60.5 6.5t56 21.5t44 45.5t16.5 72.5q0 35 -12.5 59t-28.5 36t-44.5 18t-45.5 7t-46 1h-69zM289 428v-276h112q68 0 99 5.5t59 22.5q25 14 41 46.5t16 64.5q0 33 -11 57.5t-33 39t-42 23.5t-50.5 12t-45.5 4t-39 1h-106z" />
    <glyph glyph-name="c.sc" horiz-adv-x="1034" 
d="M946 918v-191q-55 33 -89.5 51.5t-107.5 40t-147 21.5q-107 0 -186.5 -51t-117.5 -130.5t-38 -173.5q0 -73 23.5 -132.5t60 -96.5t84.5 -61.5t93.5 -34.5t90.5 -10q57 0 112 12.5t104 36.5t72 37.5t56 35.5v-192q-160 -92 -356 -92q-102 0 -189 30.5t-146.5 80.5
t-101.5 116t-61.5 136t-19.5 141q0 93 33.5 182.5t96 163t163 118.5t223.5 45q97 0 175 -21t173 -62z" />
    <glyph glyph-name="d.sc" horiz-adv-x="1089" 
d="M119 0v989h332q130 0 218 -24t158 -82q87 -69 135 -170.5t48 -214.5q0 -77 -22.5 -147.5t-59.5 -122.5t-75.5 -89t-78.5 -61q-122 -78 -342 -78h-313zM291 831v-671h151q180 0 265 65q64 48 95.5 127.5t31.5 149.5q0 71 -31 141.5t-88 118.5q-47 41 -109.5 55t-167.5 14
h-147z" />
    <glyph glyph-name="e.sc" horiz-adv-x="751" 
d="M291 831v-256h379v-155h-379v-262h403v-158h-573v989h561v-158h-391z" />
    <glyph glyph-name="f.sc" horiz-adv-x="708" 
d="M291 831v-229h360v-158h-360v-444h-170v989h530v-158h-360z" />
    <glyph glyph-name="g.sc" horiz-adv-x="1077" 
d="M969 504v-432q-184 -84 -359 -84q-107 0 -196 30t-148.5 80t-101 115.5t-60 134.5t-18.5 139q0 99 36 191t100.5 164t164.5 115.5t219 43.5q65 0 130.5 -14t107.5 -30t106 -44v-182q-35 21 -57.5 33t-72 34.5t-104.5 34t-112 11.5q-137 0 -239.5 -96t-102.5 -254
q0 -164 103 -257.5t249 -93.5q75 0 185 37v168h-178v156h348z" />
    <glyph glyph-name="h.sc" horiz-adv-x="1060" 
d="M942 989v-989h-170v418h-483v-418h-170v989h170v-416h483v416h170z" />
    <glyph glyph-name="i.sc" horiz-adv-x="411" 
d="M291 989v-989h-170v989h170z" />
    <glyph glyph-name="j.sc" horiz-adv-x="411" 
d="M291 989v-958q0 -161 -41 -232q-32 -61 -87 -92t-116 -31q-17 0 -92 13l-27 164q80 -11 86 -11q30 0 50.5 10t31.5 24.5t16.5 44t7 55.5t1.5 71v942h170z" />
    <glyph glyph-name="k.sc" horiz-adv-x="962" 
d="M868 989l-405 -459l508 -530h-236l-444 457v-457h-170v989h170v-418l362 418h215z" />
    <glyph glyph-name="l.sc" horiz-adv-x="737" 
d="M289 989v-831h418v-158h-588v989h170z" />
    <glyph glyph-name="m.sc" horiz-adv-x="1208" 
d="M256 989l348 -440l348 440h140v-989h-170v676l-299 -375h-37l-299 375v-676h-170v989h139z" />
    <glyph glyph-name="n.sc" horiz-adv-x="1126" 
d="M1012 989v-989h-150l-575 700v-700h-172v989h143l584 -706v706h170z" />
    <glyph glyph-name="o.sc" horiz-adv-x="1189" 
d="M78 492q0 102 36.5 194.5t102 162t163 111t212.5 41.5q154 0 274.5 -71t183 -185.5t62.5 -248.5q0 -216 -147 -362t-379 -146q-219 0 -363.5 145.5t-144.5 358.5zM260 492q0 -154 98.5 -248t235.5 -94q138 0 237 95t99 253q0 138 -91.5 240t-242.5 102q-81 0 -146.5 -30
t-106 -80t-62 -111t-21.5 -127z" />
    <glyph glyph-name="p.sc" horiz-adv-x="768" 
d="M117 989h268q115 0 174.5 -20t97.5 -60q80 -83 80 -209q0 -58 -21 -113.5t-63 -90.5q-55 -45 -112.5 -63.5t-159.5 -18.5h-94v-414h-170v989zM375 838h-88v-273h98q28 0 46 1t46 9t44.5 21.5t29 41.5t12.5 67q0 38 -13 64.5t-29.5 39.5t-46.5 20t-48.5 8t-50.5 1z" />
    <glyph glyph-name="q.sc" horiz-adv-x="1189" 
d="M1075 -94l-129 -131q-143 31 -229.5 76t-216.5 149q-52 13 -90.5 25.5t-101 49.5t-109.5 89q-121 138 -121 332q0 138 63 252.5t182.5 183.5t270.5 69q117 0 216 -41.5t164.5 -111t101.5 -160.5t36 -190q0 -96 -33 -185.5t-94 -158.5q-38 -43 -85 -75t-75.5 -45
t-83.5 -34q40 -23 69.5 -37t101.5 -32t163 -25zM594 840q-80 0 -145.5 -29.5t-106 -79t-62.5 -110.5t-22 -127q0 -155 98.5 -249.5t237.5 -94.5q146 0 242 98.5t96 245.5q0 60 -19 118t-57.5 110.5t-106.5 85t-155 32.5z" />
    <glyph glyph-name="r.sc" horiz-adv-x="890" 
d="M115 989h233q365 0 365 -282q0 -193 -166 -252q55 -49 85.5 -85.5t86.5 -127.5q54 -89 86.5 -138t45.5 -65t34 -39h-205q-48 93 -176 281q-83 122 -168 122h-49v-403h-172v989zM330 838h-43v-291h57q39 0 59 1t46.5 8t42.5 22q49 42 49 116q0 36 -11 62.5t-29 42
t-46.5 24.5t-57 12t-67.5 3z" />
    <glyph glyph-name="s.sc" horiz-adv-x="694" 
d="M596 938v-184q-40 28 -63 42.5t-72 31t-99 16.5q-61 0 -95 -27.5t-34 -66.5q0 -50 39.5 -84.5t182.5 -120.5q178 -107 178 -281q0 -122 -80 -199t-207 -77q-145 0 -270 86v209q33 -33 51 -49t54.5 -42t76.5 -37.5t86 -11.5q51 0 89 30.5t38 76.5q0 34 -22.5 67.5
t-42 49.5t-48.5 36q-51 31 -78 48t-63 42t-53.5 41.5t-38.5 40.5t-29.5 46t-15 50t-6.5 60q0 114 78 192t215 78q120 0 229 -63z" />
    <glyph glyph-name="t.sc" horiz-adv-x="892" 
d="M852 989v-149h-320v-840h-170v840h-321v149h811z" />
    <glyph glyph-name="u.sc" horiz-adv-x="1034" 
d="M934 989v-559q0 -132 -26.5 -207t-86.5 -129q-119 -106 -299 -106q-88 0 -176 27t-141 83q-58 63 -81.5 133t-23.5 199v559h170v-559q0 -91 11 -134t43 -77q70 -76 192 -76q135 0 195 76q33 41 43 81.5t10 129.5v559h170z" />
    <glyph glyph-name="v.sc" horiz-adv-x="894" 
d="M422 -6l-414 995h187l251 -629l254 629h185l-410 -995h-53z" />
    <glyph glyph-name="w.sc" horiz-adv-x="1519" 
d="M1038 -6l-278 717l-279 -717h-55l-412 995h191l244 -588l243 588h137l242 -588l244 588h190l-411 -995h-56z" />
    <glyph glyph-name="x.sc" horiz-adv-x="1044" 
d="M416 510l-377 479h211l270 -344l273 344h208l-374 -479l401 -510h-211l-295 375l-295 -375h-211z" />
    <glyph glyph-name="y.sc" horiz-adv-x="913" 
d="M903 989l-360 -545v-444h-174v444l-359 545h201l246 -379l245 379h201z" />
    <glyph glyph-name="z.sc" horiz-adv-x="962" 
d="M932 989l-586 -833h569v-156h-890l587 834h-534v155h854z" />
    <glyph glyph-name="lslash.sc" horiz-adv-x="747" 
d="M295 565l225 201l2 -152l-227 -202v-254h416v-158h-586v258l-121 -106v155l121 107v575h170v-424z" />
    <glyph glyph-name="scaron.sc" horiz-adv-x="694" 
d="M596 938v-184q-40 28 -63 42.5t-72 31t-99 16.5q-61 0 -95 -27.5t-34 -66.5q0 -50 39.5 -84.5t182.5 -120.5q178 -107 178 -281q0 -122 -80 -199t-207 -77q-145 0 -270 86v209q33 -33 51 -49t54.5 -42t76.5 -37.5t86 -11.5q51 0 89 30.5t38 76.5q0 34 -22.5 67.5
t-42 49.5t-48.5 36q-51 31 -78 48t-63 42t-53.5 41.5t-38.5 40.5t-29.5 46t-15 50t-6.5 60q0 114 78 192t215 78q120 0 229 -63zM686 1423l-190 -323h-295l-191 323h125l213 -190l217 190h121z" />
    <glyph glyph-name="zcaron.sc" horiz-adv-x="962" 
d="M932 989l-586 -833h569v-156h-890l587 834h-534v155h854zM821 1423l-190 -323h-295l-191 323h125l213 -190l217 190h121z" />
    <glyph glyph-name="agrave.sc" horiz-adv-x="985" 
d="M686 246h-393l-105 -246h-176l412 995h119l430 -995h-176zM354 391h267l-138 340zM500 1407l149 -307h-106l-336 307h293z" />
    <glyph glyph-name="aacute.sc" horiz-adv-x="985" 
d="M686 246h-393l-105 -246h-176l412 995h119l430 -995h-176zM354 391h267l-138 340zM485 1407h293l-336 -307h-106z" />
    <glyph glyph-name="acircumflex.sc" horiz-adv-x="985" 
d="M686 246h-393l-105 -246h-176l412 995h119l430 -995h-176zM354 391h267l-138 340zM831 1100h-126l-213 194l-216 -194h-124l192 321h291z" />
    <glyph glyph-name="atilde.sc" horiz-adv-x="985" 
d="M686 246h-393l-105 -246h-176l412 995h119l430 -995h-176zM354 391h267l-138 340zM264 1100h-106q13 124 73 187t134 63q28 0 56 -8t47.5 -17t84.5 -41q81 -37 102 -37q24 0 43 26.5t25 72.5h106q-8 -105 -61.5 -175.5t-134.5 -70.5q-37 0 -68.5 10.5t-134.5 56.5
q-6 3 -19.5 9t-17.5 8t-13.5 5.5t-13 4.5t-10 3t-11.5 2.5t-11 0.5q-17 0 -29 -7.5t-20 -24.5t-11.5 -29.5t-9.5 -38.5z" />
    <glyph glyph-name="adieresis.sc" horiz-adv-x="985" 
d="M686 246h-393l-105 -246h-176l412 995h119l430 -995h-176zM354 391h267l-138 340zM705 1133q-44 0 -76.5 32t-32.5 76t32.5 76.5t76.5 32.5t76 -32.5t32 -76.5t-32 -76t-76 -32zM281 1133q-44 0 -76.5 32t-32.5 76t32.5 76.5t76.5 32.5t76 -32.5t32 -76.5t-32 -76
t-76 -32z" />
    <glyph glyph-name="aring.sc" horiz-adv-x="985" 
d="M686 246h-393l-105 -246h-176l412 995h119l430 -995h-176zM354 391h267l-138 340zM494 1491q92 0 149 -65t57 -142q0 -83 -57 -145t-149 -62q-91 0 -149 62t-58 145q0 86 60.5 146.5t146.5 60.5zM494 1171q46 0 79 33.5t33 79.5t-33 79.5t-79 33.5t-79.5 -33.5
t-33.5 -79.5t33.5 -79.5t79.5 -33.5z" />
    <glyph glyph-name="ae.sc" horiz-adv-x="1294" 
d="M666 262h-318l-135 -262h-201l570 989h632v-158h-378v-251h368v-158h-368v-264h395v-158h-565v262zM436 422h230v409z" />
    <glyph glyph-name="ccedilla.sc" 
d="M653 -10l-22 -49q58 -9 92 -37q57 -45 57 -115q0 -17 -5 -39t-28.5 -57t-62.5 -55q-61 -31 -219 -31q-36 0 -76 4v119q9 1 60 2t59 2q86 12 86 57q0 62 -156 62l64 141q-47 8 -75 15t-77.5 31t-93.5 62q-87 73 -132.5 174.5t-45.5 215.5q0 93 33.5 182.5t96 163
t163 118.5t223.5 45q97 0 175.5 -21t170.5 -62v-191q-55 33 -89.5 51.5t-107.5 40t-147 21.5q-107 0 -186.5 -51t-117.5 -130.5t-38 -173.5q0 -73 23.5 -132.5t60.5 -96.5t85 -61.5t94 -34.5t91 -10q57 0 111.5 12.5t103.5 37t71 37t56 35.5v-192q-75 -43 -133 -60.5
t-164 -29.5z" />
    <glyph glyph-name="egrave.sc" horiz-adv-x="751" 
d="M291 831v-256h379v-155h-379v-262h403v-158h-573v989h561v-158h-391zM383 1407l149 -307h-106l-336 307h293z" />
    <glyph glyph-name="eacute.sc" horiz-adv-x="751" 
d="M291 831v-256h379v-155h-379v-262h403v-158h-573v989h561v-158h-391zM369 1407h293l-336 -307h-107z" />
    <glyph glyph-name="ecircumflex.sc" horiz-adv-x="751" 
d="M291 831v-256h379v-155h-379v-262h403v-158h-573v989h561v-158h-391zM715 1100h-127l-213 194l-215 -194h-125l192 321h291z" />
    <glyph glyph-name="edieresis.sc" horiz-adv-x="751" 
d="M291 831v-256h379v-155h-379v-262h403v-158h-573v989h561v-158h-391zM588 1133q-44 0 -76.5 32t-32.5 76t32.5 76.5t76.5 32.5t76 -32.5t32 -76.5t-32 -76t-76 -32zM164 1133q-44 0 -76.5 32t-32.5 76t32.5 76.5t76.5 32.5t76 -32.5t32 -76.5t-32 -76t-76 -32z" />
    <glyph glyph-name="igrave.sc" horiz-adv-x="411" 
d="M291 989v-989h-170v989h170zM213 1407l149 -307h-106l-336 307h293z" />
    <glyph glyph-name="iacute.sc" horiz-adv-x="411" 
d="M291 989v-989h-170v989h170zM199 1407h293l-336 -307h-107z" />
    <glyph glyph-name="icircumflex.sc" horiz-adv-x="411" 
d="M291 989v-989h-170v989h170zM545 1100h-127l-213 194l-215 -194h-125l192 321h291z" />
    <glyph glyph-name="idieresis.sc" horiz-adv-x="411" 
d="M291 989v-989h-170v989h170zM418 1133q-44 0 -76.5 32t-32.5 76t32.5 76.5t76.5 32.5t76 -32.5t32 -76.5t-32 -76t-76 -32zM-6 1133q-44 0 -76.5 32t-32.5 76t32.5 76.5t76.5 32.5t76 -32.5t32 -76.5t-32 -76t-76 -32z" />
    <glyph glyph-name="eth.sc" horiz-adv-x="1087" 
d="M119 428h-119v137h119v424h332q128 0 216 -24t160 -82q86 -69 133.5 -170.5t47.5 -214.5q0 -77 -22.5 -147.5t-59 -122.5t-74.5 -89t-78 -61q-122 -78 -344 -78h-311v428zM549 428h-260v-268h151q182 0 267 65q64 48 95.5 127.5t31.5 149.5t-31.5 140.5t-87.5 119.5
q-49 41 -111 55t-168 14h-147v-266h260v-137z" />
    <glyph glyph-name="ntilde.sc" horiz-adv-x="1126" 
d="M1012 989v-989h-150l-575 700v-700h-172v989h143l584 -706v706h170zM336 1100h-107q13 124 73 187t134 63q28 0 55.5 -8t49 -17.5t84.5 -40.5q81 -37 102 -37q24 0 43 26.5t25 72.5h106q-8 -105 -61.5 -175.5t-134.5 -70.5q-37 0 -68.5 10.5t-134.5 56.5q-6 3 -19.5 9
t-17.5 8t-13.5 5.5t-13 4.5t-10 3t-11.5 2.5t-11 0.5q-17 0 -29 -7.5t-20 -24.5t-11.5 -29.5t-9.5 -38.5z" />
    <glyph glyph-name="ograve.sc" horiz-adv-x="1189" 
d="M78 492q0 102 36.5 194.5t102 162t163 111t212.5 41.5q154 0 274.5 -71t183 -185.5t62.5 -248.5q0 -216 -147 -362t-379 -146q-219 0 -363.5 145.5t-144.5 358.5zM260 492q0 -154 98.5 -248t235.5 -94q138 0 237 95t99 253q0 138 -91.5 240t-242.5 102q-81 0 -146.5 -30
t-106 -80t-62 -111t-21.5 -127zM602 1407l150 -307h-107l-336 307h293z" />
    <glyph glyph-name="oacute.sc" horiz-adv-x="1189" 
d="M78 492q0 102 36.5 194.5t102 162t163 111t212.5 41.5q154 0 274.5 -71t183 -185.5t62.5 -248.5q0 -216 -147 -362t-379 -146q-219 0 -363.5 145.5t-144.5 358.5zM260 492q0 -154 98.5 -248t235.5 -94q138 0 237 95t99 253q0 138 -91.5 240t-242.5 102q-81 0 -146.5 -30
t-106 -80t-62 -111t-21.5 -127zM588 1407h293l-336 -307h-107z" />
    <glyph glyph-name="ocircumflex.sc" horiz-adv-x="1189" 
d="M78 492q0 102 36.5 194.5t102 162t163 111t212.5 41.5q154 0 274.5 -71t183 -185.5t62.5 -248.5q0 -216 -147 -362t-379 -146q-219 0 -363.5 145.5t-144.5 358.5zM260 492q0 -154 98.5 -248t235.5 -94q138 0 237 95t99 253q0 138 -91.5 240t-242.5 102q-81 0 -146.5 -30
t-106 -80t-62 -111t-21.5 -127zM934 1100h-127l-213 194l-215 -194h-125l192 321h291z" />
    <glyph glyph-name="otilde.sc" horiz-adv-x="1189" 
d="M78 492q0 102 36.5 194.5t102 162t163 111t212.5 41.5q154 0 274.5 -71t183 -185.5t62.5 -248.5q0 -216 -147 -362t-379 -146q-219 0 -363.5 145.5t-144.5 358.5zM260 492q0 -154 98.5 -248t235.5 -94q138 0 237 95t99 253q0 138 -91.5 240t-242.5 102q-81 0 -146.5 -30
t-106 -80t-62 -111t-21.5 -127zM367 1100h-107q13 124 73 187t134 63q28 0 56 -8t47.5 -17t84.5 -41q81 -37 103 -37q24 0 42.5 26.5t24.5 72.5h107q-8 -104 -62 -175t-135 -71q-37 0 -68.5 10.5t-134.5 56.5q-6 3 -19.5 9t-17.5 8t-13.5 5.5t-13 4.5t-10 3t-11.5 2.5
t-11 0.5q-14 0 -24.5 -6.5t-16.5 -13.5t-12 -24t-8.5 -25.5t-7.5 -30.5z" />
    <glyph glyph-name="odieresis.sc" horiz-adv-x="1189" 
d="M78 492q0 102 36.5 194.5t102 162t163 111t212.5 41.5q154 0 274.5 -71t183 -185.5t62.5 -248.5q0 -216 -147 -362t-379 -146q-219 0 -363.5 145.5t-144.5 358.5zM260 492q0 -154 98.5 -248t235.5 -94q138 0 237 95t99 253q0 138 -91.5 240t-242.5 102q-81 0 -146.5 -30
t-106 -80t-62 -111t-21.5 -127zM807 1133q-44 0 -76.5 32t-32.5 76t32.5 76.5t76.5 32.5t76 -32.5t32 -76.5t-32 -76t-76 -32zM383 1133q-44 0 -76.5 32t-32.5 76t32.5 76.5t76.5 32.5t76.5 -32.5t32.5 -76.5t-32.5 -76t-76.5 -32z" />
    <glyph glyph-name="oe.sc" horiz-adv-x="1316" 
d="M1243 989v-153h-379v-256h367v-158h-367v-266h396v-156h-590q-133 0 -234.5 26.5t-193.5 106.5q-160 140 -160 359q0 107 42.5 205t123.5 167q40 36 91 61t92.5 37t94.5 18.5t79 7.5t65 1h573zM627 156h65v680h-55q-188 0 -283 -97q-42 -44 -69 -108t-27 -135
q0 -35 7 -73.5t31.5 -88t62.5 -87.5t107.5 -64.5t160.5 -26.5z" />
    <glyph glyph-name="oslash.sc" horiz-adv-x="1193" 
d="M903 909l66 76h153l-133 -154q125 -146 125 -335q0 -216 -147 -362t-379 -146q-155 0 -269 71l-63 -71h-154l125 143q-147 150 -147 361q0 136 61.5 251t180.5 186.5t272 71.5q50 0 98.5 -8.5t76.5 -17t64.5 -26.5t41.5 -21.5t28 -18.5zM342 262l451 518l-10 6
q-10 7 -15 9.5t-18 9.5t-22.5 10.5t-25.5 9t-31 8.5t-34 5t-39 2q-83 0 -149.5 -31.5t-106 -83t-60 -111.5t-20.5 -122q0 -58 20.5 -120.5t59.5 -109.5zM872 698l-438 -508q78 -40 162 -40q138 0 237 95t99 253q0 109 -60 200z" />
    <glyph glyph-name="ugrave.sc" horiz-adv-x="1034" 
d="M934 989v-559q0 -132 -26.5 -207t-86.5 -129q-119 -106 -299 -106q-88 0 -176 27t-141 83q-58 63 -81.5 133t-23.5 199v559h170v-559q0 -91 11 -134t43 -77q70 -76 192 -76q135 0 195 76q33 41 43 81.5t10 129.5v559h170zM524 1407l150 -307h-107l-336 307h293z" />
    <glyph glyph-name="uacute.sc" horiz-adv-x="1034" 
d="M934 989v-559q0 -132 -26.5 -207t-86.5 -129q-119 -106 -299 -106q-88 0 -176 27t-141 83q-58 63 -81.5 133t-23.5 199v559h170v-559q0 -91 11 -134t43 -77q70 -76 192 -76q135 0 195 76q33 41 43 81.5t10 129.5v559h170zM510 1407h293l-336 -307h-107z" />
    <glyph glyph-name="ucircumflex.sc" horiz-adv-x="1034" 
d="M934 989v-559q0 -132 -26.5 -207t-86.5 -129q-119 -106 -299 -106q-88 0 -176 27t-141 83q-58 63 -81.5 133t-23.5 199v559h170v-559q0 -91 11 -134t43 -77q70 -76 192 -76q135 0 195 76q33 41 43 81.5t10 129.5v559h170zM856 1100h-127l-213 194l-215 -194h-125l193 321
h290z" />
    <glyph glyph-name="udieresis.sc" horiz-adv-x="1034" 
d="M934 989v-559q0 -132 -26.5 -207t-86.5 -129q-119 -106 -299 -106q-88 0 -176 27t-141 83q-58 63 -81.5 133t-23.5 199v559h170v-559q0 -91 11 -134t43 -77q70 -76 192 -76q135 0 195 76q33 41 43 81.5t10 129.5v559h170zM729 1133q-44 0 -76 32t-32 76t32 76.5t76 32.5
t76.5 -32.5t32.5 -76.5t-32.5 -76t-76.5 -32zM305 1133q-44 0 -76 32t-32 76t32 76.5t76 32.5t76.5 -32.5t32.5 -76.5t-32.5 -76t-76.5 -32z" />
    <glyph glyph-name="yacute.sc" horiz-adv-x="913" 
d="M903 989l-360 -545v-444h-174v444l-359 545h201l246 -379l245 379h201zM492 1407h292l-335 -307h-107z" />
    <glyph glyph-name="thorn.sc" horiz-adv-x="768" 
d="M117 989h170v-207h98q115 0 174.5 -20t97.5 -60q80 -83 80 -208q0 -59 -21 -115.5t-63 -89.5q-55 -45 -112.5 -63.5t-159.5 -18.5h-94v-207h-170v989zM375 631h-88v-273h98q28 0 46 1t46 9t44.5 21.5t29 41.5t12.5 67q0 38 -13 64.5t-29.5 39.5t-46.5 20t-48.5 8t-50.5 1
z" />
    <glyph glyph-name="ydieresis.sc" horiz-adv-x="913" 
d="M903 989l-360 -545v-444h-174v444l-359 545h201l246 -379l245 379h201zM670 1133q-44 0 -76.5 32t-32.5 76t32.5 76.5t76.5 32.5t76 -32.5t32 -76.5t-32 -76t-76 -32zM246 1133q-44 0 -76.5 32t-32.5 76t32.5 76.5t76.5 32.5t76 -32.5t32 -76.5t-32 -76t-76 -32z" />
    <glyph glyph-name="zero.fitted" 
d="M520 1415q125 0 226 -89.5t159 -253t58 -370.5q0 -325 -128 -522.5t-323 -197.5q-199 0 -325 194t-126 522q0 172 39.5 312t105 226.5t146.5 132.5t168 46zM512 1225q-38 0 -72.5 -17t-67.5 -57t-57 -99t-38.5 -149t-14.5 -201q0 -124 16.5 -220.5t41.5 -153.5t59 -93.5
t65.5 -49.5t65.5 -13t67 14t67.5 51t59.5 93.5t41.5 151t16.5 214.5q0 135 -21 237.5t-49.5 156t-66.5 86t-64 41t-49 8.5z" />
    <glyph glyph-name="one.fitted" horiz-adv-x="507" 
d="M354 1397v-1397h-200v1397h200z" />
    <glyph glyph-name="two.fitted" horiz-adv-x="1001" 
d="M940 193v-193h-885v14q360 434 484 643q50 85 75 152t25 147q0 59 -16.5 105.5t-42.5 75t-59.5 47.5t-64 26t-59.5 7q-85 0 -167 -50t-146 -139v254q44 35 82 59.5t109.5 49t146.5 24.5q181 0 299.5 -121t118.5 -309q0 -56 -12.5 -114t-28.5 -106t-53 -111.5t-63.5 -106
t-82.5 -115.5t-89 -113.5t-103 -125.5h532z" />
    <glyph glyph-name="three.fitted" horiz-adv-x="915" 
d="M66 61v218q158 -99 307 -99q41 0 78 11.5t70 36t53 68.5t20 103q0 45 -14 83.5t-45 72.5t-90.5 54t-141.5 20v184q281 0 281 211q0 82 -60.5 145.5t-181.5 63.5q-109 0 -242 -68v191q118 59 267 59q87 0 161 -23.5t131 -68.5t89 -117.5t32 -165.5q0 -57 -13.5 -105.5
t-31 -78.5t-45.5 -56t-45.5 -38t-42.5 -25q71 -24 118 -80t65 -118.5t18 -132.5q0 -127 -60.5 -225t-156.5 -148.5t-209 -50.5q-161 0 -311 79z" />
    <glyph glyph-name="four.fitted" 
d="M809 1415v-784h156v-172h-156v-459h-195v459h-591v88l704 868h82zM614 631v405l-323 -405h323z" />
    <glyph glyph-name="five.fitted" horiz-adv-x="935" 
d="M791 1397v-178h-439v-353q152 8 268.5 -47.5t178 -157t61.5 -231.5q0 -190 -125.5 -319t-339.5 -129q-163 0 -329 86v206q150 -98 294 -98q126 0 211.5 72.5t85.5 181.5q0 57 -24 103.5t-59.5 75t-80.5 47.5t-84 26.5t-73 7.5q-122 0 -166 -20v727h621z" />
    <glyph glyph-name="six.fitted" 
d="M649 1415l121 -153q-92 -59 -165.5 -125t-115 -116t-75.5 -110t-45.5 -89.5t-26.5 -71.5q109 57 221 57q160 0 274.5 -114.5t114.5 -289.5q0 -177 -123 -299t-297 -122q-56 0 -113 14.5t-117.5 51.5t-106.5 92t-75.5 144.5t-29.5 200.5q0 172 67.5 345t194.5 323
q46 55 98.5 103.5t90 77.5t108.5 81zM299 543q-8 -50 -8 -107q0 -67 23 -120.5t59.5 -84.5t78 -47t83.5 -16q90 0 155.5 62.5t65.5 166.5q0 59 -22.5 104.5t-59 71t-77.5 38t-83 12.5q-47 0 -91 -14t-65.5 -27t-58.5 -39z" />
    <glyph glyph-name="seven.fitted" horiz-adv-x="966" 
d="M961 1397l-633 -1415l-178 77l512 1147h-605v191h904z" />
    <glyph glyph-name="eight.fitted" 
d="M764 713q25 -15 42 -27t49 -42t51.5 -62.5t35.5 -85.5t16 -113q0 -167 -123 -284t-321 -117q-196 0 -322 119.5t-126 283.5q0 149 102 256q39 39 96 72q-26 21 -40.5 34t-42 44.5t-42.5 61t-28 74.5t-13 95q0 112 58.5 202.5t155.5 140.5t210 50q109 0 204 -49
t153.5 -140t58.5 -202q0 -191 -174 -311zM739 1016q0 82 -59 145.5t-162 63.5q-95 0 -159 -57t-64 -150q0 -50 22.5 -92t56.5 -67t72.5 -38.5t73.5 -13.5q82 0 150.5 57.5t68.5 151.5zM756 395q0 86 -63 151.5t-183 65.5q-64 0 -113 -21t-76 -55t-40 -70.5t-13 -72.5
q0 -89 64.5 -154t183.5 -65q117 0 178.5 65.5t61.5 155.5z" />
    <glyph glyph-name="nine.fitted" 
d="M383 -18l-123 147q36 22 74.5 50.5t95 80t103 107t90 132t63.5 154.5q-98 -59 -223 -59q-84 0 -158 34.5t-124 91t-78.5 129.5t-28.5 150q0 105 50.5 199.5t148 155.5t219.5 61q136 0 240 -68t158 -183.5t54 -258.5q0 -256 -160 -514.5t-401 -408.5zM725 852
q10 82 10 109q0 44 -12.5 88.5t-39 86t-75 67.5t-112.5 26q-60 0 -106 -23.5t-70.5 -60.5t-36 -74t-11.5 -72q0 -68 39 -121t91 -77.5t104 -24.5q105 0 219 76z" />
    <glyph glyph-name="zero.taboldstyle" horiz-adv-x="1036" 
d="M522 938q195 0 321 -134.5t126 -348.5q0 -116 -40.5 -209t-106.5 -149t-145 -85.5t-161 -29.5q-131 0 -234 64t-158.5 172.5t-55.5 240.5q0 129 52 236.5t157 175t245 67.5zM512 762q-106 0 -184 -79t-78 -226q0 -76 24.5 -135.5t64.5 -94t86.5 -52t94.5 -17.5
q110 0 188 80t78 223q0 134 -79 217.5t-195 83.5z" />
    <glyph glyph-name="one.taboldstyle" horiz-adv-x="1036" 
d="M723 0h-182v647l-234 -170l-82 121l432 340h66v-938z" />
    <glyph glyph-name="two.taboldstyle" horiz-adv-x="1036" 
d="M893 168v-168h-768q30 30 89.5 87t80.5 78t58 60t63 71t55 73q73 101 97 162t24 116q0 53 -41 90t-109 37q-29 0 -60.5 -8.5t-53.5 -18t-54 -31.5t-45 -32t-45 -37t-37 -31v201q75 56 148.5 88.5t161.5 32.5q144 0 234.5 -73t90.5 -183q0 -45 -11 -91.5t-35 -94.5
t-46.5 -86.5t-60 -88t-60.5 -77.5t-63 -76h387z" />
    <glyph glyph-name="three.taboldstyle" horiz-adv-x="1036" 
d="M608 752h-473v168h752l-320 -596q143 -30 226.5 -126.5t83.5 -244.5q0 -99 -41 -182.5t-107 -136t-144.5 -82t-156.5 -29.5q-154 0 -293 88v190q133 -110 293 -110q123 0 190.5 72.5t67.5 173.5q0 52 -20 97t-62.5 82.5t-118.5 55t-178 8.5z" />
    <glyph glyph-name="four.taboldstyle" horiz-adv-x="1036" 
d="M641 0h-633v45l776 893h39v-788h195v-150h-195v-479h-182v479zM295 150h346v415z" />
    <glyph glyph-name="five.taboldstyle" horiz-adv-x="1036" 
d="M918 920v-168h-429l-65 -412q121 3 224 -43t166 -137.5t63 -208.5q0 -116 -58 -213.5t-163.5 -156t-235.5 -58.5q-161 0 -330 96v205q138 -127 311 -127q72 0 129 22.5t89.5 58t49.5 76t17 80.5q0 58 -31.5 108.5t-91.5 85t-146.5 46t-195.5 -7.5l119 754h578z" />
    <glyph glyph-name="six.taboldstyle" horiz-adv-x="1036" 
d="M647 1417l113 -145q-86 -56 -156 -118t-113 -113t-78 -111.5t-52 -99.5t-35 -91q43 22 66.5 33t68 22t92.5 11q174 0 284.5 -118.5t110.5 -285.5q0 -175 -122.5 -297t-297.5 -122q-57 0 -115 15t-117.5 52.5t-105 93t-74 144.5t-28.5 198q0 105 26.5 215t86.5 234.5
t174.5 250.5t271.5 232zM289 547q-17 -100 -3.5 -173.5t52.5 -122t88.5 -72t103.5 -23.5q104 0 166 70t62 169q0 108 -70 172t-178 64q-47 0 -90 -14t-65.5 -27.5t-65.5 -42.5z" />
    <glyph glyph-name="seven.taboldstyle" horiz-adv-x="1036" 
d="M969 920l-633 -1397l-170 74l545 1155h-602v168h860z" />
    <glyph glyph-name="eight.taboldstyle" horiz-adv-x="1036" 
d="M723 715q118 -48 180 -139.5t62 -198.5q0 -76 -31 -146.5t-86.5 -126t-141 -89t-186.5 -33.5q-192 0 -320 119t-128 278q0 221 245 336q-37 24 -58 39.5t-54.5 46.5t-52.5 61t-33.5 75t-14.5 95q0 161 123.5 275t300.5 114q106 0 201 -48t155 -138t60 -201
q0 -47 -11 -88.5t-32.5 -73.5t-41.5 -56t-50 -46t-46 -31.5t-40 -23.5zM762 1024q0 33 -13.5 69t-40 70t-75.5 56t-111 22q-59 0 -105.5 -20.5t-74 -53.5t-41.5 -70t-14 -73q0 -82 71 -151.5t168 -69.5q100 0 168 67t68 154zM770 393q0 92 -69 161t-185 69
q-113 0 -181.5 -67.5t-68.5 -162.5q0 -94 66.5 -162.5t189.5 -68.5q116 0 182 67.5t66 163.5z" />
    <glyph glyph-name="nine.taboldstyle" horiz-adv-x="1036" 
d="M391 -477l-112 145q87 56 156 115.5t112 108.5t77.5 104.5t52 95t34.5 88.5q-41 -21 -66 -32.5t-69.5 -22t-92.5 -10.5q-174 0 -284.5 118t-110.5 285q0 175 122.5 297.5t297.5 122.5q57 0 115 -15.5t117.5 -53t105 -93t74 -144.5t28.5 -198q0 -82 -15 -165.5
t-54.5 -181.5t-101 -190.5t-160.5 -190.5t-226 -183zM748 373q17 100 3 173.5t-53 122t-88.5 72t-103.5 23.5q-103 0 -165 -70t-62 -170q0 -108 69.5 -171.5t177.5 -63.5q47 0 90 14t66.5 27.5t65.5 42.5z" />
    <glyph glyph-name="zero.denominator" horiz-adv-x="661" 
d="M336 735q119 0 195.5 -104.5t76.5 -265.5q0 -171 -78.5 -273t-197.5 -102q-123 0 -201 99.5t-78 272.5q0 95 25.5 169.5t67.5 117.5t90.5 64.5t99.5 21.5zM330 625q-53 0 -94 -65t-41 -198q0 -140 41 -201t94 -61q61 0 99 72.5t38 187.5q0 77 -14 132.5t-36.5 82.5
t-44 38.5t-42.5 11.5z" />
    <glyph glyph-name="one.denominator" horiz-adv-x="661" 
d="M401 727v-727h-141v727h141z" />
    <glyph glyph-name="two.denominator" horiz-adv-x="661" 
d="M604 111v-111h-547v14q172 181 254 285q52 66 71 110.5t19 86.5q0 46 -23.5 76.5t-51 40.5t-56.5 10q-102 0 -194 -121v162q102 73 209 73q113 0 186.5 -64.5t73.5 -162.5q0 -50 -18.5 -99.5t-60.5 -105.5t-74 -92t-95 -102h307z" />
    <glyph glyph-name="three.denominator" horiz-adv-x="661" 
d="M94 35v129q103 -60 193 -60q12 0 26.5 3t38 11.5t39 32t15.5 58.5q0 30 -11.5 52t-27 33t-42.5 17.5t-45 8t-47 2.5v106q22 0 33 0.5t35 3t37.5 9t29.5 17t23.5 29t7.5 43.5q0 38 -30 68.5t-101 30.5q-61 0 -153 -43v114q87 35 168 35q48 0 91.5 -10.5t81.5 -32
t60.5 -61.5t22.5 -94q0 -103 -97 -152q38 -15 63.5 -40.5t34 -55.5t11 -45t2.5 -31q0 -98 -77.5 -160.5t-188.5 -62.5q-94 0 -193 45z" />
    <glyph glyph-name="four.denominator" horiz-adv-x="661" 
d="M518 737v-401h92v-100h-92v-236h-139v236h-348v51l420 450h67zM379 336v172l-160 -172h160z" />
    <glyph glyph-name="five.denominator" horiz-adv-x="661" 
d="M528 727v-104h-258v-166q84 -1 145.5 -23.5t93 -58.5t46 -73.5t14.5 -76.5q0 -99 -77 -167t-209 -68q-104 0 -205 49v125q105 -62 184 -62q69 0 116.5 34t47.5 91q0 63 -57 94t-131 31q-60 0 -99 -16v391h389z" />
    <glyph glyph-name="six.denominator" horiz-adv-x="661" 
d="M414 741l84 -92q-97 -53 -156.5 -109.5t-91.5 -133.5q47 20 106 20q111 0 178.5 -63t67.5 -150q0 -92 -76 -157.5t-184 -65.5q-47 0 -93 15t-87 45t-66.5 82.5t-25.5 119.5q0 191 159 350q28 28 60 53t55 40.5t70 45.5zM217 281q-4 -18 -4 -52q0 -66 41.5 -98.5
t89.5 -32.5t83.5 30.5t35.5 80.5q0 32 -13.5 54.5t-35 33.5t-41.5 15.5t-41 4.5q-59 0 -115 -36z" />
    <glyph glyph-name="seven.denominator" horiz-adv-x="661" 
d="M635 731l-381 -741l-125 47l301 584h-354v110h559z" />
    <glyph glyph-name="eight.denominator" horiz-adv-x="661" 
d="M496 371q49 -26 79.5 -71t30.5 -97q0 -88 -77 -150.5t-197 -62.5q-121 0 -199 63.5t-78 149.5q0 110 115 168q-96 66 -96 157q0 89 78 149t186 60q103 0 179.5 -59.5t76.5 -149.5q0 -95 -98 -157zM453 524q0 42 -31.5 71.5t-87.5 29.5q-50 0 -84.5 -27t-34.5 -72
q0 -49 39.5 -74.5t81.5 -25.5q45 0 81 27t36 71zM463 199q0 61 -39 87.5t-94 26.5q-69 0 -100 -33.5t-31 -72.5q0 -42 34 -73.5t99 -31.5q39 0 67.5 12t41 29.5t17.5 31.5t5 24z" />
    <glyph glyph-name="nine.denominator" horiz-adv-x="661" 
d="M258 -10l-84 88q194 110 248 250q-69 -21 -113 -21q-106 0 -174.5 65.5t-68.5 147.5q0 86 73 153.5t187 67.5q129 0 203.5 -79t74.5 -185q0 -133 -93.5 -267.5t-252.5 -219.5zM451 449q6 42 6 51q0 49 -31 90t-98 41q-63 0 -92 -36t-29 -73q0 -51 40.5 -79.5t86.5 -28.5
q57 0 117 35z" />
    <glyph glyph-name="zero.numerator" horiz-adv-x="661" 
d="M336 1415q117 0 194.5 -103t77.5 -268q0 -171 -78.5 -272.5t-197.5 -101.5q-123 0 -201 99.5t-78 272.5q0 81 18.5 147t47.5 107t67 69t75.5 39t74.5 11zM330 1305q-53 0 -94 -65t-41 -198q0 -140 41 -201t94 -61q61 0 99 72.5t38 187.5q0 77 -14 132.5t-36.5 82.5
t-44 38.5t-42.5 11.5z" />
    <glyph glyph-name="one.numerator" horiz-adv-x="661" 
d="M401 1407v-727h-141v727h141z" />
    <glyph glyph-name="two.numerator" horiz-adv-x="661" 
d="M604 791v-111h-547v14q140 140 254 285q53 66 71.5 110t18.5 87q0 36 -13.5 62t-35 38.5t-42 18t-40.5 5.5q-105 0 -194 -118v159q94 74 209 74q113 0 186.5 -64t73.5 -163q0 -49 -18.5 -98t-60.5 -105t-74 -92t-95 -102h307z" />
    <glyph glyph-name="three.numerator" horiz-adv-x="661" 
d="M94 715v129q103 -60 193 -60q9 0 19.5 1t29.5 7t33.5 16.5t25.5 31.5t11 49q0 30 -12 51t-26.5 32t-43 17.5t-44 8t-47.5 3.5v107q26 0 41.5 0.5t42.5 6t42 15.5t27.5 30.5t12.5 49.5q0 39 -31.5 69t-97.5 30q-31 0 -62 -7t-45.5 -13t-47.5 -21v112q73 35 168 35
q48 0 91.5 -10.5t81.5 -32t60.5 -61.5t22.5 -94q0 -104 -97 -154q38 -14 63.5 -39.5t34 -55t11 -44.5t2.5 -31q0 -98 -77.5 -160.5t-188.5 -62.5q-87 0 -193 45z" />
    <glyph glyph-name="four.numerator" horiz-adv-x="661" 
d="M518 1415v-401h92v-101h-92v-233h-139v233h-348v54l420 448h67zM379 1014v174l-160 -174h160z" />
    <glyph glyph-name="five.numerator" horiz-adv-x="661" 
d="M528 1407v-104h-258v-168q68 0 121.5 -15.5t86 -39t54 -55t29.5 -61t8 -59.5q0 -99 -77 -167t-209 -68q-94 0 -205 47v125q99 -60 184 -60q68 0 116 33.5t48 89.5q0 64 -57.5 95.5t-130.5 31.5q-60 0 -99 -16v391h389z" />
    <glyph glyph-name="six.numerator" horiz-adv-x="661" 
d="M414 1421l84 -92q-95 -53 -155 -110.5t-93 -133.5q45 19 106 19q111 0 178.5 -63t67.5 -150q0 -92 -75.5 -156.5t-184.5 -64.5q-47 0 -93 15t-87 44.5t-66.5 82t-25.5 120.5q0 187 159 350q28 28 60 53t55 40.5t70 45.5zM217 961q-4 -24 -4 -54q0 -62 41 -95.5t90 -33.5
t84 30t35 81q0 32 -13.5 54.5t-35.5 33.5t-42 15.5t-40 4.5q-54 0 -115 -36z" />
    <glyph glyph-name="seven.numerator" horiz-adv-x="661" 
d="M659 1409l-380 -739l-127 47l301 581h-353v111h559z" />
    <glyph glyph-name="eight.numerator" horiz-adv-x="661" 
d="M496 1051q110 -56 110 -170q0 -88 -77 -149.5t-197 -61.5q-121 0 -199 63.5t-78 149.5q0 14 3 29t12.5 41t35 52t64.5 46q-96 66 -96 157q0 89 78 148t186 59q103 0 179.5 -58.5t76.5 -148.5q0 -98 -98 -157zM453 1206q0 39 -30.5 69t-88.5 30q-51 0 -85 -27t-34 -72
q0 -50 40 -76t81 -26q43 0 80 26.5t37 75.5zM463 889q0 37 -31 69.5t-102 32.5q-69 0 -100 -33.5t-31 -70.5q0 -42 34 -74.5t99 -32.5q66 0 98.5 32.5t32.5 76.5z" />
    <glyph glyph-name="nine.numerator" horiz-adv-x="661" 
d="M258 670l-84 88q26 14 54 32.5t67.5 50t73.5 75.5t53 92q-69 -21 -113 -21q-106 0 -174.5 64.5t-68.5 148.5q0 86 73 152.5t187 66.5q130 0 204 -78.5t74 -183.5q0 -136 -94.5 -270t-251.5 -217zM451 1128q6 42 6 52q0 27 -9.5 54.5t-40.5 52t-79 24.5q-64 0 -92.5 -36.5
t-28.5 -74.5q0 -49 41 -77.5t86 -28.5q61 0 117 34z" />
    <glyph glyph-name="abreve.sc" horiz-adv-x="985" 
d="M686 246h-393l-105 -246h-176l412 995h119l430 -995h-176zM354 391h267l-138 340zM152 1391h159q15 -52 58 -89.5t125 -37.5t125.5 38t54.5 89h160q-10 -73 -45 -130.5t-84 -91.5t-103 -51.5t-108 -17.5q-51 0 -103.5 16.5t-102.5 49.5t-87 91.5t-49 133.5z" />
    <glyph glyph-name="amacron.sc" horiz-adv-x="985" 
d="M686 246h-393l-105 -246h-176l412 995h119l430 -995h-176zM354 391h267l-138 340zM831 1262v-162h-675v162h675z" />
    <glyph glyph-name="aogonek.sc" horiz-adv-x="985" 
d="M963 20h4l-2 -2l8 -18h-23q-63 -83 -63 -141q0 -36 32.5 -68.5t84.5 -32.5q32 0 106 25v-152q-75 -34 -154 -34q-106 0 -174.5 56.5t-68.5 151.5q0 100 82 195l-109 246h-393l-105 -246h-176l412 995h119zM354 391h267l-138 340z" />
    <glyph glyph-name="aeacute.sc" horiz-adv-x="1294" 
d="M666 262h-318l-135 -262h-201l570 989h632v-158h-378v-251h368v-158h-368v-264h395v-158h-565v262zM436 422h230v409zM907 1407h293l-336 -307h-106z" />
    <glyph glyph-name="cacute.sc" horiz-adv-x="1034" 
d="M946 918v-191q-55 33 -89.5 51.5t-107.5 40t-147 21.5q-107 0 -186.5 -51t-117.5 -130.5t-38 -173.5q0 -73 23.5 -132.5t60 -96.5t84.5 -61.5t93.5 -34.5t90.5 -10q57 0 112 12.5t104 36.5t72 37.5t56 35.5v-192q-160 -92 -356 -92q-102 0 -189 30.5t-146.5 80.5
t-101.5 116t-61.5 136t-19.5 141q0 93 33.5 182.5t96 163t163 118.5t223.5 45q97 0 175 -21t173 -62zM571 1407h293l-336 -307h-106z" />
    <glyph glyph-name="ccaron.sc" horiz-adv-x="1034" 
d="M946 918v-191q-55 33 -89.5 51.5t-107.5 40t-147 21.5q-107 0 -186.5 -51t-117.5 -130.5t-38 -173.5q0 -73 23.5 -132.5t60 -96.5t84.5 -61.5t93.5 -34.5t90.5 -10q57 0 112 12.5t104 36.5t72 37.5t56 35.5v-192q-160 -92 -356 -92q-102 0 -189 30.5t-146.5 80.5
t-101.5 116t-61.5 136t-19.5 141q0 93 33.5 182.5t96 163t163 118.5t223.5 45q97 0 175 -21t173 -62zM907 1423l-190 -323h-295l-191 323h125l213 -190l217 190h121z" />
    <glyph glyph-name="ccircumflex.sc" horiz-adv-x="1034" 
d="M946 918v-191q-55 33 -89.5 51.5t-107.5 40t-147 21.5q-107 0 -186.5 -51t-117.5 -130.5t-38 -173.5q0 -73 23.5 -132.5t60 -96.5t84.5 -61.5t93.5 -34.5t90.5 -10q57 0 112 12.5t104 36.5t72 37.5t56 35.5v-192q-160 -92 -356 -92q-102 0 -189 30.5t-146.5 80.5
t-101.5 116t-61.5 136t-19.5 141q0 93 33.5 182.5t96 163t163 118.5t223.5 45q97 0 175 -21t173 -62zM918 1100h-127l-213 194l-216 -194h-124l192 321h291z" />
    <glyph glyph-name="cdotaccent.sc" horiz-adv-x="1034" 
d="M946 918v-191q-55 33 -89.5 51.5t-107.5 40t-147 21.5q-107 0 -186.5 -51t-117.5 -130.5t-38 -173.5q0 -73 23.5 -132.5t60 -96.5t84.5 -61.5t93.5 -34.5t90.5 -10q57 0 112 12.5t104 36.5t72 37.5t56 35.5v-192q-160 -92 -356 -92q-102 0 -189 30.5t-146.5 80.5
t-101.5 116t-61.5 136t-19.5 141q0 93 33.5 182.5t96 163t163 118.5t223.5 45q97 0 175 -21t173 -62zM580 1346q41 0 72.5 -30.5t31.5 -76.5q0 -45 -30.5 -75.5t-73.5 -30.5q-44 0 -75.5 31t-31.5 75q0 45 33.5 76t73.5 31z" />
    <glyph glyph-name="dcaron.sc" horiz-adv-x="1089" 
d="M119 0v989h332q130 0 218 -24t158 -82q87 -69 135 -170.5t48 -214.5q0 -77 -22.5 -147.5t-59.5 -122.5t-75.5 -89t-78.5 -61q-122 -78 -342 -78h-313zM291 831v-671h151q180 0 265 65q64 48 95.5 127.5t31.5 149.5q0 71 -31 141.5t-88 118.5q-47 41 -109.5 55t-167.5 14
h-147zM813 1423l-190 -323h-295l-191 323h125l213 -190l217 190h121z" />
    <glyph glyph-name="dcroat.sc" horiz-adv-x="1087" 
d="M119 428h-119v137h119v424h332q128 0 216 -24t160 -82q86 -69 133.5 -170.5t47.5 -214.5q0 -77 -22.5 -147.5t-59 -122.5t-74.5 -89t-78 -61q-122 -78 -344 -78h-311v428zM549 428h-260v-268h151q182 0 267 65q64 48 95.5 127.5t31.5 149.5t-31.5 140.5t-87.5 119.5
q-49 41 -111 55t-168 14h-147v-266h260v-137z" />
    <glyph glyph-name="ebreve.sc" horiz-adv-x="751" 
d="M291 831v-256h379v-155h-379v-262h403v-158h-573v989h561v-158h-391zM55 1391h160q37 -127 182 -127q82 0 126 38t55 89h159q-10 -73 -45 -130.5t-84 -91.5t-103 -51.5t-108 -17.5q-51 0 -103.5 16.5t-102.5 49.5t-87 91.5t-49 133.5z" />
    <glyph glyph-name="ecaron.sc" horiz-adv-x="751" 
d="M291 831v-256h379v-155h-379v-262h403v-158h-573v989h561v-158h-391zM735 1423l-190 -323h-295l-191 323h125l213 -190l217 190h121z" />
    <glyph glyph-name="edotaccent.sc" horiz-adv-x="751" 
d="M291 831v-256h379v-155h-379v-262h403v-158h-573v989h561v-158h-391zM414 1346q41 0 72.5 -30.5t31.5 -76.5q0 -45 -30.5 -75.5t-73.5 -30.5q-44 0 -75.5 31t-31.5 75q0 45 33.5 76t73.5 31z" />
    <glyph glyph-name="emacron.sc" horiz-adv-x="751" 
d="M291 831v-256h379v-155h-379v-262h403v-158h-573v989h561v-158h-391zM735 1262v-162h-676v162h676z" />
    <glyph glyph-name="eng.sc" horiz-adv-x="1028" 
d="M592 -14l-31 155q54 -4 70 -4q76 0 107.5 40.5t31.5 137.5v252q0 28 -0.5 45.5t-5 52.5t-12.5 58.5t-24.5 53.5t-40 48t-60.5 30.5t-84 12.5q-92 0 -160 -44.5t-125 -116.5v-707h-162v1012h162v-115q132 129 305 129q34 0 69.5 -6.5t79.5 -22t86.5 -50t73.5 -83.5
q29 -45 44.5 -108.5t15.5 -186.5v-268q0 -86 -22 -150t-60 -99.5t-83 -52.5t-97 -17q-33 0 -78 4z" />
    <glyph glyph-name="eogonek.sc" horiz-adv-x="751" 
d="M537 0q-66 -80 -66 -143q0 -39 32.5 -71t94.5 -32q36 0 96 27v-152q-77 -35 -153 -35q-100 0 -172 55t-72 154q0 113 84 197h-260v989h561v-158h-391v-256h379v-155h-379v-262h403v-158h-157z" />
    <glyph glyph-name="gbreve.sc" horiz-adv-x="1077" 
d="M969 504v-432q-184 -84 -359 -84q-107 0 -196 30t-148.5 80t-101 115.5t-60 134.5t-18.5 139q0 99 36 191t100.5 164t164.5 115.5t219 43.5q65 0 130.5 -14t107.5 -30t106 -44v-182q-35 21 -57.5 33t-72 34.5t-104.5 34t-112 11.5q-137 0 -239.5 -96t-102.5 -254
q0 -164 103 -257.5t249 -93.5q75 0 185 37v168h-178v156h348zM199 1391h159q15 -52 58 -89.5t125 -37.5t125.5 38t54.5 89h160q-10 -73 -45 -130.5t-84 -91.5t-103 -51.5t-108 -17.5q-51 0 -103.5 16.5t-102.5 49.5t-87 91.5t-49 133.5z" />
    <glyph glyph-name="gcircumflex.sc" horiz-adv-x="1077" 
d="M969 504v-432q-184 -84 -359 -84q-107 0 -196 30t-148.5 80t-101 115.5t-60 134.5t-18.5 139q0 99 36 191t100.5 164t164.5 115.5t219 43.5q65 0 130.5 -14t107.5 -30t106 -44v-182q-35 21 -57.5 33t-72 34.5t-104.5 34t-112 11.5q-137 0 -239.5 -96t-102.5 -254
q0 -164 103 -257.5t249 -93.5q75 0 185 37v168h-178v156h348zM915 1100h-127l-213 194l-215 -194h-124l192 321h291z" />
    <glyph glyph-name="gcommaaccent.sc" horiz-adv-x="1077" 
d="M969 504v-432q-184 -84 -359 -84q-107 0 -196 30t-148.5 80t-101 115.5t-60 134.5t-18.5 139q0 99 36 191t100.5 164t164.5 115.5t219 43.5q65 0 130.5 -14t107.5 -30t106 -44v-182q-35 21 -57.5 33t-72 34.5t-104.5 34t-112 11.5q-137 0 -239.5 -96t-102.5 -254
q0 -164 103 -257.5t249 -93.5q75 0 185 37v168h-178v156h348zM401 -465v125q50 -4 88 -4q142 0 142 63q0 16 -7 28t-23 18t-30 10t-39.5 4t-39 -0.5t-41.5 -1.5l22 123h57q16 0 31 -0.5t47 -4t58 -9.5t57.5 -18.5t53 -30t36 -45.5t14.5 -62q0 -35 -18.5 -75t-58.5 -71
q-77 -55 -263 -55q-51 0 -86 6z" />
    <glyph glyph-name="gdotaccent.sc" horiz-adv-x="1077" 
d="M969 504v-432q-184 -84 -359 -84q-107 0 -196 30t-148.5 80t-101 115.5t-60 134.5t-18.5 139q0 99 36 191t100.5 164t164.5 115.5t219 43.5q65 0 130.5 -14t107.5 -30t106 -44v-182q-35 21 -57.5 33t-72 34.5t-104.5 34t-112 11.5q-137 0 -239.5 -96t-102.5 -254
q0 -164 103 -257.5t249 -93.5q75 0 185 37v168h-178v156h348zM592 1346q41 0 72.5 -30.5t31.5 -76.5q0 -45 -30.5 -75.5t-73.5 -30.5q-44 0 -75.5 31t-31.5 75q0 45 33.5 76t73.5 31z" />
    <glyph glyph-name="hbar.sc" horiz-adv-x="1060" 
d="M942 821h119v-129h-119v-692h-170v418h-483v-418h-170v692h-119v129h119v168h170v-168h483v168h170v-168zM772 692h-483v-119h483v119z" />
    <glyph glyph-name="hcircumflex.sc" horiz-adv-x="1060" 
d="M942 989v-989h-170v418h-483v-418h-170v989h170v-416h483v416h170zM870 1100h-127l-213 194l-215 -194h-125l193 321h291z" />
    <glyph glyph-name="ibreve.sc" horiz-adv-x="411" 
d="M291 989v-989h-170v989h170zM-135 1391h160q37 -127 182 -127q82 0 125.5 38t54.5 89h160q-10 -73 -45 -130.5t-84 -91.5t-103 -51.5t-108 -17.5q-51 0 -103.5 16.5t-102.5 49.5t-87 91.5t-49 133.5z" />
    <glyph glyph-name="ij.sc" horiz-adv-x="823" 
d="M291 989v-989h-170v989h170zM705 989v-958q0 -161 -41 -232q-32 -61 -87 -92t-116 -31q-17 0 -92 13l-27 164q80 -11 86 -11q30 0 50.5 10t31.5 24.5t16.5 44t7 55.5t1.5 71v942h170z" />
    <glyph glyph-name="imacron.sc" horiz-adv-x="411" 
d="M291 989v-989h-170v989h170zM545 1262v-162h-676v162h676z" />
    <glyph glyph-name="iogonek.sc" horiz-adv-x="411" 
d="M434 -217v-152q-75 -34 -153 -34q-106 0 -175 57t-69 151q0 106 84 197v987h170v-989h-17q-63 -89 -63 -141q0 -38 32 -70.5t95 -32.5q36 0 96 27z" />
    <glyph glyph-name="itilde.sc" horiz-adv-x="411" 
d="M291 989v-989h-170v989h170zM-23 1100h-106q13 124 73 187t134 63q28 0 56 -8t47.5 -17t84.5 -41q81 -37 103 -37q24 0 42.5 26.5t24.5 72.5h107q-8 -104 -62 -175t-135 -71q-37 0 -68.5 10.5t-134.5 56.5q-6 3 -19.5 9t-17.5 8t-13.5 5.5t-13 4.5t-10 3t-11.5 2.5
t-11 0.5q-17 0 -29 -7.5t-20 -24.5t-11.5 -29.5t-9.5 -38.5z" />
    <glyph glyph-name="jcircumflex.sc" horiz-adv-x="411" 
d="M291 989v-958q0 -161 -41 -232q-32 -61 -87 -92t-116 -31q-17 0 -92 13l-27 164q80 -11 86 -11q30 0 50.5 10t31.5 24.5t16.5 44t7 55.5t1.5 71v942h170zM545 1100h-127l-213 194l-215 -194h-125l192 321h291z" />
    <glyph glyph-name="kcommaaccent.sc" horiz-adv-x="962" 
d="M868 989l-405 -459l508 -530h-236l-444 457v-457h-170v989h170v-418l362 418h215zM313 -465v125q50 -4 88 -4q142 0 142 63q0 24 -15.5 38t-48 18t-54.5 4t-63 -2l23 123h57q16 0 31 -0.5t47 -4t58 -9.5t57.5 -18.5t53 -30t36 -45.5t14.5 -62q0 -35 -18.5 -75t-58.5 -71
q-77 -55 -263 -55q-51 0 -86 6z" />
    <glyph glyph-name="lacute.sc" horiz-adv-x="737" 
d="M289 989v-831h418v-158h-588v989h170zM362 1407h293l-336 -307h-106z" />
    <glyph glyph-name="lcaron.sc" horiz-adv-x="737" 
d="M289 989v-831h418v-158h-588v989h170zM451 578v30q42 39 57.5 77.5t17.5 94.5q-96 27 -96 111q0 43 33 76.5t80 33.5q57 0 91 -47t34 -114q0 -11 -1.5 -22t-6.5 -39t-19.5 -54t-36.5 -54.5t-62 -53t-91 -39.5z" />
    <glyph glyph-name="lcommaaccent.sc" horiz-adv-x="737" 
d="M289 989v-831h418v-158h-588v989h170zM231 -465v125q50 -4 88 -4q142 0 142 63q0 16 -7 28t-23 18t-30 10t-39.5 4t-39 -0.5t-41.5 -1.5l22 123h57q16 0 31 -0.5t47 -4t58 -9.5t57.5 -18.5t53 -30t36 -45.5t14.5 -62q0 -35 -18.5 -75t-58.5 -71q-77 -55 -263 -55
q-51 0 -86 6z" />
    <glyph glyph-name="ldot.sc" horiz-adv-x="737" 
d="M289 989v-831h418v-158h-588v989h170zM504 672q41 0 72.5 -30.5t31.5 -76.5q0 -45 -30.5 -75.5t-73.5 -30.5q-44 0 -75.5 31t-31.5 75q0 45 33.5 76t73.5 31z" />
    <glyph glyph-name="nacute.sc" horiz-adv-x="1126" 
d="M1012 989v-989h-150l-575 700v-700h-172v989h143l584 -706v706h170zM557 1407h293l-336 -307h-106z" />
    <glyph glyph-name="ncaron.sc" horiz-adv-x="1126" 
d="M1012 989v-989h-150l-575 700v-700h-172v989h143l584 -706v706h170zM903 1423l-190 -323h-295l-191 323h125l213 -190l217 190h121z" />
    <glyph glyph-name="ncommaaccent.sc" horiz-adv-x="1126" 
d="M1012 989v-989h-150l-575 700v-700h-172v989h143l584 -706v706h170zM385 -465v125q50 -4 88 -4q141 0 141 63q0 16 -7 28t-23 18t-30 10t-39.5 4t-39 -0.5t-41.5 -1.5l23 123h57q16 0 31 -0.5t47 -4t58 -9.5t57.5 -18.5t53 -30t36 -45.5t14.5 -62q0 -35 -19 -75t-59 -71
q-77 -55 -262 -55q-51 0 -86 6z" />
    <glyph glyph-name="obreve.sc" horiz-adv-x="1189" 
d="M78 492q0 102 36.5 194.5t102 162t163 111t212.5 41.5q154 0 274.5 -71t183 -185.5t62.5 -248.5q0 -216 -147 -362t-379 -146q-219 0 -363.5 145.5t-144.5 358.5zM260 492q0 -154 98.5 -248t235.5 -94q138 0 237 95t99 253q0 138 -91.5 240t-242.5 102q-81 0 -146.5 -30
t-106 -80t-62 -111t-21.5 -127zM254 1391h160q37 -127 182 -127q82 0 125.5 38t54.5 89h160q-10 -73 -45 -130.5t-84 -91.5t-103 -51.5t-108 -17.5q-51 0 -103.5 16.5t-102.5 49.5t-87 91.5t-49 133.5z" />
    <glyph glyph-name="ohungarumlaut.sc" horiz-adv-x="1189" 
d="M78 492q0 102 36.5 194.5t102 162t163 111t212.5 41.5q154 0 274.5 -71t183 -185.5t62.5 -248.5q0 -216 -147 -362t-379 -146q-219 0 -363.5 145.5t-144.5 358.5zM260 492q0 -154 98.5 -248t235.5 -94q138 0 237 95t99 253q0 138 -91.5 240t-242.5 102q-81 0 -146.5 -30
t-106 -80t-62 -111t-21.5 -127zM725 1407l-256 -307h-90l90 307h256zM1061 1407l-256 -307h-90l90 307h256z" />
    <glyph glyph-name="omacron.sc" horiz-adv-x="1189" 
d="M78 492q0 102 36.5 194.5t102 162t163 111t212.5 41.5q154 0 274.5 -71t183 -185.5t62.5 -248.5q0 -216 -147 -362t-379 -146q-219 0 -363.5 145.5t-144.5 358.5zM260 492q0 -154 98.5 -248t235.5 -94q138 0 237 95t99 253q0 138 -91.5 240t-242.5 102q-81 0 -146.5 -30
t-106 -80t-62 -111t-21.5 -127zM934 1262v-162h-676v162h676z" />
    <glyph glyph-name="oslashacute.sc" horiz-adv-x="1193" 
d="M903 909l66 76h153l-133 -154q125 -146 125 -335q0 -216 -147 -362t-379 -146q-155 0 -269 71l-63 -71h-154l125 143q-147 150 -147 361q0 136 61.5 251t180.5 186.5t272 71.5q50 0 98.5 -8.5t76.5 -17t64.5 -26.5t41.5 -21.5t28 -18.5zM342 262l451 518l-10 6
q-10 7 -15 9.5t-18 9.5t-22.5 10.5t-25.5 9t-31 8.5t-34 5t-39 2q-83 0 -149.5 -31.5t-106 -83t-60 -111.5t-20.5 -122q0 -58 20.5 -120.5t59.5 -109.5zM872 698l-438 -508q78 -40 162 -40q138 0 237 95t99 253q0 109 -60 200zM590 1407h293l-336 -307h-107z" />
    <glyph glyph-name="racute.sc" horiz-adv-x="890" 
d="M115 989h233q365 0 365 -282q0 -193 -166 -252q55 -49 85.5 -85.5t86.5 -127.5q54 -89 86.5 -138t45.5 -65t34 -39h-205q-48 93 -176 281q-83 122 -168 122h-49v-403h-172v989zM330 838h-43v-291h57q39 0 59 1t46.5 8t42.5 22q49 42 49 116q0 36 -11 62.5t-29 42
t-46.5 24.5t-57 12t-67.5 3zM438 1407h293l-336 -307h-106z" />
    <glyph glyph-name="rcaron.sc" horiz-adv-x="890" 
d="M115 989h233q365 0 365 -282q0 -193 -166 -252q55 -49 85.5 -85.5t86.5 -127.5q54 -89 86.5 -138t45.5 -65t34 -39h-205q-48 93 -176 281q-83 122 -168 122h-49v-403h-172v989zM330 838h-43v-291h57q39 0 59 1t46.5 8t42.5 22q49 42 49 116q0 36 -11 62.5t-29 42
t-46.5 24.5t-57 12t-67.5 3zM764 1423l-191 -323h-294l-191 323h125l213 -190l217 190h121z" />
    <glyph glyph-name="rcommaaccent.sc" horiz-adv-x="890" 
d="M115 989h233q365 0 365 -282q0 -193 -166 -252q55 -49 85.5 -85.5t86.5 -127.5q54 -89 86.5 -138t45.5 -65t34 -39h-205q-48 93 -176 281q-83 122 -168 122h-49v-403h-172v989zM330 838h-43v-291h57q39 0 59 1t46.5 8t42.5 22q49 42 49 116q0 36 -11 62.5t-29 42
t-46.5 24.5t-57 12t-67.5 3zM307 -465v125q50 -4 88 -4q142 0 142 63q0 24 -15.5 38t-48 18t-54.5 4t-63 -2l23 123h57q16 0 31 -0.5t47 -4t58 -9.5t57.5 -18.5t53 -30t36 -45.5t14.5 -62q0 -35 -19 -75t-59 -71q-77 -55 -262 -55q-51 0 -86 6z" />
    <glyph glyph-name="sacute.sc" horiz-adv-x="694" 
d="M596 938v-184q-40 28 -63 42.5t-72 31t-99 16.5q-61 0 -95 -27.5t-34 -66.5q0 -50 39.5 -84.5t182.5 -120.5q178 -107 178 -281q0 -122 -80 -199t-207 -77q-145 0 -270 86v209q33 -33 51 -49t54.5 -42t76.5 -37.5t86 -11.5q51 0 89 30.5t38 76.5q0 34 -22.5 67.5
t-42 49.5t-48.5 36q-51 31 -78 48t-63 42t-53.5 41.5t-38.5 40.5t-29.5 46t-15 50t-6.5 60q0 114 78 192t215 78q120 0 229 -63zM371 1407h293l-336 -307h-107z" />
    <glyph glyph-name="scedilla.sc" horiz-adv-x="694" 
d="M426 -4l-12 -33q41 -8 71.5 -24.5t45.5 -33.5t24 -37.5t10.5 -32t1.5 -21.5q0 -41 -28.5 -85t-69.5 -71q-80 -47 -242 -47q-53 0 -88 6v125q7 0 42.5 -2t41.5 -2q59 0 102.5 15.5t43.5 45.5q0 26 -22 41t-51.5 18.5t-52.5 3t-32 -2.5l57 135q-58 11 -99 27.5t-93 52.5
v209q33 -33 51 -49t54.5 -42t76.5 -37.5t86 -11.5q51 0 89 30.5t38 76.5q0 34 -22.5 67.5t-42 49.5t-48.5 36q-51 31 -78 48t-63 42t-53.5 41.5t-38.5 40.5t-29.5 46t-15 50t-6.5 60q0 114 78 192t215 78q120 0 229 -63v-184q-40 28 -63 42.5t-72 31t-99 16.5
q-64 0 -96.5 -28.5t-32.5 -65.5q0 -49 40.5 -84.5t181.5 -120.5q178 -107 178 -281q0 -97 -53.5 -170t-153.5 -98z" />
    <glyph glyph-name="scircumflex.sc" horiz-adv-x="694" 
d="M596 938v-184q-40 28 -63 42.5t-72 31t-99 16.5q-61 0 -95 -27.5t-34 -66.5q0 -50 39.5 -84.5t182.5 -120.5q178 -107 178 -281q0 -122 -80 -199t-207 -77q-145 0 -270 86v209q33 -33 51 -49t54.5 -42t76.5 -37.5t86 -11.5q51 0 89 30.5t38 76.5q0 34 -22.5 67.5
t-42 49.5t-48.5 36q-51 31 -78 48t-63 42t-53.5 41.5t-38.5 40.5t-29.5 46t-15 50t-6.5 60q0 114 78 192t215 78q120 0 229 -63zM686 1100h-127l-213 194l-215 -194h-125l193 321h290z" />
    <glyph glyph-name="scommaaccent.sc" horiz-adv-x="694" 
d="M596 938v-184q-40 28 -63 42.5t-72 31t-99 16.5q-61 0 -95 -27.5t-34 -66.5q0 -50 39.5 -84.5t182.5 -120.5q178 -107 178 -281q0 -122 -80 -199t-207 -77q-145 0 -270 86v209q33 -33 51 -49t54.5 -42t76.5 -37.5t86 -11.5q51 0 89 30.5t38 76.5q0 34 -22.5 67.5
t-42 49.5t-48.5 36q-51 31 -78 48t-63 42t-53.5 41.5t-38.5 40.5t-29.5 46t-15 50t-6.5 60q0 114 78 192t215 78q120 0 229 -63zM137 -465v125q50 -4 88 -4q142 0 142 63q0 24 -15.5 38t-48 18t-54.5 4t-63 -2l23 123h57q16 0 31 -0.5t47 -4t58 -9.5t57.5 -18.5t53 -30
t36 -45.5t14.5 -62q0 -35 -19 -75t-59 -71q-77 -55 -262 -55q-51 0 -86 6z" />
    <glyph glyph-name="tbar.sc" horiz-adv-x="892" 
d="M532 578h269v-129h-269v-449h-170v449h-270v129h270v262h-321v149h811v-149h-320v-262z" />
    <glyph glyph-name="tcaron.sc" horiz-adv-x="892" 
d="M852 989v-149h-320v-840h-170v840h-321v149h811zM786 1423l-190 -323h-295l-190 323h125l213 -190l217 190h120z" />
    <glyph glyph-name="tcommaaccent.sc" horiz-adv-x="892" 
d="M852 989v-149h-320v-840h-170v840h-321v149h811zM258 -465v125q50 -4 88 -4q141 0 141 63q0 16 -7 28t-23 18t-30 10t-39.5 4t-39 -0.5t-41.5 -1.5l23 123h57q16 0 31 -0.5t47 -4t58 -9.5t57.5 -18.5t53 -30t36 -45.5t14.5 -62q0 -35 -19 -75t-59 -71q-77 -55 -262 -55
q-52 0 -86 6z" />
    <glyph glyph-name="ubreve.sc" horiz-adv-x="1034" 
d="M934 989v-559q0 -132 -26.5 -207t-86.5 -129q-119 -106 -299 -106q-88 0 -176 27t-141 83q-58 63 -81.5 133t-23.5 199v559h170v-559q0 -91 11 -134t43 -77q70 -76 192 -76q135 0 195 76q33 41 43 81.5t10 129.5v559h170zM176 1391h160q37 -127 182 -127q82 0 125.5 38
t54.5 89h160q-10 -73 -45 -130.5t-84 -91.5t-103 -51.5t-108 -17.5q-51 0 -103.5 16.5t-102.5 49.5t-87 91.5t-49 133.5z" />
    <glyph glyph-name="uhungarumlaut.sc" horiz-adv-x="1034" 
d="M934 989v-559q0 -132 -26.5 -207t-86.5 -129q-119 -106 -299 -106q-88 0 -176 27t-141 83q-58 63 -81.5 133t-23.5 199v559h170v-559q0 -91 11 -134t43 -77q70 -76 192 -76q135 0 195 76q33 41 43 81.5t10 129.5v559h170zM647 1407l-256 -307h-90l90 307h256zM983 1407
l-256 -307h-90l90 307h256z" />
    <glyph glyph-name="umacron.sc" horiz-adv-x="1034" 
d="M934 989v-559q0 -132 -26.5 -207t-86.5 -129q-119 -106 -299 -106q-88 0 -176 27t-141 83q-58 63 -81.5 133t-23.5 199v559h170v-559q0 -91 11 -134t43 -77q70 -76 192 -76q135 0 195 76q33 41 43 81.5t10 129.5v559h170zM856 1262v-162h-676v162h676z" />
    <glyph glyph-name="uogonek.sc" horiz-adv-x="1034" 
d="M745 -217v-152q-75 -34 -151 -34q-106 0 -175 56.5t-69 151.5q0 97 78 189q-67 12 -119.5 36t-86.5 52t-58 67.5t-36 72t-19 76.5t-8 69.5t-1 62.5v559h170v-559q0 -91 11 -134t43 -77q70 -76 192 -76q135 0 195 76q33 41 43 81.5t10 129.5v559h170v-559q0 -66 -6.5 -115
t-24.5 -101t-55.5 -95t-95.5 -76q-71 -40 -170 -53q-17 -23 -37.5 -62.5t-20.5 -68.5q0 -40 32 -71.5t95 -31.5q38 0 94 27z" />
    <glyph glyph-name="uring.sc" horiz-adv-x="1034" 
d="M934 989v-559q0 -132 -26.5 -207t-86.5 -129q-119 -106 -299 -106q-88 0 -176 27t-141 83q-58 63 -81.5 133t-23.5 199v559h170v-559q0 -91 11 -134t43 -77q70 -76 192 -76q135 0 195 76q33 41 43 81.5t10 129.5v559h170zM518 1491q92 0 149.5 -65t57.5 -142
q0 -83 -57.5 -145t-149.5 -62q-91 0 -149 62t-58 145q0 86 60.5 146.5t146.5 60.5zM518 1171q46 0 79.5 33.5t33.5 79.5t-33.5 79.5t-79.5 33.5t-79 -33.5t-33 -79.5t33 -79.5t79 -33.5z" />
    <glyph glyph-name="utilde.sc" horiz-adv-x="1034" 
d="M934 989v-559q0 -132 -26.5 -207t-86.5 -129q-119 -106 -299 -106q-88 0 -176 27t-141 83q-58 63 -81.5 133t-23.5 199v559h170v-559q0 -91 11 -134t43 -77q70 -76 192 -76q135 0 195 76q33 41 43 81.5t10 129.5v559h170zM289 1100h-107q13 124 73 187t134 63
q28 0 55.5 -8t49 -17.5t84.5 -40.5q81 -37 102 -37q24 0 43 26.5t25 72.5h106q-8 -104 -62 -175t-135 -71q-37 0 -67.5 10.5t-134.5 56.5q-5 2 -15.5 7t-14.5 6.5t-12 5t-11 4.5t-9 3.5t-9.5 3t-8 1.5t-9 1.5t-8.5 0.5q-14 0 -24.5 -6.5t-16.5 -13.5t-12 -24t-8.5 -25.5
t-7.5 -30.5z" />
    <glyph glyph-name="wacute.sc" horiz-adv-x="1519" 
d="M1038 -6l-278 717l-279 -717h-55l-412 995h191l244 -588l243 588h137l242 -588l244 588h190l-411 -995h-56zM754 1407h293l-336 -307h-107z" />
    <glyph glyph-name="wcircumflex.sc" horiz-adv-x="1519" 
d="M1038 -6l-278 717l-279 -717h-55l-412 995h191l244 -588l243 588h137l242 -588l244 588h190l-411 -995h-56zM1100 1100h-127l-213 194l-215 -194h-125l192 321h291z" />
    <glyph glyph-name="wdieresis.sc" horiz-adv-x="1519" 
d="M1038 -6l-278 717l-279 -717h-55l-412 995h191l244 -588l243 588h137l242 -588l244 588h190l-411 -995h-56zM973 1133q-44 0 -76.5 32t-32.5 76t32.5 76.5t76.5 32.5t76 -32.5t32 -76.5t-32 -76t-76 -32zM549 1133q-44 0 -76.5 32t-32.5 76t32.5 76.5t76.5 32.5t76 -32.5
t32 -76.5t-32 -76t-76 -32z" />
    <glyph glyph-name="wgrave.sc" horiz-adv-x="1519" 
d="M1038 -6l-278 717l-279 -717h-55l-412 995h191l244 -588l243 588h137l242 -588l244 588h190l-411 -995h-56zM768 1407l150 -307h-107l-336 307h293z" />
    <glyph glyph-name="ycircumflex.sc" horiz-adv-x="913" 
d="M903 989l-360 -545v-444h-174v444l-359 545h201l246 -379l245 379h201zM811 1100h-127l-213 194l-215 -194h-125l193 321h290z" />
    <glyph glyph-name="ygrave.sc" horiz-adv-x="913" 
d="M903 989l-360 -545v-444h-174v444l-359 545h201l246 -379l245 379h201zM465 1407l149 -307h-106l-336 307h293z" />
    <glyph glyph-name="zacute.sc" horiz-adv-x="962" 
d="M932 989l-586 -833h569v-156h-890l587 834h-534v155h854zM496 1407h292l-335 -307h-107z" />
    <glyph glyph-name="zdotaccent.sc" horiz-adv-x="962" 
d="M932 989l-586 -833h569v-156h-890l587 834h-534v155h854zM483 1346q41 0 73 -30.5t32 -76.5q0 -45 -31 -75.5t-74 -30.5q-44 0 -75 31t-31 75q0 45 33 76t73 31z" />
    <glyph glyph-name="idotaccent.sc" horiz-adv-x="411" 
d="M291 989v-989h-170v989h170zM207 1346q41 0 72.5 -30.5t31.5 -76.5q0 -45 -30.5 -75.5t-73.5 -30.5q-44 0 -75.5 31t-31.5 75q0 45 33.5 76t73.5 31z" />
    <glyph glyph-name="one.alt" 
d="M688 0h-201v1071l-268 -215l-84 170l477 389h76v-1415z" />
    <glyph glyph-name="A.sc" horiz-adv-x="985" 
d="M686 246h-393l-105 -246h-176l412 995h119l430 -995h-176zM354 391h267l-138 340z" />
    <glyph glyph-name="B.sc" horiz-adv-x="835" 
d="M119 0v989h262q137 0 215 -41q53 -29 84 -85.5t31 -121.5q0 -41 -11.5 -75.5t-26 -55t-40.5 -40.5t-40 -27.5t-40 -20.5q35 -6 58 -11.5t58.5 -25.5t61.5 -51q60 -69 60 -164q0 -71 -33.5 -128t-91.5 -87q-70 -36 -124.5 -45.5t-146.5 -9.5h-276zM289 838v-267h69
q32 0 60.5 6.5t56 21.5t44 45.5t16.5 72.5q0 35 -12.5 59t-28.5 36t-44.5 18t-45.5 7t-46 1h-69zM289 428v-276h112q68 0 99 5.5t59 22.5q25 14 41 46.5t16 64.5q0 33 -11 57.5t-33 39t-42 23.5t-50.5 12t-45.5 4t-39 1h-106z" />
    <glyph glyph-name="C.sc" horiz-adv-x="1034" 
d="M946 918v-191q-55 33 -89.5 51.5t-107.5 40t-147 21.5q-107 0 -186.5 -51t-117.5 -130.5t-38 -173.5q0 -73 23.5 -132.5t60 -96.5t84.5 -61.5t93.5 -34.5t90.5 -10q57 0 112 12.5t104 36.5t72 37.5t56 35.5v-192q-160 -92 -356 -92q-102 0 -189 30.5t-146.5 80.5
t-101.5 116t-61.5 136t-19.5 141q0 93 33.5 182.5t96 163t163 118.5t223.5 45q97 0 175 -21t173 -62z" />
    <glyph glyph-name="D.sc" horiz-adv-x="1089" 
d="M119 0v989h332q130 0 218 -24t158 -82q87 -69 135 -170.5t48 -214.5q0 -77 -22.5 -147.5t-59.5 -122.5t-75.5 -89t-78.5 -61q-122 -78 -342 -78h-313zM291 831v-671h151q180 0 265 65q64 48 95.5 127.5t31.5 149.5q0 71 -31 141.5t-88 118.5q-47 41 -109.5 55t-167.5 14
h-147z" />
    <glyph glyph-name="E.sc" horiz-adv-x="751" 
d="M291 831v-256h379v-155h-379v-262h403v-158h-573v989h561v-158h-391z" />
    <glyph glyph-name="F.sc" horiz-adv-x="708" 
d="M291 831v-229h360v-158h-360v-444h-170v989h530v-158h-360z" />
    <glyph glyph-name="G.sc" horiz-adv-x="1077" 
d="M969 504v-432q-184 -84 -359 -84q-107 0 -196 30t-148.5 80t-101 115.5t-60 134.5t-18.5 139q0 99 36 191t100.5 164t164.5 115.5t219 43.5q65 0 130.5 -14t107.5 -30t106 -44v-182q-35 21 -57.5 33t-72 34.5t-104.5 34t-112 11.5q-137 0 -239.5 -96t-102.5 -254
q0 -164 103 -257.5t249 -93.5q75 0 185 37v168h-178v156h348z" />
    <glyph glyph-name="H.sc" horiz-adv-x="1060" 
d="M942 989v-989h-170v418h-483v-418h-170v989h170v-416h483v416h170z" />
    <glyph glyph-name="I.sc" horiz-adv-x="411" 
d="M291 989v-989h-170v989h170z" />
    <glyph glyph-name="J.sc" horiz-adv-x="411" 
d="M291 989v-958q0 -161 -41 -232q-32 -61 -87 -92t-116 -31q-17 0 -92 13l-27 164q80 -11 86 -11q30 0 50.5 10t31.5 24.5t16.5 44t7 55.5t1.5 71v942h170z" />
    <glyph glyph-name="K.sc" horiz-adv-x="962" 
d="M868 989l-405 -459l508 -530h-236l-444 457v-457h-170v989h170v-418l362 418h215z" />
    <glyph glyph-name="L.sc" horiz-adv-x="737" 
d="M289 989v-831h418v-158h-588v989h170z" />
    <glyph glyph-name="M.sc" horiz-adv-x="1208" 
d="M256 989l348 -440l348 440h140v-989h-170v676l-299 -375h-37l-299 375v-676h-170v989h139z" />
    <glyph glyph-name="N.sc" horiz-adv-x="1126" 
d="M1012 989v-989h-150l-575 700v-700h-172v989h143l584 -706v706h170z" />
    <glyph glyph-name="O.sc" horiz-adv-x="1189" 
d="M78 492q0 102 36.5 194.5t102 162t163 111t212.5 41.5q154 0 274.5 -71t183 -185.5t62.5 -248.5q0 -216 -147 -362t-379 -146q-219 0 -363.5 145.5t-144.5 358.5zM260 492q0 -154 98.5 -248t235.5 -94q138 0 237 95t99 253q0 138 -91.5 240t-242.5 102q-81 0 -146.5 -30
t-106 -80t-62 -111t-21.5 -127z" />
    <glyph glyph-name="P.sc" horiz-adv-x="768" 
d="M117 989h268q115 0 174.5 -20t97.5 -60q80 -83 80 -209q0 -58 -21 -113.5t-63 -90.5q-55 -45 -112.5 -63.5t-159.5 -18.5h-94v-414h-170v989zM375 838h-88v-273h98q28 0 46 1t46 9t44.5 21.5t29 41.5t12.5 67q0 38 -13 64.5t-29.5 39.5t-46.5 20t-48.5 8t-50.5 1z" />
    <glyph glyph-name="Q.sc" horiz-adv-x="1189" 
d="M1075 -94l-129 -131q-143 31 -229.5 76t-216.5 149q-52 13 -90.5 25.5t-101 49.5t-109.5 89q-121 138 -121 332q0 138 63 252.5t182.5 183.5t270.5 69q117 0 216 -41.5t164.5 -111t101.5 -160.5t36 -190q0 -96 -33 -185.5t-94 -158.5q-38 -43 -85 -75t-75.5 -45
t-83.5 -34q40 -23 69.5 -37t101.5 -32t163 -25zM594 840q-80 0 -145.5 -29.5t-106 -79t-62.5 -110.5t-22 -127q0 -155 98.5 -249.5t237.5 -94.5q146 0 242 98.5t96 245.5q0 60 -19 118t-57.5 110.5t-106.5 85t-155 32.5z" />
    <glyph glyph-name="R.sc" horiz-adv-x="890" 
d="M115 989h233q365 0 365 -282q0 -193 -166 -252q55 -49 85.5 -85.5t86.5 -127.5q54 -89 86.5 -138t45.5 -65t34 -39h-205q-48 93 -176 281q-83 122 -168 122h-49v-403h-172v989zM330 838h-43v-291h57q39 0 59 1t46.5 8t42.5 22q49 42 49 116q0 36 -11 62.5t-29 42
t-46.5 24.5t-57 12t-67.5 3z" />
    <glyph glyph-name="S.sc" horiz-adv-x="694" 
d="M596 938v-184q-40 28 -63 42.5t-72 31t-99 16.5q-61 0 -95 -27.5t-34 -66.5q0 -50 39.5 -84.5t182.5 -120.5q178 -107 178 -281q0 -122 -80 -199t-207 -77q-145 0 -270 86v209q33 -33 51 -49t54.5 -42t76.5 -37.5t86 -11.5q51 0 89 30.5t38 76.5q0 34 -22.5 67.5
t-42 49.5t-48.5 36q-51 31 -78 48t-63 42t-53.5 41.5t-38.5 40.5t-29.5 46t-15 50t-6.5 60q0 114 78 192t215 78q120 0 229 -63z" />
    <glyph glyph-name="T.sc" horiz-adv-x="892" 
d="M852 989v-149h-320v-840h-170v840h-321v149h811z" />
    <glyph glyph-name="U.sc" horiz-adv-x="1034" 
d="M934 989v-559q0 -132 -26.5 -207t-86.5 -129q-119 -106 -299 -106q-88 0 -176 27t-141 83q-58 63 -81.5 133t-23.5 199v559h170v-559q0 -91 11 -134t43 -77q70 -76 192 -76q135 0 195 76q33 41 43 81.5t10 129.5v559h170z" />
    <glyph glyph-name="V.sc" horiz-adv-x="894" 
d="M422 -6l-414 995h187l251 -629l254 629h185l-410 -995h-53z" />
    <glyph glyph-name="W.sc" horiz-adv-x="1519" 
d="M1038 -6l-278 717l-279 -717h-55l-412 995h191l244 -588l243 588h137l242 -588l244 588h190l-411 -995h-56z" />
    <glyph glyph-name="X.sc" horiz-adv-x="1044" 
d="M416 510l-377 479h211l270 -344l273 344h208l-374 -479l401 -510h-211l-295 375l-295 -375h-211z" />
    <glyph glyph-name="Y.sc" horiz-adv-x="913" 
d="M903 989l-360 -545v-444h-174v444l-359 545h201l246 -379l245 379h201z" />
    <glyph glyph-name="Z.sc" horiz-adv-x="962" 
d="M932 989l-586 -833h569v-156h-890l587 834h-534v155h854z" />
    </font>
</defs>
</svg>
